<svg id="Layer_1" data-name="Layer 1" xmlns="http://www.w3.org/2000/svg" viewBox="0 0 665 610"><defs><style>.cls-1{fill:#a5a4a4;stroke:#a5a3a3;}.cls-1,.cls-2,.cls-3,.cls-4,.cls-5,.cls-6,.cls-8{stroke-miterlimit:10;}.cls-2,.cls-7{fill:#6e6e6d;}.cls-2,.cls-5,.cls-8{stroke:#6f6e6d;}.cls-3{fill:#fff;stroke:#1d1d1b;}.cls-4{fill:#555454;stroke:#555454;}.cls-10,.cls-5{fill:#dbdbdb;}.cls-6{fill:#424242;stroke:#424242;}.cls-8{fill:none;}.cls-9{opacity:0.3;}</style></defs><rect class="cls-1" x="26.24124" y="10.2836" width="630" height="370" rx="19.39599"/><path class="cls-2" d="M491.361,28.58533H84.68763c-17.94339,0-32.47231,13.19486-32.47231,29.45692V331.2928c0,16.262,14.52892,29.45692,32.47231,29.45692H491.361c17.92664,0,32.47221-13.19487,32.47221-29.45692V58.04225C523.83322,41.78019,509.28765,28.58533,491.361,28.58533Zm23.216,297.302c0,16.26206-14.54557,29.45693-32.47231,29.45693H93.70959c-17.92674,0-32.47231-13.19487-32.47231-29.45693V65.51274c0-16.26206,14.54557-29.45693,32.47231-29.45693h388.3951c17.92674,0,32.47231,13.19487,32.47231,29.45693Z"/><path class="cls-3" d="M514.577,65.51274V325.88731c0,16.26206-14.54557,29.45693-32.47231,29.45693H93.70959c-17.92674,0-32.47231-13.19487-32.47231-29.45693V65.51274c0-16.26206,14.54557-29.45693,32.47231-29.45693h388.3951C500.03143,36.05581,514.577,49.25068,514.577,65.51274Z"/><ellipse class="cls-4" cx="590.58994" cy="70.13891" rx="44.57656" ry="40.43717"/><ellipse class="cls-4" cx="592.34324" cy="319.46828" rx="44.57656" ry="40.43717"/><ellipse class="cls-4" cx="590.66941" cy="193.44138" rx="44.57656" ry="40.43717"/><path class="cls-5" d="M514.577,65.51274V325.88731c0,16.26206-14.54557,29.45693-32.47231,29.45693H93.70959c-17.92674,0-32.47231-13.19487-32.47231-29.45693V65.51274c0-16.26206,14.54557-29.45693,32.47231-29.45693h388.3951C500.03143,36.05581,514.577,49.25068,514.577,65.51274Z"/><rect class="cls-6" x="62.72945" y="211.66214" width="450.17472" height="14.70032"/><path class="cls-7" d="M489.2674,368.89485H72.55839c-18.3863,0-34.57239,9.13213-36.173,20.38706L9.49011,578.39789c-1.60063,11.25493,12.23308,20.50345,30.92208,20.6472l423.56933,3.25785c18.67154.14361,34.80413-9.02208,36.01526-20.462l20.35045-192.224C521.55835,378.17706,507.63652,368.89485,489.2674,368.89485ZM490.77485,577.972c-1.21877,11.43627-17.35357,20.60091-36.02008,20.45963L50.32953,595.37083C31.663,595.22956,17.8098,585.97992,19.403,574.72146L44.9116,394.46025c1.59317-11.25847,17.7959-20.39085,36.17173-20.38762l398.12723.07c18.37582.00323,32.297,9.28512,31.0782,20.72139Z"/><path class="cls-8" d="M489.2674,368.89485H72.55839c-18.3863,0-34.57239,9.13213-36.173,20.38706L9.49011,578.39789c-1.60063,11.25493,12.23308,20.50345,30.92208,20.6472l423.56933,3.25785c18.67154.14361,34.80413-9.02208,36.01526-20.462l20.35045-192.224C521.55835,378.17706,507.63652,368.89485,489.2674,368.89485ZM490.77485,577.972c-1.21877,11.43627-17.35357,20.60091-36.02008,20.45963L50.32953,595.37083C31.663,595.22956,17.8098,585.97992,19.403,574.72146L44.9116,394.46025c1.59317-11.25847,17.7959-20.39085,36.17173-20.38762l398.12723.07c18.37582.00323,32.297,9.28512,31.0782,20.72139Z"/><g class="cls-9"><path class="cls-10" d="M510.19046,396.84767,490.7988,580.01379c-1.21113,11.4399-17.34373,20.60559-36.01516,20.462l-404.53187-3.1114c-18.67143-.14361-32.52258-9.39227-30.92194-20.6472L44.95794,396.51262c1.60064-11.25493,17.80391-20.38706,36.17293-20.38706H479.11075C497.47977,376.12556,511.40159,385.40777,510.19046,396.84767Z"/><path class="cls-8" d="M510.19046,396.84767,490.7988,580.01379c-1.21113,11.4399-17.34373,20.60559-36.01516,20.462l-404.53187-3.1114c-18.67143-.14361-32.52258-9.39227-30.92194-20.6472L44.95794,396.51262c1.60064-11.25493,17.80391-20.38706,36.17293-20.38706H479.11075C497.47977,376.12556,511.40159,385.40777,510.19046,396.84767Z"/></g></svg>
