<svg id="Layer_1" data-name="Layer 1" xmlns="http://www.w3.org/2000/svg" xmlns:xlink="http://www.w3.org/1999/xlink" width="410" height="410" viewBox="0 0 410 410"><defs><style>.cls-1{fill:#7e1143;}.cls-2{fill:#cc1e84;}.cls-3{fill:#af126a;}.cls-4{fill:#fff;}.cls-5{fill:#8f1e77;}.cls-6,.cls-7{fill:#f4b401;}.cls-7{stroke:#f39200;stroke-miterlimit:10;stroke-width:2px;}.cls-8{fill:url(#linear-gradient);}</style><linearGradient id="linear-gradient" x1="198.71" y1="51.92" x2="276.95" y2="51.92" gradientUnits="userSpaceOnUse"><stop offset="0" stop-color="#50124b" stop-opacity="0.98"/><stop offset="1" stop-color="#ea4893" stop-opacity="0.7"/></linearGradient></defs><path class="cls-1" d="M400.11,317.9C364.57,426.77,85.68,434.53,45.82,326.77,18,251.42,88.62,70,216.29,64.83a134.25,134.25,0,0,1,49.27,7.23l1.1,1.12-6.46,2.11L273,83.22l8.18,5.06.15,0a66.06,66.06,0,0,0,8.38-3.66c.2-.11.78-.42,1.52-.84C374.84,131.51,419.94,257.13,400.11,317.9Z"/><path class="cls-2" d="M205.49,66.07c-31.92,1.28-60.28,13.59-84.42,32.5C48.64,155.3,14.11,271.49,35,328c39.86,107.76,318.75,100,354.29-8.88C414.45,242.09,335.23,60.84,205.49,66.07ZM235,196.3a45.73,45.73,0,0,0,2.93,3.61c-1.75-.11-3.48-.16-5.17-.14C233.53,198.65,234.28,197.49,235,196.3Z"/><path class="cls-1" d="M237.91,199.91c-1.75-.11-3.48-.16-5.17-.14.79-1.12,1.54-2.28,2.24-3.47A45.73,45.73,0,0,0,237.91,199.91Z"/><path class="cls-1" d="M315.44,182.73c-5.4,13-18.72,24.92-35,27.45a41.38,41.38,0,0,1-15.88-.61A43.28,43.28,0,0,1,239.8,193a46.42,46.42,0,0,1-8.92-29.1,44.67,44.67,0,0,1,22.66-36.67c14.36-8.06,32.49-7.59,45.75,1.34,12,8.07,15.85,20.27,17,24.22C317.35,156.15,321.07,169.15,315.44,182.73Z"/><path class="cls-1" d="M184.66,68.42A142.73,142.73,0,0,0,168.36,58c-18.52-10.14-32-12.12-56-18.35C108.82,38.71,87.14,33,64.7,25.25,24.22,11.21,17.84,3,12.13,6.62-7.53,19.13,37.34,136.09,72,135.63c2,0,3.58-.52,8.68-2.77,45-19.82,59.89-46.56,100.51-63.07C182.88,69.1,184.24,68.58,184.66,68.42Z"/><path class="cls-3" d="M179.1,70.66q-4.72,2-9.85,4.61-3.15,1.62-6,3.27l-102.82-32A428.12,428.12,0,0,1,18.8,17.3c-.91-.73-3.54-2.85-6.19-2.19-4.34,1.1-6.09,9-6.88,15.11-.7-9.29.63-16.12,4.62-18.66,5.71-3.63,12.1,4.59,52.57,18.63C85.36,38,107.05,43.65,110.6,44.58c23,6,34.18,8.43,45.13,13.05,5.6,2.37,10.85,5.3,10.85,5.3A132.55,132.55,0,0,1,179.1,70.66Z"/><path class="cls-2" d="M167.57,82.3c-37.82,23.48-68.16,42.07-88.67,54.91A16.42,16.42,0,0,1,70.21,140C42.59,140.34,8.47,66.1,5.73,29.62c.79-6.15,2.54-14,6.88-15.1,2.65-.67,5.28,1.46,6.19,2.18A428.34,428.34,0,0,0,60.42,46C127.22,87,167.57,82.3,167.57,82.3Z"/><circle class="cls-4" cx="214.03" cy="166.77" r="8.2"/><circle class="cls-4" cx="285.26" cy="164.05" r="8.2"/><path class="cls-1" d="M344,144.32c6.53-.63,15.66-2.55,24-8.69,13.15-9.69,14-19.39,23.52-57.37,13.92-55.35,13.71-61.5,10-65.43-7.86-8.4-26-.63-43.91,7-4.61,2-19.16,8.49-47,30.24-9.9,7.74-23.11,18.67-38.05,33"/><path class="cls-3" d="M397.8,29.69c.64-2.8,2-10.53-2.32-14.73-3.11-3-8.39-3.49-17.63-1.08-38,9.9-58.91,39-61.71,43.13l-48.4,15.82c-.72-.27-1.45-.52-2.18-.77l-.24-.25a499.19,499.19,0,0,1,40.09-30.45c29.18-19.93,44.12-25.5,48.85-27.17,18.37-6.52,37-13.12,44.26-4.22C400.57,12.47,401.33,15.69,397.8,29.69Z"/><path class="cls-2" d="M397.8,29.69l-.17.7c-2.37,9.27-6.54,23.12-13.31,44.23-12.13,37.85-16.39,48.43-27.14,55.75-10.09,6.87-20.91,7.47-28,7L281.32,88.23l-14.66-15L316.14,57c2.8-4.12,23.75-33.23,61.71-43.13,9.24-2.41,14.52-2,17.63,1.08C399.78,19.16,398.44,26.89,397.8,29.69Z"/><path class="cls-3" d="M164.68,77.66c-1.36.82-2.78,1.74-4.24,2.78-1.06.75-2,1.49-3,2.23-5.88-.54-12-1.39-18.36-2.6C105.83,73.68,79.53,59.42,60.7,46.14Z"/><polygon class="cls-3" points="277.39 79.96 272.99 83.22 260.2 75.29 264.88 71.83 269.06 68.73 271.25 71.68 277.39 79.96"/><path class="cls-1" d="M291.22,83.73c-.74.42-1.32.73-1.52.84a66.06,66.06,0,0,1-8.38,3.66l-.15,0L273,83.22,260.2,75.29l6.46-2.11,1.08-.35A149.25,149.25,0,0,1,291.22,83.73Z"/><path class="cls-3" d="M316.14,57l-.32.49c-4.12,6.41-9,15.73-20.27,23.51-1.47,1-2.93,1.93-4.33,2.72a149.25,149.25,0,0,0-23.48-10.9l3.51-1.15Z"/><path class="cls-2" d="M254.2,93.78c-.51-10.21-10.74-16.89-14-19-5.76-3.76-11.51-5-23-7.35A55.46,55.46,0,0,0,205,66.23c-4.59.06-6.89.08-7.28.79-2.94,5.31,44.54,43.15,54.45,35C254.52,100.08,254.31,96,254.2,93.78Z"/><path class="cls-2" d="M279.05,98.9c3.22,0,3.22-5,0-5s-3.22,5,0,5Z"/><path class="cls-2" d="M279.26,97.13c3.22,0,3.22-5,0-5s-3.22,5,0,5Z"/><path class="cls-2" d="M279.57,96.6c3.22,0,3.23-5,0-5s-3.22,5,0,5Z"/><path class="cls-2" d="M284.77,93.61c1.3,1.41,3.15,2.21,4.5,3.58A11.36,11.36,0,0,0,291.12,99"/><path class="cls-2" d="M335.3,138a3.29,3.29,0,0,0,1.49,1.81l-1.15-2.29a30.3,30.3,0,0,1,4.18,4.79c.3.43.59.87.88,1.31a17,17,0,0,1,2.14,3.9"/><path class="cls-2" d="M282.3,88.05a13.39,13.39,0,0,0-2.93.74,2.5,2.5,0,0,0,0,4.82,8.45,8.45,0,0,0,1.33.26l.72.09s.51.08.3,0,.37.09.42.11a1,1,0,1,0,.14,0,11.27,11.27,0,0,1,1.06.62c1.45.89,2.93,1.75,4.33,2.72,0,0,.34.25.15.1l.42.36c.25.23.49.47.73.72.45.46.87.95,1.33,1.41a11,11,0,0,0,1.89,1.51,7.15,7.15,0,0,0,1.19.55c.55.21-.25-.3-.3-.29s-.09-.1,0,0,.1.2.14.3a2.51,2.51,0,0,0,3.42.9,2.57,2.57,0,0,0,.9-3.42,4,4,0,0,0-2.48-2.2c-.41-.15.43.27-.13-.07l-.38-.23c-.55-.34.15.18-.11-.08l-.42-.37a37,37,0,0,0-3.59-3.37c-1.44-1-3-1.94-4.55-2.88a9.31,9.31,0,0,0-2.63-1.24,16,16,0,0,0-1.69-.25c-.14,0-.37,0-.1,0a6.3,6.3,0,0,1-.75-.18v4.82a14.3,14.3,0,0,1,2.93-.74,2.49,2.49,0,0,0,1.75-3.07,2.58,2.58,0,0,0-3.07-1.75Z"/><path class="cls-2" d="M332.88,139.21a29.93,29.93,0,0,1,3.35,3.84l1.64,2c.06.07.27.34,0,0s0,0,0,0,.25.33.36.51a7.2,7.2,0,0,1,.6,1.09l-.25-.6.05.13a2.72,2.72,0,0,0,1.15,1.49,2.56,2.56,0,0,0,1.93.26,2.53,2.53,0,0,0,1.49-1.15,2.43,2.43,0,0,0,.25-1.93,10.76,10.76,0,0,0-1.47-2.6c-.67-.88-1.37-1.73-2.06-2.59a31.27,31.27,0,0,0-3.55-4.08,2.64,2.64,0,0,0-1.77-.73,2.5,2.5,0,0,0-1.76,4.27Z"/><path class="cls-1" d="M240.6,190.59c-.41.81-.85,1.6-1.3,2.38-.72,1.22-1.48,2.41-2.29,3.56-10.24,14.45-28.24,23.09-46.26,20.33a43.36,43.36,0,0,1-5.94-1.33c-22-6.55-33.6-28.53-33.37-47.88.3-24.13,19-46.85,42-49.26,19.76-2.07,34.1,11.68,36.85,14.46a51.4,51.4,0,0,1,6.72,8.39C245.89,154.91,249.22,173.67,240.6,190.59Z"/><path class="cls-2" d="M334.3,138.67c-.45-.58,0,0,.11.15l.39.54.74,1.11c.48.74.95,1.5,1.42,2.25s1,1.49,1.47,2.22c.24.34.5.67.74,1,.06.08.11.16.16.24s.1.16-.05-.19c0,.1.06.2.08.3,0-.41-.06-.48-.05-.2a2.5,2.5,0,0,0,5,0,5,5,0,0,0-.56-2.24,8.48,8.48,0,0,0-.76-1.12c-.57-.78-1.1-1.6-1.62-2.42a61,61,0,0,0-3.54-5.2,2.47,2.47,0,0,0-1.76-.73,2.49,2.49,0,0,0-2.5,2.5,2.92,2.92,0,0,0,.73,1.77Z"/><path class="cls-5" d="M236.25,194c-.41.79-.83,1.57-1.27,2.33-.7,1.19-1.45,2.35-2.24,3.47-10,14.12-27.58,22.55-45.17,19.86a42.47,42.47,0,0,1-5.8-1.3c-21.53-6.4-32.82-27.86-32.59-46.76.29-23.56,18.51-45.75,41-48.1,19.3-2,33.3,11.41,36,14.12a50.45,50.45,0,0,1,6.56,8.19C241.41,159.14,244.66,177.45,236.25,194Z"/><path class="cls-5" d="M310.61,186c-5.4,13-18.72,24.92-34.95,27.45a41.43,41.43,0,0,1-15.89-.61,42.25,42.25,0,0,1-21.86-13A45.73,45.73,0,0,1,235,196.3a46.43,46.43,0,0,1-8.93-29.1,44.73,44.73,0,0,1,22.66-36.67c14.36-8.06,32.5-7.59,45.75,1.34,12,8.07,15.85,20.27,17,24.22C312.52,159.46,316.24,172.46,310.61,186Z"/><circle class="cls-4" cx="267.61" cy="170.38" r="29.39"/><circle cx="274.26" cy="170.97" r="23.82"/><circle class="cls-4" cx="197.26" cy="172.14" r="29.39"/><circle cx="203.92" cy="172.46" r="23.82"/><circle class="cls-4" cx="209.59" cy="181.6" r="9.45"/><circle class="cls-4" cx="277.39" cy="180.48" r="9.45"/><path class="cls-6" d="M237.64,264.29c-27,1.42-54.51-22.56-51.57-40.11a15.9,15.9,0,0,1,1.5-4.55c6.12-12.18,27.32-18.92,42.2-19.76,1-.06,2-.09,3-.1,1.69,0,3.42,0,5.17.14,13.8.85,29,5.58,37.75,13.58,3.77,3.47,6.3,7.54,7,12.2C285,242.92,261,263.07,237.64,264.29Z"/><path class="cls-7" d="M185.94,230.73a114.07,114.07,0,0,0,15.94,6.19,101.2,101.2,0,0,0,39.72,4.54,80.59,80.59,0,0,0,27.5-6.9,76.7,76.7,0,0,0,13.6-8"/><polygon class="cls-1" points="267.74 72.83 265.04 71.88 264.01 74.05 267.74 72.83"/><polygon class="cls-1" points="265.04 71.88 264.01 74.05 260.2 75.29 264.88 71.83 265.04 71.88"/><path class="cls-8" d="M252.79,98.57c22.4-43.51,26-56.22,23.48-57.8s-10.7,7.8-13.57,5.7c-3.62-2.65,5.94-20.32,3.56-21.73s-11.7,13.56-14.85,12.07c-4.14-2,6-30.66,3.69-31.53-2.43-.92-14.72,31.72-22.25,30.15-4.64-1-5.59-14.52-7.4-14.3-2.18.27.54,19.72-6,22.46-4,1.66-9.08-3.83-11.66-1.63-2.3,1.95.68,7.16-2.26,9.91-1.92,1.79-4.34.63-5.27,2.25-1.5,2.64,3.59,7.9,2.64,8.79-.64.58-3.05-1.56-3.89-.88s.12,2.76.89,4.47c3-.55,21.61-3.55,37.48,9A46.36,46.36,0,0,1,252.79,98.57Z"/></svg>
