<svg id="Layer_1" data-name="Layer 1" xmlns="http://www.w3.org/2000/svg" xmlns:xlink="http://www.w3.org/1999/xlink" width="520" height="190" viewBox="0 0 520 190"><defs><style>.cls-1{fill:#202f59;}.cls-2{fill:#223b7d;}.cls-3{clip-path:url(#clip-path);}.cls-4{clip-path:url(#clip-path-2);}.cls-5{fill:#671e0f;}.cls-6{fill:#7a250f;}.cls-7{fill:#914d15;}.cls-8{fill:#995815;}.cls-9{fill:#683d13;}.cls-10{fill:#7c4912;}</style><clipPath id="clip-path"><path class="cls-1" d="M16.73,48.9c-4,7-3.44,16.82-2.42,36.5.65,12.47,1.36,26,6.73,42.08,2.17,6.5,9.52,30.43,25.62,43.81,24.75,20.57,53.6,10.13,138.84,6.61,27.73-1.15,47.8-1,70.25-.83,121,.91,151.24,1.65,151.24,1.65s34,.84,73.56-14.05a43.17,43.17,0,0,0,12.51-6.86c7.26-5.82,15.94-16.92,19.16-49.35,3.61-36.36,5.49-55.22-6.52-69.75-21.57-26.11-71.32-18.08-71.44-17s37.79,2,38.85,10.74c.89,7.37-26.36,16.33-35.93,19.43C382,69.7,338.28,67.34,272.28,68c-70.74.68-103.23,4.19-165.29-3.31-17.22-2.08-61.9-6.43-62.81-17.35-.35-4.27,6-8.68,9.6-11.14C67.13,27,82.16,27.94,82.2,28.31,82.27,29,31,23.8,16.73,48.9Z"/></clipPath><clipPath id="clip-path-2"><path class="cls-2" d="M7.62,49.71c-3.95,7-3.44,16.82-2.42,36.5.65,12.48,1.36,26,6.73,42.09,2.17,6.49,9.52,30.42,25.62,43.8,24.75,20.57,53.6,10.13,138.85,6.61,27.73-1.14,47.8-1,70.24-.83,121,.91,151.24,1.66,151.24,1.66s34,.84,73.56-14A43.36,43.36,0,0,0,484,158.62c7.26-5.82,15.95-16.92,19.17-49.34,3.61-36.37,5.48-55.23-6.52-69.75-21.58-26.12-71.33-18.09-71.44-17s37.78,2,38.84,10.75c.89,7.37-26.36,16.33-35.93,19.42-55.19,17.83-98.89,15.48-164.9,16.11-70.74.69-103.23,4.19-165.29-3.3C80.66,63.41,36,59.05,35.07,48.13c-.35-4.27,6-8.68,9.6-11.14C58,27.78,73.05,28.75,73.09,29.12,73.17,29.81,21.85,24.62,7.62,49.71Z"/></clipPath></defs><path class="cls-1" d="M16.73,48.9c-4,7-3.44,16.82-2.42,36.5.65,12.47,1.36,26,6.73,42.08,2.17,6.5,9.52,30.43,25.62,43.81,24.75,20.57,53.6,10.13,138.84,6.61,27.73-1.15,47.8-1,70.25-.83,121,.91,151.24,1.65,151.24,1.65s34,.84,73.56-14.05a43.17,43.17,0,0,0,12.51-6.86c7.26-5.82,15.94-16.92,19.16-49.35,3.61-36.36,5.49-55.22-6.52-69.75-21.57-26.11-71.32-18.08-71.44-17s37.79,2,38.85,10.74c.89,7.37-26.36,16.33-35.93,19.43C382,69.7,338.28,67.34,272.28,68c-70.74.68-103.23,4.19-165.29-3.31-17.22-2.08-61.9-6.43-62.81-17.35-.35-4.27,6-8.68,9.6-11.14C67.13,27,82.16,27.94,82.2,28.31,82.27,29,31,23.8,16.73,48.9Z"/><g class="cls-3"><rect class="cls-1" x="-10.17" y="3.69" width="544.93" height="188.17"/><path class="cls-1" d="M485.91,99.33a220.69,220.69,0,0,1-17.4,86.2q-2.1,5-4.43,9.8v-2.47H64.88v2.47q-2.32-4.83-4.43-9.8a222.19,222.19,0,0,1,0-172.39q2.1-5,4.43-9.81,1.17-2.41,2.39-4.8V2.69H461.69V-1.47q1.21,2.38,2.39,4.8,2.32,4.84,4.43,9.81A220.65,220.65,0,0,1,485.91,99.33Z"/><path class="cls-1" d="M485.05,99.33a219.91,219.91,0,0,1-17.34,85.86c-1.39,3.3-2.87,6.55-4.41,9.77v-2.1H65.67V195q-2.32-4.83-4.42-9.77a221.33,221.33,0,0,1,0-171.71q2.1-5,4.42-9.77c.77-1.61,1.56-3.2,2.38-4.79V2.69H460.92V-1.08c.81,1.59,1.6,3.18,2.38,4.79,1.54,3.21,3,6.47,4.41,9.77A219.9,219.9,0,0,1,485.05,99.33Z"/><path class="cls-1" d="M484.18,99.33a218.94,218.94,0,0,1-17.27,85.52q-2.09,4.92-4.4,9.73v-1.72H66.45v1.72q-2.31-4.8-4.4-9.73a220.47,220.47,0,0,1,0-171q2.08-4.94,4.4-9.73,1.15-2.4,2.37-4.77V2.69H460.14V-.68q1.22,2.37,2.37,4.77,2.33,4.8,4.4,9.73A218.93,218.93,0,0,1,484.18,99.33Z"/><path class="cls-1" d="M483.31,99.33a218,218,0,0,1-17.2,85.18c-1.38,3.27-2.84,6.51-4.38,9.69v-1.34H67.23v1.34c-1.53-3.18-3-6.42-4.38-9.69a219.49,219.49,0,0,1,0-170.35c1.38-3.28,2.85-6.51,4.38-9.7C68,2.87,68.79,1.28,69.59-.29v3H459.37v-3c.81,1.57,1.59,3.16,2.36,4.75q2.31,4.79,4.38,9.7A218,218,0,0,1,483.31,99.33Z"/><path class="cls-1" d="M482.44,99.33a217.22,217.22,0,0,1-17.13,84.84q-2.07,4.89-4.36,9.66v-1H68v1q-2.31-4.77-4.37-9.66a218.66,218.66,0,0,1,0-169.68Q65.72,9.6,68,4.84,69.16,2.46,70.37.11V2.69H458.6V.11q1.2,2.34,2.35,4.73,2.3,4.77,4.36,9.65A217.29,217.29,0,0,1,482.44,99.33Z"/><path class="cls-1" d="M481.57,99.33a216.37,216.37,0,0,1-17.06,84.51q-2.06,4.86-4.34,9.61v-.59H68.8v.59q-2.3-4.74-4.35-9.61a217.82,217.82,0,0,1,0-169q4.13-9.73,9.14-19V2.69H455.37V-4.14q5,9.23,9.14,19A216.32,216.32,0,0,1,481.57,99.33Z"/><path class="cls-1" d="M480.7,99.33a215.58,215.58,0,0,1-17,84.17q-2.06,4.84-4.33,9.58v-.22H69.58v.22q-2.28-4.74-4.33-9.58a217,217,0,0,1,0-168.33q4.11-9.71,9.11-18.9V2.69H454.61V-3.73q5,9.2,9.1,18.9A215.57,215.57,0,0,1,480.7,99.33Z"/><path class="cls-1" d="M479.84,99.33a214.66,214.66,0,0,1-16.93,83.83q-2,4.83-4.31,9.54-1.14,2.36-2.32,4.67v-4.51H72.69v4.51c-.8-1.54-1.57-3.1-2.33-4.67q-2.27-4.71-4.31-9.54a216.1,216.1,0,0,1,0-167.65q4.1-9.66,9.07-18.83v6H453.84v-6q5,9.16,9.07,18.83A214.61,214.61,0,0,1,479.84,99.33Z"/><path class="cls-1" d="M479,99.33a213.69,213.69,0,0,1-16.86,83.49c-1.35,3.21-2.79,6.38-4.29,9.5q-1.14,2.35-2.32,4.66v-4.12h-382V197q-1.18-2.31-2.31-4.66-2.27-4.68-4.3-9.5a215.24,215.24,0,0,1,0-167q4.07-9.63,9-18.75V2.69h377.2V-2.9q4.95,9.12,9,18.75A213.67,213.67,0,0,1,479,99.33Z"/><path class="cls-1" d="M478.1,99.33a212.9,212.9,0,0,1-16.79,83.15q-2,4.8-4.28,9.47c-.75,1.55-1.51,3.1-2.3,4.63v-3.72H74.23v3.72c-.78-1.53-1.55-3.08-2.3-4.63q-2.25-4.68-4.28-9.47a214.29,214.29,0,0,1,0-166.3q4-9.59,9-18.67V2.69H452.32V-2.49q4.94,9.08,9,18.67A213,213,0,0,1,478.1,99.33Z"/><path class="cls-1" d="M477.23,99.33a212.05,212.05,0,0,1-16.72,82.82q-2,4.77-4.26,9.42-1.12,2.33-2.29,4.62v-3.33H75v3.33c-.79-1.53-1.55-3.07-2.3-4.62q-2.23-4.65-4.26-9.42a213.45,213.45,0,0,1,0-165.63q4-9.54,9-18.6V2.69H451.55V-2.08q4.92,9,9,18.6A212,212,0,0,1,477.23,99.33Z"/><path class="cls-1" d="M476.36,99.33a211.26,211.26,0,0,1-16.65,82.48q-2,4.75-4.24,9.38-1.12,2.33-2.29,4.6v-2.93H75.78v2.93q-1.17-2.28-2.29-4.6-2.22-4.62-4.24-9.38a212.59,212.59,0,0,1,0-164.95q4-9.51,8.92-18.52V2.69H450.79V-1.66q4.89,9,8.92,18.52A211.25,211.25,0,0,1,476.36,99.33Z"/><path class="cls-1" d="M475.49,99.33a210.33,210.33,0,0,1-16.58,82.14q-2,4.74-4.22,9.35-1.11,2.3-2.28,4.58v-2.54H76.55v2.54q-1.15-2.28-2.27-4.58-2.22-4.62-4.23-9.35a211.73,211.73,0,0,1,0-164.27q4-9.46,8.89-18.45V2.69H450V-1.25q4.86,9,8.88,18.45A210.28,210.28,0,0,1,475.49,99.33Z"/><path class="cls-1" d="M474.63,99.33a209.36,209.36,0,0,1-16.52,81.8q-4,9.44-8.85,18.37v-6.64H79.7v6.64q-4.85-8.92-8.85-18.37a210.87,210.87,0,0,1,0-163.59q4-9.43,8.85-18.37V2.69H449.26V-.83q4.86,8.93,8.85,18.37A209.35,209.35,0,0,1,474.63,99.33Z"/><path class="cls-1" d="M473.76,99.33a208.57,208.57,0,0,1-16.45,81.46q-4,9.39-8.81,18.3v-6.23h-368v6.23q-4.83-8.9-8.81-18.3a210,210,0,0,1,0-162.92q4-9.39,8.81-18.29V2.69h368V-.42q4.83,8.9,8.81,18.29A208.65,208.65,0,0,1,473.76,99.33Z"/><path class="cls-1" d="M472.89,99.33a207.73,207.73,0,0,1-16.38,81.13q-4,9.34-8.77,18.21v-5.81H81.23v5.81q-4.82-8.85-8.78-18.21a209.08,209.08,0,0,1,0-162.25q4-9.35,8.78-18.22v2.7H447.74V0q4.8,8.87,8.77,18.22A207.72,207.72,0,0,1,472.89,99.33Z"/><path class="cls-1" d="M472,99.33a206.94,206.94,0,0,1-16.31,80.79q-3.93,9.3-8.74,18.14v-5.4H82v5.4q-4.78-8.82-8.74-18.14a208.22,208.22,0,0,1,0-161.57Q77.19,9.24,82,.41V2.69H447V.41q4.8,8.82,8.74,18.14A206.93,206.93,0,0,1,472,99.33Z"/><path class="cls-1" d="M471.15,99.33a206,206,0,0,1-16.24,80.45q-3.92,9.27-8.7,18.07v-5H82.75v5q-4.77-8.79-8.7-18.07a207.36,207.36,0,0,1,0-160.89Q78,9.62,82.75.82V2.69H446.21V.82q4.77,8.79,8.7,18.07A206,206,0,0,1,471.15,99.33Z"/><path class="cls-1" d="M470.28,99.33a205,205,0,0,1-16.17,80.11q-3.9,9.24-8.67,18v-4.57H83.52v4.57q-4.76-8.75-8.67-18a206.5,206.5,0,0,1,0-160.21q3.91-9.24,8.67-18V2.69H445.44V1.24q4.76,8.75,8.67,18A205,205,0,0,1,470.28,99.33Z"/><path class="cls-1" d="M469.42,99.33a204.25,204.25,0,0,1-16.11,79.77q-3.88,9.19-8.63,17.92v-4.16H84.28V197q-4.73-8.72-8.63-17.92a205.67,205.67,0,0,1,0-159.54q3.88-9.19,8.63-17.91v1h360.4v-1q4.74,8.72,8.63,17.91A204.33,204.33,0,0,1,469.42,99.33Z"/><path class="cls-1" d="M468.55,99.33a203.41,203.41,0,0,1-16,79.44q-3.87,9.15-8.59,17.83v-3.74H85.05v3.74q-4.72-8.67-8.6-17.83a204.83,204.83,0,0,1,0-158.87q3.87-9.15,8.6-17.84v.63H443.92V2.06q4.71,8.68,8.59,17.84A203.39,203.39,0,0,1,468.55,99.33Z"/><path class="cls-1" d="M467.68,99.33a202.62,202.62,0,0,1-16,79.1q-3.85,9.1-8.56,17.76v-3.33H85.81v3.33q-4.69-8.64-8.56-17.76a203.85,203.85,0,0,1,0-158.19q3.85-9.12,8.56-17.76v.21H443.15V2.48q4.69,8.64,8.56,17.76A202.6,202.6,0,0,1,467.68,99.33Z"/><path class="cls-1" d="M466.81,99.33a201.68,201.68,0,0,1-15.9,78.76q-3.84,9.07-8.52,17.69v-2.92H86.57v2.92q-4.66-8.61-8.52-17.69a203,203,0,0,1,0-157.51q3.84-9.07,8.52-17.69Q87.74.74,89-1.38V2.69H440V-1.38c.82,1.42,1.61,2.84,2.39,4.27q4.68,8.61,8.52,17.69A201.63,201.63,0,0,1,466.81,99.33Z"/><path class="cls-1" d="M465.94,99.33a200.89,200.89,0,0,1-15.83,78.42q-3.83,9-8.48,17.61v-2.5H87.34v2.5q-4.66-8.56-8.49-17.61a202.13,202.13,0,0,1,0-156.83q3.83-9,8.49-17.61Q88.5,1.16,89.71-.94V2.69H439.25V-.94q1.22,2.1,2.38,4.25,4.65,8.55,8.48,17.61A200.88,200.88,0,0,1,465.94,99.33Z"/><path class="cls-1" d="M465.07,99.33a200,200,0,0,1-15.76,78.08q-3.81,9-8.45,17.54v-2.09H88.1V195q-4.63-8.53-8.45-17.54a201.3,201.3,0,0,1,0-156.16q3.81-9,8.45-17.53,1.16-2.13,2.37-4.23v3.2h348V-.51q1.2,2.1,2.36,4.23,4.63,8.52,8.45,17.53A200,200,0,0,1,465.07,99.33Z"/><path class="cls-1" d="M464.21,99.33a199.08,199.08,0,0,1-15.7,77.75q-3.79,9-8.41,17.45v-1.67H88.86v1.67q-4.6-8.49-8.41-17.45a200.46,200.46,0,0,1,0-155.49q3.8-9,8.41-17.46,2.31-4.24,4.81-8.36V2.69H435.29V-4.23q2.5,4.13,4.81,8.36,4.61,8.49,8.41,17.46A199.07,199.07,0,0,1,464.21,99.33Z"/><path class="cls-1" d="M463.34,99.33a198.29,198.29,0,0,1-15.63,77.41q-3.78,8.91-8.37,17.38v-1.26H89.63v1.26q-4.59-8.46-8.38-17.38a199.6,199.6,0,0,1,0-154.81Q85,13,89.63,4.55q2.3-4.23,4.79-8.33V2.69H434.55V-3.78Q437,.31,439.34,4.55q4.59,8.45,8.37,17.38A198.28,198.28,0,0,1,463.34,99.33Z"/><path class="cls-1" d="M462.47,99.33a197.36,197.36,0,0,1-15.56,77.07q-3.75,8.88-8.34,17.31v-.85H90.39v.85q-4.58-8.42-8.34-17.31a198.62,198.62,0,0,1,0-154.13Q85.82,13.39,90.39,5q2.28-4.2,4.77-8.29v6H433.81v-6Q436.29.75,438.57,5q4.57,8.41,8.34,17.31A197.35,197.35,0,0,1,462.47,99.33Z"/><path class="cls-1" d="M461.6,99.33a196.57,196.57,0,0,1-15.49,76.73q-3.74,8.85-8.3,17.23v-.43H91.15v.43q-4.55-8.37-8.3-17.23a197.76,197.76,0,0,1,0-153.45q3.75-8.85,8.3-17.23,2.28-4.2,4.75-8.26V2.69H433.06V-2.88q2.47,4.06,4.75,8.26,4.54,8.37,8.3,17.23A196.56,196.56,0,0,1,461.6,99.33Z"/><path class="cls-1" d="M460.73,99.33a195.64,195.64,0,0,1-15.42,76.39q-3.72,8.81-8.26,17.16v0H91.92v0q-4.53-8.34-8.27-17.16a196.93,196.93,0,0,1,0-152.78q3.73-8.81,8.27-17.15,2.27-4.17,4.72-8.22V2.69H432.32V-2.43q2.46,4.05,4.73,8.22,4.53,8.34,8.26,17.15A195.68,195.68,0,0,1,460.73,99.33Z"/><path class="cls-1" d="M459.86,99.33a194.76,194.76,0,0,1-15.35,76.06q-3.7,8.76-8.23,17.07c-.75,1.39-1.52,2.76-2.3,4.13v-3.73H95v3.73c-.79-1.37-1.56-2.74-2.31-4.13q-4.52-8.29-8.23-17.07a196.09,196.09,0,0,1,0-152.11q3.72-8.76,8.23-17.08C94.19,3.43,95.75.71,97.39-2V2.69H431.58V-2q2.44,4,4.7,8.18,4.52,8.31,8.23,17.08A194.74,194.74,0,0,1,459.86,99.33Z"/><path class="cls-1" d="M459,99.33a194,194,0,0,1-15.29,75.72q-3.69,8.73-8.19,17c-.75,1.38-1.51,2.75-2.3,4.1v-3.29H95.74v3.29q-1.17-2-2.3-4.1-4.48-8.27-8.19-17a195.23,195.23,0,0,1,0-151.43q3.69-8.73,8.19-17,2.25-4.14,4.69-8.15V2.69h332.7V-1.53q2.44,4,4.69,8.15,4.49,8.27,8.19,17A194,194,0,0,1,459,99.33Z"/><path class="cls-1" d="M458.13,99.33a193,193,0,0,1-15.22,75.38q-3.68,8.68-8.16,16.93-2.24,4.11-4.66,8.11v-6.89H98.87v6.89q-2.43-4-4.66-8.11-4.47-8.23-8.16-16.93A194.37,194.37,0,0,1,86.05,24Q89.73,15.28,94.21,7q2.24-4.11,4.66-8.11V2.69H430.09V-1.08q2.43,4,4.66,8.11,4.49,8.24,8.16,16.93A193,193,0,0,1,458.13,99.33Z"/><path class="cls-1" d="M457.26,99.33a192.25,192.25,0,0,1-15.15,75Q438.45,183,434,191.22q-2.22,4.09-4.64,8.08v-6.44H99.61v6.44q-2.42-4-4.64-8.08-4.45-8.19-8.12-16.85a193.39,193.39,0,0,1,0-150.07Q90.51,15.65,95,7.44q2.23-4.1,4.64-8.07V2.69H429.35V-.63q2.41,4,4.64,8.07,4.45,8.2,8.12,16.86A192.24,192.24,0,0,1,457.26,99.33Z"/><path class="cls-1" d="M456.39,99.33A191.32,191.32,0,0,1,441.31,174q-3.65,8.61-8.08,16.78-2.22,4.08-4.62,8v-6H100.36v6q-2.42-4-4.62-8Q91.3,182.65,87.65,174a192.56,192.56,0,0,1,0-149.4Q91.29,16,95.74,7.86q2.2-4.08,4.62-8V2.69H428.61V-.18q2.4,4,4.62,8,4.42,8.16,8.08,16.77A191.35,191.35,0,0,1,456.39,99.33Z"/><path class="cls-1" d="M455.52,99.33a190.43,190.43,0,0,1-15,74.37q-3.63,8.56-8.05,16.69-2.2,4.06-4.6,8v-5.54H101.1v5.54q-2.4-3.94-4.6-8-4.41-8.12-8-16.69A191.72,191.72,0,0,1,88.45,25q3.63-8.56,8-16.7,2.2-4,4.6-8V2.69H427.86V.27q2.4,3.95,4.6,8,4.43,8.13,8.05,16.7A190.42,190.42,0,0,1,455.52,99.33Z"/><path class="cls-1" d="M454.65,99.33a189.64,189.64,0,0,1-14.94,74q-3.61,8.53-8,16.62-2.19,4.05-4.58,8v-5.08H101.84v5.08q-2.39-3.91-4.58-8-4.4-8.08-8-16.62a190.86,190.86,0,0,1,0-148q3.61-8.53,8-16.62,2.2-4,4.58-8v2H427.12v-2q2.38,3.93,4.58,8,4.4,8.08,8,16.62A189.63,189.63,0,0,1,454.65,99.33Z"/><path class="cls-1" d="M453.78,99.33A188.71,188.71,0,0,1,438.91,173q-3.6,8.49-8,16.55-2.19,4-4.56,7.92v-4.63H102.58v4.63q-2.37-3.9-4.55-7.92-4.38-8.06-8-16.55a190,190,0,0,1,0-147.37q3.6-8.49,8-16.55,2.18-4,4.55-7.93V2.69h323.8V1.17q2.37,3.92,4.56,7.93,4.37,8.06,8,16.55A188.7,188.7,0,0,1,453.78,99.33Z"/><path class="cls-1" d="M452.92,99.33a187.93,187.93,0,0,1-14.81,73.35q-3.58,8.46-7.94,16.47-2.18,4-4.53,7.89v-4.18H103.33V197q-2.37-3.89-4.54-7.89-4.35-8-7.94-16.47A189.14,189.14,0,0,1,90.85,26q3.59-8.46,7.94-16.48,2.17-4,4.54-7.89V2.69H425.64V1.62q2.36,3.89,4.53,7.89,4.35,8,7.94,16.48A187.91,187.91,0,0,1,452.92,99.33Z"/><path class="cls-1" d="M452.05,99.33a187,187,0,0,1-14.74,73q-3.56,8.41-7.9,16.4-2.16,4-4.52,7.85v-3.73H104.07v3.73q-2.35-3.85-4.52-7.85-4.32-8-7.9-16.4a188.19,188.19,0,0,1,0-146q3.57-8.41,7.9-16.39,2.17-4,4.52-7.86v.62H424.89V2.07q2.36,3.87,4.52,7.86,4.33,8,7.9,16.39A187,187,0,0,1,452.05,99.33Z"/><path class="cls-1" d="M451.18,99.33A186.11,186.11,0,0,1,436.51,172q-3.54,8.37-7.86,16.32-2.16,4-4.5,7.81v-3.28H104.81v3.28q-2.34-3.84-4.49-7.81-4.32-8-7.87-16.32a187.35,187.35,0,0,1,0-145.35q3.55-8.37,7.87-16.32,2.15-4,4.49-7.82v.17H424.15V2.52q2.34,3.86,4.5,7.82,4.31,7.94,7.86,16.32A186.1,186.1,0,0,1,451.18,99.33Z"/><path class="cls-1" d="M450.31,99.33a185.36,185.36,0,0,1-14.6,72.34q-3.52,8.34-7.83,16.24-2.14,3.94-4.47,7.78v-2.83H105.55v2.83q-2.33-3.83-4.47-7.78-4.29-7.89-7.82-16.24A186.37,186.37,0,0,1,93.26,27q3.52-8.34,7.82-16.24,2.15-4,4.47-7.79,1.17-1.91,2.38-3.8V2.69H421V-.83q1.2,1.89,2.37,3.8,2.32,3.84,4.47,7.79,4.29,7.89,7.83,16.24A185.31,185.31,0,0,1,450.31,99.33Z"/><path class="cls-1" d="M449.44,99.33a184.39,184.39,0,0,1-14.53,72q-3.51,8.29-7.79,16.17-2.13,3.93-4.45,7.74v-2.38H106.3v2.38q-2.33-3.81-4.46-7.74-4.26-7.86-7.78-16.17a184.75,184.75,0,0,1,17-175.41V2.69H417.85V-4.08A184,184,0,0,1,449.44,99.33Z"/><path class="cls-1" d="M448.57,99.33A183.6,183.6,0,0,1,434.11,171q-3.5,8.26-7.75,16.09-2.13,3.91-4.44,7.71v-1.93H107v1.93q-2.31-3.79-4.43-7.71A177.7,177.7,0,0,1,94.86,171a183.87,183.87,0,0,1,17-174.58V2.69h305.3V-3.59A183.07,183.07,0,0,1,448.57,99.33Z"/><path class="cls-1" d="M447.71,99.33a182.67,182.67,0,0,1-14.4,71.32q-3.48,8.22-7.72,16-2.11,3.9-4.41,7.67v-1.48H107.78v1.48q-2.3-3.78-4.41-7.67-4.23-7.78-7.71-16A183,183,0,0,1,112.55-3.11v5.8H416.41v-5.8a182.25,182.25,0,0,1,31.3,102.44Z"/><path class="cls-1" d="M446.84,99.33a181.79,181.79,0,0,1-14.33,71q-3.47,8.18-7.68,15.94-2.11,3.87-4.39,7.63v-1H108.53v1q-2.3-3.75-4.4-7.63c-2.8-5.17-5.37-10.49-7.67-15.94A182.12,182.12,0,0,1,113.27-2.62V2.69H415.69V-2.62a181.35,181.35,0,0,1,31.15,102Z"/><path class="cls-1" d="M446,99.33A181,181,0,0,1,431.71,170q-3.45,8.15-7.64,15.86c-1.4,2.57-2.86,5.11-4.37,7.6v-.58H109.27v.58c-1.52-2.49-3-5-4.37-7.6q-4.2-7.71-7.64-15.86A181.29,181.29,0,0,1,114-2.14V2.69H415V-2.14A180.54,180.54,0,0,1,446,99.33Z"/><path class="cls-1" d="M445.1,99.33a180.07,180.07,0,0,1-14.19,70.31q-3.44,8.1-7.61,15.79-2.08,3.84-4.35,7.56v-.13H110V193q-2.27-3.72-4.35-7.56-4.17-7.68-7.6-15.79A180.4,180.4,0,0,1,114.71-1.65V2.69H414.25V-1.65a179.63,179.63,0,0,1,30.85,101Z"/><path class="cls-1" d="M444.23,99.33a178.73,178.73,0,0,1-30.7,100.5v-7H115.43v7a179.56,179.56,0,0,1,0-201V2.69h298.1V-1.17a178.83,178.83,0,0,1,30.7,100.5Z"/><path class="cls-1" d="M443.36,99.33a177.92,177.92,0,0,1-30.55,100v-6.49H116.15v6.49a178.65,178.65,0,0,1,0-200V2.69H412.81V-.68a177.83,177.83,0,0,1,30.55,100Z"/><path class="cls-1" d="M442.5,99.33a177,177,0,0,1-30.41,99.53v-6H116.87v6a177.81,177.81,0,0,1,0-199.06V2.69H412.09V-.2A177.1,177.1,0,0,1,442.5,99.33Z"/><path class="cls-1" d="M441.63,99.33a176.2,176.2,0,0,1-30.26,99.05v-5.52H117.59v5.52a176.93,176.93,0,0,1,0-198.09v2.4H411.37V.29a176.2,176.2,0,0,1,30.26,99Z"/><path class="cls-1" d="M440.76,99.33a175.3,175.3,0,0,1-30.11,98.56v-5H118.31v5a176,176,0,0,1,0-197.11V2.69H410.65V.78a175.29,175.29,0,0,1,30.11,98.55Z"/><path class="cls-1" d="M439.89,99.33a174.49,174.49,0,0,1-30,98.08v-4.55H119v4.55A175.67,175.67,0,0,1,102.86,31.06,173.76,173.76,0,0,1,119,1.26V2.69h290.9V1.26a174.49,174.49,0,0,1,30,98.07Z"/><path class="cls-1" d="M439,99.33a173.58,173.58,0,0,1-29.81,97.59v-4.06H119.75v4.06a174.3,174.3,0,0,1,0-195.17v.94H409.21V1.75A173.49,173.49,0,0,1,439,99.33Z"/><path class="cls-1" d="M438.15,99.33a172.68,172.68,0,0,1-29.66,97.11v-3.58h-288v3.58a173.47,173.47,0,0,1,0-194.21v.46h288V2.23a172.68,172.68,0,0,1,29.66,97.1Z"/><path class="cls-1" d="M437.29,99.33A171.86,171.86,0,0,1,407.77,196v-3.09H121.19V196a172.58,172.58,0,0,1,0-193.23Q123.51-.73,126-4.06V2.69H403V-4.06c1.65,2.22,3.26,4.48,4.81,6.78a171.86,171.86,0,0,1,29.52,96.61Z"/><path class="cls-1" d="M436.42,99.33a171,171,0,0,1-29.37,96.13v-2.6H121.91v2.6a171.74,171.74,0,0,1,0-192.26q2.31-3.42,4.79-6.74V2.69H402.26V-3.54q2.48,3.32,4.79,6.74a171.05,171.05,0,0,1,29.37,96.13Z"/><path class="cls-1" d="M435.55,99.33A170.15,170.15,0,0,1,406.33,195v-2.12H122.63V195a170.87,170.87,0,0,1,0-191.29c1.54-2.28,3.13-4.51,4.77-6.71V2.69H401.56V-3c1.65,2.2,3.24,4.43,4.77,6.71a170.15,170.15,0,0,1,29.22,95.64Z"/><path class="cls-1" d="M434.68,99.33a169.24,169.24,0,0,1-29.07,95.16v-1.63H123.35v1.63a170,170,0,0,1,0-190.32q2.3-3.39,4.74-6.67V2.69H400.87V-2.5q2.44,3.29,4.74,6.67a169.24,169.24,0,0,1,29.07,95.16Z"/><path class="cls-1" d="M433.81,99.33A168.34,168.34,0,0,1,404.89,194v-1.15H124.07V194a169.12,169.12,0,0,1,0-189.35c1.52-2.25,3.1-4.47,4.72-6.64V2.69H400.17V-2c1.63,2.17,3.2,4.39,4.72,6.64a168.34,168.34,0,0,1,28.92,94.67Z"/><path class="cls-1" d="M432.94,99.33a167.44,167.44,0,0,1-28.77,94.19v-.66H124.79v.66a168.28,168.28,0,0,1,0-188.38q2.26-3.36,4.7-6.6V2.69h270V-1.46c1.61,2.16,3.18,4.36,4.69,6.6a167.53,167.53,0,0,1,28.77,94.19Z"/><path class="cls-1" d="M432.08,99.33A166.71,166.71,0,0,1,403.45,193v-.18H125.51V193a167.4,167.4,0,0,1,0-187.41c1.51-2.23,3.06-4.42,4.67-6.57V2.69h268.6V-.94q2.42,3.22,4.67,6.57a166.71,166.71,0,0,1,28.63,93.7Z"/><path class="cls-1" d="M431.21,99.33a165.81,165.81,0,0,1-28.48,93.22q-2.24,3.33-4.65,6.54v-6.23H130.88v6.23q-2.4-3.21-4.65-6.54a166.51,166.51,0,0,1,0-186.43q2.25-3.33,4.65-6.54V2.69h267.2V-.42q2.42,3.21,4.65,6.54a165.81,165.81,0,0,1,28.48,93.21Z"/><path class="cls-1" d="M430.34,99.33A165,165,0,0,1,402,192.07q-2.24,3.3-4.62,6.5v-5.71H131.57v5.71q-2.38-3.19-4.62-6.5A165.65,165.65,0,0,1,127,6.6q2.23-3.3,4.62-6.5V2.69H397.39V.1q2.39,3.2,4.62,6.5a164.9,164.9,0,0,1,28.33,92.73Z"/><path class="cls-1" d="M429.47,99.33a164,164,0,0,1-28.18,92.25c-1.48,2.2-3,4.35-4.6,6.47v-5.19H132.27v5.19c-1.58-2.12-3.12-4.27-4.6-6.47a164.76,164.76,0,0,1,0-184.49c1.48-2.2,3-4.35,4.6-6.47V2.69H396.69V.62c1.59,2.12,3.12,4.27,4.6,6.47a164,164,0,0,1,28.18,92.24Z"/><path class="cls-1" d="M428.6,99.33a163.42,163.42,0,0,1-28,91.77c-1.47,2.18-3,4.32-4.57,6.43v-4.67H133v4.67q-2.37-3.17-4.58-6.43a163.93,163.93,0,0,1,0-183.53c1.47-2.18,3-4.33,4.58-6.43V2.69H396V1.14c1.57,2.1,3.1,4.25,4.57,6.43a163.42,163.42,0,0,1,28,91.76Z"/><path class="cls-1" d="M427.73,99.33a162.51,162.51,0,0,1-27.88,91.28c-1.46,2.17-3,4.31-4.55,6.4v-4.15H133.66V197c-1.57-2.09-3.08-4.23-4.55-6.4a163,163,0,0,1,0-182.55c1.47-2.17,3-4.31,4.55-6.4v1H395.3v-1c1.57,2.09,3.09,4.23,4.55,6.4a162.51,162.51,0,0,1,27.88,91.27Z"/><path class="cls-1" d="M426.87,99.33a161.7,161.7,0,0,1-27.74,90.79c-1.46,2.16-3,4.29-4.52,6.37v-3.63H134.36v3.63c-1.56-2.08-3.07-4.21-4.53-6.37a162.21,162.21,0,0,1,0-181.58q4.38-6.48,9.35-12.5V2.69H389.79V-4q4.95,6,9.34,12.5a161.79,161.79,0,0,1,27.74,90.79Z"/><path class="cls-1" d="M426,99.33a160.89,160.89,0,0,1-27.59,90.31q-2.18,3.23-4.5,6.33v-3.11H135.05V196q-2.33-3.1-4.5-6.33A161.3,161.3,0,0,1,130.55,9q4.35-6.45,9.3-12.44v6.1H389.11v-6.1q5,6,9.3,12.44A160.79,160.79,0,0,1,426,99.33Z"/><path class="cls-1" d="M425.13,99.33a159.89,159.89,0,0,1-27.44,89.82q-2.16,3.21-4.48,6.3v-2.59H135.75v2.59c-1.54-2.06-3-4.16-4.48-6.3a160.46,160.46,0,0,1,0-179.64q4.33-6.4,9.25-12.36V2.69H388.44V-2.85q4.92,5.94,9.25,12.36a160,160,0,0,1,27.44,89.82Z"/><path class="cls-1" d="M424.26,99.33A159.08,159.08,0,0,1,397,188.67c-1.43,2.12-2.92,4.21-4.45,6.26v-2.07H136.45v2.07c-1.54-2.05-3-4.14-4.46-6.26A159.58,159.58,0,0,1,132,10q4.31-6.37,9.2-12.3v5H387.77v-5Q392.66,3.63,397,10a159.08,159.08,0,0,1,27.29,89.33Z"/><path class="cls-1" d="M423.39,99.33a158.17,158.17,0,0,1-27.14,88.85c-1.43,2.12-2.9,4.19-4.43,6.23v-1.55H137.14v1.55c-1.52-2-3-4.11-4.43-6.23a158.69,158.69,0,0,1,0-177.69Q137,4.14,141.86-1.75V2.69H387.1V-1.75q4.86,5.9,9.15,12.24a158.17,158.17,0,0,1,27.14,88.84Z"/><path class="cls-1" d="M422.52,99.33a157.37,157.37,0,0,1-27,88.37q-2.13,3.15-4.4,6.19v-1H137.84v1q-2.28-3-4.41-6.19a157.86,157.86,0,0,1,0-176.73q4.26-6.3,9.1-12.17V2.69h243.9V-1.2q4.85,5.87,9.1,12.17a157.37,157.37,0,0,1,27,88.36Z"/><path class="cls-1" d="M421.66,99.33a156.55,156.55,0,0,1-26.85,87.88q-4.23,6.27-9.05,12.1v-6.45H143.2v6.45q-4.8-5.82-9-12.1a156.94,156.94,0,0,1,0-175.75q4.24-6.27,9-12.1V2.69H385.76V-.64q4.82,5.82,9.05,12.1a156.45,156.45,0,0,1,26.85,87.87Z"/><path class="cls-1" d="M420.79,99.33a155.74,155.74,0,0,1-26.7,87.4q-4.21,6.22-9,12v-5.9H143.87v5.9q-4.78-5.79-9-12a156.11,156.11,0,0,1,0-174.79q4.22-6.24,9-12V2.69H385.09V-.09q4.79,5.79,9,12a155.64,155.64,0,0,1,26.7,87.39Z"/><path class="cls-1" d="M419.92,99.33a154.74,154.74,0,0,1-26.55,86.91q-4.19,6.19-8.95,12v-5.35H144.54v5.35q-4.75-5.76-8.95-12a155.23,155.23,0,0,1,0-173.81q4.18-6.21,8.95-12V2.69H384.42V.46q4.75,5.76,8.95,12a154.74,154.74,0,0,1,26.55,86.9Z"/><path class="cls-1" d="M419.05,99.33a153.84,153.84,0,0,1-26.4,86.42q-4.17,6.18-8.9,11.9v-4.79H145.21v4.79q-4.72-5.72-8.9-11.9a154.39,154.39,0,0,1,0-172.84q4.17-6.16,8.9-11.9V2.69H383.75V1q4.72,5.73,8.9,11.9a153.93,153.93,0,0,1,26.4,86.42Z"/><path class="cls-1" d="M418.18,99.33a153,153,0,0,1-26.25,85.94q-4.14,6.14-8.85,11.83v-4.24H145.88v4.24q-4.69-5.68-8.85-11.83A153.51,153.51,0,0,1,137,13.4q4.14-6.13,8.85-11.83V2.69h237.2V1.57q4.71,5.69,8.85,11.83a153,153,0,0,1,26.25,85.93Z"/><path class="cls-1" d="M417.31,99.33a152.12,152.12,0,0,1-26.1,85.45q-4.11,6.1-8.8,11.77v-3.69H146.55v3.69q-4.68-5.66-8.8-11.77a152.64,152.64,0,0,1,0-170.9q4.13-6.09,8.8-11.76v.57H382.41V2.12q4.68,5.65,8.8,11.76a152.12,152.12,0,0,1,26.1,85.45Z"/><path class="cls-1" d="M416.45,99.33a151.4,151.4,0,0,1-26,85q-4.1,6.06-8.75,11.7v-3.14H147.22V196q-4.65-5.64-8.75-11.7a151.76,151.76,0,0,1,0-169.93q4.09-6.06,8.75-11.7v0H381.74v0q4.65,5.63,8.75,11.7a151.3,151.3,0,0,1,26,85Z"/><path class="cls-1" d="M415.58,99.33a150.4,150.4,0,0,1-25.81,84.48q-4.06,6-8.7,11.63v-2.58H147.89v2.58q-4.62-5.59-8.7-11.63a150.92,150.92,0,0,1,0-169c2.72-4,5.62-7.9,8.7-11.63q2.31-2.79,4.75-5.48V2.69H376.33V-2.26q2.43,2.68,4.74,5.48c3.08,3.73,6,7.62,8.7,11.63a150.5,150.5,0,0,1,25.81,84.48Z"/><path class="cls-1" d="M414.71,99.33a149.59,149.59,0,0,1-25.66,84q-4.05,6-8.65,11.56v-2H148.56v2q-4.59-5.56-8.65-11.56a150,150,0,0,1,0-168q4.05-6,8.65-11.56,2.3-2.79,4.72-5.46V2.69h222.4V-1.68Q378.11,1,380.4,3.78q4.61,5.57,8.65,11.56a149.59,149.59,0,0,1,25.66,84Z"/><path class="cls-1" d="M413.84,99.33a148.69,148.69,0,0,1-25.51,83.51q-4,6-8.6,11.5v-1.48H149.23v1.48q-4.56-5.53-8.6-11.5a149.16,149.16,0,0,1,0-167q4-6,8.6-11.5c1.52-1.85,3.09-3.65,4.69-5.42V2.69H375V-1.09c1.61,1.77,3.17,3.57,4.69,5.42q4.57,5.53,8.6,11.5a148.69,148.69,0,0,1,25.51,83.5Z"/><path class="cls-1" d="M413,99.33a147.88,147.88,0,0,1-25.36,83q-4,5.92-8.55,11.43v-.93H149.9v.93q-4.54-5.5-8.55-11.43a148.3,148.3,0,0,1,0-166q4-5.92,8.55-11.43,2.26-2.74,4.67-5.39v3.2H374.4V-.51c1.59,1.76,3.15,3.56,4.66,5.39q4.54,5.51,8.55,11.43a147.78,147.78,0,0,1,25.36,83Z"/><path class="cls-1" d="M412.1,99.33a147,147,0,0,1-25.21,82.54q-4,5.9-8.5,11.37v-.38H150.57v.38q-4.51-5.48-8.5-11.37a147.41,147.41,0,0,1,0-165.07q4-5.9,8.5-11.37c1.5-1.82,3.05-3.61,4.64-5.35V2.69H373.75V.08c1.59,1.74,3.14,3.53,4.64,5.35q4.51,5.48,8.5,11.37A146.88,146.88,0,0,1,412.1,99.33Z"/><path class="cls-1" d="M411.24,99.33a146.16,146.16,0,0,1-25.07,82.06q-4,5.85-8.45,11.29-2.24,2.72-4.61,5.33v-5.15H155.85V198q-2.37-2.61-4.61-5.33-4.49-5.43-8.45-11.29a146.58,146.58,0,0,1,0-164.11q4-5.85,8.45-11.3,2.23-2.72,4.61-5.32v2H373.11v-2q2.37,2.61,4.61,5.32,4.48,5.44,8.45,11.3a146.16,146.16,0,0,1,25.07,82.05Z"/><path class="cls-1" d="M410.37,99.33a145.25,145.25,0,0,1-24.92,81.57q-3.93,5.82-8.4,11.23c-1.48,1.8-3,3.57-4.58,5.29v-4.56h-216v4.56c-1.57-1.72-3.09-3.49-4.58-5.29q-4.46-5.4-8.4-11.23A145.93,145.93,0,0,1,161.33-3.82V2.69H367.64V-3.82A145.42,145.42,0,0,1,410.37,99.33Z"/><path class="cls-1" d="M409.5,99.33a144.35,144.35,0,0,1-24.77,81.08q-3.9,5.79-8.35,11.17-2.2,2.68-4.55,5.26v-4H157.14v4q-2.34-2.58-4.56-5.26-4.44-5.37-8.35-11.17A145,145,0,0,1,161.94-3.21v5.9H367v-5.9A144.54,144.54,0,0,1,409.5,99.33Z"/><path class="cls-1" d="M408.63,99.33A143.54,143.54,0,0,1,384,179.93q-3.88,5.74-8.3,11.1-2.2,2.67-4.53,5.23v-3.4H157.78v3.4q-2.33-2.56-4.53-5.23-4.41-5.34-8.3-11.1A144.18,144.18,0,0,1,162.55-2.59V2.69H366.41V-2.59A143.66,143.66,0,0,1,408.63,99.33Z"/><path class="cls-1" d="M407.76,99.33a142.64,142.64,0,0,1-24.47,80.11c-2.57,3.81-5.33,7.5-8.25,11-1.46,1.77-3,3.51-4.5,5.2v-2.81H158.42v2.81c-1.54-1.69-3-3.43-4.5-5.2-2.92-3.53-5.67-7.22-8.25-11A143.31,143.31,0,0,1,163.17-2V2.69H365.8V-2A142.86,142.86,0,0,1,407.76,99.33Z"/><path class="cls-1" d="M406.89,99.33A141.73,141.73,0,0,1,382.57,179q-3.84,5.68-8.2,11-2.17,2.64-4.47,5.17v-2.23H159.07v2.23q-2.31-2.53-4.48-5.17-4.35-5.28-8.2-11A142.46,142.46,0,0,1,163.78-1.37V2.69h201.4V-1.37A142,142,0,0,1,406.89,99.33Z"/><path class="cls-1" d="M406,99.33a141.11,141.11,0,0,1-41.45,100.09v-6.56H164.4v6.56a141.53,141.53,0,0,1,0-200.17V2.69H364.57V-.75A141.1,141.1,0,0,1,406,99.33Z"/><path class="cls-1" d="M405.16,99.33A140.25,140.25,0,0,1,364,198.81v-5.95H165v5.95A140.69,140.69,0,0,1,165-.14V2.69H364V-.14A140.24,140.24,0,0,1,405.16,99.33Z"/><path class="cls-1" d="M404.29,99.33a139.37,139.37,0,0,1-41,98.86v-5.33H165.62v5.33a139.8,139.8,0,0,1,0-197.71V2.69H363.34V.48A139.36,139.36,0,0,1,404.29,99.33Z"/><path class="cls-1" d="M403.42,99.33a138.51,138.51,0,0,1-40.69,98.25v-4.72H166.24v4.72a138.93,138.93,0,0,1,0-196.49v1.6H362.73V1.09A138.51,138.51,0,0,1,403.42,99.33Z"/><path class="cls-1" d="M402.55,99.33A137.6,137.6,0,0,1,362.11,197v-4.1H166.85V197a138.07,138.07,0,0,1,0-195.26v1H362.11v-1A137.64,137.64,0,0,1,402.55,99.33Z"/><path class="cls-1" d="M401.68,99.33a136.77,136.77,0,0,1-40.18,97v-3.49h-194v3.49a137.19,137.19,0,0,1,0-194v.37h194V2.32A136.76,136.76,0,0,1,401.68,99.33Z"/><path class="cls-1" d="M400.81,99.33a135.9,135.9,0,0,1-39.93,96.41v-2.88H168.08v2.88a136.34,136.34,0,0,1,0-192.81c1.54-1.54,3.12-3.05,4.73-4.51V2.69H356.15V-1.58c1.61,1.46,3.19,3,4.73,4.51A135.88,135.88,0,0,1,400.81,99.33Z"/><path class="cls-1" d="M400,99.33a135.05,135.05,0,0,1-39.68,95.79v-2.26H168.69v2.26a135.47,135.47,0,0,1,0-191.57c1.54-1.54,3.1-3,4.71-4.49V2.69H355.57V-.94c1.6,1.46,3.17,2.95,4.7,4.49A135,135,0,0,1,400,99.33Z"/><path class="cls-1" d="M399.08,99.33a134.22,134.22,0,0,1-39.42,95.18v-1.65H169.31v1.65a134.6,134.6,0,0,1,0-190.35Q171.59,1.88,174-.3v3H355v-3q2.38,2.17,4.68,4.46A134.21,134.21,0,0,1,399.08,99.33Z"/><path class="cls-1" d="M398.21,99.33A133.31,133.31,0,0,1,359,193.89v-1H169.92v1a133.72,133.72,0,0,1,0-189.12q4.54-4.53,9.5-8.63V2.69H349.55V-3.86Q354.5.23,359,4.77A133.33,133.33,0,0,1,398.21,99.33Z"/><path class="cls-1" d="M397.34,99.33a132.45,132.45,0,0,1-38.91,94v-.42H170.54v.42a132.84,132.84,0,0,1,0-187.89Q175,.88,180-3.19V2.69H349V-3.19q4.92,4.06,9.44,8.58A132.45,132.45,0,0,1,397.34,99.33Z"/><path class="cls-1" d="M396.47,99.33a131.58,131.58,0,0,1-38.66,93.34q-2.24,2.24-4.58,4.37v-4.18H175.73V197q-2.34-2.13-4.58-4.37A132,132,0,0,1,171.15,6c3-3,6.11-5.83,9.37-8.52V2.69H348.44V-2.52C351.7.17,354.83,3,357.81,6A131.58,131.58,0,0,1,396.47,99.33Z"/><path class="cls-1" d="M395.6,99.33a130.71,130.71,0,0,1-38.4,92.72q-2.22,2.22-4.55,4.34v-3.53H176.32v3.53q-2.32-2.12-4.56-4.34a131.13,131.13,0,0,1,0-185.43q4.45-4.45,9.32-8.47V2.69H347.89V-1.85q4.86,4,9.31,8.47A130.68,130.68,0,0,1,395.6,99.33Z"/><path class="cls-1" d="M394.74,99.33a129.86,129.86,0,0,1-38.15,92.11c-2.95,2.94-6,5.75-9.25,8.4v-7H181.63v7c-3.22-2.65-6.31-5.46-9.25-8.4a130.26,130.26,0,0,1,0-184.21q4.41-4.43,9.25-8.41V2.69H347.34V-1.18q4.82,4,9.25,8.41A129.84,129.84,0,0,1,394.74,99.33Z"/><path class="cls-1" d="M393.87,99.33A129,129,0,0,1,356,190.82q-4.39,4.4-9.19,8.35v-6.31H182.18v6.31q-4.8-3.94-9.19-8.35a129.4,129.4,0,0,1,0-183q4.39-4.38,9.19-8.35v3.2h164.6V-.51q4.8,4,9.19,8.35A129,129,0,0,1,393.87,99.33Z"/><path class="cls-1" d="M393,99.33a128.16,128.16,0,0,1-37.64,90.88q-4.37,4.36-9.13,8.29v-5.64H182.73v5.64c-3.17-2.61-6.22-5.38-9.12-8.29a128.5,128.5,0,0,1,0-181.75c2.9-2.91,5.95-5.68,9.12-8.3V2.69h163.5V.16q4.75,3.93,9.13,8.3A128.13,128.13,0,0,1,393,99.33Z"/><path class="cls-1" d="M392.13,99.33a127.27,127.27,0,0,1-37.39,90.27c-2.88,2.88-5.91,5.63-9.06,8.23v-5H183.28v5q-4.72-3.9-9.06-8.23a127.65,127.65,0,0,1,0-180.53q4.34-4.34,9.06-8.24V2.69h162.4V.83c3.15,2.6,6.18,5.35,9.06,8.24A127.25,127.25,0,0,1,392.13,99.33Z"/><path class="cls-1" d="M391.26,99.33A126.39,126.39,0,0,1,354.13,189q-4.31,4.31-9,8.18v-4.3H183.84v4.3q-4.69-3.87-9-8.18a126.78,126.78,0,0,1,0-179.29q4.3-4.3,9-8.19V2.69H345.13V1.5q4.69,3.89,9,8.19A126.37,126.37,0,0,1,391.26,99.33Z"/><path class="cls-1" d="M390.39,99.33a125.56,125.56,0,0,1-36.87,89q-4.27,4.27-8.95,8.12v-3.63H184.39v3.63q-4.66-3.84-8.94-8.12a125.91,125.91,0,0,1,0-178.07q4.28-4.28,8.94-8.13v.52H344.57V2.17q4.67,3.86,8.95,8.13A125.53,125.53,0,0,1,390.39,99.33Z"/><path class="cls-1" d="M389.53,99.33a124.65,124.65,0,0,1-36.63,88.42c-2.83,2.83-5.79,5.53-8.88,8.07v-3H184.94v3c-3.09-2.54-6.05-5.24-8.88-8.07a125.06,125.06,0,0,1,0-176.84c2.83-2.82,5.79-5.52,8.88-8.07,1.55-1.27,3.12-2.51,4.73-3.71V2.69H339.3V-.87c1.6,1.2,3.18,2.44,4.72,3.71,3.09,2.55,6.05,5.25,8.88,8.07A124.65,124.65,0,0,1,389.53,99.33Z"/><path class="cls-1" d="M388.66,99.33a123.8,123.8,0,0,1-36.37,87.81q-4.21,4.22-8.82,8v-2.29h-158v2.29c-3.06-2.53-6-5.2-8.81-8A124.24,124.24,0,0,1,195.05-3.63V2.69H333.91V-3.63a124.27,124.27,0,0,1,54.75,103Z"/><path class="cls-1" d="M387.79,99.33a122.93,122.93,0,0,1-36.12,87.2c-2.79,2.78-5.71,5.44-8.75,7.95v-1.62H186.05v1.62c-3.05-2.51-6-5.17-8.76-7.95A123.34,123.34,0,0,1,195.54-2.91v5.6H333.42v-5.6A123.38,123.38,0,0,1,387.79,99.33Z"/><path class="cls-1" d="M386.92,99.33a122.05,122.05,0,0,1-35.86,86.58q-4.15,4.16-8.7,7.9v-.95H186.6v.95c-3-2.49-5.93-5.13-8.7-7.9A122.49,122.49,0,0,1,196-2.19V2.69H332.94V-2.19a122.56,122.56,0,0,1,54,101.52Z"/><path class="cls-1" d="M386.05,99.33a121.2,121.2,0,0,1-35.6,86c-2.75,2.75-5.64,5.37-8.64,7.84v-.28H187.15v.28q-4.5-3.7-8.63-7.84a121.62,121.62,0,0,1,18-186.77V2.69H332.45V-1.47a121.59,121.59,0,0,1,53.6,100.8Z"/><path class="cls-1" d="M385.18,99.33A120.85,120.85,0,0,1,332,199.42v-6.56H197v6.56A120.72,120.72,0,0,1,197-.75V2.69H332V-.75A120.77,120.77,0,0,1,385.18,99.33Z"/><path class="cls-1" d="M384.32,99.33a119.91,119.91,0,0,1-52.84,99.37v-5.84h-134v5.84A119.89,119.89,0,0,1,197.48,0V2.69h134V0a119.91,119.91,0,0,1,52.84,99.36Z"/><path class="cls-1" d="M383.45,99.33A119.09,119.09,0,0,1,331,198v-5.12H198V198A119,119,0,0,1,198,.69v2H331v-2a119.09,119.09,0,0,1,52.45,98.64Z"/><path class="cls-1" d="M382.58,99.33a118.2,118.2,0,0,1-52.07,97.93v-4.4H198.45v4.4A119.1,119.1,0,0,1,181,182.84,118.14,118.14,0,0,1,198.45,1.41V2.69H330.51V1.41a118.2,118.2,0,0,1,52.07,97.92Z"/><path class="cls-1" d="M381.71,99.33a116.89,116.89,0,0,1-34.33,82.9A118.48,118.48,0,0,1,330,196.54v-3.68H198.94v3.68a117.27,117.27,0,0,1,0-194.41v.56H330V2.13a118.48,118.48,0,0,1,17.35,14.31A116.86,116.86,0,0,1,381.71,99.33Z"/><path class="cls-1" d="M380.84,99.33a116.5,116.5,0,0,1-51.3,96.49v-3H199.42v3a116.39,116.39,0,0,1,0-193Q204.07-.3,209-3V2.69H320V-3q4.94,2.69,9.59,5.83a116.41,116.41,0,0,1,51.3,96.48Z"/><path class="cls-1" d="M380,99.33A115.12,115.12,0,0,1,346.15,181a116.32,116.32,0,0,1-17.1,14.1v-2.24H199.91v2.24a115.54,115.54,0,0,1,0-191.53q4.6-3.12,9.52-5.79V2.69h110.1V-2.22q4.92,2.67,9.52,5.79A115.53,115.53,0,0,1,380,99.33Z"/><path class="cls-1" d="M379.11,99.33a114.73,114.73,0,0,1-50.54,95.05v-1.52H200.39v1.52a116.14,116.14,0,0,1-17-14,114.64,114.64,0,0,1,0-162.11,116.14,116.14,0,0,1,17-14c3.05-2.06,6.21-4,9.45-5.75V2.69H319.12V-1.46Q324,1.2,328.57,4.29a114.73,114.73,0,0,1,50.54,95Z"/><path class="cls-1" d="M378.24,99.33a113.85,113.85,0,0,1-50.16,94.33v-.8H200.88v.8A113.79,113.79,0,0,1,200.88,5q4.55-3.07,9.38-5.7V2.69H318.7V-.69q4.85,2.63,9.38,5.7a113.85,113.85,0,0,1,50.16,94.32Z"/><path class="cls-1" d="M377.37,99.33a112.54,112.54,0,0,1-33.07,79.83,113.9,113.9,0,0,1-16.7,13.78v-.08H201.37v.08a114,114,0,0,1-16.71-13.78A112.92,112.92,0,0,1,201.37,5.73q4.5-3,9.3-5.66V2.69H318.29V.07q4.8,2.61,9.31,5.66a113,113,0,0,1,49.77,93.6Z"/><path class="cls-1" d="M376.5,99.33a112.14,112.14,0,0,1-49.39,92.89c-3,2-6.06,3.89-9.23,5.61v-5H211.09v5c-3.18-1.72-6.26-3.6-9.24-5.61a112.07,112.07,0,0,1,19-196.1V2.69h87.2V-3.88A112.11,112.11,0,0,1,376.5,99.33Z"/><path class="cls-1" d="M375.63,99.33a111.23,111.23,0,0,1-49,92.17q-4.44,3-9.17,5.57v-4.21h-106v4.21q-4.73-2.56-9.16-5.57A111.21,111.21,0,0,1,221.22-3.08V2.69h86.53V-3.08A111.26,111.26,0,0,1,375.63,99.33Z"/><path class="cls-1" d="M374.76,99.33a110.35,110.35,0,0,1-48.62,91.45c-2.93,2-6,3.83-9.09,5.53v-3.45H211.91v3.45q-4.68-2.55-9.09-5.53A110.34,110.34,0,0,1,221.55-2.28v5h85.86v-5A110.39,110.39,0,0,1,374.76,99.33Z"/><path class="cls-1" d="M373.9,99.33a109.55,109.55,0,0,1-48.24,90.73q-4.37,3-9,5.48v-2.68H212.33v2.68q-4.65-2.52-9-5.48A109.47,109.47,0,0,1,221.89-1.48V2.69h85.18V-1.48A109.55,109.55,0,0,1,373.9,99.33Z"/><path class="cls-1" d="M373,99.33a108.68,108.68,0,0,1-66.3,100v-6.49h-84.5v6.49a108.61,108.61,0,0,1,0-200V2.69h84.5V-.68a108.68,108.68,0,0,1,66.3,100Z"/><path class="cls-1" d="M372.16,99.33a107.81,107.81,0,0,1-65.77,99.22v-5.69H222.57v5.69a107.73,107.73,0,0,1,0-198.43V2.69h83.82V.12a107.77,107.77,0,0,1,65.77,99.21Z"/><path class="cls-1" d="M371.29,99.33a106.92,106.92,0,0,1-65.23,98.42v-4.89H222.91v4.89a106.87,106.87,0,0,1,0-196.83V2.69h83.15V.92a106.92,106.92,0,0,1,65.23,98.41Z"/><path class="cls-1" d="M370.42,99.33A106.09,106.09,0,0,1,305.72,197v-4.09H223.24V197a106,106,0,0,1,0-195.23v1h82.48v-1a106.05,106.05,0,0,1,64.7,97.61Z"/><path class="cls-1" d="M369.55,99.33a105.19,105.19,0,0,1-64.17,96.82v-3.29h-81.8v3.29a105.13,105.13,0,0,1,0-193.63v.17h81.8V2.52a105.19,105.19,0,0,1,64.17,96.81Z"/><path class="cls-1" d="M368.69,99.33a104.34,104.34,0,0,1-63.65,96v-2.49H223.92v2.49A104.21,104.21,0,0,1,243.48-2.75V2.69h42V-2.75A103.07,103.07,0,0,1,305,3.32a104.34,104.34,0,0,1,63.65,96Z"/><path class="cls-1" d="M367.82,99.33a103.47,103.47,0,0,1-63.12,95.22v-1.69H224.26v1.69A103.35,103.35,0,1,1,367.82,99.33Z"/><path class="cls-1" d="M367,99.33a102.58,102.58,0,0,1-62.58,94.42v-.89H224.6v.89A102.48,102.48,0,1,1,367,99.33Z"/><path class="cls-1" d="M366.08,99.33A101.75,101.75,0,0,1,304,193v-.09h-79.1V193A101.61,101.61,0,1,1,366.08,99.33Z"/><path class="cls-1" d="M365.21,99.33A100.68,100.68,0,0,1,284.78,198v-5.16h-40.6V198a99.79,99.79,0,0,1-18.91-5.87A100.74,100.74,0,1,1,365.21,99.33Z"/><circle class="cls-1" cx="264.48" cy="99.33" r="99.86"/><circle class="cls-1" cx="264.48" cy="99.33" r="98.99"/><circle class="cls-1" cx="264.48" cy="99.33" r="98.13"/><circle class="cls-1" cx="264.48" cy="99.33" r="97.26"/><circle class="cls-1" cx="264.48" cy="99.33" r="96.39"/><circle class="cls-1" cx="264.48" cy="99.33" r="95.52"/><circle class="cls-1" cx="264.48" cy="99.33" r="94.65"/><circle class="cls-1" cx="264.48" cy="99.33" r="93.78"/><circle class="cls-1" cx="264.48" cy="99.33" r="92.91"/><circle class="cls-1" cx="264.48" cy="99.33" r="92.05"/><circle class="cls-1" cx="264.48" cy="99.33" r="91.18"/><circle class="cls-1" cx="264.48" cy="99.33" r="90.31"/><circle class="cls-1" cx="264.48" cy="99.33" r="89.44"/><circle class="cls-1" cx="264.48" cy="99.33" r="88.57"/><circle class="cls-1" cx="264.48" cy="99.33" r="87.7"/><circle class="cls-1" cx="264.48" cy="99.33" r="86.84"/><circle class="cls-1" cx="264.48" cy="99.33" r="85.97"/><circle class="cls-1" cx="264.48" cy="99.33" r="85.1"/><circle class="cls-1" cx="264.48" cy="99.33" r="84.23"/><circle class="cls-1" cx="264.48" cy="99.33" r="83.36"/><circle class="cls-1" cx="264.48" cy="99.33" r="82.49"/><circle class="cls-1" cx="264.48" cy="99.33" r="81.63"/><circle class="cls-1" cx="264.48" cy="99.33" r="80.76"/><circle class="cls-1" cx="264.48" cy="99.33" r="79.89"/><circle class="cls-1" cx="264.48" cy="99.33" r="79.02"/><circle class="cls-1" cx="264.48" cy="99.33" r="78.15"/><circle class="cls-1" cx="264.48" cy="99.33" r="77.28"/><circle class="cls-1" cx="264.48" cy="99.33" r="76.42"/><circle class="cls-1" cx="264.48" cy="99.33" r="75.55"/><circle class="cls-1" cx="264.48" cy="99.33" r="74.68"/><circle class="cls-1" cx="264.48" cy="99.33" r="73.81"/><circle class="cls-1" cx="264.48" cy="99.33" r="72.94"/><circle class="cls-1" cx="264.48" cy="99.33" r="72.07"/><circle class="cls-1" cx="264.48" cy="99.33" r="71.21"/><circle class="cls-1" cx="264.48" cy="99.33" r="70.34"/><circle class="cls-1" cx="264.48" cy="99.33" r="69.47"/><circle class="cls-1" cx="264.48" cy="99.33" r="68.6"/><circle class="cls-1" cx="264.48" cy="99.33" r="67.73"/><circle class="cls-1" cx="264.48" cy="99.33" r="66.86"/><circle class="cls-1" cx="264.48" cy="99.33" r="66"/><circle class="cls-1" cx="264.48" cy="99.33" r="65.13"/><circle class="cls-1" cx="264.48" cy="99.33" r="64.26"/><circle class="cls-1" cx="264.48" cy="99.33" r="63.39"/><circle class="cls-1" cx="264.48" cy="99.33" r="62.52"/><circle class="cls-1" cx="264.48" cy="99.33" r="61.65"/><circle class="cls-1" cx="264.48" cy="99.33" r="60.79"/><circle class="cls-1" cx="264.48" cy="99.33" r="59.92"/><circle class="cls-1" cx="264.48" cy="99.33" r="59.05"/><circle class="cls-1" cx="264.48" cy="99.33" r="58.18"/><circle class="cls-1" cx="264.48" cy="99.33" r="57.31"/><circle class="cls-1" cx="264.48" cy="99.33" r="56.44"/><circle class="cls-1" cx="264.48" cy="99.33" r="55.58"/><circle class="cls-1" cx="264.48" cy="99.33" r="54.71"/><circle class="cls-1" cx="264.48" cy="99.33" r="53.84"/><circle class="cls-1" cx="264.48" cy="99.33" r="52.97"/><circle class="cls-1" cx="264.48" cy="99.33" r="52.1"/><circle class="cls-1" cx="264.48" cy="99.33" r="51.23"/><circle class="cls-1" cx="264.48" cy="99.33" r="50.37"/><circle class="cls-1" cx="264.48" cy="99.33" r="49.5"/><circle class="cls-1" cx="264.48" cy="99.33" r="48.63"/><circle class="cls-1" cx="264.48" cy="99.33" r="47.76"/><circle class="cls-1" cx="264.48" cy="99.33" r="46.89"/><circle class="cls-1" cx="264.48" cy="99.33" r="46.02"/><circle class="cls-1" cx="264.48" cy="99.33" r="45.15"/><circle class="cls-1" cx="264.48" cy="99.33" r="44.29"/><circle class="cls-1" cx="264.48" cy="99.33" r="43.42"/><circle class="cls-1" cx="264.48" cy="99.33" r="42.55"/><circle class="cls-1" cx="264.48" cy="99.33" r="41.68"/><circle class="cls-1" cx="264.48" cy="99.33" r="40.81"/><circle class="cls-1" cx="264.48" cy="99.33" r="39.94"/><circle class="cls-1" cx="264.48" cy="99.33" r="39.08"/><circle class="cls-1" cx="264.48" cy="99.33" r="38.21"/><circle class="cls-1" cx="264.48" cy="99.33" r="37.34"/><circle class="cls-1" cx="264.48" cy="99.33" r="36.47"/><circle class="cls-1" cx="264.48" cy="99.33" r="35.6"/><circle class="cls-1" cx="264.48" cy="99.33" r="34.73"/><circle class="cls-1" cx="264.48" cy="99.33" r="33.87"/><circle class="cls-1" cx="264.48" cy="99.33" r="33"/><circle class="cls-1" cx="264.48" cy="99.33" r="32.13"/><circle class="cls-1" cx="264.48" cy="99.33" r="31.26"/><circle class="cls-1" cx="264.48" cy="99.33" r="30.39"/><circle class="cls-1" cx="264.48" cy="99.33" r="29.52"/><circle class="cls-1" cx="264.48" cy="99.33" r="28.66"/><circle class="cls-1" cx="264.48" cy="99.33" r="27.79"/><circle class="cls-1" cx="264.48" cy="99.33" r="26.92"/><circle class="cls-1" cx="264.48" cy="99.33" r="26.05"/><circle class="cls-1" cx="264.48" cy="99.33" r="25.18"/><circle class="cls-1" cx="264.48" cy="99.33" r="24.31"/><circle class="cls-1" cx="264.48" cy="99.33" r="23.45"/><circle class="cls-1" cx="264.48" cy="99.33" r="22.58"/><circle class="cls-1" cx="264.48" cy="99.33" r="21.71"/><circle class="cls-1" cx="264.48" cy="99.33" r="20.84"/><circle class="cls-1" cx="264.48" cy="99.33" r="19.97"/><circle class="cls-1" cx="264.48" cy="99.33" r="19.1"/><circle class="cls-1" cx="264.48" cy="99.33" r="18.24"/><circle class="cls-1" cx="264.48" cy="99.33" r="17.37"/><circle class="cls-1" cx="264.48" cy="99.33" r="16.5"/><circle class="cls-1" cx="264.48" cy="99.33" r="15.63"/><circle class="cls-1" cx="264.48" cy="99.33" r="14.76"/><circle class="cls-1" cx="264.48" cy="99.33" r="13.89"/><circle class="cls-1" cx="264.48" cy="99.33" r="13.03"/><circle class="cls-1" cx="264.48" cy="99.33" r="12.16"/><circle class="cls-1" cx="264.48" cy="99.33" r="11.29"/><circle class="cls-1" cx="264.48" cy="99.33" r="10.42"/><circle class="cls-1" cx="264.48" cy="99.33" r="9.55"/><circle class="cls-1" cx="264.48" cy="99.33" r="8.68"/><circle class="cls-1" cx="264.48" cy="99.33" r="7.82"/><circle class="cls-1" cx="264.48" cy="99.33" r="6.95"/><circle class="cls-1" cx="264.48" cy="99.33" r="6.08"/><circle class="cls-1" cx="264.48" cy="99.33" r="5.21"/><circle class="cls-1" cx="264.48" cy="99.33" r="4.34"/><circle class="cls-1" cx="264.48" cy="99.33" r="3.47"/><circle class="cls-1" cx="264.48" cy="99.33" r="2.61"/><circle class="cls-1" cx="264.48" cy="99.33" r="1.74"/><circle class="cls-1" cx="264.48" cy="99.33" r="0.87"/></g><path class="cls-2" d="M7.62,49.71c-3.95,7-3.44,16.82-2.42,36.5.65,12.48,1.36,26,6.73,42.09,2.17,6.49,9.52,30.42,25.62,43.8,24.75,20.57,53.6,10.13,138.85,6.61,27.73-1.14,47.8-1,70.24-.83,121,.91,151.24,1.66,151.24,1.66s34,.84,73.56-14A43.36,43.36,0,0,0,484,158.62c7.26-5.82,15.95-16.92,19.17-49.34,3.61-36.37,5.48-55.23-6.52-69.75-21.58-26.12-71.33-18.09-71.44-17s37.78,2,38.84,10.75c.89,7.37-26.36,16.33-35.93,19.42-55.19,17.83-98.89,15.48-164.9,16.11-70.74.69-103.23,4.19-165.29-3.3C80.66,63.41,36,59.05,35.07,48.13c-.35-4.27,6-8.68,9.6-11.14C58,27.78,73.05,28.75,73.09,29.12,73.17,29.81,21.85,24.62,7.62,49.71Z"/><g class="cls-4"><rect class="cls-2" x="-19.28" y="4.5" width="544.93" height="188.17"/><path class="cls-2" d="M476.81,100.15a220.82,220.82,0,0,1-17.4,86.19q-2.1,5-4.44,9.81v-2.48H55.78v2.48q-2.34-4.85-4.44-9.81A222.19,222.19,0,0,1,51.34,14q2.1-5,4.44-9.8,1.15-2.43,2.39-4.81V3.5H452.58V-.66c.82,1.59,1.61,3.19,2.39,4.81Q457.31,9,459.41,14A220.87,220.87,0,0,1,476.81,100.15Z"/><path class="cls-2" d="M475.94,100.15A219.89,219.89,0,0,1,458.61,186q-2.1,5-4.42,9.77v-2.1H56.56v2.1Q54.24,191,52.14,186a221.33,221.33,0,0,1,0-171.71q2.1-4.95,4.42-9.77c.77-1.6,1.57-3.2,2.38-4.79V3.5H451.81V-.27q1.21,2.39,2.38,4.79,2.32,4.83,4.42,9.77A219.9,219.9,0,0,1,475.94,100.15Z"/><path class="cls-2" d="M475.07,100.15a219.1,219.1,0,0,1-17.26,85.51q-2.08,4.93-4.4,9.73v-1.72H57.34v1.72q-2.31-4.8-4.4-9.73a220.47,220.47,0,0,1,0-171Q55,9.71,57.34,4.9,58.5,2.5,59.71.13V3.5H451V.13q1.2,2.37,2.37,4.77,2.31,4.8,4.4,9.73A219.11,219.11,0,0,1,475.07,100.15Z"/><path class="cls-2" d="M474.2,100.15A218.17,218.17,0,0,1,457,185.32q-2.08,4.92-4.39,9.7v-1.35H58.13V195q-2.31-4.78-4.39-9.7A219.61,219.61,0,0,1,53.74,15c1.39-3.27,2.85-6.51,4.39-9.69.76-1.6,1.55-3.18,2.36-4.76v3H450.26v-3c.81,1.58,1.59,3.16,2.36,4.76,1.54,3.18,3,6.42,4.39,9.69A218.18,218.18,0,0,1,474.2,100.15Z"/><path class="cls-2" d="M473.33,100.15A217.47,217.47,0,0,1,456.21,185q-2.07,4.89-4.37,9.65v-1H58.91v1q-2.29-4.77-4.37-9.65a218.66,218.66,0,0,1,0-169.68q2.07-4.89,4.37-9.66c.76-1.59,1.55-3.16,2.35-4.73V3.5H449.49V.92c.8,1.57,1.59,3.14,2.35,4.73q2.3,4.77,4.37,9.66A217.39,217.39,0,0,1,473.33,100.15Z"/><path class="cls-2" d="M472.47,100.15a216.5,216.5,0,0,1-17.06,84.5q-2.07,4.86-4.35,9.61v-.59H59.69v.59q-2.28-4.74-4.35-9.61a217.82,217.82,0,0,1,0-169q4.13-9.73,9.14-19V3.5H446.26V-3.33q5,9.23,9.15,19A216.55,216.55,0,0,1,472.47,100.15Z"/><path class="cls-2" d="M471.6,100.15a215.4,215.4,0,0,1-17,84.16q-2,4.84-4.33,9.58v-.22H60.47v.22q-2.27-4.72-4.33-9.58A217,217,0,0,1,56.14,16q4.11-9.69,9.11-18.9V3.5H445.5V-2.92q5,9.2,9.1,18.9A215.41,215.41,0,0,1,471.6,100.15Z"/><path class="cls-2" d="M470.73,100.15A214.61,214.61,0,0,1,453.8,184q-2,4.83-4.31,9.54c-.75,1.57-1.53,3.13-2.32,4.68v-4.52H63.58v4.52c-.79-1.55-1.57-3.11-2.32-4.68-1.52-3.14-2.95-6.32-4.32-9.54a216.1,216.1,0,0,1,0-167.65Q61,6.66,66-2.5v6H444.74v-6q5,9.15,9.06,18.82A214.66,214.66,0,0,1,470.73,100.15Z"/><path class="cls-2" d="M469.86,100.15A213.67,213.67,0,0,1,453,183.63q-2,4.81-4.29,9.51c-.75,1.56-1.53,3.11-2.31,4.65v-4.12h-382v4.12q-1.18-2.31-2.31-4.65-2.26-4.69-4.3-9.51a215.24,215.24,0,0,1,0-167q4.08-9.63,9-18.75V3.5H444V-2.09q4.95,9.12,9,18.75A213.69,213.69,0,0,1,469.86,100.15Z"/><path class="cls-2" d="M469,100.15A213,213,0,0,1,452.2,183.3q-2,4.78-4.27,9.46c-.75,1.56-1.52,3.1-2.31,4.64v-3.73H65.13v3.73c-.79-1.54-1.56-3.08-2.31-4.64q-2.25-4.66-4.28-9.46a214.41,214.41,0,0,1,0-166.3q4.07-9.59,9-18.68V3.5H443.21V-1.68q4.94,9.09,9,18.68A212.9,212.9,0,0,1,469,100.15Z"/><path class="cls-2" d="M468.12,100.15A212,212,0,0,1,451.4,183q-2,4.77-4.26,9.42c-.74,1.55-1.51,3.09-2.29,4.62v-3.33H65.9V197q-1.17-2.3-2.3-4.62-2.24-4.65-4.26-9.42a213.45,213.45,0,0,1,0-165.63q4-9.54,9-18.59V3.5H442.45V-1.26q4.91,9,8.95,18.59A212.05,212.05,0,0,1,468.12,100.15Z"/><path class="cls-2" d="M467.25,100.15a211.07,211.07,0,0,1-16.65,82.47q-2,4.75-4.24,9.39-1.11,2.31-2.28,4.6v-2.94H66.67v2.94q-1.17-2.3-2.28-4.6-2.23-4.63-4.25-9.39a212.59,212.59,0,0,1,0-164.95q4-9.5,8.93-18.52V3.5H441.68V-.85q4.89,9,8.92,18.52A211.08,211.08,0,0,1,467.25,100.15Z"/><path class="cls-2" d="M466.39,100.15a210.28,210.28,0,0,1-16.59,82.13q-2,4.74-4.22,9.35c-.74,1.54-1.5,3.06-2.28,4.58v-2.54H67.45v2.54c-.78-1.52-1.54-3-2.28-4.58Q63,187,60.94,182.28A211.73,211.73,0,0,1,60.94,18q4-9.47,8.89-18.44V3.5H440.92V-.43q4.88,9,8.88,18.44A210.33,210.33,0,0,1,466.39,100.15Z"/><path class="cls-2" d="M465.52,100.15A209.35,209.35,0,0,1,449,181.94q-4,9.44-8.84,18.37v-6.64H70.59v6.64q-4.84-8.92-8.85-18.37a210.87,210.87,0,0,1,0-163.59q4-9.44,8.85-18.37V3.5H440.16V0Q445,8.9,449,18.35A209.36,209.36,0,0,1,465.52,100.15Z"/><path class="cls-2" d="M464.65,100.15a208.65,208.65,0,0,1-16.45,81.46q-4,9.39-8.81,18.29v-6.23h-368v6.23q-4.83-8.9-8.82-18.29a210,210,0,0,1,0-162.92q4-9.39,8.82-18.3V3.5h368V.39q4.83,8.9,8.81,18.3A208.57,208.57,0,0,1,464.65,100.15Z"/><path class="cls-2" d="M463.78,100.15a207.72,207.72,0,0,1-16.38,81.12q-3.94,9.34-8.77,18.22v-5.82H72.12v5.82q-4.82-8.87-8.78-18.22A209.2,209.2,0,0,1,63.34,19q4-9.35,8.78-18.21V3.5H438.63V.81Q443.44,9.66,447.4,19A207.73,207.73,0,0,1,463.78,100.15Z"/><path class="cls-2" d="M462.91,100.15a206.75,206.75,0,0,1-16.31,80.78q-3.93,9.31-8.74,18.14v-5.4h-365v5.4q-4.78-8.82-8.74-18.14a208.34,208.34,0,0,1,0-161.57q3.94-9.3,8.74-18.14V3.5h365V1.22q4.8,8.82,8.74,18.14A206.76,206.76,0,0,1,462.91,100.15Z"/><path class="cls-2" d="M462,100.15a206,206,0,0,1-16.24,80.44q-3.92,9.27-8.7,18.07v-5H73.65v5q-4.77-8.79-8.71-18.07a207.36,207.36,0,0,1,0-160.89q3.93-9.27,8.71-18.06V3.5H437.1V1.64q4.77,8.78,8.7,18.06A206,206,0,0,1,462,100.15Z"/><path class="cls-2" d="M461.18,100.15A205,205,0,0,1,445,180.25q-3.9,9.24-8.66,18v-4.57H74.41v4.57q-4.75-8.75-8.67-18A206.5,206.5,0,0,1,65.74,20q3.92-9.24,8.67-18V3.5H436.34V2.05Q441.1,10.8,445,20A205,205,0,0,1,461.18,100.15Z"/><path class="cls-2" d="M460.31,100.15a204.33,204.33,0,0,1-16.11,79.77q-3.88,9.2-8.63,17.91v-4.16H75.17v4.16q-4.73-8.72-8.63-17.91a205.67,205.67,0,0,1,0-159.54q3.9-9.19,8.63-17.92v1h360.4v-1q4.74,8.72,8.63,17.92A204.25,204.25,0,0,1,460.31,100.15Z"/><path class="cls-2" d="M459.44,100.15a203.39,203.39,0,0,1-16,79.43q-3.87,9.15-8.59,17.84v-3.75H75.94v3.75q-4.71-8.68-8.59-17.84a204.69,204.69,0,0,1,0-158.86q3.87-9.16,8.59-17.84V3.5H434.81V2.88q4.71,8.67,8.59,17.84A203.32,203.32,0,0,1,459.44,100.15Z"/><path class="cls-2" d="M458.57,100.15a202.42,202.42,0,0,1-16,79.09q-3.86,9.12-8.55,17.76v-3.33H76.7V197q-4.7-8.64-8.55-17.76a203.85,203.85,0,0,1,0-158.19Q72,11.95,76.7,3.29V3.5H434.05V3.29q4.68,8.64,8.55,17.76A202.44,202.44,0,0,1,458.57,100.15Z"/><path class="cls-2" d="M457.7,100.15a201.63,201.63,0,0,1-15.9,78.75Q438,188,433.28,196.59v-2.92H77.47v2.92Q72.79,188,69,178.9A203,203,0,0,1,69,21.39q3.83-9.08,8.52-17.69C78.24,2.27,79,.85,79.85-.56V3.5h351V-.56q1.22,2.12,2.38,4.26,4.68,8.61,8.52,17.69A201.68,201.68,0,0,1,457.7,100.15Z"/><path class="cls-2" d="M456.83,100.15A200.7,200.7,0,0,1,441,178.56q-3.83,9-8.48,17.61v-2.5H78.23v2.5q-4.65-8.55-8.48-17.61a202,202,0,0,1,0-156.83q3.81-9,8.48-17.61C79,2.69,79.8,1.27,80.6-.13V3.5H430.14V-.13q1.22,2.1,2.38,4.25,4.65,8.56,8.48,17.61A200.71,200.71,0,0,1,456.83,100.15Z"/><path class="cls-2" d="M456,100.15a200,200,0,0,1-15.77,78.08c-2.53,6-5.36,11.85-8.44,17.53v-2.09H79v2.09q-4.63-8.52-8.44-17.53a201.18,201.18,0,0,1,0-156.16q3.8-9,8.44-17.54Q80.15,2.4,81.36.3V3.5h348V.3c.81,1.4,1.59,2.81,2.37,4.23,3.08,5.69,5.91,11.54,8.44,17.54A200,200,0,0,1,456,100.15Z"/><path class="cls-2" d="M455.1,100.15a199.07,199.07,0,0,1-15.7,77.74q-3.78,9-8.41,17.46v-1.68H79.76v1.68q-4.62-8.49-8.41-17.46a200.32,200.32,0,0,1,0-155.48q3.78-9,8.41-17.46,2.3-4.24,4.81-8.37V3.5H426.18V-3.42Q428.69.71,431,5q4.62,8.49,8.41,17.46A199,199,0,0,1,455.1,100.15Z"/><path class="cls-2" d="M454.23,100.15a198.1,198.1,0,0,1-15.63,77.4q-3.77,8.92-8.37,17.38v-1.26H80.52v1.26q-4.59-8.44-8.37-17.38a199.48,199.48,0,0,1,0-154.81q3.76-8.91,8.37-17.38Q82.82,1.13,85.31-3V3.5H425.44V-3q2.49,4.11,4.79,8.33,4.59,8.46,8.37,17.38A198.11,198.11,0,0,1,454.23,100.15Z"/><path class="cls-2" d="M453.36,100.15a197.31,197.31,0,0,1-15.56,77.06q-3.75,8.88-8.33,17.31v-.85H81.28v.85q-4.56-8.42-8.33-17.31A198.62,198.62,0,0,1,73,23.08Q76.7,14.2,81.28,5.77q2.3-4.2,4.77-8.29v6H424.7v-6q2.48,4.08,4.77,8.29,4.56,8.42,8.33,17.31A197.36,197.36,0,0,1,453.36,100.15Z"/><path class="cls-2" d="M452.49,100.15A196.38,196.38,0,0,1,437,176.87q-3.74,8.85-8.3,17.24v-.44H82.05v.44q-4.56-8.38-8.3-17.24a197.76,197.76,0,0,1,0-153.45q3.73-8.85,8.3-17.23c1.51-2.79,3.1-5.55,4.74-8.26V3.5H424V-2.07Q426.42,2,428.7,6.19q4.56,8.37,8.3,17.23A196.39,196.39,0,0,1,452.49,100.15Z"/><path class="cls-2" d="M451.62,100.15a195.68,195.68,0,0,1-15.42,76.39q-3.72,8.81-8.26,17.15v0H82.81v0q-4.53-8.34-8.26-17.15a196.81,196.81,0,0,1,0-152.78Q78.27,15,82.81,6.6q2.26-4.17,4.73-8.22V3.5H423.21V-1.62q2.46,4.05,4.73,8.22,4.53,8.34,8.26,17.16A195.64,195.64,0,0,1,451.62,100.15Z"/><path class="cls-2" d="M450.76,100.15a194.75,194.75,0,0,1-15.36,76q-3.7,8.76-8.23,17.08c-.75,1.38-1.52,2.76-2.3,4.12v-3.73h-339v3.73c-.79-1.36-1.55-2.74-2.31-4.12q-4.5-8.31-8.22-17.08a195.95,195.95,0,0,1,0-152.1Q79.05,15.33,83.57,7q2.27-4.15,4.71-8.19V3.5H422.47V-1.17q2.44,4,4.7,8.19,4.51,8.3,8.23,17.08A194.68,194.68,0,0,1,450.76,100.15Z"/><path class="cls-2" d="M449.89,100.15a194,194,0,0,1-15.29,75.71q-3.69,8.73-8.19,17-1.12,2.07-2.29,4.11v-3.3H86.63V197q-1.17-2-2.29-4.11-4.5-8.27-8.19-17a195.11,195.11,0,0,1,0-151.43q3.69-8.71,8.19-17C85.83,4.67,87.4,2,89-.72V3.5H421.73V-.72q2.43,4,4.68,8.15,4.5,8.27,8.19,17A194,194,0,0,1,449.89,100.15Z"/><path class="cls-2" d="M449,100.15a193,193,0,0,1-15.22,75.37q-3.68,8.68-8.15,16.93-2.23,4.11-4.67,8.11v-6.89H89.76v6.89q-2.42-4-4.66-8.11-4.47-8.23-8.15-16.93A194.25,194.25,0,0,1,77,24.77q3.67-8.68,8.15-16.93,2.24-4.11,4.66-8.11V3.5H421V-.27q2.43,4,4.67,8.11,4.47,8.24,8.15,16.93A193,193,0,0,1,449,100.15Z"/><path class="cls-2" d="M448.15,100.15a192.06,192.06,0,0,1-15.15,75q-3.66,8.65-8.12,16.86-2.22,4.1-4.64,8.07v-6.44H90.51v6.44q-2.42-4-4.65-8.07-4.44-8.21-8.11-16.86a193.39,193.39,0,0,1,0-150.07q3.66-8.66,8.11-16.85Q88.1,4.17,90.51.18V3.5H420.24V.18q2.42,4,4.64,8.08,4.46,8.19,8.12,16.85A192.07,192.07,0,0,1,448.15,100.15Z"/><path class="cls-2" d="M447.28,100.15a191.35,191.35,0,0,1-15.08,74.7q-3.65,8.61-8.08,16.77-2.22,4.08-4.62,8v-6H91.25v6q-2.4-4-4.62-8-4.44-8.16-8.08-16.77a192.56,192.56,0,0,1,0-149.4q3.63-8.61,8.08-16.78,2.22-4.08,4.62-8V3.5H419.5V.64q2.4,3.95,4.62,8,4.42,8.16,8.08,16.78A191.32,191.32,0,0,1,447.28,100.15Z"/><path class="cls-2" d="M446.41,100.15a190.42,190.42,0,0,1-15,74.36q-3.63,8.56-8,16.7-2.21,4-4.6,8v-5.54H92v5.54q-2.38-3.94-4.6-8-4.41-8.13-8-16.7a191.58,191.58,0,0,1,0-148.72q3.62-8.58,8-16.7Q89.6,5,92,1.09V3.5H418.76V1.09q2.39,3.93,4.6,8,4.41,8.11,8,16.7A190.35,190.35,0,0,1,446.41,100.15Z"/><path class="cls-2" d="M445.55,100.15a189.64,189.64,0,0,1-14.95,74q-3.6,8.54-8,16.62-2.19,4.05-4.58,8v-5.09H92.73v5.09q-2.37-3.93-4.57-8-4.39-8.08-8-16.62a190.74,190.74,0,0,1,0-148q3.6-8.52,8-16.62,2.19-4.05,4.57-8v2H418v-2q2.39,3.92,4.58,8,4.4,8.09,8,16.62A189.65,189.65,0,0,1,445.55,100.15Z"/><path class="cls-2" d="M444.68,100.15a188.7,188.7,0,0,1-14.88,73.68q-3.58,8.49-8,16.55-2.19,4-4.56,7.93v-4.64H93.48v4.64q-2.37-3.9-4.56-7.93-4.38-8-8-16.55A189.88,189.88,0,0,1,81,26.46q3.58-8.49,8-16.55,2.19-4,4.56-7.92V3.5H417.27V2q2.37,3.9,4.56,7.92,4.37,8.06,8,16.55A188.72,188.72,0,0,1,444.68,100.15Z"/><path class="cls-2" d="M443.81,100.15A187.74,187.74,0,0,1,429,173.49Q425.43,182,421.07,190q-2.18,4-4.54,7.89v-4.19H94.22v4.19Q91.87,194,89.68,190q-4.35-8-7.93-16.48a189,189,0,0,1,0-146.69q3.57-8.46,7.93-16.47,2.17-4,4.54-7.89V3.5H416.53V2.44q2.36,3.89,4.54,7.89,4.35,8,7.93,16.47A187.75,187.75,0,0,1,443.81,100.15Z"/><path class="cls-2" d="M442.94,100.15a187,187,0,0,1-14.74,73q-3.56,8.42-7.9,16.39-2.16,4-4.51,7.86v-3.74H95v3.74q-2.34-3.87-4.51-7.86-4.33-8-7.9-16.39a188.19,188.19,0,0,1,0-146q3.56-8.41,7.9-16.4,2.16-4,4.51-7.85V3.5H415.79V2.89q2.34,3.85,4.51,7.85,4.33,8,7.9,16.4A187,187,0,0,1,442.94,100.15Z"/><path class="cls-2" d="M442.07,100.15a186.1,186.1,0,0,1-14.67,72.67q-3.54,8.37-7.86,16.32-2.16,4-4.5,7.82v-3.29H95.7V197q-2.33-3.86-4.49-7.82-4.3-7.94-7.86-16.32a187.33,187.33,0,0,1,0-145.34q3.54-8.39,7.86-16.32,2.16-4,4.49-7.82V3.5H415V3.34q2.34,3.84,4.5,7.82,4.31,7.93,7.86,16.32A186,186,0,0,1,442.07,100.15Z"/><path class="cls-2" d="M441.2,100.15a185.31,185.31,0,0,1-14.6,72.33q-3.53,8.34-7.82,16.24-2.14,4-4.48,7.79v-2.84H96.45v2.84q-2.33-3.84-4.48-7.79-4.29-7.89-7.82-16.24a186.37,186.37,0,0,1,0-144.67Q87.68,19.49,92,11.57q2.15-3.95,4.48-7.78Q97.6,1.87,98.82,0V3.5H411.93V0q1.2,1.88,2.37,3.8,2.32,3.83,4.48,7.78,4.29,7.91,7.82,16.24A185.36,185.36,0,0,1,441.2,100.15Z"/><path class="cls-2" d="M440.34,100.15a184.38,184.38,0,0,1-14.54,72q-3.51,8.3-7.79,16.17-2.13,3.93-4.45,7.75v-2.39H97.19v2.39q-2.31-3.83-4.45-7.75-4.27-7.86-7.79-16.17A184.75,184.75,0,0,1,102-3.27V3.5H408.75V-3.27a184.2,184.2,0,0,1,31.59,103.42Z"/><path class="cls-2" d="M439.47,100.15A183.41,183.41,0,0,1,425,171.8q-3.5,8.26-7.75,16.1c-1.42,2.6-2.9,5.18-4.43,7.71v-1.94H97.93v1.94c-1.53-2.53-3-5.11-4.43-7.71q-4.25-7.83-7.75-16.1a183.87,183.87,0,0,1,17-174.58V3.5H408V-2.78a183.3,183.3,0,0,1,31.44,102.93Z"/><path class="cls-2" d="M438.6,100.15a182.71,182.71,0,0,1-14.4,71.32q-3.48,8.22-7.72,16-2.12,3.9-4.41,7.68v-1.49H98.68v1.49q-2.3-3.78-4.42-7.68-4.23-7.78-7.71-16A183,183,0,0,1,103.44-2.3V3.5H407.31V-2.3A182.49,182.49,0,0,1,438.6,100.15Z"/><path class="cls-2" d="M437.73,100.15a181.78,181.78,0,0,1-14.33,71q-3.47,8.18-7.68,15.94-2.1,3.87-4.39,7.64v-1H99.42v1q-2.28-3.77-4.39-7.64-4.22-7.75-7.68-15.94A182.16,182.16,0,0,1,104.16-1.81V3.5H406.59V-1.81a181.59,181.59,0,0,1,31.14,102Z"/><path class="cls-2" d="M436.86,100.15a181,181,0,0,1-14.26,70.64q-3.45,8.15-7.64,15.86-2.1,3.87-4.37,7.6v-.58H100.16v.58c-1.52-2.49-3-5-4.37-7.6-2.79-5.14-5.35-10.43-7.64-15.86A181.29,181.29,0,0,1,104.88-1.33V3.5h301V-1.33a180.68,180.68,0,0,1,31,101.48Z"/><path class="cls-2" d="M436,100.15a180.05,180.05,0,0,1-14.19,70.3q-3.44,8.1-7.61,15.79-2.08,3.84-4.35,7.56v-.13H100.9v.13q-2.27-3.72-4.35-7.56-4.17-7.68-7.6-15.79A180.4,180.4,0,0,1,105.6-.84V3.5H405.15V-.84a179.78,179.78,0,0,1,30.84,101Z"/><path class="cls-2" d="M435.13,100.15a179.05,179.05,0,0,1-30.7,100.5v-7H106.32v7a179.53,179.53,0,0,1,0-201V3.5H404.43V-.35a179,179,0,0,1,30.7,100.5Z"/><path class="cls-2" d="M434.26,100.15a178.05,178.05,0,0,1-30.55,100v-6.49H107v6.49a178.69,178.69,0,0,1,0-200V3.5H403.71V.13a178.15,178.15,0,0,1,30.55,100Z"/><path class="cls-2" d="M433.39,100.15A177.25,177.25,0,0,1,403,199.68v-6H107.76v6a177.81,177.81,0,0,1,0-199.06V3.5H403V.62a177.25,177.25,0,0,1,30.4,99.53Z"/><path class="cls-2" d="M432.52,100.15a176.34,176.34,0,0,1-30.25,99v-5.52H108.48v5.52a176.93,176.93,0,0,1,0-198.09V3.5H402.27V1.1a176.34,176.34,0,0,1,30.25,99.05Z"/><path class="cls-2" d="M431.65,100.15a175.53,175.53,0,0,1-30.1,98.56v-5H109.2v5a176.06,176.06,0,0,1,0-197.12V3.5H401.55V1.59a175.44,175.44,0,0,1,30.1,98.56Z"/><path class="cls-2" d="M430.78,100.15a174.63,174.63,0,0,1-29.95,98.07v-4.55H109.92v4.55a175.22,175.22,0,0,1,0-196.15V3.5H400.83V2.07a174.63,174.63,0,0,1,29.95,98.08Z"/><path class="cls-2" d="M429.92,100.15a173.71,173.71,0,0,1-29.81,97.58v-4.06H110.64v4.06a174.33,174.33,0,0,1,0-195.17V3.5H400.11V2.56a173.81,173.81,0,0,1,29.81,97.59Z"/><path class="cls-2" d="M429.05,100.15a172.91,172.91,0,0,1-29.66,97.1v-3.58h-288v3.58A173.5,173.5,0,0,1,111.36,3V3.5h288V3a173,173,0,0,1,29.66,97.11Z"/><path class="cls-2" d="M428.18,100.15a172,172,0,0,1-29.51,96.61v-3.09H112.08v3.09a172.58,172.58,0,0,1,0-193.23q2.33-3.45,4.82-6.78V3.5h277V-3.25c1.66,2.22,3.26,4.48,4.82,6.78a172,172,0,0,1,29.51,96.62Z"/><path class="cls-2" d="M427.31,100.15A171.19,171.19,0,0,1,398,196.28v-2.61H112.8v2.61A171.71,171.71,0,0,1,112.8,4q2.33-3.43,4.8-6.75V3.5H393.15V-2.73Q395.63.59,398,4a171.1,171.1,0,0,1,29.36,96.13Z"/><path class="cls-2" d="M426.44,100.15a170.29,170.29,0,0,1-29.21,95.64v-2.12H113.52v2.12a170.87,170.87,0,0,1,0-191.29q2.31-3.4,4.77-6.71V3.5H392.46V-2.21q2.46,3.3,4.77,6.71a170.29,170.29,0,0,1,29.21,95.65Z"/><path class="cls-2" d="M425.57,100.15a169.39,169.39,0,0,1-29.06,95.16v-1.64H114.24v1.64A170,170,0,0,1,114.24,5C115.77,2.72,117.35.5,119-1.69V3.5H391.76V-1.69C393.39.5,395,2.72,396.51,5a169.39,169.39,0,0,1,29.06,95.16Z"/><path class="cls-2" d="M424.71,100.15a168.57,168.57,0,0,1-28.92,94.67v-1.15H115v1.15A169.15,169.15,0,0,1,115,5.47c1.52-2.25,3.1-4.46,4.72-6.64V3.5H391.07V-1.17q2.43,3.27,4.72,6.64a168.66,168.66,0,0,1,28.92,94.68Z"/><path class="cls-2" d="M423.84,100.15a167.76,167.76,0,0,1-28.77,94.19v-.67H115.68v.67A168.24,168.24,0,0,1,115.68,6c1.52-2.24,3.08-4.45,4.7-6.61V3.5h270V-.65c1.62,2.16,3.18,4.37,4.7,6.61a167.66,167.66,0,0,1,28.77,94.19Z"/><path class="cls-2" d="M423,100.15a166.85,166.85,0,0,1-28.62,93.7v-.18h-278v.18a167.4,167.4,0,0,1,0-187.41q2.26-3.35,4.67-6.57V3.5h268.6V-.13q2.41,3.22,4.68,6.57A166.85,166.85,0,0,1,423,100.15Z"/><path class="cls-2" d="M422.1,100.15a165.95,165.95,0,0,1-28.47,93.21q-2.25,3.33-4.65,6.54v-6.23H121.77v6.23q-2.4-3.21-4.65-6.54a166.51,166.51,0,0,1,0-186.43q2.25-3.33,4.65-6.54V3.5H389V.39q2.4,3.21,4.65,6.54a165.95,165.95,0,0,1,28.47,93.22Z"/><path class="cls-2" d="M421.23,100.15a165,165,0,0,1-28.32,92.73c-1.49,2.21-3,4.37-4.63,6.5v-5.71H122.47v5.71c-1.6-2.13-3.14-4.29-4.63-6.5a165.68,165.68,0,0,1,0-185.47q2.23-3.3,4.63-6.5V3.5H388.28V.91c1.59,2.13,3.14,4.3,4.63,6.5a165.14,165.14,0,0,1,28.32,92.74Z"/><path class="cls-2" d="M420.36,100.15a164.14,164.14,0,0,1-28.17,92.24c-1.49,2.2-3,4.35-4.6,6.47v-5.19H123.16v5.19c-1.58-2.12-3.12-4.27-4.6-6.47a164.8,164.8,0,0,1,0-184.49c1.48-2.19,3-4.35,4.6-6.47V3.5H387.59V1.43q2.37,3.18,4.6,6.47a164.24,164.24,0,0,1,28.17,92.25Z"/><path class="cls-2" d="M419.49,100.15a163.33,163.33,0,0,1-28,91.76c-1.48,2.18-3,4.33-4.58,6.43v-4.67h-263v4.67c-1.58-2.1-3.1-4.25-4.58-6.43a163.89,163.89,0,0,1,0-183.52c1.48-2.19,3-4.33,4.58-6.44V3.5h263V2c1.58,2.11,3.1,4.25,4.58,6.44a163.24,163.24,0,0,1,28,91.76Z"/><path class="cls-2" d="M418.63,100.15a162.51,162.51,0,0,1-27.88,91.27c-1.47,2.17-3,4.31-4.56,6.4v-4.15H124.55v4.15c-1.56-2.09-3.08-4.23-4.55-6.4A163,163,0,0,1,120,8.87q2.2-3.25,4.55-6.4v1H386.19v-1q2.35,3.15,4.56,6.4a162.51,162.51,0,0,1,27.88,91.28Z"/><path class="cls-2" d="M417.76,100.15A161.71,161.71,0,0,1,390,190.94q-2.19,3.24-4.53,6.36v-3.63H125.25v3.63q-2.34-3.12-4.53-6.36a162.17,162.17,0,0,1,0-181.58q4.38-6.48,9.35-12.5V3.5H380.68V-3.14q5,6,9.35,12.5a161.61,161.61,0,0,1,27.73,90.79Z"/><path class="cls-2" d="M416.89,100.15a160.71,160.71,0,0,1-27.58,90.3q-2.19,3.23-4.51,6.33v-3.11H126v3.11c-1.55-2.07-3.06-4.18-4.51-6.33a161.33,161.33,0,0,1,0-180.61q4.36-6.43,9.3-12.43V3.5H380V-2.59q4.94,6,9.3,12.43a160.8,160.8,0,0,1,27.58,90.31Z"/><path class="cls-2" d="M416,100.15A159.9,159.9,0,0,1,388.59,190q-2.18,3.19-4.48,6.29v-2.59H126.64v2.59q-2.31-3.09-4.48-6.29a160.46,160.46,0,0,1,0-179.64Q126.5,3.91,131.41-2V3.5H379.34V-2q4.91,6,9.25,12.37A159.9,159.9,0,0,1,416,100.15Z"/><path class="cls-2" d="M415.15,100.15a159,159,0,0,1-27.28,89.33c-1.44,2.13-2.93,4.21-4.46,6.26v-2.07H127.34v2.07c-1.54-2.05-3-4.13-4.46-6.26a159.58,159.58,0,0,1,0-178.67q4.31-6.38,9.2-12.3v5H378.67v-5q4.88,5.93,9.2,12.3a159,159,0,0,1,27.28,89.34Z"/><path class="cls-2" d="M414.28,100.15A158.19,158.19,0,0,1,387.15,189q-2.14,3.17-4.44,6.23v-1.56H128v1.56q-2.28-3.06-4.43-6.23a158.71,158.71,0,0,1,0-177.7Q127.89,5,132.75-.94V3.5H378V-.94q4.86,5.9,9.15,12.24a158.09,158.09,0,0,1,27.13,88.85Z"/><path class="cls-2" d="M413.42,100.15a157.37,157.37,0,0,1-27,88.36q-2.13,3.15-4.41,6.2v-1H128.73v1q-2.28-3-4.41-6.2a157.86,157.86,0,0,1,0-176.73q4.26-6.3,9.1-12.16V3.5H377.33V-.38q4.83,5.85,9.1,12.16a157.37,157.37,0,0,1,27,88.37Z"/><path class="cls-2" d="M412.55,100.15A156.37,156.37,0,0,1,385.71,188q-4.24,6.27-9,12.1v-6.45H134.09v6.45q-4.8-5.82-9-12.1a157,157,0,0,1,0-175.75q4.24-6.27,9-12.1V3.5H376.66V.17q4.8,5.82,9,12.1a156.46,156.46,0,0,1,26.84,87.88Z"/><path class="cls-2" d="M411.68,100.15A155.56,155.56,0,0,1,385,187.54q-4.22,6.24-9,12v-5.9H134.76v5.9q-4.77-5.79-9-12a156.15,156.15,0,0,1,0-174.79q4.21-6.22,9-12V3.5H376V.72q4.77,5.79,9,12a155.65,155.65,0,0,1,26.69,87.4Z"/><path class="cls-2" d="M410.81,100.15a154.65,154.65,0,0,1-26.54,86.9q-4.2,6.21-8.95,12v-5.35H135.43V199q-4.76-5.76-9-12a155.23,155.23,0,0,1,0-173.81q4.2-6.2,9-12V3.5H375.32V1.27q4.74,5.76,8.95,12a154.65,154.65,0,0,1,26.54,86.91Z"/><path class="cls-2" d="M409.94,100.15a153.85,153.85,0,0,1-26.39,86.42q-4.17,6.17-8.9,11.9v-4.8H136.1v4.8q-4.72-5.73-8.9-11.9a154.35,154.35,0,0,1,0-172.84q4.17-6.18,8.9-11.9V3.5H374.65V1.83q4.73,5.72,8.9,11.9a153.75,153.75,0,0,1,26.39,86.42Z"/><path class="cls-2" d="M409.07,100.15a152.8,152.8,0,0,1-26.25,85.93q-4.14,6.13-8.84,11.83v-4.24H136.77v4.24q-4.7-5.68-8.85-11.83a153.51,153.51,0,0,1,0-171.87q4.15-6.14,8.85-11.83V3.5H374V2.38q4.69,5.69,8.84,11.83a152.8,152.8,0,0,1,26.25,85.94Z"/><path class="cls-2" d="M408.21,100.15A152,152,0,0,1,382.1,185.6q-4.11,6.09-8.79,11.76v-3.69H137.44v3.69q-4.66-5.66-8.8-11.76a152.64,152.64,0,0,1,0-170.9q4.13-6.1,8.8-11.77V3.5H373.31V2.93Q378,8.6,382.1,14.7a152,152,0,0,1,26.11,85.45Z"/><path class="cls-2" d="M407.34,100.15a151.08,151.08,0,0,1-26,85q-4.1,6.06-8.74,11.7v-3.14H138.11v3.14q-4.65-5.62-8.75-11.7a151.8,151.8,0,0,1,0-169.93q4.09-6.06,8.75-11.7v0H372.64v0q4.64,5.64,8.74,11.7a151.17,151.17,0,0,1,26,85Z"/><path class="cls-2" d="M406.47,100.15a150.27,150.27,0,0,1-25.81,84.48c-2.71,4-5.61,7.9-8.69,11.63v-2.59H138.78v2.59c-3.08-3.73-6-7.62-8.7-11.63a150.89,150.89,0,0,1,0-169q4.08-6,8.7-11.63,2.31-2.8,4.75-5.49v5H367.22V-1.45C368.84.34,370.43,2.17,372,4q4.62,5.59,8.69,11.63a150.17,150.17,0,0,1,25.81,84.48Z"/><path class="cls-2" d="M405.6,100.15a149.36,149.36,0,0,1-25.66,84q-4,6-8.64,11.56v-2H139.45v2q-4.59-5.55-8.65-11.56a150,150,0,0,1,0-168q4-6,8.65-11.56C141,2.73,142.56.92,144.17-.86V3.5h222.4V-.86c1.62,1.78,3.2,3.59,4.73,5.45q4.59,5.57,8.64,11.56a149.36,149.36,0,0,1,25.66,84Z"/><path class="cls-2" d="M404.73,100.15a148.46,148.46,0,0,1-25.51,83.5q-4,6-8.59,11.5v-1.48H140.12v1.48q-4.56-5.53-8.6-11.5a149.16,149.16,0,0,1,0-167q4-6,8.6-11.5,2.28-2.76,4.7-5.42V3.5H365.93V-.28c1.61,1.77,3.17,3.58,4.7,5.42q4.56,5.54,8.59,11.5a148.46,148.46,0,0,1,25.51,83.51Z"/><path class="cls-2" d="M403.86,100.15a147.56,147.56,0,0,1-25.36,83c-2.66,4-5.52,7.76-8.54,11.43v-.93H140.79v.93q-4.53-5.5-8.55-11.43a148.33,148.33,0,0,1,0-166q4-5.93,8.55-11.43c1.51-1.83,3.07-3.63,4.67-5.38V3.5H365.29V.31c1.6,1.75,3.15,3.55,4.67,5.38,3,3.67,5.88,7.48,8.54,11.43a147.65,147.65,0,0,1,25.36,83Z"/><path class="cls-2" d="M403,100.15a146.74,146.74,0,0,1-25.22,82.53q-4,5.9-8.49,11.37v-.38H141.46v.38q-4.52-5.48-8.5-11.37a147.44,147.44,0,0,1,0-165.07q4-5.89,8.5-11.36c1.51-1.83,3-3.61,4.64-5.36V3.5H364.65V.89c1.59,1.75,3.13,3.53,4.64,5.36q4.5,5.46,8.49,11.36A146.83,146.83,0,0,1,403,100.15Z"/><path class="cls-2" d="M402.13,100.15a145.93,145.93,0,0,1-25.07,82q-3.94,5.85-8.44,11.3-2.25,2.72-4.62,5.32v-5.15H146.74v5.15q-2.36-2.61-4.61-5.32-4.49-5.44-8.45-11.3a146.53,146.53,0,0,1,0-164.1q4-5.87,8.45-11.3,2.25-2.71,4.61-5.33v2H364v-2q2.37,2.61,4.62,5.33,4.49,5.43,8.44,11.3a145.83,145.83,0,0,1,25.07,82.05Z"/><path class="cls-2" d="M401.26,100.15a145.25,145.25,0,0,1-24.92,81.56q-3.93,5.82-8.39,11.23-2.24,2.7-4.59,5.3v-4.57h-216v4.57q-2.35-2.6-4.59-5.3-4.45-5.4-8.4-11.23A145.93,145.93,0,0,1,152.22-3V3.5H358.53V-3A145.43,145.43,0,0,1,401.26,100.15Z"/><path class="cls-2" d="M400.39,100.15a144.44,144.44,0,0,1-24.77,81.08q-3.9,5.78-8.34,11.16c-1.48,1.79-3,3.55-4.56,5.26v-4H148v4c-1.56-1.71-3.08-3.47-4.56-5.26Q139,187,135.12,181.23A145.08,145.08,0,0,1,152.83-2.4V3.5H357.92V-2.4A144.59,144.59,0,0,1,400.39,100.15Z"/><path class="cls-2" d="M399.52,100.15a143.44,143.44,0,0,1-24.62,80.59q-3.88,5.76-8.29,11.1-2.21,2.67-4.53,5.23v-3.4H148.67v3.4q-2.32-2.56-4.53-5.23-4.41-5.34-8.3-11.1A144.2,144.2,0,0,1,153.45-1.78V3.5H357.3V-1.78A143.67,143.67,0,0,1,399.52,100.15Z"/><path class="cls-2" d="M398.65,100.15a142.64,142.64,0,0,1-24.47,80.11q-3.85,5.72-8.24,11c-1.46,1.77-3,3.5-4.51,5.19v-2.81H149.32v2.81q-2.32-2.53-4.51-5.19-4.38-5.31-8.25-11A143.32,143.32,0,0,1,154.06-1.17V3.5H356.69V-1.17A142.83,142.83,0,0,1,398.65,100.15Z"/><path class="cls-2" d="M397.79,100.15a141.82,141.82,0,0,1-24.33,79.62q-3.84,5.68-8.19,11-2.19,2.64-4.48,5.17v-2.23H150v2.23c-1.53-1.69-3-3.41-4.48-5.17q-4.35-5.26-8.2-11A142.45,142.45,0,0,1,154.67-.55V3.5h201.4v-4A141.93,141.93,0,0,1,397.79,100.15Z"/><path class="cls-2" d="M396.92,100.15a141.11,141.11,0,0,1-41.46,100.08v-6.56H155.29v6.56a141.53,141.53,0,0,1,0-200.17V3.5H355.46V.06A141.12,141.12,0,0,1,396.92,100.15Z"/><path class="cls-2" d="M396.05,100.15a140.27,140.27,0,0,1-41.2,99.47v-6h-199v6a140.69,140.69,0,0,1,0-199V3.5h199V.67A140.28,140.28,0,0,1,396.05,100.15Z"/><path class="cls-2" d="M395.18,100.15A139.36,139.36,0,0,1,354.23,199v-5.33H156.52V199a139.8,139.8,0,0,1,0-197.71V3.5H354.23V1.29A139.37,139.37,0,0,1,395.18,100.15Z"/><path class="cls-2" d="M394.31,100.15a138.51,138.51,0,0,1-40.69,98.24v-4.72H157.13v4.72a139,139,0,0,1,0-196.49V3.5H353.62V1.9A138.53,138.53,0,0,1,394.31,100.15Z"/><path class="cls-2" d="M393.44,100.15A137.64,137.64,0,0,1,353,197.78v-4.11H157.74v4.11a138.07,138.07,0,0,1,0-195.26v1H353v-1A137.6,137.6,0,0,1,393.44,100.15Z"/><path class="cls-2" d="M392.58,100.15a136.77,136.77,0,0,1-40.19,97v-3.49h-194v3.49a137.19,137.19,0,0,1,0-194V3.5h194V3.13A136.78,136.78,0,0,1,392.58,100.15Z"/><path class="cls-2" d="M391.71,100.15a135.92,135.92,0,0,1-39.93,96.4v-2.88H159v2.88A136.34,136.34,0,0,1,159,3.74q2.31-2.31,4.74-4.51V3.5H347V-.77c1.62,1.47,3.19,3,4.74,4.51A135.94,135.94,0,0,1,391.71,100.15Z"/><path class="cls-2" d="M390.84,100.15a135,135,0,0,1-39.68,95.78v-2.26H159.59v2.26a135.45,135.45,0,0,1,0-191.57q2.29-2.3,4.7-4.49V3.5H346.46V-.13q2.4,2.19,4.7,4.49A135,135,0,0,1,390.84,100.15Z"/><path class="cls-2" d="M390,100.15a134.17,134.17,0,0,1-39.42,95.17v-1.65H160.2v1.65A134.6,134.6,0,0,1,160.2,5c1.52-1.52,3.08-3,4.67-4.45v3h181v-3C347.47,2,349,3.45,350.55,5A134.18,134.18,0,0,1,390,100.15Z"/><path class="cls-2" d="M389.1,100.15a133.33,133.33,0,0,1-39.17,94.56v-1H160.81v1a133.75,133.75,0,0,1,0-189.12Q165.36,1,170.31-3V3.5H340.44V-3q4.95,4.08,9.49,8.63A133.31,133.31,0,0,1,389.1,100.15Z"/><path class="cls-2" d="M388.23,100.15a132.45,132.45,0,0,1-38.91,93.94v-.42H161.43v.42a132.84,132.84,0,0,1,0-187.89c3-3,6.15-5.87,9.43-8.57V3.5h169V-2.37c3.28,2.7,6.42,5.57,9.43,8.57A132.45,132.45,0,0,1,388.23,100.15Z"/><path class="cls-2" d="M387.37,100.15a131.62,131.62,0,0,1-38.66,93.33q-2.25,2.24-4.59,4.37v-4.18H166.63v4.18c-1.57-1.42-3.09-2.88-4.59-4.37A132,132,0,0,1,162,6.81q4.49-4.47,9.38-8.51V3.5H339.33V-1.7q4.89,4,9.38,8.51A131.63,131.63,0,0,1,387.37,100.15Z"/><path class="cls-2" d="M386.5,100.15a130.67,130.67,0,0,1-38.41,92.71q-2.22,2.23-4.55,4.35v-3.54H167.21v3.54q-2.33-2.11-4.55-4.35a131.1,131.1,0,0,1,0-185.43Q167.1,3,172-1V3.5H338.78V-1q4.86,4,9.31,8.46A130.72,130.72,0,0,1,386.5,100.15Z"/><path class="cls-2" d="M385.63,100.15a129.84,129.84,0,0,1-38.15,92.1q-4.43,4.42-9.25,8.41v-7H172.52v7q-4.83-4-9.25-8.41A130.26,130.26,0,0,1,163.27,8c2.95-2.94,6-5.75,9.25-8.4V3.5H338.23V-.36c3.21,2.65,6.3,5.46,9.25,8.4A129.86,129.86,0,0,1,385.63,100.15Z"/><path class="cls-2" d="M384.76,100.15a129,129,0,0,1-37.9,91.49c-2.92,2.92-6,5.71-9.18,8.35v-6.32H173.07V200q-4.78-4-9.19-8.35a129.4,129.4,0,0,1,0-183q4.4-4.39,9.19-8.35V3.5H337.68V.31c3.19,2.63,6.26,5.42,9.18,8.35A129,129,0,0,1,384.76,100.15Z"/><path class="cls-2" d="M383.89,100.15A128.07,128.07,0,0,1,346.25,191q-4.37,4.36-9.13,8.3v-5.65H173.62v5.65q-4.76-3.93-9.12-8.3a128.52,128.52,0,0,1,0-181.75q4.37-4.36,9.12-8.29V3.5h163.5V1q4.77,3.93,9.13,8.29A128.12,128.12,0,0,1,383.89,100.15Z"/><path class="cls-2" d="M383,100.15a127.24,127.24,0,0,1-37.38,90.26q-4.33,4.34-9.07,8.24v-5H174.18v5q-4.74-3.9-9.07-8.24a127.65,127.65,0,0,1,0-180.53q4.33-4.32,9.07-8.23V3.5H336.57V1.65q4.73,3.9,9.07,8.23A127.26,127.26,0,0,1,383,100.15Z"/><path class="cls-2" d="M382.16,100.15A126.38,126.38,0,0,1,345,189.79q-4.31,4.31-9,8.19v-4.31H174.73V198c-3.13-2.59-6.14-5.32-9-8.19a126.76,126.76,0,0,1,0-179.29c2.86-2.87,5.87-5.6,9-8.18V3.5H336V2.32q4.69,3.87,9,8.18A126.4,126.4,0,0,1,382.16,100.15Z"/><path class="cls-2" d="M381.29,100.15a125.54,125.54,0,0,1-36.88,89q-4.28,4.27-8.94,8.13v-3.64H175.28v3.64q-4.67-3.85-8.94-8.13a125.91,125.91,0,0,1,0-178.07q4.28-4.27,8.94-8.12V3.5H335.47V3q4.66,3.84,8.94,8.12A125.57,125.57,0,0,1,381.29,100.15Z"/><path class="cls-2" d="M380.42,100.15a124.65,124.65,0,0,1-36.63,88.42c-2.82,2.82-5.79,5.52-8.88,8.07v-3H175.83v3c-3.08-2.55-6.05-5.25-8.88-8.07a125.06,125.06,0,0,1,0-176.84c2.83-2.83,5.8-5.53,8.88-8.07,1.55-1.28,3.12-2.52,4.73-3.72V3.5H330.19V-.06q2.42,1.8,4.72,3.72C338,6.2,341,8.9,343.79,11.73A124.65,124.65,0,0,1,380.42,100.15Z"/><path class="cls-2" d="M379.55,100.15A123.78,123.78,0,0,1,343.18,188q-4.21,4.22-8.82,8v-2.3h-158V196q-4.6-3.79-8.82-8A124.22,124.22,0,0,1,186-2.82V3.5H324.8V-2.82a124.27,124.27,0,0,1,54.75,103Z"/><path class="cls-2" d="M378.68,100.15a122.94,122.94,0,0,1-36.11,87.19c-2.79,2.79-5.72,5.44-8.76,8v-1.63H176.94v1.63q-4.58-3.78-8.76-8a123.33,123.33,0,0,1,0-174.39,124.38,124.38,0,0,1,18.25-15V3.5H324.32V-2.1A124.38,124.38,0,0,1,342.57,13,123,123,0,0,1,378.68,100.15Z"/><path class="cls-2" d="M377.81,100.15A122,122,0,0,1,342,186.72q-4.15,4.16-8.69,7.91v-1H177.49v1q-4.53-3.75-8.69-7.91A122.49,122.49,0,0,1,186.92-1.38V3.5H323.83V-1.38a122.56,122.56,0,0,1,54,101.53Z"/><path class="cls-2" d="M377,100.15a121.19,121.19,0,0,1-35.61,86q-4.12,4.13-8.64,7.85v-.29H178V194q-4.5-3.72-8.63-7.85a121.57,121.57,0,0,1,0-171.93,122.56,122.56,0,0,1,18-14.84V3.5h136V-.66a122.56,122.56,0,0,1,18,14.84A121.21,121.21,0,0,1,377,100.15Z"/><path class="cls-2" d="M376.08,100.15a120.88,120.88,0,0,1-53.22,100.09v-6.57h-135v6.57A122.08,122.08,0,0,1,170,185.5a120.71,120.71,0,0,1,0-170.7A122.08,122.08,0,0,1,187.89.06V3.5h135V.06a120.88,120.88,0,0,1,53.22,100.09Z"/><path class="cls-2" d="M375.21,100.15a119.91,119.91,0,0,1-52.84,99.36v-5.84h-134v5.84a119.89,119.89,0,0,1,0-198.73V3.5h134V.78a119.91,119.91,0,0,1,52.84,99.37Z"/><path class="cls-2" d="M374.34,100.15a119,119,0,0,1-52.45,98.64v-5.12h-133v5.12a119,119,0,0,1,0-197.29v2h133v-2a119,119,0,0,1,52.45,98.65Z"/><path class="cls-2" d="M373.47,100.15a118.2,118.2,0,0,1-52.07,97.92v-4.4H189.34v4.4a118.17,118.17,0,0,1,0-195.85V3.5H321.4V2.22a118.2,118.2,0,0,1,52.07,97.93Z"/><path class="cls-2" d="M372.6,100.15A116.86,116.86,0,0,1,338.27,183a118.48,118.48,0,0,1-17.35,14.31v-3.68H189.83v3.68a117.27,117.27,0,0,1,0-194.41V3.5H320.92V2.94a118.48,118.48,0,0,1,17.35,14.31A116.89,116.89,0,0,1,372.6,100.15Z"/><path class="cls-2" d="M371.73,100.15a116.41,116.41,0,0,1-51.3,96.48v-3H190.32v3a117.41,117.41,0,0,1-17.23-14.2A116.4,116.4,0,0,1,190.32,3.66Q195,.53,199.91-2.17V3.5H310.84V-2.17q4.95,2.69,9.59,5.83a116.5,116.5,0,0,1,51.3,96.49Z"/><path class="cls-2" d="M370.87,100.15A115.61,115.61,0,0,1,320,195.91v-2.24H190.8v2.24a115.54,115.54,0,0,1,0-191.53q4.6-3.12,9.52-5.79V3.5h110.1V-1.41q4.92,2.67,9.53,5.79A116.77,116.77,0,0,1,337,18.48,115.13,115.13,0,0,1,370.87,100.15Z"/><path class="cls-2" d="M370,100.15a114.27,114.27,0,0,1-33.57,81,115.7,115.7,0,0,1-17,14v-1.52H191.29v1.52a115.7,115.7,0,0,1-17-14,114.68,114.68,0,0,1,17-176.1Q195.87,2,200.74-.64V3.5H310V-.64Q314.89,2,319.46,5.1A114.73,114.73,0,0,1,370,100.15Z"/><path class="cls-2" d="M369.13,100.15A113.91,113.91,0,0,1,319,194.47v-.8H191.77v.8a113.82,113.82,0,0,1,0-188.65q4.54-3.07,9.38-5.7V3.5H309.6V.12q4.83,2.63,9.38,5.7a113.91,113.91,0,0,1,50.15,94.33Z"/><path class="cls-2" d="M368.26,100.15a112.94,112.94,0,0,1-49.77,93.6v-.08H192.26v.08A112.91,112.91,0,0,1,175.55,20.32,114,114,0,0,1,192.26,6.54q4.5-3,9.31-5.66V3.5H309.18V.88q4.8,2.61,9.31,5.66A114,114,0,0,1,335.2,20.32,112.53,112.53,0,0,1,368.26,100.15Z"/><path class="cls-2" d="M367.39,100.15A112.11,112.11,0,0,1,318,193c-3,2-6.07,3.89-9.24,5.62v-5H202v5q-4.77-2.6-9.24-5.62a112.08,112.08,0,0,1,19-196.1V3.5H299V-3.07a112.17,112.17,0,0,1,68.41,103.22Z"/><path class="cls-2" d="M366.52,100.15a111.23,111.23,0,0,1-49,92.16q-4.44,3-9.16,5.57v-4.21h-106v4.21q-4.72-2.56-9.16-5.57A111.21,111.21,0,0,1,212.11-2.27V3.5h86.53V-2.27a111.26,111.26,0,0,1,67.88,102.42Z"/><path class="cls-2" d="M365.66,100.15A110.29,110.29,0,0,1,317,191.59q-4.39,3-9.09,5.53v-3.45H202.81v3.45q-4.69-2.55-9.1-5.53A110.35,110.35,0,0,1,212.45-1.47v5H298.3v-5a110.42,110.42,0,0,1,67.36,101.62Z"/><path class="cls-2" d="M364.79,100.15a109.55,109.55,0,0,1-48.24,90.72q-4.37,3-9,5.48v-2.68H203.22v2.68q-4.65-2.52-9-5.48A109.48,109.48,0,0,1,212.79-.67V3.5H298V-.67a109.55,109.55,0,0,1,66.83,100.82Z"/><path class="cls-2" d="M363.92,100.15a108.64,108.64,0,0,1-66.3,100v-6.49h-84.5v6.49a108.61,108.61,0,0,1,0-200V3.5h84.5V.13a108.64,108.64,0,0,1,66.3,100Z"/><path class="cls-2" d="M363.05,100.15a107.79,107.79,0,0,1-65.76,99.21v-5.69H213.46v5.69a107.74,107.74,0,0,1,0-198.43V3.5h83.83V.93a107.83,107.83,0,0,1,65.76,99.22Z"/><path class="cls-2" d="M362.18,100.15A106.92,106.92,0,0,1,297,198.56v-4.89H213.8v4.89a106.87,106.87,0,0,1,0-196.83V3.5H297V1.73a106.92,106.92,0,0,1,65.23,98.42Z"/><path class="cls-2" d="M361.31,100.15a106,106,0,0,1-64.7,97.61v-4.09H214.14v4.09a106,106,0,0,1,0-195.23v1h82.47v-1a106.05,106.05,0,0,1,64.7,97.62Z"/><path class="cls-2" d="M360.45,100.15A105.21,105.21,0,0,1,296.27,197v-3.29H214.48V197a105.13,105.13,0,0,1,0-193.63V3.5h81.79V3.33a105.21,105.21,0,0,1,64.18,96.82Z"/><path class="cls-2" d="M359.58,100.15a104.3,104.3,0,0,1-63.65,96v-2.49H214.81v2.49A104.21,104.21,0,0,1,234.37-1.94V3.5h42V-1.94a104.24,104.24,0,0,1,83.21,102.09Z"/><path class="cls-2" d="M358.71,100.15a103.45,103.45,0,0,1-63.11,95.21v-1.69H215.15v1.69a103.35,103.35,0,1,1,143.56-95.21Z"/><path class="cls-2" d="M357.84,100.15a102.58,102.58,0,0,1-62.58,94.41v-.89H215.49v.89a102.48,102.48,0,1,1,142.35-94.41Z"/><path class="cls-2" d="M357,100.15a101.67,101.67,0,0,1-62.05,93.61v-.09H215.83v.09A101.61,101.61,0,1,1,357,100.15Z"/><path class="cls-2" d="M356.1,100.15a100.68,100.68,0,0,1-80.43,98.68v-5.16h-40.6v5.16a99.69,99.69,0,0,1-18.9-5.87A100.74,100.74,0,1,1,356.1,100.15Z"/><circle class="cls-2" cx="255.37" cy="100.15" r="99.86"/><circle class="cls-2" cx="255.37" cy="100.15" r="98.99"/><circle class="cls-2" cx="255.37" cy="100.15" r="98.13"/><circle class="cls-2" cx="255.37" cy="100.15" r="97.26"/><circle class="cls-2" cx="255.37" cy="100.15" r="96.39"/><circle class="cls-2" cx="255.37" cy="100.15" r="95.52"/><circle class="cls-2" cx="255.37" cy="100.15" r="94.65"/><circle class="cls-2" cx="255.37" cy="100.15" r="93.78"/><circle class="cls-2" cx="255.37" cy="100.15" r="92.91"/><circle class="cls-2" cx="255.37" cy="100.15" r="92.05"/><circle class="cls-2" cx="255.37" cy="100.15" r="91.18"/><circle class="cls-2" cx="255.37" cy="100.15" r="90.31"/><circle class="cls-2" cx="255.37" cy="100.15" r="89.44"/><circle class="cls-2" cx="255.37" cy="100.15" r="88.57"/><circle class="cls-2" cx="255.37" cy="100.15" r="87.7"/><circle class="cls-2" cx="255.37" cy="100.15" r="86.84"/><circle class="cls-2" cx="255.37" cy="100.15" r="85.97"/><circle class="cls-2" cx="255.37" cy="100.15" r="85.1"/><circle class="cls-2" cx="255.37" cy="100.15" r="84.23"/><circle class="cls-2" cx="255.37" cy="100.15" r="83.36"/><circle class="cls-2" cx="255.37" cy="100.15" r="82.49"/><circle class="cls-2" cx="255.37" cy="100.15" r="81.63"/><circle class="cls-2" cx="255.37" cy="100.15" r="80.76"/><circle class="cls-2" cx="255.37" cy="100.15" r="79.89"/><circle class="cls-2" cx="255.37" cy="100.15" r="79.02"/><circle class="cls-2" cx="255.37" cy="100.15" r="78.15"/><circle class="cls-2" cx="255.37" cy="100.15" r="77.28"/><circle class="cls-2" cx="255.37" cy="100.15" r="76.42"/><circle class="cls-2" cx="255.37" cy="100.15" r="75.55"/><circle class="cls-2" cx="255.37" cy="100.15" r="74.68"/><circle class="cls-2" cx="255.37" cy="100.15" r="73.81"/><circle class="cls-2" cx="255.37" cy="100.15" r="72.94"/><circle class="cls-2" cx="255.37" cy="100.15" r="72.07"/><circle class="cls-2" cx="255.37" cy="100.15" r="71.21"/><circle class="cls-2" cx="255.37" cy="100.15" r="70.34"/><circle class="cls-2" cx="255.37" cy="100.15" r="69.47"/><circle class="cls-2" cx="255.37" cy="100.15" r="68.6"/><circle class="cls-2" cx="255.37" cy="100.15" r="67.73"/><circle class="cls-2" cx="255.37" cy="100.15" r="66.86"/><circle class="cls-2" cx="255.37" cy="100.15" r="66"/><circle class="cls-2" cx="255.37" cy="100.15" r="65.13"/><circle class="cls-2" cx="255.37" cy="100.15" r="64.26"/><circle class="cls-2" cx="255.37" cy="100.15" r="63.39"/><circle class="cls-2" cx="255.37" cy="100.15" r="62.52"/><circle class="cls-2" cx="255.37" cy="100.15" r="61.65"/><circle class="cls-2" cx="255.37" cy="100.15" r="60.79"/><circle class="cls-2" cx="255.37" cy="100.15" r="59.92"/><circle class="cls-2" cx="255.37" cy="100.15" r="59.05"/><circle class="cls-2" cx="255.37" cy="100.15" r="58.18"/><circle class="cls-2" cx="255.37" cy="100.15" r="57.31"/><circle class="cls-2" cx="255.37" cy="100.15" r="56.44"/><circle class="cls-2" cx="255.37" cy="100.15" r="55.58"/><circle class="cls-2" cx="255.37" cy="100.15" r="54.71"/><circle class="cls-2" cx="255.37" cy="100.15" r="53.84"/><circle class="cls-2" cx="255.37" cy="100.15" r="52.97"/><circle class="cls-2" cx="255.37" cy="100.15" r="52.1"/><circle class="cls-2" cx="255.37" cy="100.15" r="51.23"/><circle class="cls-2" cx="255.37" cy="100.15" r="50.37"/><circle class="cls-2" cx="255.37" cy="100.15" r="49.5"/><circle class="cls-2" cx="255.37" cy="100.15" r="48.63"/><circle class="cls-2" cx="255.37" cy="100.15" r="47.76"/><circle class="cls-2" cx="255.37" cy="100.15" r="46.89"/><circle class="cls-2" cx="255.37" cy="100.15" r="46.02"/><circle class="cls-2" cx="255.37" cy="100.15" r="45.15"/><circle class="cls-2" cx="255.37" cy="100.15" r="44.29"/><circle class="cls-2" cx="255.37" cy="100.15" r="43.42"/><circle class="cls-2" cx="255.37" cy="100.15" r="42.55"/><circle class="cls-2" cx="255.37" cy="100.15" r="41.68"/><circle class="cls-2" cx="255.37" cy="100.15" r="40.81"/><circle class="cls-2" cx="255.37" cy="100.15" r="39.94"/><circle class="cls-2" cx="255.37" cy="100.15" r="39.08"/><circle class="cls-2" cx="255.37" cy="100.15" r="38.21"/><circle class="cls-2" cx="255.37" cy="100.15" r="37.34"/><circle class="cls-2" cx="255.37" cy="100.15" r="36.47"/><circle class="cls-2" cx="255.37" cy="100.15" r="35.6"/><circle class="cls-2" cx="255.37" cy="100.15" r="34.73"/><circle class="cls-2" cx="255.37" cy="100.15" r="33.87"/><circle class="cls-2" cx="255.37" cy="100.15" r="33"/><circle class="cls-2" cx="255.37" cy="100.15" r="32.13"/><circle class="cls-2" cx="255.37" cy="100.15" r="31.26"/><circle class="cls-2" cx="255.37" cy="100.15" r="30.39"/><circle class="cls-2" cx="255.37" cy="100.15" r="29.52"/><circle class="cls-2" cx="255.37" cy="100.15" r="28.66"/><circle class="cls-2" cx="255.37" cy="100.15" r="27.79"/><circle class="cls-2" cx="255.37" cy="100.15" r="26.92"/><circle class="cls-2" cx="255.37" cy="100.15" r="26.05"/><circle class="cls-2" cx="255.37" cy="100.15" r="25.18"/><circle class="cls-2" cx="255.37" cy="100.15" r="24.31"/><circle class="cls-2" cx="255.37" cy="100.15" r="23.45"/><circle class="cls-2" cx="255.37" cy="100.15" r="22.58"/><circle class="cls-2" cx="255.37" cy="100.15" r="21.71"/><circle class="cls-2" cx="255.37" cy="100.15" r="20.84"/><circle class="cls-2" cx="255.37" cy="100.15" r="19.97"/><circle class="cls-2" cx="255.37" cy="100.15" r="19.1"/><circle class="cls-2" cx="255.37" cy="100.15" r="18.24"/><circle class="cls-2" cx="255.37" cy="100.15" r="17.37"/><circle class="cls-2" cx="255.37" cy="100.15" r="16.5"/><circle class="cls-2" cx="255.37" cy="100.15" r="15.63"/><circle class="cls-2" cx="255.37" cy="100.15" r="14.76"/><circle class="cls-2" cx="255.37" cy="100.15" r="13.89"/><circle class="cls-2" cx="255.37" cy="100.15" r="13.03"/><circle class="cls-2" cx="255.37" cy="100.15" r="12.16"/><circle class="cls-2" cx="255.37" cy="100.15" r="11.29"/><circle class="cls-2" cx="255.37" cy="100.15" r="10.42"/><circle class="cls-2" cx="255.37" cy="100.15" r="9.55"/><circle class="cls-2" cx="255.37" cy="100.15" r="8.68"/><circle class="cls-2" cx="255.37" cy="100.15" r="7.82"/><circle class="cls-2" cx="255.37" cy="100.15" r="6.95"/><circle class="cls-2" cx="255.37" cy="100.15" r="6.08"/><circle class="cls-2" cx="255.37" cy="100.15" r="5.21"/><circle class="cls-2" cx="255.37" cy="100.15" r="4.34"/><circle class="cls-2" cx="255.37" cy="100.15" r="3.47"/><circle class="cls-2" cx="255.37" cy="100.15" r="2.61"/><circle class="cls-2" cx="255.37" cy="100.15" r="1.74"/><circle class="cls-2" cx="255.37" cy="100.15" r="0.87"/></g><path class="cls-5" d="M39,46c0-2.17,1.08-3.72,2.3-5.52,2.16-3.18,4.82-4.86,8.39-7.1a40.32,40.32,0,0,1,6.59-3.5,41.72,41.72,0,0,1,11.09-2.76c5.94-.68,6.16-.69,6.16-.69a12.75,12.75,0,0,0,3.68-.54,12.86,12.86,0,0,0,3.83-2.54,90.75,90.75,0,0,1,9.2-4.6c6.88-3,24.91-9.07,35.67-10.93,24.68-4.28,68.37,3.6,92.73,6.73,25.26,3.24,66.42,8.26,114.07,0,15.45-2.68,39.51-7.19,71.06-1.55a172.71,172.71,0,0,1,28,7.46c1.13,0,19,.33,26.84,3.41a25.92,25.92,0,0,1,4.44,2.29,22.38,22.38,0,0,1,6.19,6.32s0,.12.05.24c.28,1.8-2.05,6.18-13.71,11.9-9.32,4.57-16.84,6.18-22.22,7.53C419.7,55.58,414.79,58.5,404.29,62h0C356.18,78.06,150,67.64,150,67.64c-14.92-.75-29.77-2.41-44.68-3.29-15.16-.89-30-5.95-45.2-5.72-2,0-10.94.21-17-5.17C42,52.44,39,49.73,39,46Z"/><path class="cls-5" d="M55.14,51.77a21.63,21.63,0,0,1,.59,2.5,9,9,0,0,1-.91,4.51c-2,4.37-3.44,23.25-1,41.7,1.3,9.91,2.51,10.45,3,10.52,1.9.27,5.12-5.19,5.06-10.65,0-4.37-2.16-5.71-4-10.39-3.06-7.82-1.62-15.45,0-24,.63-3.31,1-3.69,3.41-14.82,1.84-8.32,1.95-9.46,1.38-9.78C61.1,40.54,54.82,46.11,55.14,51.77Z"/><path class="cls-6" d="M34.53,48.5c0-2.16,1.08-3.72,2.31-5.52,2.15-3.18,4.81-4.86,8.39-7.1a39.75,39.75,0,0,1,6.58-3.5A42.08,42.08,0,0,1,62.9,29.63l6.16-.7a12.77,12.77,0,0,0,3.69-.54,12.58,12.58,0,0,0,3.82-2.54,90.75,90.75,0,0,1,9.2-4.6c6.88-3,24.92-9.06,35.67-10.93,24.68-4.28,68.37,3.6,92.73,6.73,25.26,3.24,66.43,8.26,114.07,0,15.46-2.68,39.52-7.18,71.06-1.55a175.28,175.28,0,0,1,28,7.46c1.12,0,19,.33,26.84,3.42a25.24,25.24,0,0,1,4.43,2.29A22.23,22.23,0,0,1,464.79,35s0,.12,0,.24c.28,1.8-2,6.19-13.71,11.9-9.32,4.57-16.84,6.19-22.22,7.53-13.72,3.42-18.63,6.33-29.13,9.85h0c-48.11,16-254.25,5.63-254.25,5.63-14.92-.76-29.77-2.42-44.68-3.3-15.16-.89-30-5.94-45.2-5.72-2,0-10.93.21-17-5.17C37.44,54.92,34.45,52.21,34.53,48.5Z"/><path class="cls-6" d="M52,49.67a22.17,22.17,0,0,1,.58,2.5,9,9,0,0,1-.9,4.51c-2,4.37-3.45,23.25-1,41.7,1.3,9.91,2.51,10.45,3,10.52,1.89.26,5.12-5.19,5.06-10.66,0-4.37-2.16-5.71-4-10.38-3.06-7.82-1.61-15.45,0-24,.63-3.3,1-3.68,3.41-14.81,1.84-8.33,2-9.47,1.39-9.78C58,38.44,51.68,44,52,49.67Z"/><path class="cls-5" d="M462.11,28.44c1.85.58,3.76,1.92,5.48,4.78,7.12,11.77-2,27.41,3.38,43.44.45,1.33,1.93,4.15.74,5.63-1.35,1.69-5.89,1.4-8-.9-1.27-1.35-1.54-3.2-.08-13.22,1.26-8.57,1.86-10,2-14.5.19-5.06.28-7.59-.74-10.6-2.84-8.37-11-11-9.81-13.48C455.86,27.91,459.54,27.63,462.11,28.44Z"/><path class="cls-6" d="M460.52,28.48c1.85.58,3.75,1.92,5.48,4.78,7.12,11.76-2,27.41,3.38,43.44.45,1.33,1.92,4.14.74,5.63-1.36,1.69-5.89,1.4-8.05-.9-1.26-1.35-1.54-3.21-.07-13.22,1.25-8.57,1.85-10,2-14.5.19-5.06.29-7.59-.73-10.6-2.84-8.37-11-11-9.82-13.48C454.26,28,458,27.67,460.52,28.48Z"/><path class="cls-7" d="M97.9,21C154,1.2,193.29,24.35,271.33,13.62c23.13-3.19,41.11-8.17,71.54-6.33,21.71,1.31,36.46,5.3,49.57,8.92,24.5,6.78,41.4,11.45,44.9,22.17,3.33,10.2-6.38,23.07-14.17,23.18-9.26.14-11-17.88-23.62-19.49-11.8-1.51-15.32,13.61-33.06,18.42C345.43,66.21,335.38,49,292.94,47.14c-18.45-.79-29.32,1.92-37.13,5.47-9.29,4.21-8.12,6.83-14.17,8.43-16.4,4.33-27.23-14.3-62.08-21.41-9.68-2-27.09-5.53-37.8,1.38-5,3.22-6.15,7.17-11.47,7.91-7,1-9.74-6.24-20.92-9.49-18-5.23-31.92-2.66-33.07-5.79C75.27,30.81,85.38,25.4,97.9,21Z"/><path class="cls-8" d="M94.83,20.45C151,.66,190.23,23.8,268.26,13.07c23.14-3.18,41.11-8.16,71.54-6.32,21.72,1.31,36.46,5.29,49.57,8.92,24.5,6.77,41.41,11.45,44.91,22.17C437.6,48,427.89,60.91,420.1,61c-9.26.14-11-17.88-23.62-19.49C384.68,40,381.16,55.14,363.42,60c-21.06,5.72-31.11-11.53-73.54-13.35-18.46-.79-29.33,1.92-37.14,5.46-9.29,4.22-8.12,6.84-14.17,8.44-16.39,4.33-27.23-14.3-62.08-21.41-9.67-2-27.08-5.53-37.8,1.38-5,3.22-6.14,7.17-11.47,7.91-7,1-9.74-6.24-20.92-9.49-18-5.23-31.92-2.66-33.07-5.79C72.2,30.27,82.32,24.86,94.83,20.45Z"/><path class="cls-9" d="M120.89,30.78C110,21.1,93.5,23.78,93.5,23.5s36.5-5.67,123.59-1.95C332.31,26.46,323.1,38,355.77,30c8.45-2.07,52.23-13.4,74.27.79.94.61,8,5.23,7.07,8.56-1.21,4.37-14.66.9-28.4,9-3.79,2.24-8.31,4.91-11.36,10.12-8.39,14.33,3.7,32-3.89,37.41a6.11,6.11,0,0,1-5.34,1c-6.26-2.27-1.2-17.49-6.23-29.45C375,51.1,351.77,46.57,324.72,41.3c-22.83-4.45-34.25-6.68-43.77,0-15.5,10.86-13.83,36.38-20.13,36.12-3.33-.13-6.32-7.34-10.93-18.48-2.14-5.18-3.15-8.6-3.59-9.8-7.43-20.4-80.76-33.73-95.23-9.26-2.18,3.69-1.47,5.61-2,17.62-1.36,30.6-7.75,58.45-10.21,58.31-2.83-.18-4.23-37.87-4.34-40.81-.32-9-.3-17-3.92-27.35C128.56,41.8,126.3,35.57,120.89,30.78Z"/><path class="cls-10" d="M118.05,29.27c-10.94-9.68-27.39-7-27.39-7.28s36.5-5.67,123.59-1.95c115.22,4.91,106,16.45,138.69,8.45,8.45-2.06,52.23-13.4,74.26.79.94.61,8,5.23,7.08,8.56-1.21,4.37-14.67.9-28.4,9-3.79,2.23-8.32,4.91-11.37,10.11-8.39,14.33,3.7,32-3.88,37.42a6.15,6.15,0,0,1-5.35,1c-6.26-2.27-1.2-17.49-6.23-29.45-6.86-16.31-30.12-20.84-57.17-26.11-22.83-4.45-34.24-6.67-43.77,0C262.61,50.65,264.29,76.17,258,75.91c-3.33-.13-6.31-7.34-10.92-18.48-2.15-5.18-3.16-8.6-3.6-9.79C236,27.23,162.71,13.9,148.23,38.38c-2.18,3.68-1.47,5.6-2,17.61-1.36,30.6-7.75,58.45-10.2,58.31-2.84-.17-4.24-37.87-4.34-40.81-.32-9-.31-17-3.93-27.35C125.72,40.29,123.47,34.06,118.05,29.27Z"/></svg>
