<svg id="Layer_1" data-name="Layer 1" xmlns="http://www.w3.org/2000/svg" width="170" height="440" viewBox="0 0 170 440"><defs><style>.cls-1{fill:#9ca41f;}.cls-2{fill:#b0b74b;}.cls-3{fill:#d2dd88;}.cls-4{fill:#888989;}.cls-5{fill:#bec676;}.cls-6{fill:#7fb229;}.cls-7{fill:#e1ecc4;}.cls-8{fill:#c8d757;}.cls-9{fill:#1d1d1b;}</style></defs><path class="cls-1" d="M155,205.51c-1,101.62-6.14,215.12-32.25,225.93-5.33,2.21-17.18,2.47-27.84,2.71-1.72,0-27.67.54-35.78-2.65C33.06,421.22,26.23,307.35,23.6,205.66a16,16,0,0,0,3.88,1.61C39.23,211,49,206.78,57.11,205,73,201.37,72.66,209.83,94,208.72c19.48-1,22.79-8.22,41.53-7C145.56,202.42,152.65,205,155,205.51Z"/><path class="cls-1" d="M89.32,434.71c-8.52,0-24.24-.35-30.33-2.74C32.1,421.38,25.69,305.47,23.1,205.68l0-1,.82.59a16.13,16.13,0,0,0,3.73,1.54c9.42,3,17.5.8,24.63-1.12,1.66-.45,3.22-.87,4.74-1.21,8.21-1.86,12.24-.51,16.91,1.05s9.69,3.24,20.07,2.7a68.74,68.74,0,0,0,19.54-3.87c6.08-1.94,11.82-3.78,22-3.09a81.23,81.23,0,0,1,17.31,3.17c1,.27,1.75.49,2.26.59l.41.09v.41C154.15,351.35,143.81,423.29,123,431.91c-5.4,2.23-17.36,2.5-27.91,2.74H95C94.66,434.66,92.49,434.71,89.32,434.71ZM24.13,206.55c2.39,91.63,8.67,214,35.23,224.49,8.17,3.21,35.31,2.62,35.58,2.61h.11c10.47-.23,22.33-.5,27.55-2.67,26.77-11.08,31.06-133.63,31.94-225.07-.51-.12-1.15-.3-1.93-.52a80.76,80.76,0,0,0-17.11-3.14c-10-.67-15.69,1.14-21.68,3.06A69.68,69.68,0,0,1,94,209.22c-10.56.55-15.81-1.2-20.43-2.75s-8.44-2.82-16.38-1c-1.5.34-3,.76-4.7,1.2-7.26,2-15.49,4.19-25.19,1.11A23.07,23.07,0,0,1,24.13,206.55Z"/><path class="cls-1" d="M161.6,36.46c-.19,2.74-2.48,4.68-3,5.09-.21.18-.36.29-.41.33-4.42,3.55-2.4,78.6-3.17,161.9,0,.34,0,.68,0,1-2.39-.49-9.48-3.09-19.51-3.76-18.74-1.25-22.05,6-41.53,7-21.34,1.11-21-7.35-36.89-3.77-8.12,1.83-17.88,6-29.63,2.32A16,16,0,0,1,23.59,205c0-.54,0-1.07,0-1.6-2.11-82.9-1.47-157.27-6.29-160.12-.48-.29-3.41-1.86-3.72-4.4-.23-1.9,1-4.45,1.91-5a.66.66,0,0,1,.3-.1h.07l.09,0,.32.13,0,0h0l.1,0,1.95.78.85.33,0,0h.05l2.43,1,0,0c2.15,1.2,4.2,1.64,8.26,2.5l.13,0a274.88,274.88,0,0,0,31.59,4.81l.52,0,.45,0,.38,0,.45,0,.54,0,.43,0h.31l.64,0,.33,0,.35,0a400.47,400.47,0,0,0,44.78-.34h.25l.36,0,.35,0c4-.29,21.47-1.77,34.45-5.89l.07,0,.06,0,2-.65.62-.2.33-.11.3-.11c.94-.37,3.6-1.42,6.57-2.85l.84-.41.07,0,.58-.29h0l.12-.06.19-.1.08,0,.24-.12.22-.1,0,0,.1,0h0l.22-.1a1.76,1.76,0,0,1,.56-.2C160.54,32,161.76,34.27,161.6,36.46Z"/><path class="cls-1" d="M158.46,32.44l-.32.15-.19.1-.17.1,0,0a5.6,5.6,0,0,0,.82-.41l.12-.07Zm1.56-.8h0a.8.8,0,0,0-.22.1c-.43.22-.69.35-1,.53l-.07,0,.1,0h0l.22-.1a.26.26,0,0,1,.21.07c.6.42,1.42,2.71,1.85,4v.19c-.1,2.32-2,4.12-3.2,5.05-3.12,2.5-3.23,32.62-3.17,90.11,0,21.91,0,46.75-.19,72.18v.39c-.46-.11-1-.27-1.67-.45a80.58,80.58,0,0,0-17.32-3.18c-10.23-.68-16,1.16-22.05,3.1A68.74,68.74,0,0,1,94,207.51c-10.38.54-15.52-1.18-20.06-2.7a28.36,28.36,0,0,0-9.71-2,32.59,32.59,0,0,0-7.2.9c-1.53.35-3.09.77-4.74,1.21-7.13,1.93-15.21,4.11-24.63,1.12a18.2,18.2,0,0,1-3.54-1.4l0-1.34c-.6-23.37-1-46.37-1.31-66.66-1-60.25-1.69-91.79-5.22-93.88l-.1,0c-1.94-1.11-3.14-2.53-3.39-4-.32-2,.9-4.27,1.86-4.65a.54.54,0,0,1,.3-.06.49.49,0,0,1,.19,0c1.15.44,1.61.56,2,.67a4.21,4.21,0,0,1,.85.33l0,0h.05a12.17,12.17,0,0,1,2.14,1.38l.08,0,.07,0c2.2,1.22,4.38,1.69,8.31,2.51h0l.1-.49,0,.52A278.16,278.16,0,0,0,61.7,44l.48,0,.48,0,.82.06.54,0,.41,0h.35l.25,0,.37,0,.7,0,1.41.07,2.65.12,2.09.07c8.35.28,22.11.41,38.78-.61l.28,0,.26,0,.34,0,.36,0c2-.15,7.07-.58,13.2-1.44a135.9,135.9,0,0,0,21-4.44l.77-.24,1.43-.46.27-.08.36-.12.31-.1c3.63-1.18,5.71-2,7-3a6.17,6.17,0,0,0,.54-.48l.08-.09a2.46,2.46,0,0,1,.5-.49l-.52.23-.07,0-.68.27c-1.27.51-2.66,1-3,1.13l-3.83,1.37-.37.13a193.88,193.88,0,0,1-34.59,6.6l-2.49.23-.36,0-.38,0-.2,0-.22,0h-.15c-2.48.15-4.9.28-7.24.38l-3.44.14h0l-3.32.11c-14.8.41-25.9,0-30.69-.29l-.7,0-.37,0-.36,0H64.5l-.47,0-.46,0L62.71,43l-.43,0-.21,0-.29,0a275.54,275.54,0,0,1-31.54-4.8l-.1.49,0-.52L29.65,38c-.62-.16-1.24-.32-1.83-.5l-.47-.13L26.16,37l-.32-.09c-1-.29-2.15-.62-3.28-1l-2.07-.64c-.8-.25-1.32-.41-1.68-.55l-.07,0c-.64-.25-1.22-.44-2.33-.81a.3.3,0,0,0-.12,0h0l0,0-.46-.15h0c-.56-.16-.65-.17-.76-.15-1.29.23-2.41,3-1.94,5.31.59,2.86,3.48,4.47,4,4.75,3.22,1.9,3.92,44.14,4.73,93,.33,20.3.72,43.3,1.31,66.67l0,1.85.21.15a16.39,16.39,0,0,0,4,1.68c9.7,3.07,17.93.85,25.19-1.11,1.64-.44,3.19-.86,4.7-1.2,7.94-1.8,11.66-.55,16.37,1a46.07,46.07,0,0,0,16.62,2.85c1.19,0,2.46,0,3.82-.1a69.64,69.64,0,0,0,19.79-3.92c6-1.91,11.64-3.72,21.68-3.05a80.76,80.76,0,0,1,17.11,3.14c1,.28,1.78.5,2.33.61l.6.12v-1.63c.23-25.43.21-50.27.19-72.18,0-46.69-.09-87,2.85-89.37,1.27-1,3.4-3,3.52-5.75C162.2,34.31,160.74,31.55,160,31.64Z"/><path class="cls-1" d="M158.78,32.28l-.07,0,0,0-.22.1-.32.15-.19.1-.12.06a1.54,1.54,0,0,1,.32-.25h0a1,1,0,0,1,.23-.12A1.4,1.4,0,0,1,158.78,32.28Z"/><path class="cls-1" d="M18.74,34.77c-.64-.25-1.22-.44-2.33-.81C17.11,33.78,17.72,34.08,18.74,34.77Z"/><path class="cls-2" d="M161.08,27.62c0,1.93-1.27,3.78-3.62,5.52-1-.12-1.82.84-2.23,1.27a5.26,5.26,0,0,1-.49.44,46.31,46.31,0,0,1-6.87,3l-.33.11-.62.2-2,.65-.06,0-.07,0c-8.82,2.67-20.74,4.72-34.45,5.89l-.35,0-.36,0h-.25a400.47,400.47,0,0,1-44.78.34l-.35,0-.33,0-.64,0h-.31l-.43,0L62,45l-.45,0-.38,0-.45,0-.52,0A274.88,274.88,0,0,1,28.57,40l-.13,0a85,85,0,0,1-8.26-2.5l0,0c-2.71-1.52-3.86-3-5.44-2.61l-.29.1c-4.19-2.23-6.51-4.71-6.51-7.32,0-2.3,1.81-4.51,5.12-6.53C10.87,22.5,9.71,24,9.71,25.54c0,8.31,33.48,15.05,74.79,15.05s74.79-6.74,74.79-15.05c0-1.53-1.13-3-3.23-4.39C159.3,23.16,161.08,25.34,161.08,27.62Z"/><path class="cls-2" d="M28.56,39.48h0l0,.52ZM156.32,20.73l-.54.84c2,1.32,3,2.65,3,4,0,8.7-38.41,14.55-74.29,14.55S10.21,34.24,10.21,25.54c0-1.34,1-2.69,3.09-4L13,21.09l-.26-.43c-3.56,2.17-5.36,4.51-5.36,7s2,5.06,6,7.34l.46.25.31.17.13.08.08,0,.22-.1.2-.07h0c.7-.18,1.31.12,2.33.81l.5.33h0a19.47,19.47,0,0,0,2.16,1.39l.08,0,.07,0a83.14,83.14,0,0,0,8.31,2.51l.12-.48,0,.52a278.16,278.16,0,0,0,31.66,4.82l.48,0,.48,0,.82.06.54,0,.41,0h.35l.25,0,.37,0,.7,0,1.41.07,2.65.12,2.09.07c8.35.28,22.11.41,38.78-.61l.28,0,.26,0,.34,0,.36,0C124.2,44,136,42,144.88,39.28h0l.77-.24,1.43-.46.27-.08.36-.12.31-.1h0a45.64,45.64,0,0,0,7-3,6.17,6.17,0,0,0,.54-.48l.08-.09a5.9,5.9,0,0,1,.5-.49l0,0,0,0h0a1.54,1.54,0,0,1,.32-.25h0a1,1,0,0,1,.23-.12,1.4,1.4,0,0,1,.39-.1h.19l.2,0,.08-.06.08-.06.27-.21a4.31,4.31,0,0,0,.4-.32h0c2.08-1.72,3.13-3.53,3.13-5.38C161.58,25.21,159.81,22.89,156.32,20.73ZM28.56,39.48h0l-.46-.12c-.62-.16-1.24-.32-1.83-.5l-.47-.13c-.4-.1-.8-.22-1.19-.34l-.32-.09c-1.36-.41-2.65-.84-3.87-1.28h0c-.85-.48-1.55-.95-2.16-1.37-1.37-.94-2.35-1.62-3.68-1.28l-.09,0c-4-2.14-6.05-4.48-6.05-6.77a4.62,4.62,0,0,1,.83-2.54,3.44,3.44,0,0,0,0,.46c0,8.72,33.07,15.55,75.29,15.55s75.29-6.83,75.29-15.55a3.25,3.25,0,0,0,0-.44,4.56,4.56,0,0,1,.82,2.52c0,1.68-1.1,3.36-3.27,5h0a2.09,2.09,0,0,0-.36,0,3.44,3.44,0,0,0-1.57.9c-.16.15-.3.3-.42.42l-.06.07-.22.2a1.93,1.93,0,0,1-.16.15l-.06,0,0,0a46.08,46.08,0,0,1-6.35,2.75l-.37.13-.32.11-.33.1-.28.09-1.42.46-.62.19-.13,0-.18.06c-8.2,2.46-19,4.37-31.31,5.55l-2.49.23-.36,0-.38,0-.2,0-.22,0h-.15c-2.48.15-4.9.28-7.24.38l-3.44.14h0l-3.32.11c-14.8.41-25.9,0-30.69-.29l-.7,0-.37,0-.36,0h-.24l-.47,0-.46,0-.86-.06-.43,0-.21,0-.29,0a275.54,275.54,0,0,1-31.54-4.8l-.1.49Zm0,0h0l0,.52Z"/><path class="cls-3" d="M83,40.89c-42.22,0-75.29-6.83-75.29-15.55,0-1.7,1.19-3.33,3.54-4.87l.2-.12a23.78,23.78,0,0,1,3.13-1.65l.87-.38C28.16,13.06,54,9.79,83,9.79s54.69,3.25,67.41,8.48l.16.06a25.15,25.15,0,0,1,4.26,2.2c2.29,1.52,3.46,3.14,3.46,4.81C158.33,34.06,125.25,40.89,83,40.89Zm0-30.1c-28.44,0-54.8,3.32-67.16,8.45-.29.12-.57.24-.84.37a22.7,22.7,0,0,0-3,1.58l-.1.06C9.79,22.65,8.75,24,8.75,25.34,8.75,34,47.16,39.89,83,39.89S157.33,34,157.33,25.34c0-1.32-1-2.65-3-4a24.35,24.35,0,0,0-4.06-2.1l-.19-.08C137.65,14.09,111.34,10.79,83,10.79Z"/><path class="cls-3" d="M159.62,27.42c0,1.93-1.27,3.78-3.62,5.52-1-.12-1.82.84-2.23,1.27a5.26,5.26,0,0,1-.49.44,46.31,46.31,0,0,1-6.87,3l-.33.11-.62.2-2,.65-.06,0-.07,0c-8.82,2.67-20.74,4.72-34.45,5.89l-.35,0-.36,0h-.25a400.47,400.47,0,0,1-44.78.34l-.35,0-.33,0-.64,0h-.31l-.43,0-.54,0-.45,0-.38,0-.45,0-.52,0A274.88,274.88,0,0,1,27.11,39.8l-.13,0a85,85,0,0,1-8.26-2.5l0,0c-2.71-1.52-3.86-3-5.44-2.61l-.29.1C8.77,32.51,6.45,30,6.45,27.42c0-2.3,1.81-4.51,5.12-6.53-2.16,1.41-3.32,2.9-3.32,4.45,0,8.31,33.48,15.05,74.79,15.05s74.79-6.74,74.79-15c0-1.53-1.13-3-3.23-4.39C157.84,23,159.62,25.14,159.62,27.42Z"/><path class="cls-3" d="M27.1,39.28h0l0,.52ZM154.86,20.53l-.54.84c2,1.32,3,2.65,3,4,0,8.7-38.41,14.55-74.29,14.55S8.75,34,8.75,25.34c0-1.34,1-2.69,3.09-4l-.27-.42-.26-.43C7.75,22.63,6,25,6,27.42s2,5.06,6,7.34l.46.25.31.17.13.08.08,0,.22-.1.2-.07h0c.7-.18,1.31.12,2.33.81l.5.33h0a19.47,19.47,0,0,0,2.16,1.39l.08.05.07,0a83.14,83.14,0,0,0,8.31,2.51l.12-.48,0,.52a278.16,278.16,0,0,0,31.66,4.82l.48,0,.48,0,.82.06.54,0,.41,0h.35l.25,0,.37,0,.7,0,1.41.07,2.65.12,2.09.07c8.35.28,22.11.41,38.78-.61l.28,0,.26,0,.34,0,.36,0c13.5-1.18,25.28-3.19,34.18-5.89h0l.77-.24,1.43-.46.27-.08.36-.12.31-.1h0a45.64,45.64,0,0,0,7-3,6.17,6.17,0,0,0,.54-.48l.08-.09a5.9,5.9,0,0,1,.5-.49l0,0,0,0h0a1.54,1.54,0,0,1,.32-.25h0a1,1,0,0,1,.23-.12,1.4,1.4,0,0,1,.39-.1h.19l.2,0,.08-.06.08-.06.27-.21a4.31,4.31,0,0,0,.4-.32h0c2.08-1.72,3.13-3.53,3.13-5.38C160.12,25,158.35,22.69,154.86,20.53ZM27.1,39.28h0l-.46-.12c-.62-.16-1.24-.32-1.83-.5l-.47-.13c-.4-.1-.8-.22-1.19-.34l-.32-.09c-1.36-.41-2.65-.84-3.87-1.28h0c-.85-.48-1.55-1-2.16-1.37-1.37-.94-2.35-1.62-3.68-1.28l-.09,0c-4-2.14-6-4.48-6-6.77a4.62,4.62,0,0,1,.83-2.54,3.44,3.44,0,0,0,0,.46c0,8.72,33.07,15.55,75.29,15.55s75.29-6.83,75.29-15.55a3.25,3.25,0,0,0,0-.44,4.56,4.56,0,0,1,.82,2.52c0,1.68-1.1,3.36-3.27,5h0a2.09,2.09,0,0,0-.36,0,3.44,3.44,0,0,0-1.57.9l-.42.42-.06.07-.22.2a1.93,1.93,0,0,1-.16.15l-.06,0,0,0A46.08,46.08,0,0,1,146.61,37l-.37.13-.32.11-.33.1-.28.09-1.42.46-.62.19-.13,0-.18.06c-8.2,2.46-19,4.37-31.31,5.55l-2.49.23-.36,0-.38,0-.2,0-.22,0h-.15c-2.48.15-4.9.28-7.24.38l-3.44.14h0l-3.32.11c-14.8.41-25.9,0-30.69-.29l-.7,0-.37,0-.36,0h-.24l-.47,0-.46,0-.86-.06-.43,0-.21,0-.29,0a275.54,275.54,0,0,1-31.54-4.8l-.1.49Zm0,0h0l0,.52Z"/><path class="cls-4" d="M58.66,45.11A195.54,195.54,0,0,1,27,40.28l.23-1a275.46,275.46,0,0,0,31.53,4.8Z"/><path class="cls-4" d="M83,46.05c-6.93,0-13.65-.21-20-.63l.06-1a403.6,403.6,0,0,0,44.73-.34l.07,1C100,45.72,91.58,46.05,83,46.05Z"/><path class="cls-4" d="M143.56,39.05l-.3-1,.62-.2,1.43-.45.31,1C145,38.62,144.27,38.83,143.56,39.05Z"/><path class="cls-2" d="M160.67,23.25c0,8.31-33.48,15-74.79,15s-74.79-6.74-74.79-15c0-1.55,1.16-3,3.32-4.45l.19-.12c.92-.55,1.94-1.08,3.07-1.61l.86-.38C31.5,11,56.8,7.2,85.88,7.2S140.1,11,153.1,16.64l.2.08a33,33,0,0,1,4.14,2.14C159.54,20.25,160.67,21.72,160.67,23.25Z"/><path class="cls-2" d="M85.88,38.8C43.66,38.8,10.59,32,10.59,23.25c0-1.7,1.19-3.33,3.55-4.87l.2-.13a34.12,34.12,0,0,1,3.12-1.63c.29-.14.58-.27.88-.39C31.8,10.35,57.69,6.7,85.88,6.7s53.91,3.63,67.42,9.48l.15.06a33.89,33.89,0,0,1,4.25,2.19c2.31,1.53,3.47,3.15,3.47,4.82C161.17,32,128.1,38.8,85.88,38.8Zm0-31.1c-28.07,0-53.8,3.62-67.15,9.45-.29.12-.58.24-.85.37a33,33,0,0,0-3,1.59l-.09.05c-2.14,1.4-3.18,2.75-3.18,4.09C11.59,32,50,37.8,85.88,37.8S160.17,32,160.17,23.25c0-1.32-1-2.65-3-4a32.31,32.31,0,0,0-4.06-2.09l-.2-.08C139.51,11.3,113.83,7.7,85.88,7.7Z"/><path class="cls-5" d="M157.83,25.34c0,8.31-33.48,15.05-74.79,15.05s-74.79-6.74-74.79-15c0-1.55,1.16-3,3.32-4.45l.19-.12c.92-.55,1.94-1.08,3.07-1.61l.86-.38C28.66,13.12,54,9.29,83,9.29s54.22,3.81,67.22,9.44l.2.08A33,33,0,0,1,154.6,21C156.7,22.34,157.83,23.81,157.83,25.34Z"/><path class="cls-5" d="M83,40.89c-42.22,0-75.29-6.83-75.29-15.55,0-1.7,1.19-3.33,3.54-4.87l.21-.13a32.6,32.6,0,0,1,3.11-1.63c.29-.14.59-.27.88-.39C29,12.44,54.84,8.79,83,8.79s53.91,3.63,67.41,9.48l.16.06a36.05,36.05,0,0,1,4.25,2.19c2.3,1.53,3.47,3.15,3.47,4.82C158.33,34.06,125.25,40.89,83,40.89Zm0-31.1c-28.07,0-53.8,3.62-67.15,9.45-.3.12-.58.24-.85.37-1.16.55-2.15,1.06-3,1.59l-.09.05C9.79,22.65,8.75,24,8.75,25.34,8.75,34,47.16,39.89,83,39.89S157.33,34,157.33,25.34c0-1.32-1-2.65-3-4a31.65,31.65,0,0,0-4.06-2.1l-.2-.08C136.67,13.39,111,9.79,83,9.79Z"/><path class="cls-6" d="M152,206c-1,101.62-6.14,215.12-32.25,225.93-5.33,2.21-17.18,2.47-27.84,2.71-1.72,0-27.67.54-35.78-2.65C30,421.67,23.19,307.8,20.56,206.11a16,16,0,0,0,3.88,1.61c11.75,3.73,21.51-.49,29.63-2.32,15.85-3.58,15.55,4.88,36.89,3.77,19.48-1,22.79-8.22,41.53-7C142.52,202.87,149.61,205.47,152,206Z"/><path class="cls-6" d="M86.27,435.15c-8.52,0-24.24-.34-30.33-2.74-26.89-10.59-33.3-126.49-35.88-226.29l0-1,.82.59a15.61,15.61,0,0,0,3.74,1.54c9.41,3,17.5.81,24.63-1.12,1.65-.44,3.21-.87,4.74-1.21,8.21-1.85,12.24-.5,16.91,1.06s9.68,3.24,20.06,2.7a69.09,69.09,0,0,0,19.54-3.87c6.08-2,11.82-3.78,22.05-3.1a81.23,81.23,0,0,1,17.31,3.17c1,.28,1.75.49,2.27.6l.4.08V206c-1.4,145.83-11.74,217.77-32.56,226.39-5.4,2.24-17.36,2.51-27.91,2.75h-.11C91.61,435.1,89.44,435.15,86.27,435.15ZM21.08,207c2.39,91.63,8.67,214,35.23,224.48,8.17,3.22,35.31,2.62,35.58,2.62H92c10.46-.24,22.32-.51,27.54-2.67,26.77-11.09,31.06-133.64,31.94-225.07l-1.92-.52a80.24,80.24,0,0,0-17.12-3.14c-10-.67-15.69,1.14-21.68,3.05A69.64,69.64,0,0,1,91,209.67c-10.56.55-15.81-1.21-20.43-2.75s-8.44-2.83-16.37-1c-1.51.34-3.06.75-4.7,1.2-7.27,2-15.5,4.18-25.2,1.1A22.94,22.94,0,0,1,21.08,207Z"/><path class="cls-7" d="M158.57,37.62c-.19,2.74-2.48,4.68-3,5.09-.21.18-.36.29-.41.33-4.42,3.55-2.4,78.6-3.17,161.9,0,.34,0,.68,0,1-2.39-.49-9.48-3.09-19.51-3.76-18.74-1.25-22.05,6-41.53,7-21.34,1.11-21-7.35-36.89-3.77-8.12,1.83-17.88,6-29.63,2.32a16,16,0,0,1-3.88-1.61c0-.54,0-1.07,0-1.6-2.11-82.9-1.47-157.27-6.29-160.12-.48-.29-3.41-1.86-3.72-4.4-.23-1.9,1-4.45,1.91-5a.66.66,0,0,1,.3-.1h.07l.09,0,.32.13,0,0h0l.1,0,2,.78.85.33.05,0h.05l2.43,1,0,0c2.15,1.2,4.2,1.64,8.26,2.5l.13,0A274.88,274.88,0,0,0,58.7,44.61l.52,0,.45,0,.38,0,.45,0,.54,0,.43,0h.31l.64,0,.33,0,.35,0a400.47,400.47,0,0,0,44.78-.34h.25l.36,0,.35,0c4-.29,21.47-1.77,34.45-5.89l.07,0,.06,0,2-.65.62-.2.33-.11.3-.11c.94-.37,3.6-1.42,6.57-2.85l.84-.41.07,0,.58-.29h0l.12-.06.19-.1.08,0,.24-.12.22-.1,0,0,.1,0h0l.22-.1a1.76,1.76,0,0,1,.56-.2C157.51,33.15,158.73,35.43,158.57,37.62Z"/><path class="cls-7" d="M155.43,33.6l-.32.15-.19.1-.17.1,0,0a5.6,5.6,0,0,0,.82-.41l.12-.07Zm1.56-.8h0a.8.8,0,0,0-.22.1c-.43.22-.69.35-1,.53l-.07,0,.1,0h0l.22-.1a.26.26,0,0,1,.21.07c.6.42,1.42,2.71,1.85,4v.19c-.1,2.32-2,4.12-3.2,5-3.12,2.5-3.23,32.62-3.17,90.11,0,21.91,0,46.75-.19,72.18v.39c-.46-.11-1-.27-1.67-.45a80.58,80.58,0,0,0-17.32-3.18c-10.23-.68-16,1.16-22.05,3.1a68.74,68.74,0,0,1-19.54,3.87c-10.38.54-15.52-1.18-20.06-2.7a28.36,28.36,0,0,0-9.71-2,32.59,32.59,0,0,0-7.2.9c-1.53.35-3.09.77-4.74,1.21-7.13,1.93-15.21,4.11-24.63,1.12a18.2,18.2,0,0,1-3.54-1.4l0-1.34c-.6-23.37-1-46.37-1.31-66.66C18.71,77.59,18,46.05,14.49,44l-.1-.05c-1.94-1.11-3.14-2.53-3.39-4-.32-2,.9-4.27,1.86-4.65a.54.54,0,0,1,.3-.06.49.49,0,0,1,.19,0c1.15.44,1.61.56,2,.67a4.21,4.21,0,0,1,.85.33l.05,0h.05a12.17,12.17,0,0,1,2.14,1.38l.08.05.07,0c2.2,1.22,4.38,1.69,8.31,2.51h0l.1-.49,0,.52a278.16,278.16,0,0,0,31.66,4.82l.48,0,.48,0,.82.06.54,0,.41,0h.35l.25,0,.37,0,.7,0,1.41.07,2.65.12,2.09.07c8.35.28,22.11.41,38.78-.61l.28,0,.26,0,.34,0,.36,0c2-.15,7.07-.58,13.2-1.44a135.9,135.9,0,0,0,21-4.44l.77-.24,1.43-.46.27-.08.36-.12.31-.1c3.63-1.18,5.71-2,7-3.05a6.17,6.17,0,0,0,.54-.48l.08-.09a2.46,2.46,0,0,1,.5-.49l-.52.23-.07,0-.68.27c-1.27.51-2.66,1-3,1.13L146.61,37l-.37.13a193.88,193.88,0,0,1-34.59,6.6l-2.49.23-.36,0-.38,0-.2,0-.22,0h-.15c-2.48.15-4.9.28-7.24.38l-3.44.14h0l-3.32.11c-14.8.41-25.9,0-30.69-.29l-.7,0-.37,0-.36,0h-.24l-.47,0-.46,0-.86-.06-.43,0-.21,0-.29,0a275.54,275.54,0,0,1-31.54-4.8l-.1.49,0-.52-.46-.12c-.62-.16-1.24-.32-1.83-.5l-.47-.13-1.19-.34-.32-.09c-1-.29-2.15-.62-3.28-1l-2.07-.64c-.8-.25-1.32-.41-1.68-.55l-.07,0c-.64-.25-1.22-.44-2.33-.81l-.12,0h0l0,0-.46-.15h0c-.56-.16-.65-.17-.76-.15C10.67,35,9.55,37.81,10,40.07c.59,2.86,3.48,4.47,4,4.75,3.22,1.9,3.92,44.14,4.73,93,.33,20.3.72,43.3,1.31,66.67l0,1.85.21.15a16.39,16.39,0,0,0,4,1.68c9.7,3.07,17.93.85,25.19-1.11,1.64-.44,3.19-.86,4.7-1.2,7.94-1.8,11.66-.55,16.37,1a46.07,46.07,0,0,0,16.62,2.85c1.19,0,2.46,0,3.82-.1a69.64,69.64,0,0,0,19.79-3.92c6-1.91,11.64-3.72,21.68-3.05a80.76,80.76,0,0,1,17.11,3.14c1,.28,1.78.5,2.33.61l.6.12v-1.63c.23-25.43.21-50.27.19-72.18,0-46.69-.09-87,2.85-89.37,1.27-1,3.4-3,3.52-5.75C159.17,35.47,157.71,32.71,157,32.8Z"/><path class="cls-3" d="M155.75,33.44l-.07,0,0,0-.22.1-.32.15-.19.1-.12.06a1.54,1.54,0,0,1,.32-.25h0a1,1,0,0,1,.23-.12A1.4,1.4,0,0,1,155.75,33.44Z"/><path class="cls-3" d="M15.71,35.93c-.64-.25-1.22-.44-2.33-.81C14.08,34.94,14.69,35.24,15.71,35.93Z"/><path class="cls-8" d="M152.5,205.39c0,.26-.37.49-.5.57-1.3.76-13.37-3.35-19.51-3.76-18.74-1.25-22.05,6-41.53,7-21.34,1.11-21-7.35-36.89-3.77-8.12,1.83-17.88,6-29.63,2.32a7.39,7.39,0,0,1-3.88-1.61.91.91,0,0,1,0-1.6c.26-.22,13.66-6.24,50.71-2.86,19.18,1.75,24.28,5.22,36.75,2,11.43-2.94,12.88-5.13,20.25-5.34l1.4,0a43.23,43.23,0,0,1,10.82,1.81c2.54.79,1.79.81,4.54,1.68a72,72,0,0,1,7,3.14C152.13,205,152.48,205.15,152.5,205.39Z"/><path class="cls-8" d="M87.17,209.77a46.07,46.07,0,0,1-16.62-2.85,32.38,32.38,0,0,0-7.11-1.8,27.85,27.85,0,0,0-9.26.77c-1.88.4-1.71.51-4.71,1.32a71,71,0,0,1-11.6,2.31,49.12,49.12,0,0,1-7.79.19c-6.91-.43-9.93-2.19-10-3.19,0,0,0-.48,0-1.41s0-1,0-1.07c.05-1.5,24.47-6.84,51.27-2.89,5.14.76,10.32,1.21,15.44,2,8.09,1.3,13,2.09,21.14,0a65.84,65.84,0,0,0,7.57-2.5c3.87-1.46,7.2-2.73,12.8-2.85,3.4-.08,14.93-.44,24.09,6.71l.2.16v1.87l-.61-.12c-1.25-.27-2.16-.57-2.32-.61a80.24,80.24,0,0,0-17.12-3.14c-10-.67-15.69,1.14-21.68,3.05A69.64,69.64,0,0,1,91,209.67C89.63,209.74,88.36,209.77,87.17,209.77Zm-26-5.76a28.17,28.17,0,0,1,9.71,2c4.54,1.52,9.68,3.24,20.06,2.7a69.09,69.09,0,0,0,19.54-3.87c6.08-2,11.82-3.78,22.05-3.1a81.23,81.23,0,0,1,17.31,3.17c.8.23,1.46.41,2,.53l-.09-.06c-2.93-2.24-12.54-6.76-23.46-6.51a33.12,33.12,0,0,0-12.46,2.79,69.2,69.2,0,0,1-7.68,2.53c-8.37,2.15-13.61,1.3-21.55,0-4-.65-8.93-1.45-15.37-2-23.27-2.14-46.6.21-50.38,2.77-.34.23-.35.36-.36.37s.07.18.4.41a15.85,15.85,0,0,0,3.75,1.54c9.41,3,17.5.81,24.63-1.12,1.65-.44,3.21-.87,4.74-1.21A32.52,32.52,0,0,1,61.16,204Z"/><path class="cls-9" d="M80.83,359.38c2.81,0,4.79,1.41,6,4.3A11.25,11.25,0,0,1,88,361.09,6.41,6.41,0,0,1,93.76,358a7.47,7.47,0,0,1,6.06,2.62,10.66,10.66,0,0,1,2.3,7.1q0,1.61-.18,4.08c-.12,1.65-.18,2.87-.18,3.64a14.28,14.28,0,0,0,.14,1.91l.26,1.76a1.16,1.16,0,0,0,0,.26v.26c0,1.08-.51,1.62-1.47,1.63s-1.32-.38-1.33-1.16a7.11,7.11,0,0,1,.12-1,5.51,5.51,0,0,0,.08-.79c0-1.27-1-1.9-3.07-1.89L80,376.54c-2.06,0-3.09.66-3.08,1.94a4.06,4.06,0,0,0,.09.78,6.71,6.71,0,0,1,.13,1c0,.78-.43,1.17-1.31,1.18s-1.45-.57-1.46-1.72v-.48l.28-1.84a14.06,14.06,0,0,0,.1-2.14q0-1.42-.27-4c-.12-1.17-.18-2.43-.19-3.78A9,9,0,0,1,76,361.53,6,6,0,0,1,80.83,359.38Zm1.88,14.33a6.06,6.06,0,0,0,2.7-.37c.34-.24.5-.9.5-2l0-2.1q0-6.63-4.79-6.6c-2.88,0-4.31,1.86-4.28,5.5,0,2.55.2,4.12.57,4.7s1.28.87,2.76.86Zm8.36-.06,4.58,0c1.78,0,2.88-.29,3.29-.85s.6-2,.59-4.5q-.06-7-5.82-7-5.33,0-5.27,6.78l0,3.11c0,1.35.35,2.12,1,2.32A6.26,6.26,0,0,0,91.07,373.65Z"/><path class="cls-9" d="M86.48,336.06a12.21,12.21,0,0,1,1,2.77,4.39,4.39,0,0,1,1.79-3,8.93,8.93,0,0,1,4.47-.86l1.89,0h.49c2,0,2.95-.59,2.95-1.73s-1.19-1.73-3.53-1.71H92.73a6.11,6.11,0,0,1-1.64-.14,1.15,1.15,0,0,1-.7-1.16c0-.9.57-1.35,1.72-1.36l.91,0h3a6.61,6.61,0,0,0,.74,0,5.39,5.39,0,0,1,3.74,1.19,4.36,4.36,0,0,1,1.36,3.38q0,4.43-4.87,4.46H93.45c-1.83,0-3,.34-3.64,1s-.87,2-.85,4l0,3.47c0,.8.55,1.19,1.62,1.18l3.17,0c2,0,3.19-.05,3.46-.1,1.37-.24,2.06-.86,2-1.89a3.88,3.88,0,0,0-.06-.79,9,9,0,0,1-.08-1c0-.8.45-1.2,1.36-1.21s1.44.53,1.45,1.6l-.08.56-.27,2a13.3,13.3,0,0,0-.15,2.06,19.22,19.22,0,0,0,.22,2.62l.26,1.8c.06.4.09.59.09.56,0,1.08-.49,1.62-1.47,1.63s-1.33-.38-1.33-1.16c0-.12,0-.46.07-1a2.86,2.86,0,0,0,.12-.79c0-1.27-1-1.9-3.1-1.89l-16.53.12c-2.06,0-3.08.66-3.08,1.94a7.21,7.21,0,0,0,.11.89,4.83,4.83,0,0,1,.11.9,1,1,0,0,1-.38.83,1.35,1.35,0,0,1-.93.34c-1,0-1.44-.53-1.45-1.63a4.83,4.83,0,0,1,0-.53l.19-1.91c0-.5.07-1.13.07-1.88s0-1.63-.1-2.58l-.19-2.85c-.06-.95-.09-1.82-.1-2.62q-.06-8.24,6.84-8.29Q85,333.23,86.48,336.06Zm-.26,10.39,0-3.52a9,9,0,0,0-1-4.72,4.32,4.32,0,0,0-4-1.88q-4.69,0-4.65,5.9a11.35,11.35,0,0,0,.54,4.22,2.07,2.07,0,0,0,2,1.13h1.32l4.74,0c.47,0,.76-.08.88-.23A1.46,1.46,0,0,0,86.22,346.45Z"/><path class="cls-9" d="M90.58,318.76l1.81,1,2.21,1.11,1.85,1,1.27.7.39.22a1,1,0,0,0,.43.15q.45,0,.45-.72a7.13,7.13,0,0,0-.07-.78,7.38,7.38,0,0,1-.07-.75,1.29,1.29,0,0,1,1.43-1.47,1.34,1.34,0,0,1,1.5,1.52,5.8,5.8,0,0,1-.12,1.05,19,19,0,0,0-.35,3,21.84,21.84,0,0,0,.36,3,10.38,10.38,0,0,1,.17,1.42c0,.9-.46,1.35-1.39,1.36A1.23,1.23,0,0,1,99,329.19a4.16,4.16,0,0,1,.08-.71,5,5,0,0,0,.07-.71c0-.48-.4-1-1.2-1.6l-.71-.53-22-12.43a2,2,0,0,1-1.17-1.68c0-.32,0-.72,0-1.19,0-.93.07-2.25.06-4l0-1.68c0-.55,0-1.7,0-3.45l-.37-5.92c0-1.15.69-1.73,1.92-1.74h.21a.58.58,0,0,0,.2,0l1.74.14c.88.07,1.7.1,2.47.09a8.42,8.42,0,0,0,1.65-.11l1.85-.21c1.07,0,1.61.43,1.62,1.33s-.69,1.36-2.09,1.37H80.79q-2.88,0-3.6,1c-.47.66-.7,2.33-.68,5a29.21,29.21,0,0,0,.19,4.05,1.34,1.34,0,0,0,1.08,1.08,8.62,8.62,0,0,0,1.73.1l5.85-.05a1.08,1.08,0,0,0,.74-.17,1.13,1.13,0,0,0,.16-.77l0-2.7q0-2.18-1.95-2.16c-.27,0-.68,0-1.23.11s-1,.1-1.24.1c-1.13,0-1.69-.41-1.7-1.26s.53-1.32,1.6-1.33a14,14,0,0,1,1.69.1,35.39,35.39,0,0,0,4.49.27,34.15,34.15,0,0,0,4.21-.33,10.52,10.52,0,0,1,1.4-.12c1,0,1.56.42,1.57,1.28s-.48,1.3-1.47,1.3a8.84,8.84,0,0,1-1.28-.08,10.25,10.25,0,0,0-1.44-.08c-1.32,0-2,.75-2,2.22l0,2.74c0,.57.27.86.8.85l6.73-.05a3.32,3.32,0,0,0,2-.38c.27-.26.39-.92.38-2l0-4.87c0-1.93-.25-3.17-.71-3.73s-1.5-.83-3.11-.82l-2,0h-.88c-1.58,0-2.37-.4-2.38-1.24s.57-1.29,1.73-1.3c.54,0,1.38,0,2.49.06s1.94.06,2.49.05c.39,0,.76,0,1.11,0l1.57-.13h.33a1.79,1.79,0,0,1,2.07,2c0,.2,0,.94-.07,2.21q-.13,3.19-.09,9.48,0,3.68.3,7.65c0,1.05-.45,1.57-1.39,1.58s-1.4-.6-1.41-1.83c0,.15,0-.08,0-.71v-.93a1.75,1.75,0,0,0-1.25-1.83,10.93,10.93,0,0,0-2.6-.17l-4.74,0a2.11,2.11,0,0,0-1.13.2.9.9,0,0,0-.22.71l0,6.07a1,1,0,0,0,.39.66C89.62,318.21,90,318.44,90.58,318.76Zm-14.22-8,10,5.62,0-5.28c0-.4-.31-.61-.91-.63l-9-.16c-.16,0-.25.05-.25.15S76.2,310.7,76.36,310.77Z"/><path class="cls-9" d="M87.28,282l-10-10.5a1,1,0,0,0-.71-.41c-.3,0-.45.24-.45.72a1.52,1.52,0,0,0,0,.41,19.18,19.18,0,0,1,.18,2c0,.9-.47,1.35-1.43,1.36S73.59,275,73.58,274a11.8,11.8,0,0,1,.08-1.53l.23-2a19.18,19.18,0,0,0,.15-2,22.47,22.47,0,0,0-.35-3.33,9.4,9.4,0,0,1-.18-1.5,1.25,1.25,0,0,1,1.39-1.43c.94,0,1.4.43,1.41,1.3v.37c0,.18,0,.32,0,.42v.56a3.7,3.7,0,0,0,1.05,2.54l6.53,7a1.14,1.14,0,0,0,.75.45,1.58,1.58,0,0,0,.69-.38l.94-.57,8.91-6.06c2.37-1.62,3.55-2.82,3.55-3.62a1,1,0,0,0,0-.23v-.18c-.09-.68-.13-1.09-.13-1.24,0-.9.46-1.35,1.39-1.36a1.26,1.26,0,0,1,1.41,1.45l-.23,1.88a27.21,27.21,0,0,0-.14,3.15,39.56,39.56,0,0,0,.27,4.23q.18,1.45.18,1.65a1.2,1.2,0,0,1-1.33,1.39,1.29,1.29,0,0,1-1.47-1.45c0-.27,0-.66.06-1.16.08-1,.12-1.54.12-1.69,0-.6-.14-.9-.41-.89a1.52,1.52,0,0,0-.79.34l-10.37,7q-.33.23-.33.42c0,.1.11.26.34.48L91.07,282c.5,0,1.06,0,1.69,0q3.58,0,3.84-.06c1.56-.21,2.34-.84,2.33-1.89a4.26,4.26,0,0,0-.13-.82,5.46,5.46,0,0,1-.13-1,1.06,1.06,0,0,1,.39-.83,1.45,1.45,0,0,1,1-.35c1,0,1.45.54,1.46,1.64v.26a.93.93,0,0,0,0,.27l-.32,2.1a18.51,18.51,0,0,0-.1,2.43,13.32,13.32,0,0,0,.14,2l.34,2.06a1.51,1.51,0,0,0,0,.22,2.2,2.2,0,0,1,0,.23c0,1.12-.48,1.69-1.46,1.69s-1.34-.37-1.34-1.15a5,5,0,0,1,.14-1A4.07,4.07,0,0,0,99,287c0-1.25-1-1.86-3.1-1.85l-2.89,0-3.62,0-3.47,0-3.66,0-2.89.06c-2.06,0-3.08.64-3.08,1.88a3.66,3.66,0,0,0,.11.78,6,6,0,0,1,.11,1q0,1.2-1.35,1.2c-1,0-1.44-.55-1.45-1.67a3.28,3.28,0,0,1,0-.48l.26-1.8a13.6,13.6,0,0,0,.16-2,24.91,24.91,0,0,0-.27-3c-.17-1.35-.26-2.12-.26-2.32,0-1,.47-1.57,1.43-1.58a1.46,1.46,0,0,1,1,.33,1,1,0,0,1,.4.82,5.62,5.62,0,0,1-.12,1,3,3,0,0,0-.08.78,1.52,1.52,0,0,0,1,1.63,20,20,0,0,0,4.92.26Z"/><path class="cls-9" d="M90.13,260c-1,0-1.44-.49-1.45-1.49l0-5.84c0-1,.45-1.5,1.39-1.51a1.31,1.31,0,0,1,1.49,1.49l0,5.84C91.57,259.46,91.1,260,90.13,260Z"/><path class="cls-9" d="M101.88,237.48a9.23,9.23,0,0,1-3.9,7.91q-3.93,2.94-10.69,3t-10.76-2.85a9.51,9.51,0,0,1-4-8,9.36,9.36,0,0,1,3.73-7.84q3.78-2.92,10.25-3,7,0,11.14,2.87A9.25,9.25,0,0,1,101.88,237.48Zm-26.33.11a6.29,6.29,0,0,0,3.09,5.56q3.06,2,8.58,1.93T95.88,243a6.46,6.46,0,0,0-.2-11.07c-2.14-1.35-5-2-8.69-2s-6.51.7-8.5,2A6.26,6.26,0,0,0,75.55,237.59Z"/><path class="cls-9" d="M89.87,223.85c-1,0-1.44-.49-1.45-1.49l0-5.84c0-1,.46-1.51,1.39-1.51a1.31,1.31,0,0,1,1.49,1.49l0,5.84C91.31,223.34,90.84,223.84,89.87,223.85Z"/><path class="cls-9" d="M76.16,201.8,97,195.88l-22.26-6.17c-1.16-.32-1.74-.87-1.74-1.67v-.19a4.41,4.41,0,0,1,.11-1,4.55,4.55,0,0,0,.2-1,12.3,12.3,0,0,0,.07-1.65,9.81,9.81,0,0,0-.13-1.76L73,181.18a1.84,1.84,0,0,1,0-.45c0-1.15.47-1.73,1.43-1.73s1.33.39,1.33,1.18a5.39,5.39,0,0,1-.1.89,6.16,6.16,0,0,0-.09.88c0,1.27,1,1.9,3.1,1.89l2.89,0,3.62,0,3.51,0,6.51,0c2.06,0,3.08-.65,3.07-1.9a3.19,3.19,0,0,0-.12-.82c-.06-.55-.09-.88-.09-1,0-.79.43-1.2,1.31-1.2s1.48.52,1.49,1.6a3.44,3.44,0,0,0-.08.56,39,39,0,0,0-.3,4.39,19.36,19.36,0,0,0,.32,3.37,6.84,6.84,0,0,1,.13,1.19c0,1-.45,1.47-1.37,1.48s-1.43-.5-1.43-1.5a1.72,1.72,0,0,1,0-.57c.07-.56.1-.88.1-1,0-.91-1-1.47-3.1-1.68-.44-.05-1.83-.06-4.19-.05-.91,0-2.22,0-4,0l-3.7,0-7.29.06q-.24,0-.24.18c0,.08.08.15.25.23l23.54,6.72a2,2,0,0,1,1.58,2.09,2.71,2.71,0,0,1-.3,1.44,2.09,2.09,0,0,1-1.25.75L76.1,205c-.17.07-.25.16-.25.26s.08.15.25.15l19.05-.36c2,0,3-.55,3-1.52V202c0-1,.46-1.46,1.39-1.47s1.41.49,1.42,1.49a6.45,6.45,0,0,1-.08.79c-.08.55-.17,1.14-.28,1.76a12.67,12.67,0,0,0-.11,1.91,16.23,16.23,0,0,0,.15,2.66l.34,1.57a.84.84,0,0,0,0,.23v.22c0,1.15-.47,1.73-1.43,1.74a1.46,1.46,0,0,1-1-.33,1.1,1.1,0,0,1-.4-.83,4.72,4.72,0,0,1,.12-1,4.48,4.48,0,0,0,.12-.83c0-1.27-1.05-1.9-3.11-1.88l-16.56.11c-2.06,0-3.09.66-3.08,1.94a5.89,5.89,0,0,0,.11.9,5.8,5.8,0,0,1,.11.89c0,.78-.43,1.17-1.31,1.18s-1.45-.56-1.46-1.68c0-.1,0-.26,0-.49l.16-1.31a15,15,0,0,0,.11-1.84,18.33,18.33,0,0,0-.18-1.93,13.6,13.6,0,0,1-.18-1.77c0-1,.66-1.63,2-2Z"/><path class="cls-9" d="M78.5,172.63c-2,0-3,.66-3,1.94a2.94,2.94,0,0,0,.08.78,4.72,4.72,0,0,1,.13,1,1,1,0,0,1-.38.83,1.4,1.4,0,0,1-1,.34c-1,0-1.44-.51-1.45-1.55,0,0,0-.22,0-.56.24-3.74.37-5.48.37-5.24v-.37l-.35-9c0-.17,0-.82-.14-1.94,0-.39,0-.75,0-1.08a1.69,1.69,0,0,1,1.88-1.95q.33,0,2.1.09c.88,0,1.69.07,2.43.06,1,0,1.64,0,2-.08a17.23,17.23,0,0,1,1.77-.13c1,0,1.57.43,1.58,1.31s-.72,1.34-2.17,1.35l-2.15,0c-2.3,0-3.66.46-4.07,1.34-.3.65-.43,2.32-.42,5a22.71,22.71,0,0,0,.15,3.15,2.25,2.25,0,0,0,2.49,1.59h4.12c1.1,0,1.73-.23,1.89-.68a3.18,3.18,0,0,0,.07-.88v-1.52c0-1.55-.6-2.32-1.79-2.32a12.33,12.33,0,0,0-1.27.11,12.59,12.59,0,0,1-1.4.1c-1.1,0-1.65-.43-1.66-1.32s.58-1.33,1.76-1.34c.22,0,1.07.07,2.56.22a33,33,0,0,0,3.34.19c.55,0,1.52-.06,2.92-.17l1.44-.2a11.74,11.74,0,0,1,1.45-.12c1,0,1.48.43,1.49,1.33s-.57,1.32-1.72,1.33c-.31,0-.74,0-1.32-.09s-1-.08-1.32-.08c-1.18,0-1.77.72-1.76,2.15v1.68c0,.73.15,1.17.43,1.33a4,4,0,0,0,1.77.23l2.55,0c.44,0,1,0,1.78-.05l1.81,0c1.1,0,1.78-.23,2.06-.61a4.06,4.06,0,0,0,.27-1.95l0-5.1a4.77,4.77,0,0,0-.74-3,3.53,3.53,0,0,0-2.71-.8c-.41,0-1,0-1.83.07l-1.83.07c-1.24,0-1.86-.43-1.87-1.32s.63-1.41,1.89-1.42c.49,0,1.25,0,2.27,0s1.77,0,2.26,0,1,0,1.71-.07l1.71-.07c1.3,0,1.94.56,1.95,1.71,0,.28,0,.72-.07,1.32,0,.3,0,.84,0,1.64,0-.17,0,.8-.06,2.93s-.06,4,0,5.51q0,3.51.29,6.89a1.55,1.55,0,0,0,0,.34v.22c0,1-.49,1.58-1.47,1.58s-1.33-.37-1.33-1.15c0-.12,0-.46.07-1a2.81,2.81,0,0,0,.12-.79c0-1.27-1-1.9-3.1-1.89Z"/><path class="cls-9" d="M94.83,139.54c2.06,0,3.09-.66,3.08-1.93a5.89,5.89,0,0,0-.11-.9,5.89,5.89,0,0,1-.11-.9,1.16,1.16,0,0,1,.38-.85,1.32,1.32,0,0,1,.93-.36c1,0,1.45.55,1.45,1.68v.22a2,2,0,0,0,0,.26l-.28,1.84A16.83,16.83,0,0,0,100,141a16.58,16.58,0,0,0,.19,2.51l.3,1.88a.92.92,0,0,0,0,.26v.26c0,1.1-.47,1.65-1.43,1.66s-1.32-.39-1.33-1.19a7.08,7.08,0,0,1,.1-.9,5.6,5.6,0,0,0,.1-.9c0-1.25-1-1.87-3.11-1.85l-2.88,0-3.63,0-3.5,0-6.72.05c-2,0-2.92.93-2.9,2.75v1.17c0,1.79,1,2.69,2.91,2.67.69,0,1.15,0,1.4,0l1.52-.17c.25,0,.59,0,1,0q2.6,0,2.61,1.44c0,.93-.62,1.39-1.89,1.4-.35,0-1,0-1.85-.06-1.32-.06-2.16-.1-2.52-.09-.68,0-1.4,0-2.14.07-1.45.1-2.07.14-1.85.14q-1.74,0-1.74-1.41c0-.35,0-1.16.1-2.43,0-.12,0-1.15.15-3.07l0-4.26c0-.5,0-1.83-.11-4q0-.72-.12-2.43c-.08-1-.12-1.82-.13-2.4,0-1.24.55-1.87,1.68-1.88h.08c.28,0,.79,0,1.53.08l2.39.19h.45c.41,0,1.06-.05,1.94-.13,1.15-.11,1.87-.16,2.14-.16,1.13,0,1.69.47,1.7,1.45S83.79,133,82.41,133c-.5,0-1.23,0-2.21-.09s-1.72-.1-2.22-.1c-1.9,0-2.85,1-2.83,3v1.05a2.61,2.61,0,0,0,.66,2,3.25,3.25,0,0,0,2.12.66l2.89.13Z"/><path class="cls-9" d="M78.15,123.55c-2,0-3.05.66-3,1.93a3,3,0,0,0,.09.79,4.65,4.65,0,0,1,.13,1,1,1,0,0,1-.38.82,1.41,1.41,0,0,1-1,.35c-1,0-1.45-.51-1.45-1.56,0,0,0-.21,0-.56q.38-5.61.38-5.23v-.37l-.36-9c0-.18,0-.82-.14-1.94,0-.4,0-.76,0-1.08a1.69,1.69,0,0,1,1.88-2l2.1.09q1.32.07,2.43.06c1,0,1.64,0,2-.07.8-.09,1.39-.14,1.77-.14,1.05,0,1.57.43,1.58,1.32s-.72,1.33-2.18,1.35H79.86c-2.31,0-3.66.46-4.07,1.34-.3.65-.44,2.33-.42,5a19.5,19.5,0,0,0,.15,3.14,2.25,2.25,0,0,0,2.48,1.6l1.86,0h2.26c1.1,0,1.73-.24,1.89-.68a3.17,3.17,0,0,0,.08-.89v-1.52c0-1.55-.61-2.32-1.79-2.31a12.25,12.25,0,0,0-1.28.1,12.62,12.62,0,0,1-1.4.11c-1.09,0-1.65-.44-1.65-1.32s.58-1.34,1.76-1.35c.22,0,1.07.08,2.56.23a29.87,29.87,0,0,0,3.33.18c.55,0,1.53-.06,2.93-.17l1.44-.2a11.61,11.61,0,0,1,1.44-.12c1,0,1.49.44,1.49,1.34s-.56,1.31-1.72,1.32c-.3,0-.74,0-1.32-.08s-1-.09-1.31-.09c-1.19,0-1.77.73-1.76,2.15v1.69c0,.72.15,1.17.42,1.33a4.25,4.25,0,0,0,1.78.23l2.55,0c.44,0,1,0,1.77,0l1.82,0c1.09,0,1.78-.24,2-.62a4.1,4.1,0,0,0,.28-2l0-5.09a4.73,4.73,0,0,0-.74-3,3.5,3.5,0,0,0-2.71-.81l-1.83.07c-.81,0-1.42.07-1.84.07q-1.84,0-1.86-1.32c0-.93.62-1.41,1.89-1.42.49,0,1.25,0,2.26,0s1.78,0,2.27,0l1.71-.07c.76,0,1.33-.07,1.71-.07q1.94,0,2,1.71c0,.27,0,.71-.07,1.31q0,.45,0,1.65c0-.18,0,.8-.06,2.92s-.06,4,0,5.51q0,3.52.3,6.89a1.42,1.42,0,0,0,0,.34v.22q0,1.57-1.47,1.59c-.88,0-1.32-.38-1.32-1.15a10,10,0,0,1,.07-1,2.86,2.86,0,0,0,.12-.79c0-1.28-1-1.91-3.11-1.89Z"/><path class="cls-9" d="M84.66,83.78a11.84,11.84,0,0,1,1,2.77,4.34,4.34,0,0,1,1.78-3,9,9,0,0,1,4.47-.87h2.39c2,0,3-.58,2.94-1.72s-1.18-1.74-3.52-1.72H90.91a5.64,5.64,0,0,1-1.63-.14,1.13,1.13,0,0,1-.7-1.15c0-.9.56-1.36,1.72-1.36l.9,0h3a4.63,4.63,0,0,0,.74,0,5.32,5.32,0,0,1,3.74,1.19,4.34,4.34,0,0,1,1.37,3.38c0,3-1.61,4.43-4.88,4.46H91.64c-1.84,0-3,.34-3.64,1s-.87,1.95-.86,3.94l0,3.47c0,.8.54,1.19,1.61,1.19l3.18,0a34.05,34.05,0,0,0,3.46-.1c1.37-.23,2-.86,2-1.88a4.92,4.92,0,0,0,0-.79,9.23,9.23,0,0,1-.08-1c0-.8.44-1.21,1.35-1.21s1.45.52,1.45,1.6l-.07.56-.28,2a16.22,16.22,0,0,0-.15,2.06,19.52,19.52,0,0,0,.23,2.62l.26,1.8c0,.4.08.58.08.56q0,1.61-1.47,1.62c-.88,0-1.32-.38-1.33-1.15,0-.13,0-.46.08-1a2.86,2.86,0,0,0,.12-.79c0-1.28-1-1.91-3.11-1.89L78,98.37c-2.06,0-3.09.66-3.08,1.93a5.89,5.89,0,0,0,.11.9,5.89,5.89,0,0,1,.11.9,1.08,1.08,0,0,1-.39.83,1.36,1.36,0,0,1-.92.34c-1,0-1.45-.54-1.46-1.64,0-.1,0-.27,0-.52l.19-1.92a14.59,14.59,0,0,0,.07-1.87c0-.77,0-1.64-.1-2.59l-.18-2.84c-.06-1-.1-1.82-.1-2.62Q72.2,81,79.1,81,83.17,80.94,84.66,83.78Zm-.25,10.38,0-3.52a8.9,8.9,0,0,0-1-4.71,4.35,4.35,0,0,0-4-1.89c-3.13,0-4.69,2-4.66,5.9a11.61,11.61,0,0,0,.55,4.23,2.1,2.1,0,0,0,2.05,1.13H78.6l4.74,0c.47,0,.77-.08.89-.24A1.44,1.44,0,0,0,84.41,94.16Z"/></svg>
