<svg id="Layer_1" data-name="Layer 1" xmlns="http://www.w3.org/2000/svg" xmlns:xlink="http://www.w3.org/1999/xlink" viewBox="0 0 1920 1080"><defs><style>.cls-1{fill:url(#linear-gradient);}.cls-2{fill:#1f351c;}.cls-3{fill:#9ec131;}.cls-4{fill:#24441e;}.cls-5{fill:#2e9937;}.cls-6{fill:#4c8e33;stroke:#4d8e33;}.cls-17,.cls-21,.cls-25,.cls-6,.cls-7,.cls-8,.cls-9{stroke-miterlimit:10;}.cls-21,.cls-7{font-size:117.4867px;fill:#a9c821;stroke:#253676;}.cls-7{stroke-width:3px;}.cls-21,.cls-25,.cls-7,.cls-9{font-family:AmericanTypewriter, American Typewriter;}.cls-8{fill:#63b32f;stroke:#67b02e;}.cls-9{font-size:60px;}.cls-25,.cls-9{fill:#263677;stroke:#144391;stroke-width:2px;}.cls-10{letter-spacing:-0.025em;}.cls-11{letter-spacing:0.021em;}.cls-12{letter-spacing:-0.016em;}.cls-13{letter-spacing:-0.02299em;}.cls-14{letter-spacing:0.019em;}.cls-15{letter-spacing:-0.09199em;}.cls-16{letter-spacing:-0.01399em;}.cls-17{fill:none;stroke:#1d331b;stroke-width:5px;}.cls-18{fill:#1a331b;}.cls-19{fill:#7baa2b;}.cls-20{fill:#228335;}.cls-21{stroke-width:4px;}.cls-22{letter-spacing:-0.01799em;}.cls-23{letter-spacing:-0.02499em;}.cls-24{fill:url(#linear-gradient-2);}.cls-25{font-size:40px;}</style><linearGradient id="linear-gradient" x1="-3.67146" y1="542.33774" x2="1925.50378" y2="542.33774" gradientUnits="userSpaceOnUse"><stop offset="0" stop-color="#b6c83c"/><stop offset="0.08251" stop-color="#aac535"/><stop offset="0.2652" stop-color="#93be27"/><stop offset="0.3817" stop-color="#8bbc22"/><stop offset="0.39488" stop-color="#8bbc22"/><stop offset="0.52868" stop-color="#8bbc22"/><stop offset="0.66611" stop-color="#7dad25"/><stop offset="0.93115" stop-color="#59852b"/><stop offset="1" stop-color="#4f792d"/></linearGradient><linearGradient id="linear-gradient-2" x1="1578.54911" y1="466.12276" x2="1699.34489" y2="466.12276" gradientUnits="userSpaceOnUse"><stop offset="0.10588" stop-color="#4b7e1f"/><stop offset="0.27755" stop-color="#3b7721"/><stop offset="0.52868" stop-color="#286f23"/><stop offset="0.67551" stop-color="#266024"/><stop offset="0.92291" stop-color="#233d26"/></linearGradient></defs><rect class="cls-1" x="-3.67146" y="-4.04279" width="1929.17525" height="1092.76105"/><path class="cls-2" d="M1473.6104,1102.12792c-32.96485-36.214-12.2013-80.45642-7.99488-214.71381,2.62171-83.67773-5.505-64.54565-17.98864-399.06414-3.88758-104.17395-4.57544-145.58185,23.98486-177.84378,13.43587-15.17725,30.01576-24.57,49.072-30.34155,31.76035-9.6193,70.39936-9.17987,112.82573-8.69736,72.7605.82745,128.74378,1.46414,169.89258,43.37655,32.74463,33.35224,39.59766,85.58457,51.96717,188.68793,7.89318,65.79135,8.70068,117.77316,9.99377,219.05154,1.80811,141.622-3.32507,135.69483,1.99866,182.18146,14.60205,127.50391,51.84167,160.0669,29.98108,195.19434-19.21949,30.88342-57.60669,21.14367-219.86109,21.68835C1529.248,1122.14489,1499.42033,1130.4818,1473.6104,1102.12792Z"/><path class="cls-3" d="M1532.86964,610.07978c40.44556-23.02277,50.6499-73.06836,54.92261-71.328,2.40075.97784-2.03028,16.2854-7.13282,52.06939-2.82006,19.77692-3.09521,26.52222.71326,33.52417,5.134,9.43921,12.49048,9.78656,27.10474,20.68512,1.61047,1.20105,17.91565,13.5127,27.10461,27.81794,12.2251,19.03186,13.86548,44.72277,8.55933,60.62878-16.7378,50.17413-128.96009,82.01593-173.327,32.0976-24.10156-27.11725-26.53857-76.51654-7.13281-105.56543,10.24023-15.3288,28.53625-27.94483,33.52417-31.38428C1513.518,617.3769,1521.14344,616.75465,1532.86964,610.07978Z"/><path class="cls-4" d="M1843.06006,907.3c-5.32007-46.49-.19006-40.56-2-182.18-1.29-101.28-2.1001-153.26-9.99-219.05C1818.7,402.96,1811.85,350.73,1779.1,317.38c-33.57-34.19-77.00989-40.91-131.39-42.68-12.27-.4-25.1-.55-38.5-.7-42.42993-.48-81.06995-.92-112.83,8.7-19.04992,5.77-35.63,15.16-49.06994,30.34-28.56006,32.26-27.87012,73.67-23.98,177.84,12.48,334.52,20.60986,315.39,17.98,399.07-4.20007,134.25995-24.97,178.49994,8,214.7099,25.80994,28.36011,55.63989,20.02,203.86987,19.52,162.25-.53992,200.64014,9.20007,219.86011-21.68994C1894.9,1067.37,1857.65991,1034.80005,1843.06006,907.3ZM1672.14,730.48c-4.20007,12.58-14.4,24.01-28.03,33.28-19.76,13.45-46.73,22.37-73.05994,23.72-18.5.95-36.68005-1.84-51.82007-9.44,15.59009,5.95,33.65,7.52,51.67993,5.66,27.24011-2.78,54.39014-13.35,72.84009-28.35,10.12-8.22,17.61-17.77,21.06006-28.1,5.30994-15.9,3.66992-41.6-8.56006-60.63-.28-.44-.57007-.88-.87-1.31-.25-.37-.5-.74-.76-1.1-.21009-.3-.42-.6-.64-.88995-.26-.37-.54-.74-.81006-1.1-1.59985-2.11-3.30993-4.16-5.06994-6.1-.34-.38-.68006-.76-1.02991-1.13a134.55658,134.55658,0,0,0-9.69007-9.43c-.06994-1-.15-2-.21008-3.01.47009.36,1.13013.88,1.95008,1.53.34.27.70007.56,1.09.88,1.63013,1.33,3.67,3.06,5.92,5.1.22.2.45008.41.68006.62.90991.84,1.85986,1.73,2.83,2.67.31995.31.64.63.97.95.31994.32.65.64.97009.97,1.77991,1.79,3.56994,3.71,5.30993,5.73.18006.21.36.41.52991.62,1.68006,1.97,3.28,4.02,4.75,6.13q.735,1.035,1.41016,2.1C1675.81006,688.88,1677.45,714.57,1672.14,730.48Z"/><path class="cls-4" d="M1672.14,730.48c-4.20007,12.58-14.4,24.01-28.03,33.28-19.76,13.45-46.73,22.37-73.05994,23.72-18.5.95-36.68005-1.84-51.82007-9.44,15.59009,5.95,33.65,7.52,51.67993,5.66,27.24011-2.78,54.39014-13.35,72.84009-28.35,10.12-8.22,17.61-17.77,21.06006-28.1,5.30994-15.9,3.66992-41.6-8.56006-60.63a101.77156,101.77156,0,0,0-16.15-18.59l-.08-2.7c-.86011-.85-1.72-1.71-2.58008-2.56l-.17993-.15c3.72,2.86,17.97,14.22,26.32007,27.23C1675.81006,688.88,1677.45,714.57,1672.14,730.48Z"/><path class="cls-3" d="M640.82344,867.90834H1417.2257a51.3486,51.3486,0,0,1,51.3486,51.3486V984.389a51.3486,51.3486,0,0,1-51.3486,51.3486H640.82341a51.34857,51.34857,0,0,1-51.34857-51.34857V919.25694a51.3486,51.3486,0,0,1,51.3486-51.3486Z" transform="matrix(1, -0.00207, 0.00207, 1, -1.9696, 2.13378)"/><path class="cls-5" d="M616.77612,885.23313H1404.896a51.3486,51.3486,0,0,1,51.3486,51.3486v69.66835a51.3486,51.3486,0,0,1-51.3486,51.3486H616.77609a51.34857,51.34857,0,0,1-51.34857-51.34857V936.58174a51.3486,51.3486,0,0,1,51.3486-51.3486Z" transform="translate(-2.01023 2.09615) rotate(-0.11869)"/><path class="cls-6" d="M9.67529,20.97258C17.64636-47.87206,76.48-110.26216,128.45617-108.808c89.35893,2.50009,119.60254,192.62117,189.56948,181.3372C376.32128,63.12758,377.09-72.365,445.20522-105.25233c80.42459-38.83056,129.39847,172.64606,239.9614,172.44812,77.58087-.13889,82.043-99.41747,202.76745-172.44812,127.79407-77.30729,289.36517-66.82581,325.14777,30.22287,14.09277,38.22229,6.53076,84.06,5.9989,87.113-12.323,70.73615-62.1919,74.4519-98.38416,145.78092-35.32495,69.61977-45.40149,179.5689-20.3966,209.78224,40.38794,48.80091,154.1947-132.29649,193.16882-87.113,35.90991,41.63116-2.56006,262.78021-82.78662,305.7843-40.22864,21.56384-77.292-8.98932-83.98645,10.66693-17.88831,52.52374,94.40893,236.23242,131.97876,247.1164a78.80314,78.80314,0,0,1,21.25928,9.90216c6.23681,4.11291,12.7445,8.51562,16.62976,16.52691,2.01379,4.15235,1.39209,5.29248,3.30371,21.47412,2.07678,17.57947,3.37744,21.03284.708,23.5979-3.73658,3.59046-12.70581,2.9939-17.99024-1.43353-8.9-7.45672-2.71-21.894-11.363-27.6665-2.6405-1.76148-4.97851-1.59229-11.95166-1.43061-11.49047.26636-22.996-.54156-34.48071-.08935-.00012,0-6.4541.25415-33.9447,0-38.74536-.35816-95.2854-64.16516-152.93494-101.32684-4.56628-2.94349-103.47509-65.69819-136.778-37.33411-29.16095,24.83636,16.86529,100.54394-18.179,130.9707-8.23462,7.1496-30.03955,8.05121-73.31329,9.56262-39.76965,1.389-80.50989.51178-96.55866.10639-39.99-1.01026-55.045-2.33411-78.75579,4.14361-34.6435,9.46454-43.48371,20.869-46.62415,26.89179-3.55713,6.822-9.72827,18.65723-6.69861,30.60126.764,3.01172,2.65613,8.17193,1.5539,15.02069-.09754.6062-1.66938,9.93622-5.17957,10.35907-3.73059.4494-8.7373-9.27191-10.87707-17.61048-3.91864-15.27063,1.07189-28.65448,7.76934-46.6159,6.19605-16.61676,10.97663-21.79688,12.43091-23.308,5.31165-5.51916,10.71356-7.80432,20.7182-12.94891,12.81781-6.59119,19.22669-9.88678,33.66706-15.53863,10.67639-4.17865,43.63122-17.077,58.05322-29.53907,29.39087-25.39685,33.74768-93.85986,4.02533-130.09619-38.14276-46.5022-146.95453-53.59906-182.95539-.19531-64.92626,96.31177,15.99482,314.96533-39.77084,363.74377-20.28552,17.74378-52.612,7.72071-71.31332-16.25671-56.358-72.25775,27.30829-250.36377-28.70862-347.29175-29.30661-50.71026-93.00681-72.55786-129.57915-39.112-75.64082,69.17456,4.6776,338.37335-78.96609,418.91718-26.72341,25.73315-69.21709,31.27893-93.25586,4.06421C20.53727,1016.43914,113.31073,808.293,42.07008,664.54193,7.564,594.91479-44.02417,581.04657-40.71661,547.20611-36.4368,503.41842,87.076,501.491,87.66274,474.31567c.56529-26.18115-114.0531-25.42258-129.57916-99.55774-7.45965-35.619,8.59866-85.455,28.79537-94.22424,27.43219-11.91071,47.81554,58.31579,98.38418,58.66794,8.16855.05688,36.49435.25409,44.39286-21.3338C150.479,260.95529-4.51777,143.55528,9.67529,20.97258Z"/><text class="cls-7" transform="translate(593.10933 1011.48558) rotate(-0.1186) scale(1.29119 1)">PRØV IGEN</text><path class="cls-8" d="M-2.555,20.75578C5.41609-48.08885,64.24976-110.47895,116.2259-109.02476c89.35892,2.50009,119.60253,192.62118,189.56948,181.33721C364.091,62.91078,364.85968-72.58176,432.975-105.46912,513.39954-144.29968,562.37341,67.17694,672.93634,66.979c77.58087-.1389,82.043-99.41748,202.76746-172.44812,127.79406-77.30729,289.36517-66.82582,325.14776,30.22287,14.09278,38.22229,6.53076,84.06,5.9989,87.113-12.323,70.73616-62.19189,74.4519-98.38415,145.78093-35.32495,69.61977-45.40149,179.56889-20.39661,209.78224,40.38794,48.8009,154.1947-132.29649,193.16883-87.113,35.90991,41.63117-2.56006,262.78022-82.78663,305.78431-40.22863,21.56384-77.292-8.98932-83.98645,10.66693-17.8883,52.52374,94.40894,236.23242,131.97876,247.11639a78.8037,78.8037,0,0,1,21.25928,9.90216c6.23682,4.11292,12.74451,8.51563,16.62976,16.52692,2.0138,4.15234,1.39209,5.29248,3.30371,21.47412,2.07679,17.57947,3.37744,21.03284.708,23.5979-3.73657,3.59045-12.70581,2.9939-17.99023-1.43353-8.9-7.45673-2.71-21.894-11.363-27.66651-2.6405-1.76147-4.97852-1.59228-11.95166-1.4306-11.49048.26636-22.996-.54156-34.48071-.08936-.00013,0-6.45411.25416-33.94471,0-38.74536-.35815-95.2854-64.16516-152.93493-101.32684-4.56629-2.94348-103.4751-65.69818-136.778-37.3341-29.16095,24.83636,16.8653,100.54394-18.17895,130.9707-8.23462,7.1496-30.03955,8.05121-73.3133,9.56262-39.76965,1.389-80.50988.51178-96.55865.10638-39.99-1.01025-55.045-2.3341-78.7558,4.14362-37.525,10.25177-44.76239,22.44867-46.62414,26.89179-7.24695,17.2951-5.16687,30.06665-5.16687,30.06677a39.9926,39.9926,0,0,1,.02215,15.55517c-.48987,2.35-2.07385,9.98493-5.17956,10.35907-3.7306.44941-8.73731-9.27191-10.87708-17.61047-5.47864-21.35,4.84027-41.10059,7.76935-46.61591a86.64673,86.64673,0,0,1,15.33844-20.46276c13.33215-13.78022,27.77923-20.86622,36.65155-25.12537,6.66064-3.19745,11.54535-4.92328,14.82617-6.2074,10.67639-4.17865,43.63123-17.077,58.05322-29.53906,29.39087-25.39685,33.74768-93.85986,4.02533-130.09619-38.14276-46.5022-146.95453-53.59906-182.95538-.19531-64.92627,96.31176,15.99481,314.96533-39.77084,363.74377-20.28553,17.74377-52.612,7.7207-71.31333-16.25671-56.358-72.25776,27.30829-250.36377-28.70862-347.29175-29.30661-50.71027-93.0068-72.55786-129.57914-39.112-75.64083,69.17456,4.67759,338.37335-78.9661,418.91717-26.7234,25.73316-69.21709,31.27893-93.25585,4.06421C8.307,1016.22235,101.08046,808.07623,29.83981,664.32513-4.66627,594.698-56.25444,580.82977-52.94688,546.98932c4.27981-43.78769,127.79258-45.71509,128.37934-72.89044.5653-26.18116-114.0531-25.42258-129.57915-99.55774-7.45965-35.619,8.59866-85.455,28.79537-94.22425,27.43218-11.9107,47.81554,58.3158,98.38418,58.66794,8.16854.05689,36.49435.25409,44.39285-21.3338C138.2487,260.73849-16.748,143.33849-2.555,20.75578Z"/><text class="cls-9" transform="translate(513.21997 158.23651) scale(1.29119 1)"><tspan class="cls-10">U</tspan><tspan x="41.09959" y="0">ps!</tspan><tspan class="cls-11" x="-206.01226" y="72">F</tspan><tspan x="-167.61276" y="72">urby har ædt helt </tspan><tspan x="-249.15621" y="144">uhæmmet og bræk</tspan><tspan class="cls-12" x="289.63863" y="144">k</tspan><tspan x="325.81832" y="144">et </tspan><tspan class="cls-13" x="-212.23079" y="216">f</tspan><tspan x="-192.85065" y="216">osser ud i lå</tspan><tspan class="cls-14" x="149.20602" y="216">r</tspan><tspan x="179.80551" y="216">tyk</tspan><tspan class="cls-12" x="277.00494" y="216">k</tspan><tspan x="313.18462" y="216">e </tspan><tspan x="-37.21812" y="288">stråle</tspan><tspan class="cls-15" x="129.81983" y="288">r</tspan><tspan x="153.75986" y="288">. </tspan><tspan x="-283.82058" y="360">Det bli</tspan><tspan class="cls-16" x="-98.48216" y="360">v</tspan><tspan x="-63.2615" y="360">er en lang nat på </tspan><tspan x="-104.12512" y="432">lokummet...</tspan></text><path class="cls-3" d="M1571.05005,787.48c-18.5.95-36.68005-1.84-51.82007-9.44,15.59009,5.95,33.65,7.52,51.67993,5.66C1570.96,784.97,1571.01,786.23,1571.05005,787.48Z"/><path class="cls-3" d="M1644.11,763.76c-19.76,13.45-46.73,22.37-73.05994,23.72-.04-1.25-.09009-2.51-.14014-3.78,27.24011-2.78,54.39014-13.35,72.84009-28.35C1643.88,758.17,1644,760.98,1644.11,763.76Z"/><path class="cls-3" d="M1672.14,730.48c-4.20007,12.58-14.4,24.01-28.03,33.28-.11-2.78-.23-5.59-.36-8.41,10.12-8.22,17.61-17.77,21.06006-28.1,5.30994-15.9,3.66992-41.6-8.56006-60.63-.28-.44-.57007-.88-.87-1.31-.25-.37-.5-.74-.76-1.1-.21009-.3-.42-.6-.64-.88995-.26-.37-.54-.74-.81006-1.1-1.59985-2.11-3.30993-4.16-5.06994-6.1-.34-.38-.68006-.76-1.02991-1.13a134.55658,134.55658,0,0,0-9.69007-9.43c-.06994-1-.15-2-.21008-3.01.47009.36,1.13013.88,1.95008,1.53.34.27.70007.56,1.09.88,1.63013,1.33,3.67,3.06,5.92,5.1.22.2.45008.41.68006.62.90991.84,1.85986,1.73,2.83,2.67.31995.31.64.63.97.95.31994.32.65.64.97009.97,1.77991,1.79,3.56994,3.71,5.30993,5.73.18006.21.36.41.52991.62,1.68006,1.97,3.28,4.02,4.75,6.13q.735,1.035,1.41016,2.1C1675.81006,688.88,1677.45,714.57,1672.14,730.48Z"/><path class="cls-3" d="M1664.81006,727.25c-3.45007,10.33-10.94006,19.88-21.06006,28.1-18.44995,15-45.6,25.57-72.84009,28.35-18.02991,1.86-36.08984.29-51.67993-5.66a67.39649,67.39649,0,0,1-20.41992-15.47c-24.1001-27.11-26.53-76.51-7.13013-105.56,10.24-15.33,28.54-27.95,33.53-31.38,16-11.03,23.63013-11.85,34.99-18.17.22-.13.44006-.25.67-.38,24.36-13.86,37.75-37.53,45.48-53.78,5.11-10.74,7.74011-18.24,9.44006-17.55,2.3999.98-2.03,16.29-7.13013,52.07-2.81982,19.78-3.09985,26.52.71009,33.53,5.14,9.43,12.49,9.78,27.11,20.68.13.1.36011.27.67993.52h.01c.06006,1.01.14014,2.01.21008,3.01,5.85,5.17,13.54993,12.78,18.87,21.06C1668.48,685.65,1670.12,711.35,1664.81006,727.25Z"/><path class="cls-17" d="M1496.38252,282.69944s-38.83756,1.00021-11.82943,350.81978-7.7166,479.71581,24.43593,487.43242"/><path class="cls-17" d="M1571.05,787.48c8.84,236.67-11.32,329.31,15.68,335.79"/><path class="cls-17" d="M1570.91,783.7c-1.7-44.2-4.4-93.36-8.61-147.87q-1.125-14.58-2.1-28.37c-.18-2.51-.35-4.99-.53-7.46-21.68-314.06,14.46-314.99,14.46-314.99"/><path class="cls-18" d="M1644.19889,509.22693c-6.32959-.006-9.32374-5.35449-17.75879-13.66058-19.62964-19.32962-28.9596-15.51914-36.88367-30.05335-1.60669-2.947-7.93054-14.5462-3.64282-26.86584,1.02649-2.94922,4.28943-10.61862,12.29455-14.57132,11.79871-5.8259,24.33081,1.14694,25.49976,1.82141,13.36853,7.71326,13.515,22.455,20.03564,22.31232,6.226-.13626,6.03858-13.57437,18.66944-21.40161a31.03979,31.03979,0,0,1,20.94629-4.09818c3.17639.55914,15.20837,3.23941,20.03552,14.116,4.12744,9.29995.21472,18.34475-.91065,20.94626-1.69177,3.9107-3.71228,6.27566-13.48608,15.27618-14.469,13.32425-15.36145,13.041-27.04041,23.42886C1650.71146,506.4801,1648.74124,509.23126,1644.19889,509.22693Z"/><path class="cls-17" d="M1644.11,761.6794c10.13,248.04921-11.3,344.63127,16.2,351.2706"/><path class="cls-17" d="M1647.71,274.7s-38.84,1-11.83,350.81q.66,8.61,1.28,17.04l.61972,7.99761"/><path class="cls-17" d="M1637.38,645.56q4.275,59.19,6.37,109.79"/><path class="cls-17" d="M1719.70754,289.69514s-38.83755,1.00021-11.82942,350.81978-7.71661,479.71581,24.43592,487.43242"/><path class="cls-17" d="M1792.73049,1123.77819s-12.20494-126.11777-17.62936-372.92889-4.06832-349.87511-20.34158-394.62657"/><path class="cls-17" d="M1807.64765,373.85209s44.75147,193.923,23.05378,459.71962,123.40556,473.95872,62.38084,296.309"/><path class="cls-19" d="M1025.732,82.02215h856.94243a51.3486,51.3486,0,0,1,51.3486,51.3486v65.132a51.3486,51.3486,0,0,1-51.3486,51.3486H1025.732a51.34857,51.34857,0,0,1-51.34857-51.34857V133.37075a51.3486,51.3486,0,0,1,51.3486-51.3486Z" transform="translate(98.47988 -385.6575) rotate(15.62984)"/><path class="cls-20" d="M1825.33826,379.56592,987.76538,145.2411A51.34856,51.34856,0,0,1,952.15,81.95683L970.92,14.86471a51.34865,51.34865,0,0,1,63.28431-35.61544l837.57287,234.32484a51.34859,51.34859,0,0,1,35.61548,63.28423l-18.77014,67.09216A51.34861,51.34861,0,0,1,1825.33826,379.56592Z"/><text class="cls-21" transform="translate(976.21735 89.49882) rotate(15.63035) scale(1.29119 1)"><tspan class="cls-22">G</tspan><tspan x="81.30104" y="0">AME </tspan><tspan class="cls-23" x="388.64228" y="0">O</tspan><tspan x="462.65951" y="0">VER</tspan></text><path class="cls-24" d="M1638.30042,509.85089c-6.32959-.006-9.32374-5.35449-17.75879-13.66058-19.62964-19.32962-28.9596-15.51914-36.88367-30.05335-1.60669-2.947-7.93054-14.5462-3.64282-26.86584,1.02649-2.94922,4.28943-10.61862,12.29455-14.57132,11.79871-5.8259,24.33081,1.14694,25.49976,1.82141,13.36853,7.71326,13.515,22.455,20.03564,22.31232,6.226-.13626,6.03858-13.57437,18.66944-21.40161a31.03979,31.03979,0,0,1,20.94629-4.09818c3.17639.55914,15.20837,3.23941,20.03552,14.116,4.12744,9.3.21472,18.34475-.91065,20.94626-1.69177,3.9107-3.71228,6.27566-13.48608,15.27618-14.469,13.32425-15.36145,13.041-27.04041,23.42886C1644.813,507.10406,1642.84277,509.85522,1638.30042,509.85089Z"/><path class="cls-5" d="M1664.81006,727.25c-3.45007,10.33-10.94006,19.88-21.06006,28.1-17.8596,14.52-43.87141,24.889-70.22579,28.05935q-1.30672.1572-2.6143.29068c-18.02991,1.86-36.08984.29-51.67993-5.66a69.9277,69.9277,0,0,1-27.75-18.69c-24.1-27.12-26.53-76.52-7.13-105.57,10.24011-15.32,28.54-27.94,33.53-31.38,16.30994-11.25,23.93006-11.87,35.66-18.55,2.12988-1.21,4.16992-2.5,6.12988-3.85,35.37012-24.29,44.74-69.12,48.79-67.47,1.52.62.29,7.01-2.11,20.77-1.39,7.9-3.16,18.24-5.0199,31.3-2.82007,19.77-3.1001,26.52.71,33.52,5.13989,9.44,12.49,9.79,27.11,20.69.68006.51,3.96,2.98,8.23,6.75,5.85,5.17,13.54993,12.78,18.87,21.06C1668.48,685.65,1670.12,711.35,1664.81006,727.25Z"/><polygon class="cls-3" points="1643.75 755.35 1646.199 753.278 1646.299 755.328 1643.75 755.35"/><polygon class="cls-3" points="1641.681 765.363 1644.186 763.704 1641.529 763.791 1641.681 765.363"/><path class="cls-3" d="M1640.08411,648.01782v.01l-2.852-2.58258-1.11072-.96094-1.53113-1.36132-.21021-2.63263a33.26183,33.26183,0,0,1,2.772,2.042l.04626.035.04383.0351.18.15008c.80969.80042,1.61914,1.60962,2.42883,2.411l.1532.15155Z"/><path class="cls-3" d="M1639.8312,644.65245l-2.7189-2.14933,2.75833,2.73051c.02087,0,.07652-.09044.07652-.09044Z"/><line class="cls-4" x1="1646.55306" y1="762.06894" x2="1644.00759" y2="763.80405"/><polygon class="cls-3" points="1644.11 763.76 1646.786 761.891 1646.608 761.233 1641.341 761.661 1641.717 764.514 1644.11 763.76"/><polygon class="cls-3" points="1573.553 783.797 1570.534 783.735 1573.524 783.409 1573.553 783.797"/><text class="cls-25" transform="translate(1489.57767 718.08965) scale(1.29119 1)">#%$@!</text></svg>
