<svg id="Layer_1" data-name="Layer 1" xmlns="http://www.w3.org/2000/svg" width="450" height="320" viewBox="0 0 450 320"><defs><style>.cls-1{fill:#cc6c14;}.cls-2{fill:#e98301;}.cls-3{fill:#7f4312;}.cls-4{fill:#fff;stroke:#e98301;}.cls-4,.cls-5{stroke-miterlimit:10;}.cls-5{fill:none;stroke:#7f4312;}.cls-6{fill:#bf3918;}</style></defs><path class="cls-1" d="M447,98.83a4.23,4.23,0,0,1-.25-.58l-.07-.11c-.15-.27-.28-.55-.41-.82h0l0,.06a4.34,4.34,0,0,0-.28-.46v0a14.92,14.92,0,0,1-1-1.57c-.51-.69-1.12-1.5-1.82-2.54-.33-.5-.66-1-1-1.51-1.88-2.89-4.43-6.93-7.91-12.75C428.54,69,427,65.74,422.62,60.4c-5.9-7.24-8.51-8-12.19-12.27C395.93,31.5,404.09,6.59,397.94,5.4c-5-1-11.39,11.66-13.15,15.12-7.91,15.58-4,24.26-11.83,34.84-4.75,6.4-10.39,8.87-14.46,11.17C333.35,80.74,329,110.45,315.12,127c-28.79,34.27-115.82,32.7-153.92-6.13-22.89-23.34-11.93-43.39-41.31-71.44C113.17,43,81.72,13,47.77,22.68,26.11,28.86,4.49,50.87,6.83,73.76c1.74,17,16.81,35.87,30.9,34.18C45.52,107,53,99.78,55.47,91.51,61.32,72.2,37.56,56.13,43,46.81,48.14,38,77,39.63,98,53.63c16.79,11.18,29.48,31,37.54,73,18.75,97.75-20.29,164.39,6.61,181.82,11.31,7.32,33.46,5.44,35.54,0,1-2.71-2.72-6.75-4.48-8.66-6.93-7.48-13.59-5.85-17.83-10.35-6.24-6.61-3.44-22.87,4-33.5,10.6-15.23,24.5-10.1,39.36-27.83,8.2-9.77,5-12.51,12-18,16.42-12.76,43-5.18,49.58-3.3a67,67,0,0,1,16.21,6.51c36.49,21.72,22,84.84,50.61,95.88,8.61,3.33,22,2.27,25.85-4.11,2.89-4.75-.13-11.38-.58-12.34-4.94-10.47-17.06-10.4-25.14-15.7-19.27-12.62-20.22-58.73-2.48-90.08,15.8-27.93,44.26-40,49.58-42.15,15.86-6.39,23.35-4.34,41.27-13.89,10.08-5.38,31.41-16.48,31.55-30.24a6.83,6.83,0,0,0-.12-1.29A5.08,5.08,0,0,0,447,98.83Z"/><path class="cls-2" d="M444,102.38a3.87,3.87,0,0,1-.25-.59.86.86,0,0,1-.07-.1c-.15-.27-.28-.55-.41-.82h0l0,.06a4.34,4.34,0,0,0-.28-.46v0a16,16,0,0,1-1-1.57c-.52-.69-1.12-1.5-1.82-2.54-.34-.5-.66-1-1-1.51-1.88-2.89-4.44-6.94-7.92-12.75-5.71-9.55-7.27-12.78-11.63-18.12-5.9-7.24-8.51-8-12.2-12.27C393,35.05,401.15,10.14,395,9c-5-1-11.39,11.66-13.15,15.12-7.91,15.57-4,24.26-11.83,34.84-4.76,6.4-10.39,8.87-14.46,11.17-25.15,14.21-29.48,43.91-43.39,60.48-28.79,34.27-115.81,32.7-153.91-6.14C135.38,101.09,146.34,81,117,53c-6.73-6.42-38.17-36.43-72.12-26.76C23.18,32.4,1.56,54.42,3.9,77.31c1.74,17,16.81,35.87,30.89,34.18,7.8-.93,15.24-8.16,17.75-16.43,5.85-19.31-17.92-35.38-12.49-44.7,5.15-8.84,34-7.18,55.06,6.82,16.79,11.18,29.48,31,37.54,73C151.4,228,112.35,294.6,139.26,312c11.3,7.32,33.46,5.44,35.54,0,1-2.71-2.72-6.75-4.48-8.66-6.94-7.48-13.59-5.85-17.84-10.35-6.24-6.61-3.43-22.87,4-33.51,10.61-15.22,24.51-10.09,39.37-27.82,8.19-9.77,5-12.51,12-18,16.43-12.76,43-5.18,49.59-3.31a67.5,67.5,0,0,1,16.21,6.52c36.49,21.72,22,84.84,50.61,95.88,8.61,3.33,22,2.27,25.85-4.11,2.89-4.75-.14-11.38-.59-12.34-4.93-10.47-17-10.4-25.14-15.7-19.27-12.62-20.21-58.73-2.48-90.08,15.81-27.94,44.26-40,49.59-42.15,15.86-6.39,23.35-4.34,41.26-13.89,10.09-5.38,31.42-16.48,31.55-30.24a6.41,6.41,0,0,0-.11-1.29C444.15,102.76,444.09,102.57,444,102.38Z"/><path class="cls-3" d="M445.84,105.44a12.48,12.48,0,0,1-5.07-5.06c-1.8-3.47,2.78-6.94,2.78-6.94l.1-.07.51.7.33.5.21.32.88,1.33.41.64.26.43.27.47.2.4.08.17.16.38L447,99l.07.22.07.36,0,.29,0,.24v.85l0,.3,0,.39-.06.67-.09.55-.09.54-.08.39-.13.49-.08.31-.17.54-.18.53v0Z"/><ellipse class="cls-4" cx="412.69" cy="84.32" rx="8.34" ry="7.85"/><circle cx="416.67" cy="82.26" r="3.98"/><path class="cls-5" d="M398,103.64c10.46,3.88,23.41,6.3,36.71,2.54.87-.25,1.71-.51,2.54-.8"/><path class="cls-5" d="M412.33,115.72c.72.19,1.43.35,2.12.46,10.08,1.6,19-5.24,23.23-9"/><path class="cls-5" d="M402.25,122.14c1.88.65,14.74,4.91,25.21-.32,2.34-1.17,7.08-3.53,9.79-8.8a17.07,17.07,0,0,0,1.43-3.87"/><path class="cls-5" d="M396.38,11a2.6,2.6,0,0,0-1.77-.61c-6.45.49-7,31.76-5.29,37.43.51,1.73,1.2,3.36,1.2,3.36a33.06,33.06,0,0,0,2.19,4.34"/><path class="cls-6" d="M368.61,61.16c.71.45-4.16,5.82-3.58,12.24.49,5.44,4.58,8.06,3.8,9-1.44,1.66-15.91-6.74-14.73-10.93.25-.88,2.69-2.37,7.56-5.34.95-.58,1.45-.86,2.31-1.46C367.14,62.46,368.24,60.93,368.61,61.16Z"/><path class="cls-6" d="M347.46,75.73c1.42.38-.14,6.85.3,13.91.74,12.1,7,19.53,5.66,20.34-.78.49-2.68-2.42-10-9.68-5.75-5.71-7.91-7.22-7.73-9.9.13-1.92,1.66-3.8,4.72-7.56.56-.68,1.58-1.78,3.63-4C346.9,75.83,347.19,75.65,347.46,75.73Z"/><path class="cls-6" d="M324.4,110.89c1.3,0,2.29,5.09,3.35,9.1,3.34,12.59,8.82,19.15,7.61,20-.92.64-3.41-4.29-10.36-7.92-5.61-2.92-9.33-2.5-9.89-4.85-.27-1.15.54-1.54,4.81-9.07.6-1.06,1.24-2.1,1.84-3.16C323.68,111.61,323.92,110.9,324.4,110.89Z"/><path class="cls-6" d="M311.21,131.73c1.68.09,2.47,5.31,3.33,9.11,2.94,12.84,9.11,19.77,7.87,20.64-1,.7-3.94-4.58-10.63-8.57-11.09-6.61-22.92-3.95-23.12-6.18-.17-2,8.5-4.49,15-8.8a27.4,27.4,0,0,0,4.5-3.37C310,132.74,310.46,131.69,311.21,131.73Z"/><path class="cls-6" d="M281.07,147.35c2.57.87,2.34,5.11,4.52,14.49,1.56,6.76,2.28,7.11,3,12.13.78,5.2,1.05,11.7.13,11.87-1.1.2-1.19-9.19-7.08-17.32-8.8-12.13-25.05-13.87-24.43-16.3.17-.65,1.29-.4,9.71-1.88,4.9-.86,7.34-1.29,9.33-1.85C279.8,147.49,280.13,147,281.07,147.35Z"/><path class="cls-6" d="M251.81,151.9c2.17,2-1.25,8.88-4.16,14.76-2.71,5.47-4.09,8.19-5.81,8.09s-2.16-3.3-5.7-11.09-6.06-11-4.81-12.37c.5-.53,1.12-.27,4.8.1a75.22,75.22,0,0,0,10.58.56C250.55,151.8,251.11,151.26,251.81,151.9Z"/><path class="cls-6" d="M227.58,150.08c1.19,1.93-4.9,6-8.94,13.11-5.45,9.61-3.91,19-4.89,19s.64-10-3.33-22.66c-1.95-6.23-4.73-11.53-3-12.93.56-.46,1.14-.11,4.73.78a75.24,75.24,0,0,0,10.4,2C226.3,149.81,227.16,149.39,227.58,150.08Z"/><path class="cls-6" d="M204.54,146c.79,2.12-3.47,4.58-7.53,9.85-2.84,3.67-2.91,5.26-5.73,10.68-5,9.54-11.74,18.1-12.82,17.51-1.4-.76,10.58-14.8,7.58-31.6-1.19-6.66-4.63-13.21-2.73-14.45.85-.56,1.77.61,6.5,2.47,1.17.46,1.3.46,10.23,3.46C202.88,144.82,204.31,145.31,204.54,146Z"/><path class="cls-6" d="M182.4,137.48c.14,1.89-5.27,2.54-12,6.85-5.47,3.48-8.37,7.15-8.91,6.68-.77-.67,6.84-6.87,6.56-15.35-.17-5.23-3.28-9.42-2.34-10,.44-.27,1.26.55,3.93,2.74a78.31,78.31,0,0,0,8.52,6.32C181.29,136.64,182.34,136.66,182.4,137.48Z"/><path class="cls-6" d="M163.12,124c-.35,1.55-3.9,1.41-13.5,3.11-4.6.82-6.56,1.34-7,.61-.69-1.32,5.17-3.65,7.19-9.58,1.73-5.12-.4-10,.62-10.26.5-.14,1.05.88,3,3.75a75,75,0,0,0,6.35,8.49C162.29,122.89,163.29,123.21,163.12,124Z"/><path class="cls-6" d="M148.64,104c-.38.17-1.55-4.78-4.88-5.88-3.86-1.28-8.17,3.45-9,2.52-.55-.59,1.26-2.51,3-6.22,2.66-5.58,2.54-9.57,3.68-9.6.45,0,.76.61,2.4,4.84s2.32,6.12,3.5,9.6C148.23,101.81,148.9,103.84,148.64,104Z"/><path class="cls-6" d="M140,81.41c-.51.3-2-3.8-5.49-5.31-4.55-2-9.92,1.54-10.29.75-.23-.5,2.18-1.36,3.93-3.78,3.05-4.26,1.39-9.69,2.61-9.94.49-.1,1.2,1,2.59,3.28.92,1.49,1.81,3.08,3.35,6.14A52.23,52.23,0,0,1,139.17,78C139.71,79.5,140.35,81.22,140,81.41Z"/><path class="cls-6" d="M123.75,54.94c-.35.43-3.34-3.27-7-3-3,.24-4.57,2.93-6,2.17-.74-.39-.88-1.41-1-2.69-1.25-10-1.17-10.74-.72-10.9s.84.62,3.15,2.81c2,1.94,2.19,1.65,5.35,4.51a51.84,51.84,0,0,1,4.27,4.21C122.77,53.27,124,54.64,123.75,54.94Z"/><path class="cls-6" d="M102.6,36.22c-.39.72-3.68-1.51-7.56-1.14-5.38.51-8.33,5.69-9.49,4.86-.82-.58,1-2.81.79-6.73s-2.45-6.62-1.62-7.29c.39-.31,1.31.1,3.14.92,1,.42,1.17.61,3.14,1.61,1.06.55,1.1.55,2,1s1.54.81,3.13,1.69c3.5,1.93,3.95,2.16,4.71,2.82S102.85,35.73,102.6,36.22Z"/><path class="cls-6" d="M72.83,21.69c.22.75-2.93,1.37-5,3.86-3.06,3.7-1.37,8.61-2.76,9S63,30.59,58.65,27c-3.65-3.08-7.72-4-7.48-4.88.07-.3.88-.46,2.48-.78a31,31,0,0,1,4-.5c.44,0,1.29-.1,2.39-.13.64,0,2-.05,3.65,0,1.92.06,1.94.16,5.72.48C72.16,21.38,72.74,21.38,72.83,21.69Z"/><path class="cls-6" d="M35.05,28.63c.62.37-1.34,3-1.29,6.18.07,4.8,4.55,7.44,3.72,8.61s-4.14-1.62-9.79-1.59c-4.78,0-8.45,2-8.86,1.15-.14-.27.37-.91,1.38-2.19a29.65,29.65,0,0,1,2.73-3c.31-.31.92-.91,1.73-1.65.47-.43,1.46-1.31,2.78-2.37l1-.74c.74-.54,1.18-.83,1.94-1.35s.85-.61,1.76-1.25C33.94,29.14,34.85,28.51,35.05,28.63Z"/><path class="cls-6" d="M10.74,52c1,.09.15,4.11,2.08,7,4.1,6,17.87,2.47,18.17,4.13.17.89-3.82,1.75-11,4.87,0,0-15,6.55-16.37,5.34l-.06-.06c-.13-.19,0-.63.21-2.53a21,21,0,0,1,.72-4.78c.29-1.27.61-2.23.86-3,.16-.48.52-1.56,1.08-2.91.42-1,.78-1.77,1-2.29C9.33,53.89,10.25,52,10.74,52Z"/><path class="cls-6" d="M10.13,95.08c.53-1.36,8.55,3.22,15.4,1,7.87-2.57,10.56-13,11.87-12.38.31.14.52.88-1.74,9.56-2.92,11.22-4.78,15.73-8.57,17.1l-.08,0a29.24,29.24,0,0,1-6.35-3.4c-1.06-.78-2.19-1.77-2.25-1.82-.3-.27-1.2-1.07-2.3-2.21s-1.73-1.93-2.5-2.86c-1-1.28-1.66-2.13-1.83-2.36C10.62,96.12,10,95.32,10.13,95.08Z"/></svg>
