<svg id="Layer_1" data-name="Layer 1" xmlns="http://www.w3.org/2000/svg" xmlns:xlink="http://www.w3.org/1999/xlink" width="520" height="200" viewBox="0 0 520 200"><defs><style>.cls-1{fill:#213260;}.cls-2{fill:#223b7d;}.cls-3{clip-path:url(#clip-path);}.cls-4{clip-path:url(#clip-path-2);}.cls-5{fill:#8e1d13;}.cls-6{fill:#8c1c13;}.cls-7{fill:#a12816;}.cls-8{fill:#b76916;}.cls-9{fill:#d8810d;}.cls-10{fill:#cc890c;}.cls-11{fill:#e59e02;}</style><clipPath id="clip-path"><path class="cls-1" d="M17.31,56.89c-4,7-3.44,16.82-2.42,36.5.65,12.48,1.36,26,6.73,42.09,2.17,6.49,9.52,30.42,25.62,43.8,24.75,20.57,53.6,10.13,138.84,6.61,27.73-1.15,47.8-1,70.25-.83,121,.91,151.24,1.66,151.24,1.66s34,.84,73.56-14.05a43.49,43.49,0,0,0,12.51-6.87c7.26-5.82,15.94-16.92,19.16-49.35,3.61-36.36,5.49-55.22-6.52-69.75-21.57-26.11-71.32-18.08-71.44-17s37.79,2,38.85,10.74c.89,7.37-26.36,16.34-35.93,19.43C382.57,77.69,338.86,75.34,272.86,76c-70.74.68-103.23,4.19-165.29-3.3-17.22-2.08-61.9-6.44-62.81-17.36-.35-4.27,6-8.68,9.6-11.14C67.71,35,82.74,35.93,82.78,36.3,82.85,37,31.53,31.79,17.31,56.89Z"/></clipPath><clipPath id="clip-path-2"><path class="cls-2" d="M8.4,56.58C4.44,63.56,5,73.4,6,93.08c.65,12.48,1.36,26,6.73,42.09,2.17,6.49,9.52,30.42,25.62,43.8,24.75,20.57,53.6,10.13,138.84,6.61,27.73-1.15,47.8-1,70.25-.83,121,.91,151.24,1.66,151.24,1.66s34,.84,73.56-14a43.49,43.49,0,0,0,12.51-6.87c7.26-5.82,15.94-16.92,19.16-49.35,3.61-36.36,5.49-55.22-6.52-69.74-21.57-26.12-71.32-18.09-71.44-17s37.79,2,38.85,10.74c.89,7.37-26.36,16.34-35.93,19.43C373.66,77.38,330,75,264,75.66c-70.74.68-103.23,4.19-165.29-3.3C81.44,70.28,36.76,65.92,35.85,55c-.35-4.27,6-8.68,9.6-11.14C58.8,34.64,73.83,35.62,73.87,36,73.94,36.68,22.62,31.48,8.4,56.58Z"/></clipPath></defs><path class="cls-1" d="M17.31,56.89c-4,7-3.44,16.82-2.42,36.5.65,12.48,1.36,26,6.73,42.09,2.17,6.49,9.52,30.42,25.62,43.8,24.75,20.57,53.6,10.13,138.84,6.61,27.73-1.15,47.8-1,70.25-.83,121,.91,151.24,1.66,151.24,1.66s34,.84,73.56-14.05a43.49,43.49,0,0,0,12.51-6.87c7.26-5.82,15.94-16.92,19.16-49.35,3.61-36.36,5.49-55.22-6.52-69.75-21.57-26.11-71.32-18.08-71.44-17s37.79,2,38.85,10.74c.89,7.37-26.36,16.34-35.93,19.43C382.57,77.69,338.86,75.34,272.86,76c-70.74.68-103.23,4.19-165.29-3.3-17.22-2.08-61.9-6.44-62.81-17.36-.35-4.27,6-8.68,9.6-11.14C67.71,35,82.74,35.93,82.78,36.3,82.85,37,31.53,31.79,17.31,56.89Z"/><g class="cls-3"><rect class="cls-1" x="-9.59" y="11.68" width="544.93" height="188.17"/><path class="cls-1" d="M486.49,107.33a220.65,220.65,0,0,1-17.4,86.19q-2.1,5-4.43,9.81v-2.48H65.46v2.48q-2.32-4.85-4.43-9.81A222.19,222.19,0,0,1,61,21.13q2.1-5,4.43-9.8,1.17-2.43,2.39-4.81v4.16H462.27V6.52q1.22,2.38,2.39,4.81,2.32,4.83,4.43,9.8A220.69,220.69,0,0,1,486.49,107.33Z"/><path class="cls-1" d="M485.63,107.33a219.9,219.9,0,0,1-17.34,85.85c-1.39,3.3-2.87,6.56-4.41,9.77v-2.1H66.25V203q-2.32-4.81-4.42-9.77a221.33,221.33,0,0,1,0-171.71q2.1-4.95,4.42-9.77c.77-1.61,1.56-3.2,2.38-4.79v3.77H461.5V6.91c.81,1.59,1.6,3.18,2.38,4.79,1.54,3.22,3,6.47,4.41,9.77A219.91,219.91,0,0,1,485.63,107.33Z"/><path class="cls-1" d="M484.76,107.33a218.93,218.93,0,0,1-17.27,85.51q-2.08,4.93-4.4,9.73v-1.72H67v1.72q-2.31-4.8-4.4-9.73a220.47,220.47,0,0,1,0-171q2.08-4.93,4.4-9.73,1.16-2.4,2.37-4.77v3.37H460.72V7.31q1.21,2.37,2.37,4.77,2.32,4.8,4.4,9.73A218.94,218.94,0,0,1,484.76,107.33Z"/><path class="cls-1" d="M483.89,107.33a218,218,0,0,1-17.2,85.17q-2.07,4.92-4.38,9.7v-1.35H67.81v1.35c-1.53-3.19-3-6.42-4.38-9.7a219.49,219.49,0,0,1,0-170.35c1.38-3.27,2.85-6.51,4.38-9.7Q69,10.07,70.17,7.7v3H460v-3c.81,1.58,1.59,3.16,2.36,4.75q2.31,4.79,4.38,9.7A218,218,0,0,1,483.89,107.33Z"/><path class="cls-1" d="M483,107.33a217.29,217.29,0,0,1-17.13,84.84q-2.07,4.88-4.36,9.65v-1H68.6v1q-2.31-4.77-4.37-9.65a218.66,218.66,0,0,1,0-169.68q2.07-4.89,4.37-9.66c.76-1.59,1.54-3.16,2.35-4.73v2.58H459.18V8.1c.8,1.57,1.58,3.14,2.35,4.73q2.3,4.77,4.36,9.66A217.22,217.22,0,0,1,483,107.33Z"/><path class="cls-1" d="M482.15,107.33a216.36,216.36,0,0,1-17.06,84.5q-2.05,4.86-4.34,9.61v-.59H69.38v.59q-2.3-4.74-4.35-9.61a217.82,217.82,0,0,1,0-169q4.13-9.74,9.14-19v6.83H456V3.85q5,9.23,9.14,19A216.37,216.37,0,0,1,482.15,107.33Z"/><path class="cls-1" d="M481.28,107.33a215.57,215.57,0,0,1-17,84.16q-2.06,4.84-4.33,9.58v-.22H70.16v.22q-2.28-4.73-4.33-9.58a217,217,0,0,1,0-168.33q4.11-9.7,9.11-18.9v6.42H455.19V4.26q5,9.2,9.1,18.9A215.58,215.58,0,0,1,481.28,107.33Z"/><path class="cls-1" d="M480.42,107.33a214.61,214.61,0,0,1-16.93,83.82q-2,4.83-4.31,9.54-1.14,2.35-2.32,4.68v-4.52H73.27v4.52c-.8-1.55-1.57-3.11-2.33-4.68q-2.26-4.71-4.31-9.54a216.1,216.1,0,0,1,0-167.65q4.09-9.66,9.07-18.83v6H454.42v-6q5,9.16,9.07,18.83A214.62,214.62,0,0,1,480.42,107.33Z"/><path class="cls-1" d="M479.55,107.33a213.67,213.67,0,0,1-16.86,83.48c-1.35,3.21-2.79,6.38-4.29,9.5q-1.14,2.35-2.32,4.66v-4.12H74V205q-1.19-2.31-2.31-4.66-2.27-4.68-4.3-9.5a215.24,215.24,0,0,1,0-167q4.06-9.63,9-18.75v5.59h377.2V5.09q4.95,9.12,9,18.75A213.69,213.69,0,0,1,479.55,107.33Z"/><path class="cls-1" d="M478.68,107.33a213,213,0,0,1-16.79,83.15q-2,4.78-4.28,9.46c-.75,1.55-1.51,3.1-2.3,4.64v-3.73H74.81v3.73q-1.17-2.31-2.3-4.64-2.25-4.68-4.28-9.46a214.29,214.29,0,0,1,0-166.3q4-9.59,9-18.68v5.18H452.9V5.5q4.94,9.09,9,18.68A212.9,212.9,0,0,1,478.68,107.33Z"/><path class="cls-1" d="M477.81,107.33a212,212,0,0,1-16.72,82.81q-2,4.77-4.26,9.42-1.12,2.33-2.29,4.62v-3.33h-379v3.33c-.79-1.53-1.55-3.07-2.3-4.62q-2.24-4.65-4.26-9.42A213.45,213.45,0,0,1,69,24.51q4-9.54,9-18.59v4.76H452.13V5.92q4.92,9,9,18.59A212.05,212.05,0,0,1,477.81,107.33Z"/><path class="cls-1" d="M476.94,107.33a211.25,211.25,0,0,1-16.65,82.47q-2,4.75-4.24,9.38-1.12,2.32-2.29,4.6v-2.93H76.36v2.93q-1.17-2.28-2.29-4.6-2.22-4.62-4.24-9.38a212.59,212.59,0,0,1,0-165q4-9.51,8.92-18.52v4.35H451.37V6.33q4.89,9,8.92,18.52A211.26,211.26,0,0,1,476.94,107.33Z"/><path class="cls-1" d="M476.07,107.33a210.28,210.28,0,0,1-16.58,82.13q-2,4.74-4.22,9.35c-.74,1.54-1.5,3.06-2.28,4.58v-2.54H77.13v2.54c-.77-1.52-1.53-3-2.27-4.58q-2.22-4.62-4.23-9.35a211.73,211.73,0,0,1,0-164.27q4-9.47,8.89-18.45v3.94H450.61V6.74q4.86,9,8.88,18.45A210.33,210.33,0,0,1,476.07,107.33Z"/><path class="cls-1" d="M475.21,107.33a209.35,209.35,0,0,1-16.52,81.79q-4,9.44-8.85,18.37v-6.64H80.28v6.64q-4.84-8.93-8.85-18.37a210.87,210.87,0,0,1,0-163.59q4-9.44,8.85-18.37v3.52H449.84V7.16q4.86,8.93,8.85,18.37A209.36,209.36,0,0,1,475.21,107.33Z"/><path class="cls-1" d="M474.34,107.33a208.65,208.65,0,0,1-16.45,81.46q-4,9.38-8.81,18.29v-6.23H81v6.23q-4.83-8.9-8.81-18.29a210,210,0,0,1,0-162.92q4-9.39,8.81-18.3v3.11h368V7.57q4.83,8.9,8.81,18.3A208.57,208.57,0,0,1,474.34,107.33Z"/><path class="cls-1" d="M473.47,107.33a207.72,207.72,0,0,1-16.38,81.12q-4,9.35-8.77,18.21v-5.81H81.81v5.81Q77,197.81,73,188.45A209.08,209.08,0,0,1,73,26.2Q77,16.85,81.81,8v2.69H448.32V8q4.8,8.85,8.77,18.21A207.73,207.73,0,0,1,473.47,107.33Z"/><path class="cls-1" d="M472.6,107.33a206.93,206.93,0,0,1-16.31,80.78q-3.93,9.31-8.74,18.14v-5.4h-365v5.4q-4.78-8.82-8.74-18.14a208.22,208.22,0,0,1,0-161.57q3.94-9.32,8.74-18.14v2.28h365V8.4q4.8,8.82,8.74,18.14A206.94,206.94,0,0,1,472.6,107.33Z"/><path class="cls-1" d="M471.73,107.33a206,206,0,0,1-16.24,80.44q-3.92,9.27-8.7,18.07v-5H83.33v5q-4.77-8.79-8.7-18.07a207.36,207.36,0,0,1,0-160.89q3.93-9.27,8.7-18.07v1.87H446.79V8.81q4.77,8.79,8.7,18.07A206,206,0,0,1,471.73,107.33Z"/><path class="cls-1" d="M470.86,107.33a205,205,0,0,1-16.17,80.1q-3.9,9.24-8.67,18v-4.57H84.1v4.57q-4.75-8.74-8.67-18a206.5,206.5,0,0,1,0-160.21q3.91-9.24,8.67-18v1.45H446V9.23q4.75,8.75,8.67,18A205,205,0,0,1,470.86,107.33Z"/><path class="cls-1" d="M470,107.33a204.33,204.33,0,0,1-16.11,79.77Q450,196.28,445.26,205v-4.16H84.86V205q-4.73-8.72-8.63-17.91a205.67,205.67,0,0,1,0-159.54q3.88-9.19,8.63-17.92v1h360.4v-1q4.74,8.71,8.63,17.92A204.25,204.25,0,0,1,470,107.33Z"/><path class="cls-1" d="M469.13,107.33a203.39,203.39,0,0,1-16,79.43q-3.87,9.15-8.59,17.84v-3.75H85.63v3.75q-4.72-8.68-8.6-17.84A204.83,204.83,0,0,1,77,27.89q3.87-9.15,8.6-17.83v.62H444.5v-.62q4.71,8.67,8.59,17.83A203.41,203.41,0,0,1,469.13,107.33Z"/><path class="cls-1" d="M468.26,107.33a202.6,202.6,0,0,1-16,79.09q-3.85,9.12-8.56,17.76v-3.33H86.39v3.33q-4.69-8.64-8.56-17.76a203.85,203.85,0,0,1,0-158.19q3.86-9.12,8.56-17.76v.21H443.73v-.21q4.69,8.64,8.56,17.76A202.62,202.62,0,0,1,468.26,107.33Z"/><path class="cls-1" d="M467.39,107.33a201.67,201.67,0,0,1-15.9,78.75q-3.84,9.07-8.52,17.69v-2.92H87.15v2.92q-4.66-8.61-8.52-17.69a203,203,0,0,1,0-157.51q3.84-9.08,8.52-17.69,1.17-2.15,2.39-4.27v4.07h351V6.61c.82,1.42,1.61,2.84,2.39,4.27q4.68,8.61,8.52,17.69A201.68,201.68,0,0,1,467.39,107.33Z"/><path class="cls-1" d="M466.52,107.33a200.88,200.88,0,0,1-15.83,78.41q-3.82,9-8.48,17.61v-2.5H87.92v2.5q-4.67-8.57-8.49-17.61a202.13,202.13,0,0,1,0-156.83q3.82-9,8.49-17.61,1.15-2.15,2.37-4.25v3.63H439.83V7.05q1.21,2.1,2.38,4.25,4.65,8.57,8.48,17.61A200.89,200.89,0,0,1,466.52,107.33Z"/><path class="cls-1" d="M465.65,107.33a200,200,0,0,1-15.76,78.08c-2.54,6-5.36,11.85-8.45,17.53v-2.09H88.68v2.09c-3.09-5.68-5.91-11.54-8.45-17.53a201.3,201.3,0,0,1,0-156.16q3.81-9,8.45-17.54,1.16-2.13,2.37-4.23v3.2h348V7.48q1.2,2.1,2.36,4.23,4.63,8.53,8.45,17.54A199.92,199.92,0,0,1,465.65,107.33Z"/><path class="cls-1" d="M464.79,107.33a199.07,199.07,0,0,1-15.7,77.74q-3.79,9-8.41,17.46v-1.68H89.44v1.68Q84.84,194,81,185.07A200.46,200.46,0,0,1,81,29.58q3.8-9,8.41-17.45,2.31-4.24,4.81-8.37v6.92H435.87V3.76q2.5,4.13,4.81,8.37,4.6,8.49,8.41,17.45A199.08,199.08,0,0,1,464.79,107.33Z"/><path class="cls-1" d="M463.92,107.33a198.28,198.28,0,0,1-15.63,77.4q-3.78,8.93-8.37,17.38v-1.26H90.21v1.26q-4.59-8.45-8.38-17.38a199.6,199.6,0,0,1,0-154.81Q85.61,21,90.21,12.54,92.51,8.31,95,4.21v6.47H435.13V4.21q2.49,4.11,4.79,8.33,4.59,8.45,8.37,17.38A198.29,198.29,0,0,1,463.92,107.33Z"/><path class="cls-1" d="M463.05,107.33a197.35,197.35,0,0,1-15.56,77.06q-3.75,8.88-8.34,17.31v-.85H91v.85q-4.57-8.41-8.34-17.31a198.62,198.62,0,0,1,0-154.13Q86.4,21.38,91,13q2.28-4.2,4.77-8.29v6H434.39v-6q2.48,4.08,4.76,8.29,4.58,8.41,8.34,17.31A197.36,197.36,0,0,1,463.05,107.33Z"/><path class="cls-1" d="M462.18,107.33a196.56,196.56,0,0,1-15.49,76.72q-3.74,8.85-8.3,17.23v-.43H91.73v.43q-4.55-8.37-8.3-17.23a197.76,197.76,0,0,1,0-153.45q3.75-8.85,8.3-17.23Q94,9.17,96.48,5.11v5.57H433.64V5.11q2.48,4.07,4.75,8.26,4.55,8.37,8.3,17.23A196.57,196.57,0,0,1,462.18,107.33Z"/><path class="cls-1" d="M461.31,107.33a195.68,195.68,0,0,1-15.42,76.39q-3.72,8.79-8.26,17.15v0H92.5v0q-4.53-8.34-8.27-17.15a196.93,196.93,0,0,1,0-152.78Q88,22.14,92.5,13.78q2.27-4.17,4.72-8.22v5.12H432.9V5.56q2.46,4.05,4.73,8.22,4.53,8.34,8.26,17.16A195.64,195.64,0,0,1,461.31,107.33Z"/><path class="cls-1" d="M460.44,107.33a194.74,194.74,0,0,1-15.35,76.05q-3.7,8.76-8.23,17.08-1.12,2.07-2.3,4.12v-3.73h-339v3.73q-1.18-2.06-2.31-4.12-4.52-8.31-8.23-17.08A196.09,196.09,0,0,1,85,31.27q3.72-8.76,8.23-17.08C94.77,11.43,96.33,8.7,98,6v4.67H432.16V6q2.44,4,4.7,8.18,4.51,8.31,8.23,17.08A194.76,194.76,0,0,1,460.44,107.33Z"/><path class="cls-1" d="M459.58,107.33A194,194,0,0,1,444.29,183q-3.69,8.73-8.19,17c-.75,1.38-1.51,2.75-2.3,4.11v-3.3H96.32v3.3q-1.17-2-2.3-4.11-4.48-8.26-8.19-17a195.23,195.23,0,0,1,0-151.43q3.69-8.73,8.19-17,2.25-4.14,4.69-8.15v4.22h332.7V6.46q2.44,4,4.69,8.15,4.48,8.27,8.19,17A194,194,0,0,1,459.58,107.33Z"/><path class="cls-1" d="M458.71,107.33a193,193,0,0,1-15.22,75.37q-3.67,8.69-8.16,16.93-2.24,4.11-4.66,8.11v-6.89H99.45v6.89q-2.43-4-4.66-8.11-4.47-8.24-8.16-16.93A194.37,194.37,0,0,1,86.63,32Q90.31,23.27,94.79,15,97,10.91,99.45,6.91v3.77H430.67V6.91q2.43,4,4.66,8.11,4.49,8.24,8.16,16.93A193,193,0,0,1,458.71,107.33Z"/><path class="cls-1" d="M457.84,107.33a192.24,192.24,0,0,1-15.15,75Q439,191,434.57,199.21q-2.22,4.11-4.64,8.08v-6.44H100.19v6.44q-2.41-4-4.64-8.08Q91.1,191,87.43,182.36a193.39,193.39,0,0,1,0-150.07q3.66-8.66,8.12-16.85,2.24-4.09,4.64-8.08v3.32H429.93V7.36q2.42,4,4.64,8.08,4.46,8.19,8.12,16.85A192.25,192.25,0,0,1,457.84,107.33Z"/><path class="cls-1" d="M457,107.33A191.27,191.27,0,0,1,441.89,182q-3.64,8.61-8.08,16.78-2.22,4.08-4.62,8v-6H100.94v6q-2.41-4-4.62-8-4.44-8.16-8.09-16.78a192.53,192.53,0,0,1,0-149.39Q91.88,24,96.32,15.85q2.21-4.08,4.62-8v2.87H429.19V7.81q2.4,4,4.62,8,4.43,8.16,8.08,16.78A191.32,191.32,0,0,1,457,107.33Z"/><path class="cls-1" d="M456.1,107.33a190.42,190.42,0,0,1-15,74.36q-3.63,8.56-8,16.7-2.21,4.05-4.6,8v-5.54H101.68v5.54q-2.4-3.94-4.6-8-4.41-8.13-8-16.7A191.72,191.72,0,0,1,89,33q3.63-8.57,8-16.7,2.2-4.05,4.6-8v2.42H428.44V8.26q2.4,3.95,4.6,8,4.43,8.13,8,16.7A190.43,190.43,0,0,1,456.1,107.33Z"/><path class="cls-1" d="M455.23,107.33a189.63,189.63,0,0,1-14.94,74q-3.62,8.53-8,16.62-2.19,4-4.58,8v-5.09H102.42v5.09Q100,202,97.84,198q-4.4-8.08-8-16.62a190.86,190.86,0,0,1,0-148q3.61-8.53,8-16.62,2.2-4,4.58-8v2H427.7v-2q2.39,3.93,4.58,8,4.39,8.09,8,16.62A189.64,189.64,0,0,1,455.23,107.33Z"/><path class="cls-1" d="M454.36,107.33A188.7,188.7,0,0,1,439.49,181q-3.6,8.49-8,16.55-2.19,4-4.56,7.93v-4.64H103.16v4.64q-2.37-3.92-4.55-7.93-4.38-8.06-8-16.55a190,190,0,0,1,0-147.37q3.6-8.49,8-16.55,2.17-4,4.55-7.93v1.52H427V9.16q2.37,3.91,4.56,7.93,4.37,8.06,8,16.55A188.71,188.71,0,0,1,454.36,107.33Z"/><path class="cls-1" d="M453.5,107.33a187.91,187.91,0,0,1-14.81,73.34q-3.58,8.46-7.94,16.47-2.17,4-4.53,7.9v-4.19H103.91V205q-2.37-3.89-4.54-7.9-4.35-8-7.94-16.47A189.14,189.14,0,0,1,91.43,34Q95,25.52,99.37,17.51q2.17-4,4.54-7.89v1.06H426.22V9.62q2.36,3.89,4.53,7.89,4.35,8,7.94,16.47A187.93,187.93,0,0,1,453.5,107.33Z"/><path class="cls-1" d="M452.63,107.33a187,187,0,0,1-14.74,73q-3.56,8.41-7.9,16.4-2.16,4-4.52,7.86v-3.74H104.65v3.74q-2.36-3.87-4.52-7.86-4.32-8-7.9-16.4a188.16,188.16,0,0,1,0-146q3.57-8.41,7.9-16.4,2.18-4,4.52-7.85v.61H425.47v-.61q2.36,3.86,4.52,7.85,4.33,8,7.9,16.4A187,187,0,0,1,452.63,107.33Z"/><path class="cls-1" d="M451.76,107.33A186.1,186.1,0,0,1,437.09,180q-3.54,8.37-7.86,16.32-2.16,4-4.5,7.82v-3.29H105.39v3.29q-2.34-3.85-4.49-7.82Q96.58,188.39,93,180A187.35,187.35,0,0,1,93,34.65q3.56-8.37,7.87-16.32,2.14-4,4.49-7.81v.16H424.73v-.16q2.34,3.84,4.5,7.81,4.31,7.94,7.86,16.32A186.11,186.11,0,0,1,451.76,107.33Z"/><path class="cls-1" d="M450.89,107.33a185.31,185.31,0,0,1-14.6,72.33q-3.53,8.34-7.83,16.24-2.15,4-4.47,7.79v-2.84H106.13v2.84q-2.32-3.84-4.47-7.79-4.29-7.89-7.82-16.24A186.37,186.37,0,0,1,93.84,35q3.52-8.34,7.82-16.24,2.15-4,4.47-7.78,1.17-1.92,2.38-3.8v3.51H421.62V7.17Q422.82,9,424,11q2.33,3.82,4.47,7.78,4.29,7.89,7.83,16.24A185.32,185.32,0,0,1,450.89,107.33Z"/><path class="cls-1" d="M450,107.33a184.38,184.38,0,0,1-14.53,72q-3.51,8.3-7.79,16.17-2.13,3.93-4.45,7.74v-2.38H106.88v2.38q-2.32-3.81-4.46-7.74-4.26-7.86-7.78-16.17a184.75,184.75,0,0,1,17-175.41v6.77H418.43V3.91A184,184,0,0,1,450,107.33Z"/><path class="cls-1" d="M449.15,107.33A183.59,183.59,0,0,1,434.69,179q-3.49,8.27-7.75,16.1-2.13,3.9-4.44,7.7v-1.93H107.62v1.93q-2.31-3.79-4.43-7.7-4.26-7.83-7.75-16.1a183.87,183.87,0,0,1,17-174.58v6.28h305.3V4.4a183.07,183.07,0,0,1,31.44,102.93Z"/><path class="cls-1" d="M448.29,107.33a182.66,182.66,0,0,1-14.4,71.31q-3.48,8.24-7.72,16-2.12,3.9-4.41,7.67v-1.48H108.36v1.48q-2.3-3.77-4.41-7.67-4.23-7.78-7.71-16A183,183,0,0,1,113.13,4.88v5.8H417V4.88a182.35,182.35,0,0,1,31.3,102.45Z"/><path class="cls-1" d="M447.42,107.33a181.78,181.78,0,0,1-14.33,71q-3.46,8.17-7.68,15.94-2.12,3.87-4.39,7.63v-1H109.11v1q-2.3-3.75-4.4-7.63c-2.8-5.17-5.37-10.49-7.67-15.94A182.12,182.12,0,0,1,113.85,5.37v5.31H416.27V5.37a181.35,181.35,0,0,1,31.15,102Z"/><path class="cls-1" d="M446.55,107.33A181,181,0,0,1,432.29,178q-3.45,8.15-7.64,15.86-2.1,3.87-4.37,7.6v-.58H109.85v.58c-1.52-2.49-3-5-4.37-7.6q-4.2-7.71-7.64-15.86A181.29,181.29,0,0,1,114.57,5.85v4.83h301V5.85a180.54,180.54,0,0,1,31,101.48Z"/><path class="cls-1" d="M445.68,107.33a180.05,180.05,0,0,1-14.19,70.3q-3.44,8.1-7.61,15.79-2.08,3.84-4.35,7.56v-.13H110.59V201q-2.27-3.72-4.35-7.56-4.17-7.68-7.6-15.79A180.4,180.4,0,0,1,115.29,6.34v4.34H414.83V6.34a179.63,179.63,0,0,1,30.85,101Z"/><path class="cls-1" d="M444.81,107.33a178.83,178.83,0,0,1-30.7,100.5v-7H116v7a179.57,179.57,0,0,1,0-201v3.86h298.1V6.82a178.83,178.83,0,0,1,30.7,100.51Z"/><path class="cls-1" d="M443.94,107.33a177.92,177.92,0,0,1-30.55,100v-6.49H116.73v6.49a178.69,178.69,0,0,1,0-200v3.37H413.39V7.31a177.92,177.92,0,0,1,30.55,100Z"/><path class="cls-1" d="M443.08,107.33a177.1,177.1,0,0,1-30.41,99.53v-6H117.45v6a177.78,177.78,0,0,1,0-199.06v2.88H412.67V7.8a177,177,0,0,1,30.41,99.53Z"/><path class="cls-1" d="M442.21,107.33a176.2,176.2,0,0,1-30.26,99v-5.52H118.17v5.52a176.93,176.93,0,0,1,0-198.09v2.4H412V8.28a176.2,176.2,0,0,1,30.26,99.05Z"/><path class="cls-1" d="M441.34,107.33a175.29,175.29,0,0,1-30.11,98.55v-5H118.89v5a176,176,0,0,1,0-197.11v1.91H411.23V8.77a175.3,175.3,0,0,1,30.11,98.56Z"/><path class="cls-1" d="M440.47,107.33a174.49,174.49,0,0,1-30,98.07v-4.55H119.61v4.55A175.67,175.67,0,0,1,103.44,39.05a174.13,174.13,0,0,1,16.17-29.8v1.43h290.9V9.25a174.49,174.49,0,0,1,30,98.08Z"/><path class="cls-1" d="M439.6,107.33a173.58,173.58,0,0,1-29.81,97.58v-4.06H120.33v4.06a174.33,174.33,0,0,1,0-195.17v.94H409.79V9.74a173.58,173.58,0,0,1,29.81,97.59Z"/><path class="cls-1" d="M438.73,107.33a172.68,172.68,0,0,1-29.66,97.1v-3.58h-288v3.58a173.47,173.47,0,0,1,0-194.21v.46h288v-.46a172.68,172.68,0,0,1,29.66,97.11Z"/><path class="cls-1" d="M437.87,107.33a171.86,171.86,0,0,1-29.52,96.61v-3.09H121.77v3.09a172.58,172.58,0,0,1,0-193.23q2.33-3.45,4.82-6.78v6.75h277V3.93c1.65,2.22,3.26,4.48,4.81,6.78a171.86,171.86,0,0,1,29.52,96.62Z"/><path class="cls-1" d="M437,107.33a171.05,171.05,0,0,1-29.37,96.13v-2.61H122.49v2.61a171.75,171.75,0,0,1,0-192.27q2.31-3.42,4.79-6.74v6.23H402.84V4.45q2.48,3.32,4.79,6.74A171.05,171.05,0,0,1,437,107.33Z"/><path class="cls-1" d="M436.13,107.33A170.15,170.15,0,0,1,406.91,203v-2.12H123.21V203a170.87,170.87,0,0,1,0-191.29C124.75,9.4,126.34,7.17,128,5v5.71H402.14V5c1.65,2.2,3.24,4.43,4.77,6.71a170.15,170.15,0,0,1,29.22,95.65Z"/><path class="cls-1" d="M435.26,107.33a169.34,169.34,0,0,1-29.07,95.16v-1.64H123.93v1.64a170,170,0,0,1,0-190.32c1.53-2.27,3.11-4.49,4.74-6.68v5.19H401.45V5.49c1.63,2.19,3.21,4.41,4.74,6.68a169.24,169.24,0,0,1,29.07,95.16Z"/><path class="cls-1" d="M434.39,107.33A168.34,168.34,0,0,1,405.47,202v-1.15H124.65V202a169.12,169.12,0,0,1,0-189.35c1.52-2.25,3.1-4.46,4.72-6.64v4.67H400.75V6q2.44,3.27,4.72,6.64a168.34,168.34,0,0,1,28.92,94.68Z"/><path class="cls-1" d="M433.52,107.33a167.44,167.44,0,0,1-28.77,94.18v-.66H125.37v.66a168.23,168.23,0,0,1,0-188.37c1.51-2.24,3.08-4.45,4.7-6.61v4.15h270V6.53c1.61,2.16,3.18,4.37,4.69,6.61a167.44,167.44,0,0,1,28.77,94.19Z"/><path class="cls-1" d="M432.66,107.33A166.71,166.71,0,0,1,404,201v-.18H126.09V201a167.4,167.4,0,0,1,0-187.41c1.51-2.23,3.06-4.42,4.67-6.57v3.63h268.6V7.05q2.42,3.22,4.67,6.57a166.71,166.71,0,0,1,28.63,93.71Z"/><path class="cls-1" d="M431.79,107.33a165.81,165.81,0,0,1-28.48,93.21q-2.24,3.33-4.65,6.54v-6.23H131.46v6.23q-2.4-3.21-4.65-6.54a166.51,166.51,0,0,1,0-186.43q2.25-3.33,4.65-6.54v3.11h267.2V7.57q2.41,3.21,4.65,6.54a165.81,165.81,0,0,1,28.48,93.22Z"/><path class="cls-1" d="M430.92,107.33a165,165,0,0,1-28.33,92.73q-2.23,3.3-4.62,6.5v-5.71H132.15v5.71q-2.39-3.19-4.62-6.5a165.68,165.68,0,0,1,0-185.47q2.24-3.3,4.62-6.5v2.59H398V8.09q2.38,3.2,4.62,6.5a165,165,0,0,1,28.33,92.74Z"/><path class="cls-1" d="M430.05,107.33a164,164,0,0,1-28.18,92.24c-1.48,2.2-3,4.35-4.6,6.47v-5.19H132.85V206c-1.58-2.12-3.12-4.27-4.6-6.47a164.76,164.76,0,0,1,0-184.49c1.48-2.2,3-4.35,4.6-6.47v2.07H397.27V8.61c1.59,2.12,3.12,4.27,4.6,6.47a164,164,0,0,1,28.18,92.25Z"/><path class="cls-1" d="M429.18,107.33a163.42,163.42,0,0,1-28,91.76c-1.47,2.18-3,4.33-4.57,6.43v-4.67h-263v4.67c-1.58-2.1-3.11-4.25-4.58-6.43a163.93,163.93,0,0,1,0-183.53q2.21-3.27,4.58-6.43v1.55h263V9.13c1.57,2.11,3.1,4.25,4.57,6.43a163.42,163.42,0,0,1,28,91.77Z"/><path class="cls-1" d="M428.31,107.33a162.51,162.51,0,0,1-27.88,91.27c-1.46,2.17-3,4.31-4.55,6.4v-4.15H134.24V205c-1.57-2.09-3.08-4.23-4.55-6.4a163,163,0,0,1,0-182.55c1.47-2.17,3-4.31,4.55-6.4v1H395.88v-1c1.57,2.09,3.09,4.23,4.55,6.4a162.51,162.51,0,0,1,27.88,91.28Z"/><path class="cls-1" d="M427.45,107.33a161.79,161.79,0,0,1-27.74,90.79q-2.19,3.24-4.52,6.36v-3.63H134.94v3.63q-2.34-3.12-4.53-6.36a162.17,162.17,0,0,1,0-181.58q4.38-6.48,9.35-12.51v6.65H390.37V4q5,6,9.34,12.51a161.7,161.7,0,0,1,27.74,90.79Z"/><path class="cls-1" d="M426.58,107.33A160.89,160.89,0,0,1,399,197.63q-2.17,3.23-4.5,6.33v-3.11H135.63V204q-2.32-3.11-4.5-6.33a161.33,161.33,0,0,1,0-180.61q4.35-6.45,9.3-12.43v6.09H389.69V4.59q4.95,6,9.3,12.43a160.89,160.89,0,0,1,27.59,90.31Z"/><path class="cls-1" d="M425.71,107.33a160,160,0,0,1-27.44,89.82q-2.16,3.19-4.48,6.29v-2.59H136.33v2.59c-1.54-2.06-3-4.16-4.48-6.29a160.42,160.42,0,0,1,0-179.64q4.34-6.42,9.25-12.37v5.54H389V5.14q4.92,6,9.25,12.37a159.89,159.89,0,0,1,27.44,89.82Z"/><path class="cls-1" d="M424.84,107.33a159.08,159.08,0,0,1-27.29,89.33c-1.43,2.12-2.92,4.21-4.45,6.26v-2.07H137v2.07q-2.29-3.07-4.45-6.26a159.58,159.58,0,0,1,0-178.67q4.31-6.37,9.2-12.3v5H388.35v-5q4.89,5.93,9.2,12.3a159.08,159.08,0,0,1,27.29,89.34Z"/><path class="cls-1" d="M424,107.33a158.17,158.17,0,0,1-27.14,88.84c-1.43,2.12-2.9,4.19-4.43,6.23v-1.55H137.72v1.55c-1.52-2-3-4.11-4.43-6.23a158.69,158.69,0,0,1,0-177.69q4.29-6.35,9.15-12.24v4.44H387.68V6.24q4.86,5.9,9.15,12.24A158.17,158.17,0,0,1,424,107.33Z"/><path class="cls-1" d="M423.1,107.33a157.37,157.37,0,0,1-27,88.36c-1.42,2.1-2.89,4.17-4.4,6.19v-1H138.42v1c-1.52-2-3-4.09-4.41-6.19A157.86,157.86,0,0,1,134,19q4.26-6.3,9.1-12.16v3.88H387V6.8q4.85,5.85,9.1,12.16a157.37,157.37,0,0,1,27,88.37Z"/><path class="cls-1" d="M422.24,107.33a156.55,156.55,0,0,1-26.85,87.87q-4.23,6.27-9.05,12.1v-6.45H143.78v6.45q-4.8-5.82-9.05-12.1a157,157,0,0,1,0-175.75q4.25-6.27,9.05-12.1v3.33H386.34V7.35q4.82,5.82,9.05,12.1a156.55,156.55,0,0,1,26.85,87.88Z"/><path class="cls-1" d="M421.37,107.33a155.64,155.64,0,0,1-26.7,87.39q-4.21,6.24-9,12v-5.9H144.45v5.9q-4.78-5.79-9-12a156.11,156.11,0,0,1,0-174.79q4.22-6.23,9-12v2.78H385.67V7.9q4.79,5.79,9,12a155.64,155.64,0,0,1,26.7,87.4Z"/><path class="cls-1" d="M420.5,107.33A154.74,154.74,0,0,1,394,194.23q-4.18,6.21-8.95,12v-5.35H145.12v5.35q-4.76-5.76-9-12a155.23,155.23,0,0,1,0-173.81q4.19-6.21,9-12v2.23H385V8.45q4.75,5.76,8.95,12a154.74,154.74,0,0,1,26.55,86.91Z"/><path class="cls-1" d="M419.63,107.33a153.93,153.93,0,0,1-26.4,86.42q-4.17,6.17-8.9,11.9v-4.8H145.79v4.8q-4.72-5.73-8.9-11.9a154.4,154.4,0,0,1,0-172.85q4.17-6.16,8.9-11.89v1.67H384.33V9q4.73,5.72,8.9,11.89a153.93,153.93,0,0,1,26.4,86.43Z"/><path class="cls-1" d="M418.76,107.33a153,153,0,0,1-26.25,85.93q-4.14,6.13-8.85,11.83v-4.24H146.46v4.24q-4.69-5.68-8.85-11.83a153.51,153.51,0,0,1,0-171.87q4.14-6.13,8.85-11.83v1.12h237.2V9.56q4.71,5.68,8.85,11.83a153,153,0,0,1,26.25,85.94Z"/><path class="cls-1" d="M417.89,107.33a152.22,152.22,0,0,1-26.1,85.45q-4.11,6.09-8.8,11.76v-3.69H147.13v3.69q-4.68-5.65-8.8-11.76a152.64,152.64,0,0,1,0-170.9q4.13-6.1,8.8-11.77v.57H383v-.57q4.68,5.66,8.8,11.77a152.12,152.12,0,0,1,26.1,85.45Z"/><path class="cls-1" d="M417,107.33a151.3,151.3,0,0,1-26,85q-4.1,6.06-8.75,11.7v-3.14H147.8V204q-4.65-5.62-8.75-11.7a151.76,151.76,0,0,1,0-169.93q4.09-6.06,8.75-11.7v0H382.32v0q4.65,5.64,8.75,11.7a151.3,151.3,0,0,1,26,85Z"/><path class="cls-1" d="M416.16,107.33a150.4,150.4,0,0,1-25.81,84.47q-4.07,6-8.7,11.64v-2.59H148.47v2.59q-4.62-5.59-8.7-11.64a150.88,150.88,0,0,1,0-169q4.08-6,8.7-11.64,2.31-2.79,4.75-5.48v4.95H376.91V5.73q2.43,2.68,4.74,5.48,4.62,5.61,8.7,11.64a150.4,150.4,0,0,1,25.81,84.48Z"/><path class="cls-1" d="M415.29,107.33a149.59,149.59,0,0,1-25.66,84q-4,6-8.65,11.56v-2H149.14v2q-4.59-5.56-8.65-11.56a150,150,0,0,1,0-168q4-6,8.65-11.56,2.3-2.79,4.72-5.45v4.36h222.4V6.32Q378.69,9,381,11.77q4.61,5.57,8.65,11.56a149.59,149.59,0,0,1,25.66,84Z"/><path class="cls-1" d="M414.42,107.33a148.69,148.69,0,0,1-25.51,83.5q-4,6-8.6,11.5v-1.48H149.81v1.48q-4.56-5.54-8.6-11.5a149.16,149.16,0,0,1,0-167q4-6,8.6-11.5c1.52-1.84,3.09-3.65,4.69-5.42v3.78H375.62V6.9q2.42,2.65,4.69,5.42,4.57,5.54,8.6,11.5a148.69,148.69,0,0,1,25.51,83.51Z"/><path class="cls-1" d="M413.55,107.33a147.88,147.88,0,0,1-25.36,83q-4,5.93-8.55,11.43v-.93H150.48v.93q-4.54-5.5-8.55-11.43a148.33,148.33,0,0,1,0-166q4-5.93,8.55-11.43,2.27-2.74,4.67-5.39v3.2H375V7.48c1.59,1.76,3.15,3.56,4.66,5.39q4.55,5.51,8.55,11.43a147.88,147.88,0,0,1,25.36,83Z"/><path class="cls-1" d="M412.68,107.33a146.88,146.88,0,0,1-25.21,82.53q-4,5.89-8.5,11.37v-.38H151.15v.38q-4.52-5.47-8.5-11.37a147.41,147.41,0,0,1,0-165.07q4-5.89,8.5-11.37,2.25-2.73,4.64-5.35v2.61H374.33V8.07q2.39,2.63,4.64,5.35,4.51,5.48,8.5,11.37a146.88,146.88,0,0,1,25.21,82.54Z"/><path class="cls-1" d="M411.82,107.33a146.16,146.16,0,0,1-25.07,82.05q-4,5.85-8.45,11.29c-1.49,1.82-3,3.59-4.61,5.33v-5.15H156.43V206c-1.58-1.74-3.12-3.51-4.61-5.33q-4.48-5.43-8.45-11.29a146.58,146.58,0,0,1,0-164.11q4-5.85,8.45-11.29c1.49-1.82,3-3.59,4.61-5.33v2H373.69v-2c1.58,1.74,3.12,3.51,4.61,5.33q4.49,5.43,8.45,11.29a146.16,146.16,0,0,1,25.07,82.06Z"/><path class="cls-1" d="M411,107.33A145.25,145.25,0,0,1,386,188.89q-3.93,5.82-8.4,11.23-2.22,2.7-4.58,5.3v-4.57h-216v4.57c-1.57-1.73-3.09-3.5-4.58-5.3q-4.45-5.4-8.4-11.23A145.93,145.93,0,0,1,161.91,4.17v6.51H368.22V4.17A145.43,145.43,0,0,1,411,107.33Z"/><path class="cls-1" d="M410.08,107.33a144.44,144.44,0,0,1-24.77,81.08q-3.9,5.78-8.35,11.16-2.2,2.69-4.55,5.26v-4H157.72v4q-2.34-2.58-4.56-5.26-4.44-5.37-8.35-11.16A145,145,0,0,1,162.52,4.78v5.9H367.6V4.78A144.56,144.56,0,0,1,410.08,107.33Z"/><path class="cls-1" d="M409.21,107.33a143.54,143.54,0,0,1-24.62,80.59q-3.88,5.75-8.3,11.1-2.21,2.67-4.53,5.23v-3.4H158.36v3.4q-2.33-2.56-4.53-5.23-4.41-5.34-8.3-11.1A144.18,144.18,0,0,1,163.13,5.4v5.28H367V5.4A143.67,143.67,0,0,1,409.21,107.33Z"/><path class="cls-1" d="M408.34,107.33a142.54,142.54,0,0,1-24.47,80.1q-3.86,5.73-8.25,11c-1.46,1.77-3,3.51-4.5,5.2v-2.81H159v2.81c-1.54-1.69-3-3.43-4.5-5.2q-4.38-5.29-8.25-11A143.31,143.31,0,0,1,163.75,6v4.67H366.38V6A142.87,142.87,0,0,1,408.34,107.33Z"/><path class="cls-1" d="M407.47,107.33A141.73,141.73,0,0,1,383.15,187q-3.84,5.69-8.2,11-2.18,2.64-4.47,5.17v-2.23H159.65v2.23q-2.31-2.54-4.48-5.17-4.35-5.26-8.2-11A142.45,142.45,0,0,1,164.36,6.63v4.05h201.4v-4A142,142,0,0,1,407.47,107.33Z"/><path class="cls-1" d="M406.6,107.33a141.1,141.1,0,0,1-41.45,100.08v-6.56H165v6.56A141.53,141.53,0,0,1,165,7.24v3.44H365.15V7.24A141.11,141.11,0,0,1,406.6,107.33Z"/><path class="cls-1" d="M405.74,107.33a140.24,140.24,0,0,1-41.21,99.47v-6H165.59v6a140.69,140.69,0,0,1,0-199v2.83H364.53V7.85A140.25,140.25,0,0,1,405.74,107.33Z"/><path class="cls-1" d="M404.87,107.33a139.36,139.36,0,0,1-40.95,98.85v-5.33H166.2v5.33a139.8,139.8,0,0,1,0-197.71v2.21H363.92V8.47A139.37,139.37,0,0,1,404.87,107.33Z"/><path class="cls-1" d="M404,107.33a138.51,138.51,0,0,1-40.69,98.24v-4.72H166.82v4.72a138.93,138.93,0,0,1,0-196.49v1.6H363.31V9.08A138.51,138.51,0,0,1,404,107.33Z"/><path class="cls-1" d="M403.13,107.33A137.64,137.64,0,0,1,362.69,205v-4.11H167.43V205a138.07,138.07,0,0,1,0-195.26v1H362.69v-1A137.6,137.6,0,0,1,403.13,107.33Z"/><path class="cls-1" d="M402.26,107.33a136.76,136.76,0,0,1-40.18,97v-3.49h-194v3.49a137.19,137.19,0,0,1,0-194v.37h194v-.37A136.77,136.77,0,0,1,402.26,107.33Z"/><path class="cls-1" d="M401.39,107.33a135.88,135.88,0,0,1-39.93,96.4v-2.88H168.66v2.88a136.34,136.34,0,0,1,0-192.81q2.31-2.31,4.73-4.51v4.27H356.73V6.41q2.41,2.21,4.73,4.51A135.88,135.88,0,0,1,401.39,107.33Z"/><path class="cls-1" d="M400.53,107.33a135,135,0,0,1-39.68,95.78v-2.26H169.27v2.26a135.47,135.47,0,0,1,0-191.57c1.54-1.53,3.1-3,4.71-4.49v3.63H356.15V7.05q2.4,2.19,4.7,4.49A135.05,135.05,0,0,1,400.53,107.33Z"/><path class="cls-1" d="M399.66,107.33a134.21,134.21,0,0,1-39.42,95.17v-1.65H169.89v1.65a134.6,134.6,0,0,1,0-190.35q2.28-2.28,4.67-4.46v3h181v-3q2.38,2.17,4.68,4.46A134.22,134.22,0,0,1,399.66,107.33Z"/><path class="cls-1" d="M398.79,107.33a133.33,133.33,0,0,1-39.17,94.56v-1H170.5v1a133.72,133.72,0,0,1,0-189.12Q175,8.23,180,4.13v6.55H350.13V4.13q5,4.1,9.49,8.64A133.31,133.31,0,0,1,398.79,107.33Z"/><path class="cls-1" d="M397.92,107.33A132.45,132.45,0,0,1,359,201.27v-.42H171.12v.42a132.84,132.84,0,0,1,0-187.89q4.5-4.52,9.43-8.58v5.88h169V4.8q4.92,4.06,9.44,8.58A132.45,132.45,0,0,1,397.92,107.33Z"/><path class="cls-1" d="M397.05,107.33a131.58,131.58,0,0,1-38.66,93.33q-2.24,2.24-4.58,4.37v-4.18H176.31V205q-2.34-2.13-4.58-4.37a132,132,0,0,1,0-186.67c3-3,6.11-5.83,9.37-8.52v5.21H349V5.47c3.26,2.69,6.39,5.54,9.37,8.52A131.58,131.58,0,0,1,397.05,107.33Z"/><path class="cls-1" d="M396.18,107.33A130.7,130.7,0,0,1,357.78,200c-1.48,1.49-3,2.93-4.55,4.35v-3.54H176.9v3.54c-1.55-1.42-3.07-2.86-4.56-4.35a131.13,131.13,0,0,1,0-185.43q4.46-4.45,9.32-8.47v4.54H348.47V6.14q4.86,4,9.31,8.47A130.71,130.71,0,0,1,396.18,107.33Z"/><path class="cls-1" d="M395.32,107.33a129.86,129.86,0,0,1-38.15,92.1q-4.43,4.42-9.25,8.41v-7H182.21v7q-4.83-4-9.25-8.41a130.26,130.26,0,0,1,0-184.21q4.41-4.41,9.25-8.41v3.87H347.92V6.81q4.81,4,9.25,8.41A129.86,129.86,0,0,1,395.32,107.33Z"/><path class="cls-1" d="M394.45,107.33a129,129,0,0,1-37.9,91.49q-4.4,4.38-9.19,8.35v-6.32H182.76v6.32q-4.8-4-9.19-8.35a129.4,129.4,0,0,1,0-183q4.4-4.39,9.19-8.36v3.2h164.6V7.48q4.8,4,9.19,8.36A129,129,0,0,1,394.45,107.33Z"/><path class="cls-1" d="M393.58,107.33a128.15,128.15,0,0,1-37.64,90.87q-4.37,4.37-9.13,8.3v-5.65H183.31v5.65c-3.17-2.62-6.22-5.39-9.12-8.3a128.5,128.5,0,0,1,0-181.75c2.9-2.91,5.95-5.68,9.12-8.3v2.53h163.5V8.15q4.76,3.93,9.13,8.3A128.16,128.16,0,0,1,393.58,107.33Z"/><path class="cls-1" d="M392.71,107.33a127.26,127.26,0,0,1-37.39,90.26c-2.88,2.88-5.91,5.63-9.06,8.24v-5H183.86v5q-4.73-3.92-9.06-8.24a127.65,127.65,0,0,1,0-180.53q4.33-4.32,9.06-8.24v1.86h162.4V8.82c3.15,2.61,6.18,5.36,9.06,8.24A127.27,127.27,0,0,1,392.71,107.33Z"/><path class="cls-1" d="M391.84,107.33A126.37,126.37,0,0,1,354.71,197q-4.31,4.31-9,8.19v-4.31H184.42v4.31q-4.69-3.89-9-8.19a126.78,126.78,0,0,1,0-179.29q4.31-4.3,9-8.18v1.18H345.71V9.5q4.69,3.87,9,8.18A126.39,126.39,0,0,1,391.84,107.33Z"/><path class="cls-1" d="M391,107.33a125.53,125.53,0,0,1-36.87,89q-4.28,4.27-9,8.13v-3.64H185v3.64q-4.66-3.86-8.94-8.13a125.91,125.91,0,0,1,0-178.07Q180.31,14,185,10.17v.51H345.15v-.51q4.67,3.84,9,8.12A125.56,125.56,0,0,1,391,107.33Z"/><path class="cls-1" d="M390.11,107.33a124.65,124.65,0,0,1-36.63,88.42c-2.83,2.82-5.79,5.52-8.88,8.07v-3H185.52v3c-3.09-2.55-6.05-5.25-8.88-8.07a125.06,125.06,0,0,1,0-176.84c2.83-2.83,5.79-5.53,8.88-8.07,1.55-1.28,3.12-2.52,4.73-3.72v3.56H339.88V7.12c1.6,1.2,3.18,2.44,4.72,3.72,3.09,2.54,6,5.24,8.88,8.07A124.64,124.64,0,0,1,390.11,107.33Z"/><path class="cls-1" d="M389.24,107.33a123.78,123.78,0,0,1-36.37,87.8q-4.22,4.22-8.82,8v-2.3h-158v2.3c-3.06-2.53-6-5.21-8.81-8A124.24,124.24,0,0,1,195.63,4.36v6.32H334.49V4.36a124.27,124.27,0,0,1,54.75,103Z"/><path class="cls-1" d="M388.37,107.33a122.91,122.91,0,0,1-36.12,87.19q-4.19,4.18-8.75,8v-1.63H186.63v1.63q-4.57-3.78-8.76-8a123.31,123.31,0,0,1,0-174.39,124.38,124.38,0,0,1,18.25-15v5.6H334V5.08a124.38,124.38,0,0,1,18.25,15.05A122.93,122.93,0,0,1,388.37,107.33Z"/><path class="cls-1" d="M387.5,107.33a122,122,0,0,1-35.86,86.57q-4.15,4.15-8.7,7.91v-1H187.18v1c-3-2.5-5.93-5.14-8.7-7.91A122.49,122.49,0,0,1,196.6,5.8v4.88H333.52V5.8a122.56,122.56,0,0,1,54,101.53Z"/><path class="cls-1" d="M386.63,107.33a121.18,121.18,0,0,1-35.6,86c-2.75,2.75-5.64,5.37-8.64,7.85v-.29H187.73v.29q-4.5-3.72-8.63-7.85a121.62,121.62,0,0,1,18-186.77v4.16H333V6.52a121.59,121.59,0,0,1,53.6,100.81Z"/><path class="cls-1" d="M385.76,107.33a120.77,120.77,0,0,1-53.21,100.08v-6.56h-135v6.56a120.74,120.74,0,0,1,0-200.17v3.44h135V7.24a120.85,120.85,0,0,1,53.21,100.09Z"/><path class="cls-1" d="M384.9,107.33a119.91,119.91,0,0,1-52.84,99.36v-5.84h-134v5.84A119.89,119.89,0,0,1,198.06,8v2.72h134V8a119.91,119.91,0,0,1,52.84,99.37Z"/><path class="cls-1" d="M384,107.33A119.09,119.09,0,0,1,331.58,206v-5.12h-133V206a119,119,0,0,1,0-197.29v2h133v-2A119.09,119.09,0,0,1,384,107.33Z"/><path class="cls-1" d="M383.16,107.33a118.2,118.2,0,0,1-52.07,97.92v-4.4H199v4.4A118.14,118.14,0,0,1,199,9.4v1.28H331.09V9.4a118.2,118.2,0,0,1,52.07,97.93Z"/><path class="cls-1" d="M382.29,107.33A116.88,116.88,0,0,1,348,190.22a118.48,118.48,0,0,1-17.35,14.31v-3.68H199.52v3.68a117.27,117.27,0,0,1,0-194.41v.56H330.61v-.56A118.48,118.48,0,0,1,348,24.43,116.89,116.89,0,0,1,382.29,107.33Z"/><path class="cls-1" d="M381.42,107.33a116.41,116.41,0,0,1-51.3,96.48v-3H200v3a117.33,117.33,0,0,1-17.22-14.2A116.43,116.43,0,0,1,200,10.84q4.65-3.13,9.6-5.83v5.67H320.53V5q4.94,2.69,9.59,5.83a116.5,116.5,0,0,1,51.3,96.49Z"/><path class="cls-1" d="M380.55,107.33a115.53,115.53,0,0,1-50.92,95.76v-2.24H200.49v2.24a115.54,115.54,0,0,1,0-191.53q4.6-3.12,9.52-5.79v4.91h110.1V5.77q4.92,2.67,9.52,5.79a116.32,116.32,0,0,1,17.1,14.1A115.12,115.12,0,0,1,380.55,107.33Z"/><path class="cls-1" d="M379.69,107.33a114.73,114.73,0,0,1-50.54,95v-1.52H201v1.52a116.14,116.14,0,0,1-17-14,114.64,114.64,0,0,1,0-162.11,116.14,116.14,0,0,1,17-14c3.05-2.06,6.21-4,9.45-5.74v4.14H319.7V6.54q4.88,2.64,9.45,5.74a114.73,114.73,0,0,1,50.54,95.05Z"/><path class="cls-1" d="M378.82,107.33a113.85,113.85,0,0,1-50.16,94.32v-.8H201.46v.8a113.79,113.79,0,0,1,0-188.65q4.54-3.08,9.38-5.7v3.38H319.28V7.3q4.85,2.63,9.38,5.7a113.85,113.85,0,0,1,50.16,94.33Z"/><path class="cls-1" d="M378,107.33a113,113,0,0,1-49.77,93.6v-.08H202v.08a112.92,112.92,0,0,1,0-187.21q4.5-3,9.3-5.66v2.62H318.87V8.06q4.8,2.61,9.31,5.66A113,113,0,0,1,378,107.33Z"/><path class="cls-1" d="M377.08,107.33a112.14,112.14,0,0,1-49.39,92.88q-4.47,3-9.23,5.61v-5H211.67v5q-4.77-2.58-9.24-5.61a112.08,112.08,0,0,1,19-196.1v6.57h87.2V4.11a112.15,112.15,0,0,1,68.42,103.22Z"/><path class="cls-1" d="M376.21,107.33a111.23,111.23,0,0,1-49,92.16q-4.44,3-9.17,5.57v-4.21h-106v4.21q-4.72-2.56-9.16-5.57A111.21,111.21,0,0,1,221.8,4.91v5.77h86.53V4.91a111.26,111.26,0,0,1,67.88,102.42Z"/><path class="cls-1" d="M375.34,107.33a110.35,110.35,0,0,1-48.62,91.44c-2.93,2-6,3.83-9.09,5.53v-3.45H212.49v3.45q-4.68-2.55-9.09-5.53A110.34,110.34,0,0,1,222.13,5.71v5H308v-5a110.39,110.39,0,0,1,67.35,101.62Z"/><path class="cls-1" d="M374.48,107.33a109.55,109.55,0,0,1-48.24,90.72q-4.37,3-9,5.48v-2.68H212.91v2.68q-4.65-2.52-9-5.48A109.47,109.47,0,0,1,222.47,6.51v4.17h85.18V6.51a109.55,109.55,0,0,1,66.83,100.82Z"/><path class="cls-1" d="M373.61,107.33a108.68,108.68,0,0,1-66.3,100v-6.49h-84.5v6.49a108.61,108.61,0,0,1,0-200v3.37h84.5V7.31a108.68,108.68,0,0,1,66.3,100Z"/><path class="cls-1" d="M372.74,107.33A107.81,107.81,0,0,1,307,206.54v-5.69H223.15v5.69a107.74,107.74,0,0,1,0-198.43v2.57H307V8.11a107.81,107.81,0,0,1,65.77,99.22Z"/><path class="cls-1" d="M371.87,107.33a106.92,106.92,0,0,1-65.23,98.41v-4.89H223.49v4.89a106.87,106.87,0,0,1,0-196.83v1.77h83.15V8.91a106.92,106.92,0,0,1,65.23,98.42Z"/><path class="cls-1" d="M371,107.33a106.05,106.05,0,0,1-64.7,97.61v-4.09H223.82v4.09a106,106,0,0,1,0-195.23v1H306.3v-1A106.05,106.05,0,0,1,371,107.33Z"/><path class="cls-1" d="M370.13,107.33A105.19,105.19,0,0,1,306,204.14v-3.29h-81.8v3.29a105.13,105.13,0,0,1,0-193.63v.17H306v-.17a105.19,105.19,0,0,1,64.17,96.82Z"/><path class="cls-1" d="M369.27,107.33a104.34,104.34,0,0,1-63.65,96v-2.49H224.5v2.49A104.21,104.21,0,0,1,244.06,5.24v5.44h42V5.24a103.07,103.07,0,0,1,19.56,6.07,104.34,104.34,0,0,1,63.65,96Z"/><path class="cls-1" d="M368.4,107.33a103.47,103.47,0,0,1-63.12,95.21v-1.69H224.84v1.69A103.35,103.35,0,1,1,368.4,107.33Z"/><path class="cls-1" d="M367.53,107.33A102.58,102.58,0,0,1,305,201.74v-.89H225.18v.89a102.48,102.48,0,1,1,142.35-94.41Z"/><path class="cls-1" d="M366.66,107.33a101.71,101.71,0,0,1-62.05,93.61v-.09h-79.1v.09a101.61,101.61,0,1,1,141.15-93.61Z"/><path class="cls-1" d="M365.79,107.33A100.68,100.68,0,0,1,285.36,206v-5.16h-40.6V206a99.79,99.79,0,0,1-18.91-5.87,100.74,100.74,0,1,1,139.94-92.81Z"/><circle class="cls-1" cx="265.06" cy="107.33" r="99.86"/><circle class="cls-1" cx="265.06" cy="107.33" r="98.99"/><circle class="cls-1" cx="265.06" cy="107.33" r="98.13"/><circle class="cls-1" cx="265.06" cy="107.33" r="97.26"/><circle class="cls-1" cx="265.06" cy="107.33" r="96.39"/><circle class="cls-1" cx="265.06" cy="107.33" r="95.52"/><circle class="cls-1" cx="265.06" cy="107.33" r="94.65"/><circle class="cls-1" cx="265.06" cy="107.33" r="93.78"/><circle class="cls-1" cx="265.06" cy="107.33" r="92.91"/><circle class="cls-1" cx="265.06" cy="107.33" r="92.05"/><circle class="cls-1" cx="265.06" cy="107.33" r="91.18"/><circle class="cls-1" cx="265.06" cy="107.33" r="90.31"/><circle class="cls-1" cx="265.06" cy="107.33" r="89.44"/><circle class="cls-1" cx="265.06" cy="107.33" r="88.57"/><circle class="cls-1" cx="265.06" cy="107.33" r="87.7"/><circle class="cls-1" cx="265.06" cy="107.33" r="86.84"/><circle class="cls-1" cx="265.06" cy="107.33" r="85.97"/><circle class="cls-1" cx="265.06" cy="107.33" r="85.1"/><circle class="cls-1" cx="265.06" cy="107.33" r="84.23"/><circle class="cls-1" cx="265.06" cy="107.33" r="83.36"/><circle class="cls-1" cx="265.06" cy="107.33" r="82.49"/><circle class="cls-1" cx="265.06" cy="107.33" r="81.63"/><circle class="cls-1" cx="265.06" cy="107.33" r="80.76"/><circle class="cls-1" cx="265.06" cy="107.33" r="79.89"/><circle class="cls-1" cx="265.06" cy="107.33" r="79.02"/><circle class="cls-1" cx="265.06" cy="107.33" r="78.15"/><circle class="cls-1" cx="265.06" cy="107.33" r="77.28"/><circle class="cls-1" cx="265.06" cy="107.33" r="76.42"/><circle class="cls-1" cx="265.06" cy="107.33" r="75.55"/><circle class="cls-1" cx="265.06" cy="107.33" r="74.68"/><circle class="cls-1" cx="265.06" cy="107.33" r="73.81"/><circle class="cls-1" cx="265.06" cy="107.33" r="72.94"/><circle class="cls-1" cx="265.06" cy="107.33" r="72.07"/><circle class="cls-1" cx="265.06" cy="107.33" r="71.21"/><circle class="cls-1" cx="265.06" cy="107.33" r="70.34"/><circle class="cls-1" cx="265.06" cy="107.33" r="69.47"/><circle class="cls-1" cx="265.06" cy="107.33" r="68.6"/><circle class="cls-1" cx="265.06" cy="107.33" r="67.73"/><circle class="cls-1" cx="265.06" cy="107.33" r="66.86"/><circle class="cls-1" cx="265.06" cy="107.33" r="66"/><circle class="cls-1" cx="265.06" cy="107.33" r="65.13"/><circle class="cls-1" cx="265.06" cy="107.33" r="64.26"/><circle class="cls-1" cx="265.06" cy="107.33" r="63.39"/><circle class="cls-1" cx="265.06" cy="107.33" r="62.52"/><circle class="cls-1" cx="265.06" cy="107.33" r="61.65"/><circle class="cls-1" cx="265.06" cy="107.33" r="60.79"/><circle class="cls-1" cx="265.06" cy="107.33" r="59.92"/><circle class="cls-1" cx="265.06" cy="107.33" r="59.05"/><circle class="cls-1" cx="265.06" cy="107.33" r="58.18"/><circle class="cls-1" cx="265.06" cy="107.33" r="57.31"/><circle class="cls-1" cx="265.06" cy="107.33" r="56.44"/><circle class="cls-1" cx="265.06" cy="107.33" r="55.58"/><circle class="cls-1" cx="265.06" cy="107.33" r="54.71"/><circle class="cls-1" cx="265.06" cy="107.33" r="53.84"/><circle class="cls-1" cx="265.06" cy="107.33" r="52.97"/><circle class="cls-1" cx="265.06" cy="107.33" r="52.1"/><circle class="cls-1" cx="265.06" cy="107.33" r="51.23"/><circle class="cls-1" cx="265.06" cy="107.33" r="50.37"/><circle class="cls-1" cx="265.06" cy="107.33" r="49.5"/><circle class="cls-1" cx="265.06" cy="107.33" r="48.63"/><circle class="cls-1" cx="265.06" cy="107.33" r="47.76"/><circle class="cls-1" cx="265.06" cy="107.33" r="46.89"/><circle class="cls-1" cx="265.06" cy="107.33" r="46.02"/><circle class="cls-1" cx="265.06" cy="107.33" r="45.15"/><circle class="cls-1" cx="265.06" cy="107.33" r="44.29"/><circle class="cls-1" cx="265.06" cy="107.33" r="43.42"/><circle class="cls-1" cx="265.06" cy="107.33" r="42.55"/><circle class="cls-1" cx="265.06" cy="107.33" r="41.68"/><circle class="cls-1" cx="265.06" cy="107.33" r="40.81"/><circle class="cls-1" cx="265.06" cy="107.33" r="39.94"/><circle class="cls-1" cx="265.06" cy="107.33" r="39.08"/><circle class="cls-1" cx="265.06" cy="107.33" r="38.21"/><circle class="cls-1" cx="265.06" cy="107.33" r="37.34"/><circle class="cls-1" cx="265.06" cy="107.33" r="36.47"/><circle class="cls-1" cx="265.06" cy="107.33" r="35.6"/><circle class="cls-1" cx="265.06" cy="107.33" r="34.73"/><circle class="cls-1" cx="265.06" cy="107.33" r="33.87"/><circle class="cls-1" cx="265.06" cy="107.33" r="33"/><circle class="cls-1" cx="265.06" cy="107.33" r="32.13"/><circle class="cls-1" cx="265.06" cy="107.33" r="31.26"/><circle class="cls-1" cx="265.06" cy="107.33" r="30.39"/><circle class="cls-1" cx="265.06" cy="107.33" r="29.52"/><circle class="cls-1" cx="265.06" cy="107.33" r="28.66"/><circle class="cls-1" cx="265.06" cy="107.33" r="27.79"/><circle class="cls-1" cx="265.06" cy="107.33" r="26.92"/><circle class="cls-1" cx="265.06" cy="107.33" r="26.05"/><circle class="cls-1" cx="265.06" cy="107.33" r="25.18"/><circle class="cls-1" cx="265.06" cy="107.33" r="24.31"/><circle class="cls-1" cx="265.06" cy="107.33" r="23.45"/><circle class="cls-1" cx="265.06" cy="107.33" r="22.58"/><circle class="cls-1" cx="265.06" cy="107.33" r="21.71"/><circle class="cls-1" cx="265.06" cy="107.33" r="20.84"/><circle class="cls-1" cx="265.06" cy="107.33" r="19.97"/><circle class="cls-1" cx="265.06" cy="107.33" r="19.1"/><circle class="cls-1" cx="265.06" cy="107.33" r="18.24"/><circle class="cls-1" cx="265.06" cy="107.33" r="17.37"/><circle class="cls-1" cx="265.06" cy="107.33" r="16.5"/><circle class="cls-1" cx="265.06" cy="107.33" r="15.63"/><circle class="cls-1" cx="265.06" cy="107.33" r="14.76"/><circle class="cls-1" cx="265.06" cy="107.33" r="13.89"/><circle class="cls-1" cx="265.06" cy="107.33" r="13.03"/><circle class="cls-1" cx="265.06" cy="107.33" r="12.16"/><circle class="cls-1" cx="265.06" cy="107.33" r="11.29"/><circle class="cls-1" cx="265.06" cy="107.33" r="10.42"/><circle class="cls-1" cx="265.06" cy="107.33" r="9.55"/><circle class="cls-1" cx="265.06" cy="107.33" r="8.68"/><circle class="cls-1" cx="265.06" cy="107.33" r="7.82"/><circle class="cls-1" cx="265.06" cy="107.33" r="6.95"/><circle class="cls-1" cx="265.06" cy="107.33" r="6.08"/><circle class="cls-1" cx="265.06" cy="107.33" r="5.21"/><circle class="cls-1" cx="265.06" cy="107.33" r="4.34"/><circle class="cls-1" cx="265.06" cy="107.33" r="3.47"/><circle class="cls-1" cx="265.06" cy="107.33" r="2.61"/><circle class="cls-1" cx="265.06" cy="107.33" r="1.74"/><circle class="cls-1" cx="265.06" cy="107.33" r="0.87"/></g><path class="cls-2" d="M8.4,56.58C4.44,63.56,5,73.4,6,93.08c.65,12.48,1.36,26,6.73,42.09,2.17,6.49,9.52,30.42,25.62,43.8,24.75,20.57,53.6,10.13,138.84,6.61,27.73-1.15,47.8-1,70.25-.83,121,.91,151.24,1.66,151.24,1.66s34,.84,73.56-14a43.49,43.49,0,0,0,12.51-6.87c7.26-5.82,15.94-16.92,19.16-49.35,3.61-36.36,5.49-55.22-6.52-69.74-21.57-26.12-71.32-18.09-71.44-17s37.79,2,38.85,10.74c.89,7.37-26.36,16.34-35.93,19.43C373.66,77.38,330,75,264,75.66c-70.74.68-103.23,4.19-165.29-3.3C81.44,70.28,36.76,65.92,35.85,55c-.35-4.27,6-8.68,9.6-11.14C58.8,34.64,73.83,35.62,73.87,36,73.94,36.68,22.62,31.48,8.4,56.58Z"/><g class="cls-4"><rect class="cls-2" x="-18.5" y="11.37" width="544.93" height="188.17"/><path class="cls-2" d="M477.58,107a220.65,220.65,0,0,1-17.4,86.19q-2.1,5-4.43,9.81v-2.48H56.55V203q-2.32-4.85-4.43-9.81a222.19,222.19,0,0,1,0-172.39q2.1-5,4.43-9.8,1.17-2.43,2.39-4.81v4.16H453.36V6.21q1.22,2.38,2.39,4.81,2.33,4.83,4.43,9.8A220.69,220.69,0,0,1,477.58,107Z"/><path class="cls-2" d="M476.72,107a219.9,219.9,0,0,1-17.34,85.85c-1.39,3.3-2.87,6.56-4.41,9.77v-2.1H57.34v2.1q-2.33-4.81-4.42-9.77a221.33,221.33,0,0,1,0-171.71q2.1-4.95,4.42-9.77c.77-1.61,1.56-3.2,2.38-4.79v3.77H452.59V6.6c.81,1.59,1.6,3.18,2.38,4.79,1.54,3.22,3,6.47,4.41,9.77A219.91,219.91,0,0,1,476.72,107Z"/><path class="cls-2" d="M475.85,107a218.93,218.93,0,0,1-17.27,85.51q-2.08,4.93-4.4,9.73v-1.72H58.12v1.72q-2.31-4.8-4.4-9.73a220.47,220.47,0,0,1,0-171q2.09-4.93,4.4-9.73Q59.28,9.37,60.49,7v3.37H451.81V7q1.21,2.37,2.37,4.77,2.32,4.8,4.4,9.73A218.94,218.94,0,0,1,475.85,107Z"/><path class="cls-2" d="M475,107a218,218,0,0,1-17.2,85.17q-2.07,4.92-4.38,9.7v-1.35H58.9v1.35c-1.53-3.19-3-6.42-4.38-9.7a219.49,219.49,0,0,1,0-170.35c1.38-3.27,2.85-6.51,4.38-9.7q1.16-2.38,2.36-4.75v3H451v-3c.81,1.58,1.59,3.16,2.36,4.75q2.31,4.79,4.38,9.7A218,218,0,0,1,475,107Z"/><path class="cls-2" d="M474.11,107A217.29,217.29,0,0,1,457,191.86q-2.07,4.88-4.36,9.65v-1H59.69v1q-2.31-4.77-4.37-9.65a218.66,218.66,0,0,1,0-169.68q2.07-4.89,4.37-9.66c.76-1.59,1.54-3.16,2.35-4.73v2.58H450.27V7.79c.8,1.57,1.58,3.14,2.35,4.73q2.29,4.77,4.36,9.66A217.22,217.22,0,0,1,474.11,107Z"/><path class="cls-2" d="M473.24,107a216.36,216.36,0,0,1-17.06,84.5q-2.06,4.86-4.34,9.61v-.59H60.47v.59q-2.3-4.74-4.35-9.61a217.82,217.82,0,0,1,0-169q4.13-9.74,9.14-19v6.83H447V3.54q5,9.23,9.14,19A216.37,216.37,0,0,1,473.24,107Z"/><path class="cls-2" d="M472.37,107a215.57,215.57,0,0,1-17,84.16q-2.06,4.84-4.33,9.58v-.22H61.25v.22Q59,196,56.92,191.18a217,217,0,0,1,0-168.33Q61,13.14,66,4v6.42H446.28V4q5,9.2,9.1,18.9A215.58,215.58,0,0,1,472.37,107Z"/><path class="cls-2" d="M471.51,107a214.61,214.61,0,0,1-16.93,83.82q-2,4.83-4.31,9.54-1.14,2.35-2.32,4.68v-4.52H64.36v4.52c-.8-1.55-1.57-3.11-2.33-4.68q-2.27-4.71-4.31-9.54a216.1,216.1,0,0,1,0-167.65q4.1-9.66,9.07-18.82v6H445.51v-6q5,9.15,9.07,18.82A214.62,214.62,0,0,1,471.51,107Z"/><path class="cls-2" d="M470.64,107a213.67,213.67,0,0,1-16.86,83.48c-1.35,3.21-2.79,6.38-4.29,9.5q-1.14,2.35-2.32,4.66v-4.12h-382v4.12q-1.18-2.31-2.31-4.66-2.26-4.68-4.3-9.5a215.24,215.24,0,0,1,0-167q4.06-9.63,9-18.75v5.59h377.2V4.78q5,9.12,9,18.75A213.69,213.69,0,0,1,470.64,107Z"/><path class="cls-2" d="M469.77,107A213,213,0,0,1,453,190.17q-2,4.79-4.28,9.46c-.75,1.55-1.51,3.1-2.3,4.64v-3.73H65.9v3.73q-1.17-2.31-2.3-4.64-2.25-4.68-4.28-9.46a214.29,214.29,0,0,1,0-166.3q4.05-9.59,9-18.68v5.18H444V5.19q4.93,9.09,9,18.68A212.9,212.9,0,0,1,469.77,107Z"/><path class="cls-2" d="M468.9,107a212,212,0,0,1-16.72,82.81q-2,4.77-4.26,9.42-1.12,2.33-2.29,4.62v-3.33H66.68v3.33c-.79-1.53-1.55-3.07-2.3-4.62q-2.23-4.65-4.26-9.42a213.45,213.45,0,0,1,0-165.63q4-9.54,9-18.59v4.76H443.22V5.61q4.92,9,9,18.59A212.05,212.05,0,0,1,468.9,107Z"/><path class="cls-2" d="M468,107a211.25,211.25,0,0,1-16.65,82.47q-2,4.75-4.24,9.38-1.12,2.32-2.29,4.6v-2.93H67.45v2.93q-1.17-2.28-2.29-4.6-2.22-4.62-4.24-9.38a212.59,212.59,0,0,1,0-165Q64.94,15,69.84,6v4.35H442.46V6q4.89,9,8.92,18.52A211.26,211.26,0,0,1,468,107Z"/><path class="cls-2" d="M467.16,107a210.28,210.28,0,0,1-16.58,82.13q-2,4.74-4.22,9.35c-.74,1.54-1.5,3.06-2.28,4.58v-2.54H68.22v2.54c-.77-1.52-1.53-3-2.27-4.58q-2.22-4.62-4.23-9.35a211.73,211.73,0,0,1,0-164.27q4-9.46,8.89-18.45v3.94H441.7V6.43q4.86,9,8.88,18.45A210.33,210.33,0,0,1,467.16,107Z"/><path class="cls-2" d="M466.3,107a209.35,209.35,0,0,1-16.52,81.79q-4,9.44-8.85,18.37v-6.64H71.37v6.64q-4.84-8.93-8.85-18.37a210.87,210.87,0,0,1,0-163.59q4-9.43,8.85-18.37v3.52H440.93V6.85q4.86,8.93,8.85,18.37A209.36,209.36,0,0,1,466.3,107Z"/><path class="cls-2" d="M465.43,107A208.65,208.65,0,0,1,449,188.48q-4,9.38-8.81,18.29v-6.23h-368v6.23q-4.83-8.9-8.81-18.29a210,210,0,0,1,0-162.92q4-9.39,8.81-18.3v3.11h368V7.26q4.83,8.9,8.81,18.3A208.57,208.57,0,0,1,465.43,107Z"/><path class="cls-2" d="M464.56,107a207.72,207.72,0,0,1-16.38,81.12q-4,9.35-8.77,18.22v-5.82H72.9v5.82q-4.82-8.87-8.78-18.22a209.08,209.08,0,0,1,0-162.25q4-9.34,8.78-18.21v2.69H439.41V7.68q4.8,8.85,8.77,18.21A207.73,207.73,0,0,1,464.56,107Z"/><path class="cls-2" d="M463.69,107a206.93,206.93,0,0,1-16.31,80.78q-3.93,9.31-8.74,18.14v-5.4h-365v5.4q-4.78-8.82-8.74-18.14a208.22,208.22,0,0,1,0-161.57q3.94-9.32,8.74-18.14v2.28h365V8.09q4.8,8.82,8.74,18.14A206.94,206.94,0,0,1,463.69,107Z"/><path class="cls-2" d="M462.82,107a206,206,0,0,1-16.24,80.44q-3.91,9.27-8.7,18.07v-5H74.42v5q-4.77-8.79-8.7-18.07a207.36,207.36,0,0,1,0-160.89q3.93-9.27,8.7-18.07v1.87H437.88V8.5q4.77,8.79,8.7,18.07A206,206,0,0,1,462.82,107Z"/><path class="cls-2" d="M462,107a205,205,0,0,1-16.17,80.1q-3.9,9.24-8.67,18v-4.57H75.19v4.57q-4.75-8.75-8.67-18a206.5,206.5,0,0,1,0-160.21q3.92-9.24,8.67-18v1.45H437.11V8.92q4.75,8.74,8.67,18A205,205,0,0,1,462,107Z"/><path class="cls-2" d="M461.09,107A204.33,204.33,0,0,1,445,186.79q-3.89,9.18-8.63,17.91v-4.16H76v4.16q-4.73-8.72-8.63-17.91a205.67,205.67,0,0,1,0-159.54Q71.21,18.06,76,9.33v1h360.4v-1Q441.09,18,445,27.25A204.25,204.25,0,0,1,461.09,107Z"/><path class="cls-2" d="M460.22,107a203.39,203.39,0,0,1-16,79.43q-3.87,9.15-8.59,17.84v-3.75H76.72v3.75q-4.73-8.68-8.6-17.84a204.83,204.83,0,0,1,0-158.87Q72,18.43,76.72,9.75v.62H435.59V9.75q4.71,8.67,8.59,17.83A203.41,203.41,0,0,1,460.22,107Z"/><path class="cls-2" d="M459.35,107a202.6,202.6,0,0,1-16,79.09q-3.86,9.12-8.56,17.76v-3.33H77.48v3.33q-4.7-8.64-8.56-17.76a203.85,203.85,0,0,1,0-158.19q3.85-9.12,8.56-17.76v.21H434.82v-.21q4.69,8.64,8.56,17.76A202.62,202.62,0,0,1,459.35,107Z"/><path class="cls-2" d="M458.48,107a201.67,201.67,0,0,1-15.9,78.75q-3.84,9.07-8.52,17.69v-2.92H78.24v2.92q-4.67-8.61-8.52-17.69a203,203,0,0,1,0-157.51q3.84-9.07,8.52-17.69,1.17-2.14,2.39-4.26v4.06h351V6.31c.82,1.41,1.61,2.83,2.39,4.26q4.68,8.61,8.52,17.69A201.68,201.68,0,0,1,458.48,107Z"/><path class="cls-2" d="M457.61,107a200.88,200.88,0,0,1-15.83,78.41q-3.82,9-8.48,17.61v-2.5H79V203q-4.67-8.56-8.49-17.61a202.13,202.13,0,0,1,0-156.83Q74.35,19.56,79,11q1.15-2.14,2.37-4.25v3.63H430.92V6.74q1.21,2.1,2.38,4.25,4.65,8.57,8.48,17.61A200.89,200.89,0,0,1,457.61,107Z"/><path class="cls-2" d="M456.74,107A200,200,0,0,1,441,185.1c-2.54,6-5.36,11.85-8.45,17.53v-2.09H79.77v2.09c-3.09-5.68-5.91-11.54-8.45-17.53a201.3,201.3,0,0,1,0-156.16q3.81-9,8.45-17.54,1.16-2.13,2.37-4.23v3.2h348V7.17q1.2,2.1,2.36,4.23,4.64,8.54,8.45,17.54A199.92,199.92,0,0,1,456.74,107Z"/><path class="cls-2" d="M455.88,107a199.07,199.07,0,0,1-15.7,77.74q-3.8,9-8.41,17.46v-1.68H80.53v1.68q-4.61-8.49-8.41-17.46a200.46,200.46,0,0,1,0-155.49q3.8-9,8.41-17.45,2.31-4.24,4.81-8.37v6.92H427V3.45q2.51,4.13,4.81,8.37,4.61,8.49,8.41,17.45A199.08,199.08,0,0,1,455.88,107Z"/><path class="cls-2" d="M455,107a198.28,198.28,0,0,1-15.63,77.4q-3.78,8.93-8.37,17.38v-1.26H81.3v1.26q-4.59-8.45-8.38-17.38a199.6,199.6,0,0,1,0-154.81q3.78-8.92,8.38-17.38Q83.6,8,86.09,3.9v6.47H426.22V3.9Q428.71,8,431,12.23q4.59,8.44,8.37,17.38A198.29,198.29,0,0,1,455,107Z"/><path class="cls-2" d="M454.14,107a197.35,197.35,0,0,1-15.56,77.06q-3.75,8.88-8.34,17.31v-.85H82.06v.85q-4.57-8.41-8.34-17.31A198.62,198.62,0,0,1,73.72,30q3.77-8.88,8.34-17.31,2.28-4.2,4.77-8.29v6H425.48v-6q2.47,4.08,4.76,8.29,4.58,8.41,8.34,17.31A197.36,197.36,0,0,1,454.14,107Z"/><path class="cls-2" d="M453.27,107a196.56,196.56,0,0,1-15.49,76.72q-3.73,8.85-8.3,17.23v-.43H82.82V201q-4.54-8.37-8.3-17.23a197.76,197.76,0,0,1,0-153.45q3.75-8.85,8.3-17.23,2.28-4.2,4.75-8.26v5.57H424.73V4.8q2.47,4.06,4.75,8.26,4.54,8.37,8.3,17.23A196.57,196.57,0,0,1,453.27,107Z"/><path class="cls-2" d="M452.4,107A195.68,195.68,0,0,1,437,183.41q-3.72,8.79-8.26,17.15v0H83.59v0q-4.53-8.34-8.27-17.15a196.93,196.93,0,0,1,0-152.78q3.74-8.8,8.27-17.16,2.26-4.17,4.72-8.22v5.12H424V5.25q2.46,4.05,4.73,8.22,4.53,8.34,8.26,17.16A195.64,195.64,0,0,1,452.4,107Z"/><path class="cls-2" d="M451.53,107a194.74,194.74,0,0,1-15.35,76.05q-3.71,8.76-8.23,17.08-1.12,2.07-2.3,4.12v-3.73h-339v3.73q-1.18-2.06-2.31-4.12-4.51-8.31-8.23-17.08A196.09,196.09,0,0,1,76.12,31q3.72-8.76,8.23-17.07c1.51-2.77,3.07-5.5,4.71-8.19v4.67H423.25V5.7q2.44,4,4.7,8.19,4.51,8.3,8.23,17.07A194.76,194.76,0,0,1,451.53,107Z"/><path class="cls-2" d="M450.67,107a194,194,0,0,1-15.29,75.71q-3.69,8.73-8.19,17-1.12,2.07-2.3,4.11v-3.3H87.41v3.3q-1.17-2-2.3-4.11-4.48-8.26-8.19-17a195.23,195.23,0,0,1,0-151.43q3.69-8.73,8.19-17,2.25-4.14,4.69-8.15v4.22H422.5V6.15q2.44,4,4.69,8.15,4.49,8.26,8.19,17A194,194,0,0,1,450.67,107Z"/><path class="cls-2" d="M449.8,107a193,193,0,0,1-15.22,75.37q-3.68,8.69-8.16,16.93-2.24,4.11-4.66,8.11v-6.89H90.54v6.89q-2.43-4-4.66-8.11-4.47-8.23-8.16-16.93a194.37,194.37,0,0,1,0-150.75Q81.4,23,85.88,14.71q2.24-4.11,4.66-8.11v3.77H421.76V6.6q2.43,4,4.66,8.11,4.49,8.24,8.16,16.93A193,193,0,0,1,449.8,107Z"/><path class="cls-2" d="M448.93,107a192.24,192.24,0,0,1-15.15,75q-3.66,8.65-8.12,16.85Q423.44,203,421,207v-6.44H91.28V207q-2.41-4-4.64-8.08-4.45-8.19-8.12-16.85A193.39,193.39,0,0,1,78.52,32q3.66-8.65,8.12-16.85,2.23-4.1,4.64-8.08v3.32H421V7.05q2.42,4,4.64,8.08,4.45,8.19,8.12,16.85A192.25,192.25,0,0,1,448.93,107Z"/><path class="cls-2" d="M448.06,107A191.35,191.35,0,0,1,433,181.72q-3.64,8.61-8.08,16.77-2.22,4.08-4.62,8v-6H92v6q-2.41-4-4.62-8-4.44-8.16-8.09-16.77a192.56,192.56,0,0,1,0-149.4Q83,23.71,87.41,15.54q2.2-4.08,4.62-8v2.87H420.28V7.5q2.4,4,4.62,8,4.43,8.16,8.08,16.78A191.32,191.32,0,0,1,448.06,107Z"/><path class="cls-2" d="M447.19,107a190.42,190.42,0,0,1-15,74.36q-3.63,8.56-8.05,16.7-2.2,4-4.6,8v-5.54H92.77v5.54q-2.4-3.95-4.6-8-4.41-8.13-8-16.7a191.72,191.72,0,0,1,0-148.73q3.63-8.56,8-16.7,2.2-4,4.6-8v2.42H419.53V8q2.4,3.94,4.6,8,4.42,8.13,8.05,16.7A190.43,190.43,0,0,1,447.19,107Z"/><path class="cls-2" d="M446.32,107a189.63,189.63,0,0,1-14.94,74q-3.61,8.53-8,16.62-2.19,4.05-4.58,8v-5.09H93.51v5.09q-2.39-3.93-4.58-8-4.4-8.08-8-16.62a190.86,190.86,0,0,1,0-148q3.61-8.54,8-16.62,2.2-4.05,4.58-8v2H418.79v-2q2.38,3.93,4.58,8,4.39,8.09,8,16.62A189.64,189.64,0,0,1,446.32,107Z"/><path class="cls-2" d="M445.45,107a188.7,188.7,0,0,1-14.87,73.68q-3.6,8.49-8,16.55-2.19,4-4.56,7.93v-4.64H94.25v4.64q-2.37-3.92-4.55-7.93-4.38-8.06-8-16.55a190,190,0,0,1,0-147.37q3.6-8.49,8-16.55,2.17-4,4.55-7.92v1.51h323.8V8.86q2.37,3.9,4.56,7.92,4.36,8.05,8,16.55A188.71,188.71,0,0,1,445.45,107Z"/><path class="cls-2" d="M444.59,107a187.91,187.91,0,0,1-14.81,73.34q-3.58,8.46-7.94,16.48-2.18,4-4.53,7.89v-4.19H95v4.19q-2.37-3.89-4.54-7.89-4.35-8-7.94-16.48a189.14,189.14,0,0,1,0-146.69q3.58-8.46,7.94-16.47,2.17-4,4.54-7.89v1.06H417.31V9.31q2.35,3.89,4.53,7.89,4.35,8,7.94,16.47A187.93,187.93,0,0,1,444.59,107Z"/><path class="cls-2" d="M443.72,107A187.07,187.07,0,0,1,429,180q-3.56,8.41-7.9,16.39-2.16,4-4.52,7.86v-3.74H95.74v3.74q-2.35-3.87-4.52-7.86-4.32-8-7.9-16.39a188.19,188.19,0,0,1,0-146q3.57-8.41,7.9-16.4,2.18-4,4.52-7.85v.61H416.56V9.76q2.35,3.86,4.52,7.85,4.34,8,7.9,16.4A187,187,0,0,1,443.72,107Z"/><path class="cls-2" d="M442.85,107a186.1,186.1,0,0,1-14.67,72.67q-3.54,8.37-7.86,16.32-2.16,4-4.5,7.82v-3.29H96.48v3.29Q94.14,200,92,196q-4.32-7.94-7.87-16.32a187.35,187.35,0,0,1,0-145.35Q87.67,26,92,18q2.15-4,4.49-7.81v.16H415.82v-.16q2.34,3.84,4.5,7.81,4.31,8,7.86,16.32A186.11,186.11,0,0,1,442.85,107Z"/><path class="cls-2" d="M442,107a185.31,185.31,0,0,1-14.6,72.33q-3.53,8.34-7.83,16.24-2.15,4-4.47,7.79v-2.84H97.22v2.84q-2.32-3.84-4.47-7.79-4.29-7.89-7.82-16.24a186.37,186.37,0,0,1,0-144.67q3.52-8.34,7.82-16.24,2.15-3.94,4.47-7.78,1.17-1.92,2.38-3.8v3.51H412.71V6.86q1.2,1.87,2.37,3.8,2.32,3.83,4.47,7.78,4.29,7.89,7.83,16.24A185.32,185.32,0,0,1,442,107Z"/><path class="cls-2" d="M441.11,107a184.38,184.38,0,0,1-14.53,72q-3.51,8.3-7.79,16.17-2.13,3.93-4.45,7.75v-2.39H98v2.39q-2.32-3.83-4.46-7.75-4.26-7.86-7.78-16.17a184.75,184.75,0,0,1,17-175.41v6.77H409.52V3.6A184,184,0,0,1,441.11,107Z"/><path class="cls-2" d="M440.24,107a183.59,183.59,0,0,1-14.46,71.65q-3.5,8.27-7.75,16.1-2.13,3.9-4.44,7.7v-1.93H98.71v1.93q-2.31-3.79-4.43-7.7-4.26-7.83-7.75-16.1a183.87,183.87,0,0,1,17-174.58v6.28H408.8V4.09A183.07,183.07,0,0,1,440.24,107Z"/><path class="cls-2" d="M439.38,107A182.75,182.75,0,0,1,425,178.34q-3.48,8.22-7.72,16-2.11,3.9-4.41,7.67v-1.48H99.45V202q-2.3-3.77-4.41-7.67-4.23-7.78-7.71-16A183,183,0,0,1,104.22,4.57v5.8H408.08V4.57A182.35,182.35,0,0,1,439.38,107Z"/><path class="cls-2" d="M438.51,107a181.78,181.78,0,0,1-14.33,71q-3.46,8.17-7.68,15.94-2.12,3.87-4.39,7.63v-1H100.2v1q-2.3-3.75-4.4-7.63c-2.8-5.17-5.37-10.49-7.67-15.94A182.12,182.12,0,0,1,104.94,5.06v5.31H407.36V5.06a181.35,181.35,0,0,1,31.15,102Z"/><path class="cls-2" d="M437.64,107a181,181,0,0,1-14.26,70.64q-3.45,8.15-7.65,15.86-2.09,3.87-4.37,7.6v-.58H100.94v.58q-2.28-3.74-4.37-7.6-4.2-7.71-7.64-15.86A181.29,181.29,0,0,1,105.66,5.54v4.83h301V5.54a180.54,180.54,0,0,1,31,101.48Z"/><path class="cls-2" d="M436.77,107a180.05,180.05,0,0,1-14.19,70.3q-3.43,8.1-7.61,15.79-2.09,3.84-4.35,7.56v-.13H101.68v.13q-2.27-3.72-4.35-7.56-4.17-7.68-7.6-15.79A180.4,180.4,0,0,1,106.38,6v4.34H405.92V6a179.63,179.63,0,0,1,30.85,101Z"/><path class="cls-2" d="M435.9,107a178.83,178.83,0,0,1-30.7,100.5v-7H107.1v7a179.53,179.53,0,0,1,0-201v3.85H405.2V6.52A178.73,178.73,0,0,1,435.9,107Z"/><path class="cls-2" d="M435,107a177.83,177.83,0,0,1-30.55,100v-6.49H107.82V207a178.69,178.69,0,0,1,0-200v3.37H404.48V7A177.92,177.92,0,0,1,435,107Z"/><path class="cls-2" d="M434.17,107a177.1,177.1,0,0,1-30.41,99.53v-6H108.54v6a177.78,177.78,0,0,1,0-199.06v2.88H403.76V7.49A177,177,0,0,1,434.17,107Z"/><path class="cls-2" d="M433.3,107a176.2,176.2,0,0,1-30.26,99v-5.52H109.26v5.52A176.93,176.93,0,0,1,109.26,8v2.4H403V8A176.2,176.2,0,0,1,433.3,107Z"/><path class="cls-2" d="M432.43,107a175.29,175.29,0,0,1-30.11,98.55v-5H110v5A176,176,0,0,1,110,8.46v1.91H402.32V8.46A175.3,175.3,0,0,1,432.43,107Z"/><path class="cls-2" d="M431.56,107a174.49,174.49,0,0,1-30,98.07v-4.55H110.7v4.55A175.67,175.67,0,0,1,94.53,38.74,174.13,174.13,0,0,1,110.7,8.94v1.43H401.6V8.94a174.49,174.49,0,0,1,30,98.08Z"/><path class="cls-2" d="M430.69,107a173.49,173.49,0,0,1-29.81,97.58v-4.06H111.42v4.06a174.33,174.33,0,0,1,0-195.17v.94H400.88V9.43A173.58,173.58,0,0,1,430.69,107Z"/><path class="cls-2" d="M429.82,107a172.68,172.68,0,0,1-29.66,97.1v-3.58h-288v3.58a173.47,173.47,0,0,1,0-194.21v.46h288V9.91A172.68,172.68,0,0,1,429.82,107Z"/><path class="cls-2" d="M429,107a171.86,171.86,0,0,1-29.52,96.61v-3.09H112.86v3.09a172.58,172.58,0,0,1,0-193.23q2.33-3.45,4.82-6.78v6.75h277V3.62c1.65,2.22,3.26,4.48,4.81,6.78A171.86,171.86,0,0,1,429,107Z"/><path class="cls-2" d="M428.09,107a171.05,171.05,0,0,1-29.37,96.13v-2.61H113.58v2.61a171.75,171.75,0,0,1,0-192.27q2.31-3.42,4.79-6.74v6.23H393.93V4.14q2.47,3.32,4.79,6.74A171.05,171.05,0,0,1,428.09,107Z"/><path class="cls-2" d="M427.22,107A170.15,170.15,0,0,1,398,202.66v-2.12H114.3v2.12a170.87,170.87,0,0,1,0-191.29c1.54-2.28,3.13-4.51,4.77-6.71v5.71H393.23V4.66c1.65,2.2,3.24,4.43,4.77,6.71A170.15,170.15,0,0,1,427.22,107Z"/><path class="cls-2" d="M426.35,107a169.34,169.34,0,0,1-29.07,95.16v-1.64H115v1.64a170,170,0,0,1,0-190.32c1.53-2.27,3.11-4.49,4.74-6.68v5.19H392.54V5.18c1.63,2.19,3.21,4.41,4.74,6.68A169.24,169.24,0,0,1,426.35,107Z"/><path class="cls-2" d="M425.48,107a168.34,168.34,0,0,1-28.92,94.67v-1.15H115.74v1.15a169.12,169.12,0,0,1,0-189.35c1.52-2.25,3.1-4.46,4.72-6.64v4.67H391.84V5.7q2.45,3.27,4.72,6.64A168.34,168.34,0,0,1,425.48,107Z"/><path class="cls-2" d="M424.61,107a167.44,167.44,0,0,1-28.77,94.18v-.66H116.46v.66a168.23,168.23,0,0,1,0-188.37c1.51-2.24,3.08-4.45,4.7-6.61v4.15h270V6.22c1.61,2.16,3.18,4.37,4.69,6.61A167.44,167.44,0,0,1,424.61,107Z"/><path class="cls-2" d="M423.75,107a166.71,166.71,0,0,1-28.63,93.7v-.18H117.18v.18a167.4,167.4,0,0,1,0-187.41c1.51-2.23,3.06-4.42,4.67-6.57v3.63h268.6V6.74q2.42,3.22,4.67,6.57A166.71,166.71,0,0,1,423.75,107Z"/><path class="cls-2" d="M422.88,107a165.81,165.81,0,0,1-28.48,93.21q-2.23,3.33-4.65,6.54v-6.23H122.55v6.23q-2.4-3.21-4.65-6.54a166.51,166.51,0,0,1,0-186.43q2.25-3.33,4.65-6.54v3.11h267.2V7.26q2.42,3.21,4.65,6.54A165.81,165.81,0,0,1,422.88,107Z"/><path class="cls-2" d="M422,107a165,165,0,0,1-28.33,92.73q-2.24,3.3-4.62,6.5v-5.71H123.24v5.71q-2.38-3.19-4.62-6.5a165.68,165.68,0,0,1,0-185.47q2.23-3.3,4.62-6.5v2.59H389.06V7.78q2.38,3.19,4.62,6.5A165,165,0,0,1,422,107Z"/><path class="cls-2" d="M421.14,107A164,164,0,0,1,393,199.26c-1.48,2.2-3,4.35-4.6,6.47v-5.19H123.94v5.19c-1.58-2.12-3.12-4.27-4.6-6.47a164.76,164.76,0,0,1,0-184.49c1.48-2.2,3-4.35,4.6-6.47v2.07H388.36V8.3c1.59,2.12,3.12,4.27,4.6,6.47A164,164,0,0,1,421.14,107Z"/><path class="cls-2" d="M420.27,107a163.42,163.42,0,0,1-28,91.76c-1.47,2.18-3,4.33-4.57,6.43v-4.67h-263v4.67c-1.58-2.1-3.11-4.25-4.58-6.43a163.93,163.93,0,0,1,0-183.53q2.2-3.27,4.58-6.43v1.55h263V8.82c1.57,2.11,3.1,4.25,4.57,6.43a163.42,163.42,0,0,1,28,91.77Z"/><path class="cls-2" d="M419.4,107a162.51,162.51,0,0,1-27.88,91.27c-1.46,2.17-3,4.31-4.55,6.4v-4.15H125.33v4.15c-1.57-2.09-3.08-4.23-4.55-6.4a163,163,0,0,1,0-182.55c1.47-2.17,3-4.31,4.55-6.4v1H387v-1c1.57,2.09,3.09,4.23,4.55,6.4A162.51,162.51,0,0,1,419.4,107Z"/><path class="cls-2" d="M418.54,107a161.79,161.79,0,0,1-27.74,90.79q-2.19,3.24-4.52,6.36v-3.63H126v3.63q-2.34-3.12-4.53-6.36a162.17,162.17,0,0,1,0-181.58q4.38-6.48,9.35-12.51v6.65h250.6V3.72q5,6,9.35,12.51A161.7,161.7,0,0,1,418.54,107Z"/><path class="cls-2" d="M417.67,107a160.89,160.89,0,0,1-27.59,90.3q-2.18,3.23-4.5,6.33v-3.11H126.72v3.11q-2.32-3.1-4.5-6.33a161.33,161.33,0,0,1,0-180.61q4.35-6.45,9.3-12.43v6.09H380.78V4.28q5,6,9.3,12.43A160.89,160.89,0,0,1,417.67,107Z"/><path class="cls-2" d="M416.8,107a160,160,0,0,1-27.44,89.82q-2.16,3.19-4.48,6.29v-2.59H127.42v2.59c-1.54-2.06-3-4.16-4.48-6.29a160.42,160.42,0,0,1,0-179.64q4.34-6.42,9.25-12.37v5.54H380.11V4.83q4.92,6,9.25,12.37A159.89,159.89,0,0,1,416.8,107Z"/><path class="cls-2" d="M415.93,107a159.08,159.08,0,0,1-27.29,89.33c-1.43,2.12-2.92,4.21-4.45,6.26v-2.07H128.11v2.07q-2.3-3.08-4.45-6.26a159.58,159.58,0,0,1,0-178.67q4.31-6.37,9.2-12.3v5H379.44v-5q4.89,5.93,9.2,12.3A159.08,159.08,0,0,1,415.93,107Z"/><path class="cls-2" d="M415.06,107a158.17,158.17,0,0,1-27.14,88.84c-1.43,2.12-2.9,4.2-4.43,6.23v-1.55H128.81v1.55q-2.28-3-4.43-6.23a158.69,158.69,0,0,1,0-177.69q4.29-6.35,9.15-12.24v4.44H378.77V5.93q4.86,5.9,9.15,12.24A158.17,158.17,0,0,1,415.06,107Z"/><path class="cls-2" d="M414.19,107a157.37,157.37,0,0,1-27,88.36c-1.42,2.1-2.89,4.17-4.4,6.19v-1H129.51v1c-1.52-2-3-4.09-4.41-6.19a157.86,157.86,0,0,1,0-176.73q4.26-6.3,9.1-12.16v3.88H378.1V6.49q4.84,5.85,9.1,12.16a157.37,157.37,0,0,1,27,88.37Z"/><path class="cls-2" d="M413.33,107a156.55,156.55,0,0,1-26.85,87.87q-4.23,6.27-9.05,12.1v-6.45H134.87V207c-3.2-3.88-6.23-7.92-9.05-12.1a157,157,0,0,1,0-175.75c2.82-4.18,5.85-8.22,9.05-12.1v3.33H377.43V7q4.81,5.82,9.05,12.1A156.55,156.55,0,0,1,413.33,107Z"/><path class="cls-2" d="M412.46,107a155.64,155.64,0,0,1-26.7,87.39q-4.22,6.24-9,12v-5.9H135.54v5.9q-4.78-5.79-9-12a156.11,156.11,0,0,1,0-174.79q4.21-6.23,9-12v2.78H376.76V7.59q4.78,5.79,9,12a155.64,155.64,0,0,1,26.7,87.4Z"/><path class="cls-2" d="M411.59,107A154.74,154.74,0,0,1,385,193.92q-4.19,6.21-9,12v-5.35H136.21v5.35q-4.76-5.76-9-12a155.23,155.23,0,0,1,0-173.81q4.19-6.21,9-12v2.23H376.09V8.14q4.76,5.76,9,12A154.74,154.74,0,0,1,411.59,107Z"/><path class="cls-2" d="M410.72,107a153.93,153.93,0,0,1-26.4,86.42q-4.17,6.17-8.9,11.9v-4.8H136.88v4.8q-4.73-5.73-8.9-11.9a154.4,154.4,0,0,1,0-172.85q4.17-6.16,8.9-11.89v1.67H375.42V8.7q4.72,5.72,8.9,11.89A153.93,153.93,0,0,1,410.72,107Z"/><path class="cls-2" d="M409.85,107A153,153,0,0,1,383.6,193q-4.14,6.13-8.85,11.83v-4.24H137.55v4.24q-4.7-5.68-8.85-11.83a153.51,153.51,0,0,1,0-171.87q4.14-6.13,8.85-11.83v1.12h237.2V9.25q4.71,5.68,8.85,11.83A153,153,0,0,1,409.85,107Z"/><path class="cls-2" d="M409,107a152.22,152.22,0,0,1-26.1,85.45q-4.11,6.09-8.8,11.76v-3.69H138.22v3.69q-4.68-5.65-8.8-11.76a152.64,152.64,0,0,1,0-170.9q4.13-6.1,8.8-11.77v.57H374.08V9.8q4.68,5.65,8.8,11.77A152.12,152.12,0,0,1,409,107Z"/><path class="cls-2" d="M408.12,107a151.3,151.3,0,0,1-26,85q-4.1,6.06-8.75,11.7v-3.14H138.89v3.14q-4.65-5.62-8.75-11.7a151.76,151.76,0,0,1,0-169.93q4.1-6.06,8.75-11.7v0H373.41v0q4.65,5.64,8.75,11.7a151.3,151.3,0,0,1,26,85Z"/><path class="cls-2" d="M407.25,107a150.4,150.4,0,0,1-25.81,84.47q-4.06,6-8.7,11.64v-2.59H139.56v2.59q-4.62-5.59-8.7-11.64a150.88,150.88,0,0,1,0-169q4.08-6,8.7-11.63,2.31-2.81,4.75-5.49v4.95H368V5.42q2.43,2.69,4.74,5.49,4.62,5.6,8.7,11.63A150.4,150.4,0,0,1,407.25,107Z"/><path class="cls-2" d="M406.38,107a149.59,149.59,0,0,1-25.66,84q-4.05,6-8.65,11.56v-2H140.23v2Q135.64,197,131.58,191a150,150,0,0,1,0-168q4-6,8.65-11.56C141.76,9.6,143.33,7.79,145,6v4.36h222.4V6c1.62,1.78,3.19,3.59,4.72,5.45Q376.67,17,380.72,23a149.59,149.59,0,0,1,25.66,84Z"/><path class="cls-2" d="M405.51,107A148.69,148.69,0,0,1,380,190.52q-4,6-8.6,11.5v-1.48H140.9V202q-4.56-5.53-8.6-11.5a149.16,149.16,0,0,1,0-167q4-6,8.6-11.5c1.52-1.84,3.09-3.65,4.69-5.42v3.78H366.71V6.59q2.42,2.65,4.69,5.42,4.58,5.53,8.6,11.5A148.69,148.69,0,0,1,405.51,107Z"/><path class="cls-2" d="M404.64,107a147.88,147.88,0,0,1-25.36,83q-4,5.93-8.55,11.43v-.93H141.57v.93Q137,196,133,190a148.33,148.33,0,0,1,0-166q4-5.93,8.55-11.43,2.27-2.74,4.67-5.39v3.2H366.07V7.17c1.59,1.76,3.15,3.56,4.66,5.39q4.54,5.51,8.55,11.43a147.88,147.88,0,0,1,25.36,83Z"/><path class="cls-2" d="M403.77,107a146.88,146.88,0,0,1-25.21,82.53q-4,5.89-8.5,11.37v-.38H142.24v.38q-4.52-5.47-8.5-11.37a147.41,147.41,0,0,1,0-165.07q4-5.89,8.5-11.37,2.25-2.73,4.64-5.35v2.61H365.42V7.76q2.38,2.63,4.64,5.35,4.51,5.48,8.5,11.37A146.88,146.88,0,0,1,403.77,107Z"/><path class="cls-2" d="M402.91,107a146.16,146.16,0,0,1-25.07,82.05q-4,5.85-8.45,11.29c-1.49,1.82-3,3.59-4.61,5.33v-5.15H147.52v5.15c-1.58-1.74-3.12-3.51-4.61-5.33q-4.49-5.43-8.45-11.29a146.58,146.58,0,0,1,0-164.11q4-5.85,8.45-11.29c1.49-1.82,3-3.59,4.61-5.33v2H364.78v-2c1.58,1.74,3.12,3.51,4.61,5.33q4.49,5.43,8.45,11.29A146.16,146.16,0,0,1,402.91,107Z"/><path class="cls-2" d="M402,107a145.25,145.25,0,0,1-24.92,81.56q-3.93,5.82-8.4,11.23-2.22,2.7-4.58,5.3v-4.57h-216v4.57c-1.57-1.73-3.09-3.5-4.58-5.3q-4.46-5.4-8.4-11.23A145.93,145.93,0,0,1,153,3.86v6.51H359.31V3.86A145.43,145.43,0,0,1,402,107Z"/><path class="cls-2" d="M401.17,107A144.44,144.44,0,0,1,376.4,188.1q-3.9,5.78-8.35,11.16-2.21,2.69-4.55,5.26v-4H148.81v4q-2.34-2.58-4.56-5.26-4.44-5.37-8.35-11.16A145,145,0,0,1,153.61,4.47v5.9H358.69V4.47A144.56,144.56,0,0,1,401.17,107Z"/><path class="cls-2" d="M400.3,107a143.54,143.54,0,0,1-24.62,80.59q-3.89,5.74-8.3,11.1-2.2,2.67-4.53,5.23v-3.4H149.45v3.4q-2.32-2.56-4.53-5.23-4.41-5.34-8.3-11.1A144.18,144.18,0,0,1,154.22,5.09v5.28H358.08V5.09A143.67,143.67,0,0,1,400.3,107Z"/><path class="cls-2" d="M399.43,107A142.54,142.54,0,0,1,375,187.12q-3.85,5.73-8.25,11c-1.46,1.76-3,3.5-4.5,5.19v-2.81H150.09v2.81c-1.54-1.69-3-3.43-4.5-5.19q-4.38-5.31-8.25-11A143.31,143.31,0,0,1,154.84,5.7v4.67H357.47V5.7A142.87,142.87,0,0,1,399.43,107Z"/><path class="cls-2" d="M398.56,107a141.73,141.73,0,0,1-24.32,79.62q-3.84,5.69-8.2,11-2.18,2.64-4.47,5.17v-2.23H150.74v2.23q-2.31-2.53-4.48-5.17-4.35-5.26-8.2-11A142.45,142.45,0,0,1,155.45,6.32v4h201.4v-4A142,142,0,0,1,398.56,107Z"/><path class="cls-2" d="M397.69,107A141.1,141.1,0,0,1,356.24,207.1v-6.56H156.07v6.56a141.53,141.53,0,0,1,0-200.17v3.44H356.24V6.93A141.11,141.11,0,0,1,397.69,107Z"/><path class="cls-2" d="M396.83,107a140.24,140.24,0,0,1-41.21,99.47v-6H156.68v6a140.69,140.69,0,0,1,0-199v2.83H355.62V7.54A140.25,140.25,0,0,1,396.83,107Z"/><path class="cls-2" d="M396,107A139.36,139.36,0,0,1,355,205.87v-5.33H157.29v5.33a139.8,139.8,0,0,1,0-197.71v2.21H355V8.16A139.37,139.37,0,0,1,396,107Z"/><path class="cls-2" d="M395.09,107a138.51,138.51,0,0,1-40.69,98.24v-4.72H157.91v4.72a138.93,138.93,0,0,1,0-196.49v1.6H354.4V8.77A138.51,138.51,0,0,1,395.09,107Z"/><path class="cls-2" d="M394.22,107a137.64,137.64,0,0,1-40.44,97.63v-4.11H158.52v4.11a138.07,138.07,0,0,1,0-195.26v1H353.78v-1A137.6,137.6,0,0,1,394.22,107Z"/><path class="cls-2" d="M393.35,107a136.76,136.76,0,0,1-40.18,97v-3.49h-194V204a137.19,137.19,0,0,1,0-194v.37h194V10A136.77,136.77,0,0,1,393.35,107Z"/><path class="cls-2" d="M392.48,107a135.88,135.88,0,0,1-39.93,96.4v-2.88H159.75v2.88a136.34,136.34,0,0,1,0-192.81q2.31-2.31,4.73-4.51v4.27H347.82V6.1q2.42,2.21,4.73,4.51A135.9,135.9,0,0,1,392.48,107Z"/><path class="cls-2" d="M391.62,107a135,135,0,0,1-39.68,95.78v-2.26H160.36v2.26a135.47,135.47,0,0,1,0-191.57c1.54-1.53,3.1-3,4.71-4.49v3.63H347.23V6.74q2.41,2.19,4.71,4.49A135.05,135.05,0,0,1,391.62,107Z"/><path class="cls-2" d="M390.75,107a134.21,134.21,0,0,1-39.42,95.17v-1.65H161v1.65a134.6,134.6,0,0,1,0-190.35q2.28-2.28,4.67-4.46v3h181v-3q2.39,2.17,4.68,4.46A134.22,134.22,0,0,1,390.75,107Z"/><path class="cls-2" d="M389.88,107a133.33,133.33,0,0,1-39.17,94.56v-1H161.59v1a133.72,133.72,0,0,1,0-189.12q4.54-4.55,9.5-8.64v6.55H341.21V3.82q5,4.09,9.5,8.64A133.31,133.31,0,0,1,389.88,107Z"/><path class="cls-2" d="M389,107A132.45,132.45,0,0,1,350.1,201v-.42H162.21V201a132.84,132.84,0,0,1,0-187.89q4.5-4.52,9.43-8.58v5.88h169V4.49q4.92,4.06,9.44,8.58A132.45,132.45,0,0,1,389,107Z"/><path class="cls-2" d="M388.14,107a131.58,131.58,0,0,1-38.66,93.33q-2.24,2.24-4.58,4.37v-4.18H167.4v4.18q-2.34-2.13-4.58-4.37a132,132,0,0,1,0-186.67c3-3,6.11-5.83,9.37-8.52v5.21H340.11V5.16c3.26,2.69,6.39,5.54,9.37,8.52A131.58,131.58,0,0,1,388.14,107Z"/><path class="cls-2" d="M387.27,107a130.68,130.68,0,0,1-38.4,92.71c-1.48,1.49-3,2.93-4.55,4.35v-3.54H168v3.54c-1.56-1.42-3.07-2.86-4.56-4.35a131.13,131.13,0,0,1,0-185.43q4.45-4.46,9.32-8.47v4.54H339.56V5.83q4.86,4,9.31,8.47A130.71,130.71,0,0,1,387.27,107Z"/><path class="cls-2" d="M386.41,107a129.86,129.86,0,0,1-38.15,92.1q-4.42,4.42-9.25,8.41v-7H173.3v7q-4.83-4-9.25-8.41a130.26,130.26,0,0,1,0-184.21q4.41-4.41,9.25-8.41v3.87H339V6.5q4.82,4,9.25,8.41A129.86,129.86,0,0,1,386.41,107Z"/><path class="cls-2" d="M385.54,107a129,129,0,0,1-37.9,91.49q-4.39,4.38-9.19,8.35v-6.32H173.85v6.32q-4.8-4-9.19-8.35a129.4,129.4,0,0,1,0-183q4.4-4.39,9.19-8.36v3.2h164.6V7.17q4.8,4,9.19,8.36A129,129,0,0,1,385.54,107Z"/><path class="cls-2" d="M384.67,107A128.15,128.15,0,0,1,347,197.89q-4.36,4.37-9.13,8.3v-5.65H174.4v5.65c-3.17-2.62-6.22-5.39-9.12-8.3a128.5,128.5,0,0,1,0-181.75c2.9-2.91,5.95-5.68,9.12-8.29v2.52H337.9V7.85q4.75,3.92,9.13,8.29A128.16,128.16,0,0,1,384.67,107Z"/><path class="cls-2" d="M383.8,107a127.25,127.25,0,0,1-37.39,90.26c-2.88,2.89-5.91,5.63-9.06,8.24v-5H175v5q-4.72-3.92-9.06-8.24a127.65,127.65,0,0,1,0-180.53q4.34-4.32,9.06-8.23v1.85h162.4V8.52c3.15,2.6,6.18,5.35,9.06,8.23A127.27,127.27,0,0,1,383.8,107Z"/><path class="cls-2" d="M382.93,107a126.37,126.37,0,0,1-37.13,89.64q-4.31,4.31-9,8.19v-4.31H175.51v4.31q-4.69-3.89-9-8.19a126.78,126.78,0,0,1,0-179.29q4.31-4.31,9-8.18v1.18H336.8V9.19q4.69,3.87,9,8.18A126.39,126.39,0,0,1,382.93,107Z"/><path class="cls-2" d="M382.06,107a125.53,125.53,0,0,1-36.87,89q-4.28,4.27-8.95,8.13v-3.64H176.06v3.64q-4.67-3.85-8.94-8.13a125.91,125.91,0,0,1,0-178.07q4.27-4.27,8.94-8.12v.51H336.24V9.86q4.67,3.84,8.95,8.12A125.56,125.56,0,0,1,382.06,107Z"/><path class="cls-2" d="M381.2,107a124.65,124.65,0,0,1-36.63,88.42c-2.83,2.82-5.79,5.52-8.88,8.07v-3H176.61v3c-3.09-2.55-6.05-5.25-8.88-8.07a125.06,125.06,0,0,1,0-176.84c2.83-2.83,5.79-5.53,8.88-8.07,1.55-1.28,3.12-2.52,4.73-3.72v3.56H331V6.81c1.6,1.2,3.18,2.44,4.72,3.72,3.09,2.54,6.05,5.24,8.88,8.07A124.64,124.64,0,0,1,381.2,107Z"/><path class="cls-2" d="M380.33,107A123.78,123.78,0,0,1,344,194.82q-4.21,4.22-8.82,8v-2.3h-158v2.3c-3.06-2.53-6-5.21-8.81-8A124.24,124.24,0,0,1,186.72,4.05v6.32H325.58V4.05a124.27,124.27,0,0,1,54.75,103Z"/><path class="cls-2" d="M379.46,107a122.91,122.91,0,0,1-36.12,87.19q-4.18,4.18-8.75,8v-1.63H177.72v1.63q-4.58-3.78-8.76-8a123.31,123.31,0,0,1,0-174.39,124.38,124.38,0,0,1,18.25-15v5.6H325.09V4.77a124.38,124.38,0,0,1,18.25,15.05A122.93,122.93,0,0,1,379.46,107Z"/><path class="cls-2" d="M378.59,107a122,122,0,0,1-35.86,86.57q-4.16,4.16-8.7,7.91v-1H178.27v1c-3-2.5-5.93-5.14-8.7-7.91A122.49,122.49,0,0,1,187.69,5.49v4.88H324.61V5.49a122.56,122.56,0,0,1,54,101.53Z"/><path class="cls-2" d="M377.72,107a121.18,121.18,0,0,1-35.6,86c-2.75,2.75-5.64,5.37-8.64,7.85v-.29H178.82v.29q-4.5-3.72-8.63-7.85a121.62,121.62,0,0,1,18-186.77v4.16H324.12V6.21A121.59,121.59,0,0,1,377.72,107Z"/><path class="cls-2" d="M376.85,107A120.77,120.77,0,0,1,323.64,207.1v-6.56h-135v6.56a120.74,120.74,0,0,1,0-200.17v3.44h135V6.93A120.85,120.85,0,0,1,376.85,107Z"/><path class="cls-2" d="M376,107a119.91,119.91,0,0,1-52.84,99.36v-5.84h-134v5.84a119.89,119.89,0,0,1,0-198.73v2.72h134V7.65A119.91,119.91,0,0,1,376,107Z"/><path class="cls-2" d="M375.12,107a119.09,119.09,0,0,1-52.45,98.64v-5.12h-133v5.12a119,119,0,0,1,0-197.29v2h133v-2A119.09,119.09,0,0,1,375.12,107Z"/><path class="cls-2" d="M374.25,107a118.2,118.2,0,0,1-52.07,97.92v-4.4H190.12v4.4a118.14,118.14,0,0,1,0-195.85v1.28H322.18V9.09A118.2,118.2,0,0,1,374.25,107Z"/><path class="cls-2" d="M373.38,107a116.88,116.88,0,0,1-34.33,82.89,118.48,118.48,0,0,1-17.35,14.31v-3.68H190.61v3.68a117.27,117.27,0,0,1,0-194.41v.56H321.7V9.81a118.48,118.48,0,0,1,17.35,14.31A116.89,116.89,0,0,1,373.38,107Z"/><path class="cls-2" d="M372.51,107a116.41,116.41,0,0,1-51.3,96.48v-3H191.09v3a117.33,117.33,0,0,1-17.22-14.2A116.43,116.43,0,0,1,191.09,10.53q4.65-3.13,9.6-5.83v5.67H311.62V4.7q4.94,2.68,9.59,5.83A116.5,116.5,0,0,1,372.51,107Z"/><path class="cls-2" d="M371.64,107a115.53,115.53,0,0,1-50.92,95.76v-2.24H191.58v2.24a115.54,115.54,0,0,1,0-191.53q4.6-3.12,9.52-5.79v4.91H311.2V5.46q4.91,2.67,9.52,5.79a116.32,116.32,0,0,1,17.1,14.1A115.12,115.12,0,0,1,371.64,107Z"/><path class="cls-2" d="M370.78,107a114.73,114.73,0,0,1-50.54,95v-1.52H192.06v1.52a116.14,116.14,0,0,1-17-14A114.64,114.64,0,0,1,175.1,26a116.14,116.14,0,0,1,17-14c3.05-2.06,6.21-4,9.45-5.74v4.14H310.79V6.23q4.88,2.64,9.45,5.74A114.73,114.73,0,0,1,370.78,107Z"/><path class="cls-2" d="M369.91,107a113.85,113.85,0,0,1-50.16,94.32v-.8H192.55v.8a113.79,113.79,0,0,1,0-188.65q4.55-3.07,9.38-5.7v3.38H310.37V7q4.85,2.63,9.38,5.7A113.85,113.85,0,0,1,369.91,107Z"/><path class="cls-2" d="M369,107a113,113,0,0,1-49.77,93.6v-.08H193v.08A112.89,112.89,0,0,1,176.33,27.19,114,114,0,0,1,193,13.41q4.5-3,9.3-5.66v2.62H310V7.75q4.8,2.61,9.31,5.66A113.9,113.9,0,0,1,336,27.19,112.54,112.54,0,0,1,369,107Z"/><path class="cls-2" d="M368.17,107a112.06,112.06,0,0,1-49.39,92.88q-4.47,3-9.23,5.61v-5H202.76v5q-4.77-2.58-9.24-5.61a112.08,112.08,0,0,1,19-196.1v6.57h87.2V3.8A112.15,112.15,0,0,1,368.17,107Z"/><path class="cls-2" d="M367.3,107a111.23,111.23,0,0,1-49,92.16q-4.44,3-9.17,5.57v-4.21h-106v4.21q-4.72-2.56-9.16-5.57A111.21,111.21,0,0,1,212.89,4.6v5.77h86.53V4.6A111.26,111.26,0,0,1,367.3,107Z"/><path class="cls-2" d="M366.43,107a110.35,110.35,0,0,1-48.62,91.44c-2.93,2-6,3.83-9.09,5.53v-3.45H203.58V204q-4.68-2.55-9.09-5.53A110.34,110.34,0,0,1,213.22,5.4v5h85.86v-5A110.39,110.39,0,0,1,366.43,107Z"/><path class="cls-2" d="M365.57,107a109.55,109.55,0,0,1-48.24,90.72q-4.36,3-9,5.48v-2.68H204v2.68q-4.65-2.52-9-5.48A109.47,109.47,0,0,1,213.56,6.2v4.17h85.18V6.2A109.55,109.55,0,0,1,365.57,107Z"/><path class="cls-2" d="M364.7,107a108.68,108.68,0,0,1-66.3,100v-6.49H213.9V207a108.61,108.61,0,0,1,0-200v3.37h84.5V7a108.68,108.68,0,0,1,66.3,100Z"/><path class="cls-2" d="M363.83,107a107.81,107.81,0,0,1-65.77,99.21v-5.69H214.24v5.69a107.74,107.74,0,0,1,0-198.43v2.57h83.82V7.8A107.81,107.81,0,0,1,363.83,107Z"/><path class="cls-2" d="M363,107a106.92,106.92,0,0,1-65.23,98.41v-4.89H214.58v4.89a106.87,106.87,0,0,1,0-196.83v1.77h83.15V8.6A106.92,106.92,0,0,1,363,107Z"/><path class="cls-2" d="M362.09,107a106.05,106.05,0,0,1-64.7,97.61v-4.09H214.91v4.09a106,106,0,0,1,0-195.23v1h82.48v-1A106.05,106.05,0,0,1,362.09,107Z"/><path class="cls-2" d="M361.22,107a105.19,105.19,0,0,1-64.17,96.81v-3.29h-81.8v3.29a105.13,105.13,0,0,1,0-193.63v.17h81.8V10.2A105.19,105.19,0,0,1,361.22,107Z"/><path class="cls-2" d="M360.36,107a104.34,104.34,0,0,1-63.65,96v-2.49H215.59V203A104.21,104.21,0,0,1,235.15,4.93v5.44h42V4.93A103.07,103.07,0,0,1,296.71,11a104.34,104.34,0,0,1,63.65,96Z"/><path class="cls-2" d="M359.49,107a103.47,103.47,0,0,1-63.12,95.21v-1.69H215.93v1.69A103.35,103.35,0,1,1,359.49,107Z"/><path class="cls-2" d="M358.62,107A102.58,102.58,0,0,1,296,201.43v-.89H216.27v.89A102.48,102.48,0,1,1,358.62,107Z"/><path class="cls-2" d="M357.75,107a101.71,101.71,0,0,1-62.05,93.61v-.09H216.6v.09A101.61,101.61,0,1,1,357.75,107Z"/><path class="cls-2" d="M356.88,107a100.68,100.68,0,0,1-80.43,98.68v-5.16h-40.6v5.16a99.79,99.79,0,0,1-18.91-5.87A100.74,100.74,0,1,1,356.88,107Z"/><circle class="cls-2" cx="256.15" cy="107.02" r="99.86"/><circle class="cls-2" cx="256.15" cy="107.02" r="98.99"/><circle class="cls-2" cx="256.15" cy="107.02" r="98.13"/><circle class="cls-2" cx="256.15" cy="107.02" r="97.26"/><circle class="cls-2" cx="256.15" cy="107.02" r="96.39"/><circle class="cls-2" cx="256.15" cy="107.02" r="95.52"/><circle class="cls-2" cx="256.15" cy="107.02" r="94.65"/><circle class="cls-2" cx="256.15" cy="107.02" r="93.78"/><circle class="cls-2" cx="256.15" cy="107.02" r="92.91"/><circle class="cls-2" cx="256.15" cy="107.02" r="92.05"/><circle class="cls-2" cx="256.15" cy="107.02" r="91.18"/><circle class="cls-2" cx="256.15" cy="107.02" r="90.31"/><circle class="cls-2" cx="256.15" cy="107.02" r="89.44"/><circle class="cls-2" cx="256.15" cy="107.02" r="88.57"/><circle class="cls-2" cx="256.15" cy="107.02" r="87.7"/><circle class="cls-2" cx="256.15" cy="107.02" r="86.84"/><circle class="cls-2" cx="256.15" cy="107.02" r="85.97"/><circle class="cls-2" cx="256.15" cy="107.02" r="85.1"/><circle class="cls-2" cx="256.15" cy="107.02" r="84.23"/><circle class="cls-2" cx="256.15" cy="107.02" r="83.36"/><circle class="cls-2" cx="256.15" cy="107.02" r="82.49"/><circle class="cls-2" cx="256.15" cy="107.02" r="81.63"/><circle class="cls-2" cx="256.15" cy="107.02" r="80.76"/><circle class="cls-2" cx="256.15" cy="107.02" r="79.89"/><circle class="cls-2" cx="256.15" cy="107.02" r="79.02"/><circle class="cls-2" cx="256.15" cy="107.02" r="78.15"/><circle class="cls-2" cx="256.15" cy="107.02" r="77.28"/><circle class="cls-2" cx="256.15" cy="107.02" r="76.42"/><circle class="cls-2" cx="256.15" cy="107.02" r="75.55"/><circle class="cls-2" cx="256.15" cy="107.02" r="74.68"/><circle class="cls-2" cx="256.15" cy="107.02" r="73.81"/><circle class="cls-2" cx="256.15" cy="107.02" r="72.94"/><circle class="cls-2" cx="256.15" cy="107.02" r="72.07"/><circle class="cls-2" cx="256.15" cy="107.02" r="71.21"/><circle class="cls-2" cx="256.15" cy="107.02" r="70.34"/><circle class="cls-2" cx="256.15" cy="107.02" r="69.47"/><circle class="cls-2" cx="256.15" cy="107.02" r="68.6"/><circle class="cls-2" cx="256.15" cy="107.02" r="67.73"/><circle class="cls-2" cx="256.15" cy="107.02" r="66.86"/><circle class="cls-2" cx="256.15" cy="107.02" r="66"/><circle class="cls-2" cx="256.15" cy="107.02" r="65.13"/><circle class="cls-2" cx="256.15" cy="107.02" r="64.26"/><circle class="cls-2" cx="256.15" cy="107.02" r="63.39"/><circle class="cls-2" cx="256.15" cy="107.02" r="62.52"/><circle class="cls-2" cx="256.15" cy="107.02" r="61.65"/><circle class="cls-2" cx="256.15" cy="107.02" r="60.79"/><circle class="cls-2" cx="256.15" cy="107.02" r="59.92"/><circle class="cls-2" cx="256.15" cy="107.02" r="59.05"/><circle class="cls-2" cx="256.15" cy="107.02" r="58.18"/><circle class="cls-2" cx="256.15" cy="107.02" r="57.31"/><circle class="cls-2" cx="256.15" cy="107.02" r="56.44"/><circle class="cls-2" cx="256.15" cy="107.02" r="55.58"/><circle class="cls-2" cx="256.15" cy="107.02" r="54.71"/><circle class="cls-2" cx="256.15" cy="107.02" r="53.84"/><circle class="cls-2" cx="256.15" cy="107.02" r="52.97"/><circle class="cls-2" cx="256.15" cy="107.02" r="52.1"/><circle class="cls-2" cx="256.15" cy="107.02" r="51.23"/><circle class="cls-2" cx="256.15" cy="107.02" r="50.37"/><circle class="cls-2" cx="256.15" cy="107.02" r="49.5"/><circle class="cls-2" cx="256.15" cy="107.02" r="48.63"/><circle class="cls-2" cx="256.15" cy="107.02" r="47.76"/><circle class="cls-2" cx="256.15" cy="107.02" r="46.89"/><circle class="cls-2" cx="256.15" cy="107.02" r="46.02"/><circle class="cls-2" cx="256.15" cy="107.02" r="45.15"/><circle class="cls-2" cx="256.15" cy="107.02" r="44.29"/><circle class="cls-2" cx="256.15" cy="107.02" r="43.42"/><circle class="cls-2" cx="256.15" cy="107.02" r="42.55"/><circle class="cls-2" cx="256.15" cy="107.02" r="41.68"/><circle class="cls-2" cx="256.15" cy="107.02" r="40.81"/><circle class="cls-2" cx="256.15" cy="107.02" r="39.94"/><circle class="cls-2" cx="256.15" cy="107.02" r="39.08"/><circle class="cls-2" cx="256.15" cy="107.02" r="38.21"/><circle class="cls-2" cx="256.15" cy="107.02" r="37.34"/><circle class="cls-2" cx="256.15" cy="107.02" r="36.47"/><circle class="cls-2" cx="256.15" cy="107.02" r="35.6"/><circle class="cls-2" cx="256.15" cy="107.02" r="34.73"/><circle class="cls-2" cx="256.15" cy="107.02" r="33.87"/><circle class="cls-2" cx="256.15" cy="107.02" r="33"/><circle class="cls-2" cx="256.15" cy="107.02" r="32.13"/><circle class="cls-2" cx="256.15" cy="107.02" r="31.26"/><circle class="cls-2" cx="256.15" cy="107.02" r="30.39"/><circle class="cls-2" cx="256.15" cy="107.02" r="29.52"/><circle class="cls-2" cx="256.15" cy="107.02" r="28.66"/><circle class="cls-2" cx="256.15" cy="107.02" r="27.79"/><circle class="cls-2" cx="256.15" cy="107.02" r="26.92"/><circle class="cls-2" cx="256.15" cy="107.02" r="26.05"/><circle class="cls-2" cx="256.15" cy="107.02" r="25.18"/><circle class="cls-2" cx="256.15" cy="107.02" r="24.31"/><circle class="cls-2" cx="256.15" cy="107.02" r="23.45"/><circle class="cls-2" cx="256.15" cy="107.02" r="22.58"/><circle class="cls-2" cx="256.15" cy="107.02" r="21.71"/><circle class="cls-2" cx="256.15" cy="107.02" r="20.84"/><circle class="cls-2" cx="256.15" cy="107.02" r="19.97"/><circle class="cls-2" cx="256.15" cy="107.02" r="19.1"/><circle class="cls-2" cx="256.15" cy="107.02" r="18.24"/><circle class="cls-2" cx="256.15" cy="107.02" r="17.37"/><circle class="cls-2" cx="256.15" cy="107.02" r="16.5"/><circle class="cls-2" cx="256.15" cy="107.02" r="15.63"/><circle class="cls-2" cx="256.15" cy="107.02" r="14.76"/><circle class="cls-2" cx="256.15" cy="107.02" r="13.89"/><circle class="cls-2" cx="256.15" cy="107.02" r="13.03"/><circle class="cls-2" cx="256.15" cy="107.02" r="12.16"/><circle class="cls-2" cx="256.15" cy="107.02" r="11.29"/><circle class="cls-2" cx="256.15" cy="107.02" r="10.42"/><circle class="cls-2" cx="256.15" cy="107.02" r="9.55"/><circle class="cls-2" cx="256.15" cy="107.02" r="8.68"/><circle class="cls-2" cx="256.15" cy="107.02" r="7.82"/><circle class="cls-2" cx="256.15" cy="107.02" r="6.95"/><circle class="cls-2" cx="256.15" cy="107.02" r="6.08"/><circle class="cls-2" cx="256.15" cy="107.02" r="5.21"/><circle class="cls-2" cx="256.15" cy="107.02" r="4.34"/><circle class="cls-2" cx="256.15" cy="107.02" r="3.47"/><circle class="cls-2" cx="256.15" cy="107.02" r="2.61"/><circle class="cls-2" cx="256.15" cy="107.02" r="1.74"/><circle class="cls-2" cx="256.15" cy="107.02" r="0.87"/></g><path class="cls-5" d="M38.58,53.5c-.07-4.31,7.65-9.78,9.39-11l.26-.18A53.07,53.07,0,0,1,60,36.59a33.67,33.67,0,0,1,4.81-1.5c1.46-.28,5.44-.88,7.65-1.43a4.6,4.6,0,0,0,1.15-.4c1-.53,1.51-1.45,5.8-4a91.46,91.46,0,0,1,9.25-4.6c6.91-3,25-9.07,35.84-10.93,24.8-4.28,68.7,3.59,93.18,6.72,25.38,3.25,66.75,8.27,114.62,0C348.92,17.59,373,12,403.73,18.9a142,142,0,0,1,26.83,9c9,.62,15.56.91,20.55,1.07,2.26.08,11,.34,12.7,4.07a9.13,9.13,0,0,0,.89,1.74,9.85,9.85,0,0,0,4.84,3.62s0,.13,0,.25c.28,1.8-2.06,6.18-13.78,11.9-9.37,4.57-16.92,6.18-22.33,7.52-13.78,3.42-18.72,6.34-29.27,9.86,0,0-54.94,18.31-160.14,18.26h0C146.46,83.87,38.84,69.51,38.58,53.5Z"/><path class="cls-6" d="M53.81,59.13a21.63,21.63,0,0,1,.59,2.5,9,9,0,0,1-.91,4.51c-2,4.37-3.44,23.25-1,41.7,1.3,9.91,2.51,10.45,3,10.52,1.9.27,5.13-5.19,5.07-10.66-.05-4.37-2.17-5.7-4-10.38-3.06-7.82-1.62-15.45,0-24,.63-3.31.95-3.69,3.41-14.82,1.84-8.33,2-9.47,1.39-9.78C59.77,47.9,53.49,53.47,53.81,59.13Z"/><path class="cls-7" d="M33.77,55c-.07-4.31,7.65-9.78,9.39-11l.26-.17C47,41.43,53.16,37.3,60,36.59a59.15,59.15,0,0,0,7.65-1.43,4.74,4.74,0,0,0,1.15-.4c1-.54,1.51-1.45,5.8-4a90,90,0,0,1,9.25-4.61c6.91-3,25-9.06,35.84-10.93,24.8-4.28,68.7,3.6,93.18,6.73,25.38,3.25,66.75,8.26,114.62,0,16.6-2.86,40.66-8.49,71.41-1.55a141.26,141.26,0,0,1,26.83,9c9,.61,15.56.91,20.55,1.07,2.26.07,11,.33,12.7,4.06a9.43,9.43,0,0,0,.89,1.75,9.85,9.85,0,0,0,4.84,3.62s0,.13,0,.24c.28,1.8-2.06,6.19-13.78,11.9-9.37,4.57-16.92,6.19-22.33,7.53C414.89,63,410,65.88,399.4,69.4c0,0-54.94,18.32-160.14,18.27h0C141.65,85.37,34,71,33.77,55Z"/><path class="cls-7" d="M51.78,56.54A19.87,19.87,0,0,1,52.37,59a9,9,0,0,1-.91,4.52c-2,4.36-3.44,23.25-1,41.7,1.3,9.91,2.51,10.45,3,10.52,1.89.26,5.12-5.19,5.06-10.66,0-4.37-2.17-5.71-4-10.39-3.06-7.81-1.61-15.44,0-24,.63-3.3,1-3.69,3.41-14.81,1.84-8.33,2-9.47,1.39-9.78C57.75,45.31,51.46,50.88,51.78,56.54Z"/><path class="cls-5" d="M462.2,35.15c1.85.58,3.75,1.92,5.48,4.77,7.11,11.77-2,27.42,3.38,43.45.45,1.33,1.92,4.14.74,5.63-1.36,1.69-5.89,1.4-8.05-.9-1.26-1.35-1.54-3.21-.07-13.22,1.25-8.57,1.85-10,2-14.5.19-5.06.29-7.59-.73-10.6-2.84-8.37-11-11-9.82-13.48C455.94,34.62,459.62,34.34,462.2,35.15Z"/><path class="cls-7" d="M460.3,35.35c1.85.58,3.75,1.92,5.48,4.77,7.11,11.77-2,27.42,3.38,43.45.44,1.33,1.92,4.14.74,5.63-1.36,1.69-5.89,1.4-8-.9-1.27-1.35-1.54-3.21-.07-13.22,1.25-8.57,1.85-10,2-14.5.19-5.06.29-7.59-.73-10.6-2.84-8.37-11-11-9.82-13.48C454,34.82,457.72,34.54,460.3,35.35Z"/><path class="cls-8" d="M97.49,30.15c56.13-19.8,95.4,3.35,173.44-7.38,23.13-3.18,41.1-8.16,71.53-6.32,21.72,1.31,36.46,5.29,49.58,8.92,24.49,6.77,41.4,11.44,44.9,22.16,3.33,10.2-6.39,23.07-14.17,23.19-9.27.13-11-17.88-23.62-19.5-11.81-1.51-15.33,13.61-33.07,18.43C345,75.37,335,58.12,292.54,56.29c-18.46-.79-29.33,1.93-37.13,5.47-9.3,4.22-8.13,6.83-14.18,8.43C224.84,74.52,214,55.9,179.15,48.78c-9.67-2-27.08-5.52-37.79,1.39-5,3.21-6.15,7.16-11.48,7.9-7,1-9.73-6.23-20.92-9.48-18-5.23-31.91-2.66-33.06-5.8C74.86,40,85,34.56,97.49,30.15Z"/><path class="cls-9" d="M94.61,27.32C150.74,7.53,190,30.67,268,19.94c23.13-3.18,41.11-8.16,71.54-6.32,21.71,1.31,36.46,5.29,49.57,8.92,24.5,6.77,41.4,11.45,44.9,22.17,3.33,10.19-6.38,23.07-14.17,23.18-9.27.14-11-17.88-23.62-19.49-11.8-1.51-15.32,13.6-33.06,18.42-21.06,5.72-31.11-11.53-73.55-13.35-18.45-.79-29.32,1.92-37.13,5.46-9.29,4.22-8.12,6.84-14.17,8.43C222,71.7,211.12,53.07,176.27,46c-9.68-2-27.09-5.53-37.8,1.38-5,3.21-6.15,7.16-11.47,7.91-7,1-9.74-6.24-20.92-9.49C88.09,40.53,74.16,43.1,73,40,72,37.14,82.09,31.73,94.61,27.32Z"/><path class="cls-10" d="M120.83,37c-10.94-9.68-27.39-7-27.39-7.28s36.5-5.67,123.59-2c115.22,4.91,106,16.45,138.69,8.45,8.44-2.06,52.22-13.4,74.26.79.94.61,8,5.23,7.07,8.56-1.2,4.37-14.66.9-28.39,9-3.8,2.23-8.32,4.91-11.37,10.11-8.39,14.34,3.7,32-3.89,37.42a6.13,6.13,0,0,1-5.34,1c-6.26-2.27-1.2-17.49-6.23-29.45C375,57.27,351.71,52.74,324.66,47.47c-22.83-4.45-34.25-6.67-43.77,0-15.5,10.86-13.82,36.38-20.13,36.12-3.33-.13-6.31-7.34-10.93-18.48-2.14-5.18-3.15-8.6-3.59-9.79-7.43-20.41-80.75-33.74-95.23-9.26-1.52,2.56-1.67,7.59-2,17.61-.93,27.57,3.91,43.13-4.2,52.17-.82.9-3.51,3.89-6,3.3s-3.85-4.81-4.66-9.23c-2.16-11.72.06-17.72.33-28.74a75.71,75.71,0,0,0-3.92-27.35C128.5,48,126.25,41.74,120.83,37Z"/><path class="cls-11" d="M117.83,36.14c-10.94-9.68-27.39-7-27.39-7.28s36.5-5.67,123.59-1.95c115.22,4.91,106,16.45,138.68,8.45,8.45-2.07,52.23-13.4,74.27.79.94.61,8,5.23,7.07,8.56-1.21,4.37-14.66.9-28.4,9-3.79,2.23-8.31,4.9-11.36,10.11-8.39,14.33,3.7,32-3.89,37.41a6.1,6.1,0,0,1-5.34,1c-6.26-2.27-1.2-17.49-6.23-29.45C372,56.46,348.71,51.93,321.66,46.66c-22.83-4.45-34.25-6.68-43.77,0C262.39,57.52,264.06,83,257.76,82.78c-3.33-.13-6.32-7.34-10.93-18.48-2.14-5.18-3.15-8.6-3.59-9.8-7.43-20.4-80.76-33.73-95.23-9.26-1.52,2.57-1.67,7.6-2,17.62-.93,27.57,3.91,43.13-4.21,52.16-.81.91-3.5,3.9-6,3.31s-3.85-4.81-4.66-9.23c-2.16-11.72.05-17.72.33-28.74A75.71,75.71,0,0,0,127.54,53C125.5,47.16,123.24,40.93,117.83,36.14Z"/><path class="cls-7" d="M71.66,38.55c3.22,0,3.22-5,0-5s-3.22,5,0,5Z"/><path class="cls-7" d="M69.14,40.6c3.22,0,3.23-5,0-5s-3.22,5,0,5Z"/><path class="cls-7" d="M67.37,40.7c3.22,0,3.22-5,0-5s-3.22,5,0,5Z"/><path class="cls-7" d="M65.79,40.88c3.21,0,3.22-5,0-5s-3.23,5,0,5Z"/><path class="cls-7" d="M64.3,41.44c3.21,0,3.22-5,0-5s-3.23,5,0,5Z"/><path class="cls-7" d="M65,36.25l-.68,0A2.83,2.83,0,0,0,62.5,37a1.83,1.83,0,0,0-.51.8,1.88,1.88,0,0,0-.22,1l.09.67a2.5,2.5,0,0,0,.64,1.1l.51.39a2.43,2.43,0,0,0,1.26.34l1.52,0a1.88,1.88,0,0,0,1-.22,2.16,2.16,0,0,0,1.32-1.32,1.88,1.88,0,0,0,.22-1l-.09-.67a2.6,2.6,0,0,0-.64-1.1l-.51-.39a2.43,2.43,0,0,0-1.26-.34l-1.52,0v5l.68,0a1.88,1.88,0,0,0,1-.22,2.16,2.16,0,0,0,1.32-1.32,1.88,1.88,0,0,0,.22-1l-.09-.67a2.5,2.5,0,0,0-.64-1.1l-.51-.39A2.43,2.43,0,0,0,65,36.25Z"/></svg>
