<svg id="Layer_1" data-name="Layer 1" xmlns="http://www.w3.org/2000/svg" xmlns:xlink="http://www.w3.org/1999/xlink" width="360" height="90" viewBox="0 0 360 90"><defs><style>.cls-1{fill:#213260;}.cls-2{fill:#223b7d;}.cls-3{clip-path:url(#clip-path);}.cls-4{clip-path:url(#clip-path-2);}.cls-5{fill:#8e1d13;}.cls-6{fill:#8c1c13;}.cls-7{fill:#a12816;}.cls-8{fill:#b76916;}.cls-9{fill:#d8810d;}.cls-10{fill:#cc890c;}.cls-11{fill:#e59e02;}.cls-12,.cls-13{stroke:#263677;stroke-miterlimit:10;stroke-width:2px;}.cls-12{fill:url(#linear-gradient);}.cls-13{fill:url(#linear-gradient-2);}</style><clipPath id="clip-path"><path class="cls-1" d="M11.05,30.84c-1.54,2.71-1.34,6.54-.94,14.2.25,4.86.52,10.11,2.61,16.38.85,2.52,3.71,11.83,10,17,9.63,8,20.86,3.94,54,2.57,10.79-.44,18.6-.39,27.34-.32,47.07.35,58.84.64,58.84.64a84.09,84.09,0,0,0,28.62-5.46,17,17,0,0,0,4.87-2.67c2.82-2.27,6.2-6.59,7.46-19.2,1.4-14.15,2.13-21.49-2.54-27.14-8.39-10.16-27.75-7-27.8-6.62s14.71.78,15.12,4.18c.34,2.86-10.26,6.35-14,7.55-21.48,6.94-38.48,6-64.16,6.27C83,38.53,70.31,39.89,46.17,37c-6.71-.81-24.09-2.51-24.44-6.75-.14-1.67,2.35-3.38,3.73-4.34,5.19-3.59,11-3.21,11.06-3.06S16.58,21.08,11.05,30.84Z"/></clipPath><clipPath id="clip-path-2"><path class="cls-2" d="M7.58,30.72C6,33.43,6.24,37.26,6.64,44.92A57.56,57.56,0,0,0,9.26,61.3c.84,2.52,3.7,11.83,10,17,9.63,8,20.85,3.94,54,2.57,10.79-.44,18.6-.39,27.33-.32,47.08.35,58.84.64,58.84.64A84.06,84.06,0,0,0,188,75.77a16.83,16.83,0,0,0,4.87-2.68c2.83-2.26,6.21-6.58,7.46-19.2,1.4-14.14,2.13-21.48-2.54-27.13-8.39-10.16-27.75-7-27.79-6.62s14.7.78,15.11,4.18c.35,2.86-10.26,6.35-14,7.55-21.47,6.94-38.48,6-64.16,6.27-27.53.27-40.16,1.63-64.31-1.28-6.7-.81-24.09-2.51-24.44-6.76-.14-1.66,2.35-3.37,3.74-4.33,5.19-3.59,11-3.21,11-3.06S13.11,21,7.58,30.72Z"/></clipPath><linearGradient id="linear-gradient" x1="216.69" y1="48.9" x2="273.71" y2="48.9" gradientUnits="userSpaceOnUse"><stop offset="0" stop-color="#240533" stop-opacity="0.98"/><stop offset="0.12" stop-color="#52043f" stop-opacity="0.91"/><stop offset="0.27" stop-color="#81044c" stop-opacity="0.83"/><stop offset="0.42" stop-color="#a60456" stop-opacity="0.77"/><stop offset="0.59" stop-color="#c0035d" stop-opacity="0.73"/><stop offset="0.77" stop-color="#d00361" stop-opacity="0.71"/><stop offset="1" stop-color="#d50362" stop-opacity="0.7"/></linearGradient><linearGradient id="linear-gradient-2" x1="299.23" y1="40.23" x2="353.31" y2="40.23" xlink:href="#linear-gradient"/></defs><path class="cls-1" d="M11.05,30.84c-1.54,2.71-1.34,6.54-.94,14.2.25,4.86.52,10.11,2.61,16.38.85,2.52,3.71,11.83,10,17,9.63,8,20.86,3.94,54,2.57,10.79-.44,18.6-.39,27.34-.32,47.07.35,58.84.64,58.84.64a84.09,84.09,0,0,0,28.62-5.46,17,17,0,0,0,4.87-2.67c2.82-2.27,6.2-6.59,7.46-19.2,1.4-14.15,2.13-21.49-2.54-27.14-8.39-10.16-27.75-7-27.8-6.62s14.71.78,15.12,4.18c.34,2.86-10.26,6.35-14,7.55-21.48,6.94-38.48,6-64.16,6.27C83,38.53,70.31,39.89,46.17,37c-6.71-.81-24.09-2.51-24.44-6.75-.14-1.67,2.35-3.38,3.73-4.34,5.19-3.59,11-3.21,11.06-3.06S16.58,21.08,11.05,30.84Z"/><g class="cls-3"><rect class="cls-1" x="0.58" y="13.25" width="212.03" height="73.21"/><path class="cls-1" d="M193.6,50.46A85.89,85.89,0,0,1,186.83,84c-.55,1.29-1.12,2.56-1.73,3.82v-1H29.78v1c-.6-1.26-1.18-2.53-1.72-3.82a86.44,86.44,0,0,1,0-67.07c.54-1.29,1.12-2.56,1.72-3.82.3-.63.61-1.25.93-1.87v1.62H184.17V11.24c.32.62.63,1.24.93,1.87.61,1.26,1.18,2.53,1.73,3.82A85.84,85.84,0,0,1,193.6,50.46Z"/><path class="cls-1" d="M193.26,50.46a85.63,85.63,0,0,1-6.74,33.41c-.55,1.28-1.12,2.55-1.72,3.8v-.82H30.09v.82c-.61-1.25-1.18-2.52-1.72-3.8a86,86,0,0,1,0-66.81c.54-1.28,1.11-2.55,1.72-3.8.3-.63.61-1.25.92-1.87v1.47H183.87V11.39c.32.62.63,1.24.93,1.87.6,1.25,1.17,2.52,1.72,3.8A85.58,85.58,0,0,1,193.26,50.46Z"/><path class="cls-1" d="M192.92,50.46a85.33,85.33,0,0,1-6.71,33.28c-.54,1.27-1.12,2.54-1.72,3.78v-.67H30.39v.67c-.6-1.24-1.17-2.51-1.71-3.78a85.74,85.74,0,0,1,0-66.55c.54-1.28,1.11-2.54,1.71-3.79.3-.62.61-1.24.92-1.85v1.31H183.57V11.55c.32.61.62,1.23.92,1.85.6,1.25,1.18,2.51,1.72,3.79A85.31,85.31,0,0,1,192.92,50.46Z"/><path class="cls-1" d="M192.59,50.46A85,85,0,0,1,185.9,83.6q-.81,1.92-1.71,3.78v-.53H30.7v.53Q29.8,85.52,29,83.6a85.43,85.43,0,0,1,0-66.28c.54-1.27,1.11-2.53,1.71-3.77.3-.62.6-1.24.91-1.85v1.16H183.27V11.7c.31.61.62,1.23.92,1.85.6,1.24,1.17,2.5,1.71,3.77A85.05,85.05,0,0,1,192.59,50.46Z"/><path class="cls-1" d="M192.25,50.46a84.36,84.36,0,0,1-6.67,33c-.53,1.27-1.1,2.52-1.69,3.76v-.38H31v.38c-.59-1.24-1.16-2.49-1.7-3.76a85.14,85.14,0,0,1,0-66c.54-1.26,1.11-2.52,1.7-3.75.3-.62.6-1.23.92-1.84v1H183v-1c.31.61.62,1.22.92,1.84.59,1.23,1.16,2.49,1.69,3.75A84.4,84.4,0,0,1,192.25,50.46Z"/><path class="cls-1" d="M191.91,50.46a84.06,84.06,0,0,1-6.64,32.88c-.53,1.27-1.1,2.51-1.69,3.74v-.23H31.31v.23c-.6-1.23-1.16-2.47-1.7-3.74a84.85,84.85,0,0,1,0-65.76c1.07-2.52,2.26-5,3.56-7.38v2.66H181.72V10.2c1.3,2.39,2.48,4.86,3.55,7.38A84.13,84.13,0,0,1,191.91,50.46Z"/><path class="cls-1" d="M191.57,50.46A83.79,83.79,0,0,1,185,83.21c-.53,1.26-1.09,2.5-1.68,3.73v-.09H31.61v.09c-.59-1.23-1.15-2.47-1.68-3.73a84.29,84.29,0,0,1,0-65.49,81.6,81.6,0,0,1,3.54-7.36v2.5h148v-2.5c1.29,2.39,2.48,4.84,3.54,7.36A83.78,83.78,0,0,1,191.57,50.46Z"/><path class="cls-1" d="M191.23,50.46a83.57,83.57,0,0,1-6.58,32.62c-.53,1.25-1.09,2.49-1.68,3.71-.29.61-.59,1.22-.9,1.82V86.85H32.82v1.76c-.31-.6-.61-1.21-.91-1.82-.58-1.22-1.14-2.46-1.67-3.71a84,84,0,0,1,0-65.23q1.59-3.77,3.52-7.33v2.34H181.12V10.52q1.94,3.57,3.53,7.33A83.48,83.48,0,0,1,191.23,50.46Z"/><path class="cls-1" d="M190.9,50.46A83.27,83.27,0,0,1,184.34,83c-.53,1.25-1.09,2.48-1.67,3.69l-.9,1.82V86.85H33.12v1.61c-.31-.6-.61-1.21-.9-1.82-.59-1.21-1.14-2.44-1.67-3.69a83.71,83.71,0,0,1,0-65c1.05-2.5,2.23-4.93,3.51-7.3v2.18H180.82V10.68q1.94,3.56,3.52,7.3A83.22,83.22,0,0,1,190.9,50.46Z"/><path class="cls-1" d="M190.56,50.46A83,83,0,0,1,184,82.82c-.53,1.24-1.08,2.47-1.67,3.68-.29.6-.59,1.2-.89,1.8V86.85h-148V88.3c-.31-.6-.6-1.2-.9-1.8-.58-1.21-1.14-2.44-1.66-3.68a83.42,83.42,0,0,1,0-64.71c1.05-2.48,2.22-4.91,3.5-7.26v2H180.53v-2c1.28,2.35,2.45,4.78,3.5,7.26A83,83,0,0,1,190.56,50.46Z"/><path class="cls-1" d="M190.22,50.46a82.65,82.65,0,0,1-6.5,32.22c-.53,1.24-1.08,2.46-1.66,3.67-.29.6-.59,1.2-.89,1.8v-1.3H33.72v1.3c-.3-.6-.6-1.2-.89-1.8-.58-1.21-1.14-2.43-1.66-3.67a83.11,83.11,0,0,1,0-64.44c1-2.47,2.21-4.89,3.49-7.23v1.85H180.23V11c1.27,2.34,2.44,4.76,3.49,7.23A82.69,82.69,0,0,1,190.22,50.46Z"/><path class="cls-1" d="M189.88,50.46a82,82,0,0,1-6.48,32.09c-.52,1.24-1.07,2.45-1.65,3.65-.29.61-.58,1.2-.89,1.79V86.85H34V88c-.3-.59-.6-1.18-.89-1.79-.58-1.2-1.13-2.41-1.65-3.65a82.7,82.7,0,0,1,0-64.18c1-2.46,2.2-4.87,3.47-7.2v1.69h145V11.17c1.27,2.33,2.43,4.74,3.47,7.2A82.07,82.07,0,0,1,189.88,50.46Z"/><path class="cls-1" d="M189.55,50.46a81.74,81.74,0,0,1-6.46,32c-.52,1.23-1.06,2.44-1.64,3.64-.29.6-.58,1.19-.89,1.78v-1H34.32v1c-.3-.59-.59-1.18-.88-1.78-.58-1.2-1.13-2.41-1.65-3.64a82.38,82.38,0,0,1,0-63.91c1-2.46,2.2-4.85,3.46-7.18v1.53H179.64V11.33q1.89,3.49,3.45,7.18A81.73,81.73,0,0,1,189.55,50.46Z"/><path class="cls-1" d="M189.21,50.46a81.47,81.47,0,0,1-6.43,31.83q-1.54,3.67-3.44,7.15V86.85H35.55v2.59Q33.66,86,32.1,82.29a82.09,82.09,0,0,1,0-63.65q1.56-3.67,3.45-7.15v1.37H179.34V11.49q1.89,3.48,3.44,7.15A81.42,81.42,0,0,1,189.21,50.46Z"/><path class="cls-1" d="M188.87,50.46a81.17,81.17,0,0,1-6.4,31.7c-1,2.43-2.17,4.81-3.43,7.12V86.85H35.84v2.43c-1.25-2.31-2.39-4.69-3.42-7.12a81.68,81.68,0,0,1,0-63.39q1.55-3.66,3.42-7.12v1.21H179V11.65a79,79,0,0,1,3.43,7.12A81.16,81.16,0,0,1,188.87,50.46Z"/><path class="cls-1" d="M188.53,50.46A80.9,80.9,0,0,1,182.16,82c-1,2.42-2.17,4.79-3.42,7.08V86.85H36.14v2.26A78.13,78.13,0,0,1,32.73,82a81.27,81.27,0,0,1,0-63.13,78.31,78.31,0,0,1,3.41-7.09v1h142.6v-1q1.88,3.45,3.42,7.09A80.89,80.89,0,0,1,188.53,50.46Z"/><path class="cls-1" d="M188.19,50.46a80.68,80.68,0,0,1-6.34,31.44c-1,2.41-2.16,4.77-3.4,7v-2.1h-142V89c-1.24-2.28-2.38-4.64-3.4-7A81,81,0,0,1,33,19c1-2.41,2.16-4.77,3.4-7.06v.89h142V12c1.24,2.29,2.38,4.65,3.4,7.06A80.59,80.59,0,0,1,188.19,50.46Z"/><path class="cls-1" d="M187.86,50.46a80.11,80.11,0,0,1-6.32,31.3q-1.53,3.61-3.39,7V86.85H36.74v1.94q-1.86-3.42-3.39-7a80.67,80.67,0,0,1,0-62.6c1-2.4,2.15-4.75,3.39-7v.73H178.15v-.73c1.24,2.28,2.37,4.63,3.39,7A80.15,80.15,0,0,1,187.86,50.46Z"/><path class="cls-1" d="M187.52,50.46a79.85,79.85,0,0,1-6.29,31.17c-1,2.4-2.14,4.73-3.38,7V86.85H37v1.78c-1.23-2.27-2.36-4.6-3.37-7a80.38,80.38,0,0,1,0-62.34c1-2.39,2.14-4.73,3.37-7v.57H177.85v-.57c1.24,2.27,2.36,4.61,3.38,7A79.89,79.89,0,0,1,187.52,50.46Z"/><path class="cls-1" d="M187.18,50.46a79.41,79.41,0,0,1-6.27,31c-1,2.39-2.13,4.71-3.35,7V86.85H37.33v1.62q-1.84-3.39-3.36-7a80.06,80.06,0,0,1,0-62.07q1.52-3.59,3.36-7v.4H177.56v-.4c1.22,2.26,2.35,4.58,3.35,7A79.36,79.36,0,0,1,187.18,50.46Z"/><path class="cls-1" d="M186.84,50.46a79.11,79.11,0,0,1-6.24,30.91c-1,2.37-2.12,4.69-3.34,6.94V86.85H37.63v1.46c-1.23-2.25-2.34-4.57-3.35-6.94a79.65,79.65,0,0,1,0-61.81c1-2.38,2.12-4.69,3.35-6.94v.24H177.26v-.24c1.22,2.25,2.34,4.56,3.34,6.94A79.1,79.1,0,0,1,186.84,50.46Z"/><path class="cls-1" d="M186.5,50.46a78.84,78.84,0,0,1-6.21,30.78c-1,2.36-2.11,4.67-3.33,6.91v-1.3h-139v1.3c-1.21-2.24-2.33-4.55-3.33-6.91a79.36,79.36,0,0,1,0-61.55c1-2.37,2.12-4.67,3.33-6.91v.08H177v-.08q1.83,3.36,3.33,6.91A78.83,78.83,0,0,1,186.5,50.46Z"/><path class="cls-1" d="M186.17,50.46A78.58,78.58,0,0,1,180,81.11c-1,2.35-2.1,4.65-3.31,6.88V86.85H38.22V88c-1.21-2.23-2.32-4.53-3.31-6.88a79,79,0,0,1,0-61.29c1-2.35,2.1-4.65,3.31-6.88.3-.56.61-1.11.93-1.66v1.58H175.74V11.28l.93,1.66c1.21,2.23,2.31,4.53,3.31,6.88A78.53,78.53,0,0,1,186.17,50.46Z"/><path class="cls-1" d="M185.83,50.46A78,78,0,0,1,179.67,81c-1,2.35-2.1,4.64-3.3,6.86v-1H38.52v1A75.91,75.91,0,0,1,35.22,81a78.64,78.64,0,0,1,0-61c1-2.34,2.09-4.63,3.3-6.85.3-.56.61-1.11.92-1.65v1.41h136V11.45q.48.81.93,1.65c1.2,2.22,2.31,4.51,3.3,6.85A78.09,78.09,0,0,1,185.83,50.46Z"/><path class="cls-1" d="M185.49,50.46a77.75,77.75,0,0,1-6.13,30.38c-1,2.34-2.09,4.61-3.29,6.83v-.82H38.82v.82c-1.21-2.22-2.3-4.49-3.29-6.83a78.35,78.35,0,0,1,0-60.76c1-2.33,2.08-4.61,3.29-6.82.3-.55.6-1.1.92-1.65v1.25H175.15V11.61c.31.55.62,1.1.92,1.65,1.2,2.21,2.3,4.49,3.29,6.82A77.82,77.82,0,0,1,185.49,50.46Z"/><path class="cls-1" d="M185.15,50.46a77.52,77.52,0,0,1-6.1,30.25q-1.49,3.5-3.28,6.79v-.65H39.11v.65c-1.19-2.2-2.29-4.46-3.27-6.79a77.91,77.91,0,0,1,0-60.49c1-2.33,2.08-4.6,3.27-6.8.6-1.1,1.22-2.18,1.87-3.25v2.69H173.9V10.17c.65,1.07,1.28,2.15,1.87,3.25q1.8,3.3,3.28,6.8A77.43,77.43,0,0,1,185.15,50.46Z"/><path class="cls-1" d="M184.82,50.46a77.05,77.05,0,0,1-6.09,30.12,75,75,0,0,1-3.25,6.76v-.49H39.41v.49c-1.19-2.19-2.28-4.45-3.26-6.76a77.62,77.62,0,0,1,0-60.23c1-2.32,2.07-4.57,3.26-6.77q.9-1.63,1.86-3.24v2.52H173.61V10.34c.65,1.07,1.27,2.15,1.87,3.24,1.19,2.2,2.28,4.45,3.25,6.77A77,77,0,0,1,184.82,50.46Z"/><path class="cls-1" d="M184.48,50.46a76.79,76.79,0,0,1-6.06,30,74.35,74.35,0,0,1-3.24,6.73v-.33H39.71v.33c-1.19-2.18-2.27-4.43-3.25-6.73a77.33,77.33,0,0,1,0-60c1-2.31,2.06-4.55,3.25-6.74.59-1.09,1.21-2.16,1.85-3.22v2.34H173.32V10.52c.65,1.06,1.27,2.13,1.86,3.22a74.53,74.53,0,0,1,3.24,6.74A76.74,76.74,0,0,1,184.48,50.46Z"/><path class="cls-1" d="M184.14,50.46a76.52,76.52,0,0,1-6,29.86c-1,2.29-2.05,4.53-3.23,6.7v-.17H40V87c-1.18-2.17-2.26-4.41-3.23-6.7a77,77,0,0,1,0-59.71c1-2.29,2-4.53,3.23-6.7.59-1.09,1.21-2.16,1.85-3.22v2.17H173V10.69c.64,1.06,1.25,2.13,1.84,3.22,1.18,2.17,2.26,4.41,3.23,6.7A76.47,76.47,0,0,1,184.14,50.46Z"/><path class="cls-1" d="M183.8,50.46a76.22,76.22,0,0,1-6,29.73c-1,2.28-2,4.51-3.21,6.67H40.3c-1.17-2.16-2.25-4.39-3.21-6.67a76.51,76.51,0,0,1,0-59.45c1-2.28,2-4.51,3.21-6.67.59-1.09,1.2-2.15,1.84-3.2v2H172.75v-2c.63,1.05,1.25,2.11,1.84,3.2,1.17,2.16,2.24,4.39,3.21,6.67A76.21,76.21,0,0,1,183.8,50.46Z"/><path class="cls-1" d="M183.46,50.46a75.69,75.69,0,0,1-6,29.59c-1,2.28-2,4.49-3.2,6.65-.29.54-.59,1.07-.9,1.6V86.85H41.49V88.3c-.3-.53-.6-1.06-.89-1.6-1.17-2.16-2.24-4.37-3.2-6.65a76.2,76.2,0,0,1,0-59.18c1-2.27,2-4.49,3.2-6.64.58-1.08,1.19-2.14,1.83-3.19v1.82h130V11c.63,1.05,1.24,2.11,1.83,3.19,1.17,2.15,2.24,4.37,3.2,6.64A75.76,75.76,0,0,1,183.46,50.46Z"/><path class="cls-1" d="M183.13,50.46a75.43,75.43,0,0,1-5.95,29.46c-1,2.27-2,4.47-3.19,6.62-.29.53-.59,1.07-.89,1.59V86.85H41.79v1.28c-.31-.52-.6-1.06-.9-1.59-1.16-2.15-2.22-4.35-3.18-6.62a75.91,75.91,0,0,1,0-58.92c1-2.26,2-4.47,3.18-6.61.59-1.07,1.2-2.13,1.83-3.17v1.64H172.17V11.22c.63,1,1.24,2.1,1.82,3.17,1.17,2.14,2.23,4.35,3.19,6.61A75.46,75.46,0,0,1,183.13,50.46Z"/><path class="cls-1" d="M182.79,50.46a75.13,75.13,0,0,1-5.92,29.33q-1.44,3.38-3.18,6.59c-.58,1.06-1.18,2.12-1.81,3.15V86.85H43v2.68c-.63-1-1.24-2.09-1.82-3.15Q39.45,83.17,38,79.79a75.59,75.59,0,0,1,0-58.65,72.63,72.63,0,0,1,3.17-6.59c.58-1.07,1.19-2.12,1.82-3.16v1.47H171.88V11.39c.63,1,1.23,2.09,1.81,3.16q1.74,3.19,3.18,6.59A75.11,75.11,0,0,1,182.79,50.46Z"/><path class="cls-1" d="M182.45,50.46a74.86,74.86,0,0,1-5.89,29.2c-.95,2.24-2,4.43-3.16,6.56-.58,1.06-1.18,2.11-1.81,3.14V86.85H43.3v2.51c-.63-1-1.23-2.08-1.81-3.14Q39.75,83,38.33,79.66a75.3,75.3,0,0,1,0-58.39c1-2.25,2-4.43,3.16-6.56.58-1.06,1.18-2.11,1.81-3.14v1.29H171.59V11.57c.63,1,1.23,2.08,1.81,3.14,1.15,2.13,2.21,4.31,3.16,6.56A74.85,74.85,0,0,1,182.45,50.46Z"/><path class="cls-1" d="M182.11,50.46a74.46,74.46,0,0,1-5.87,29.07q-1.41,3.34-3.14,6.53c-.57,1-1.17,2.1-1.8,3.12V86.85H43.58v2.33c-.62-1-1.22-2.07-1.79-3.12q-1.73-3.18-3.15-6.53a74.89,74.89,0,0,1,0-58.13q1.43-3.34,3.15-6.53c.57-1.06,1.17-2.1,1.79-3.13v1.12H171.3V11.74c.63,1,1.23,2.07,1.8,3.13q1.72,3.18,3.14,6.53A74.37,74.37,0,0,1,182.11,50.46Z"/><path class="cls-1" d="M181.77,50.46a74.16,74.16,0,0,1-5.84,28.94,71.77,71.77,0,0,1-3.13,6.49C172.23,87,171.63,88,171,89V86.85H43.87V89c-.62-1-1.21-2.06-1.79-3.12-1.14-2.1-2.19-4.27-3.13-6.49a74.6,74.6,0,0,1,0-57.87c.94-2.22,2-4.39,3.13-6.5.58-1,1.17-2.09,1.79-3.11v.94H171v-.94c.62,1,1.22,2.06,1.79,3.11q1.72,3.17,3.13,6.5A74.11,74.11,0,0,1,181.77,50.46Z"/><path class="cls-1" d="M181.44,50.46a73.63,73.63,0,0,1-5.82,28.8c-.93,2.22-2,4.38-3.11,6.47-.57,1-1.17,2.08-1.79,3.1v-2H44.16v2c-.62-1-1.21-2-1.78-3.1q-1.71-3.14-3.12-6.47a74.29,74.29,0,0,1,0-57.6q1.41-3.32,3.12-6.47c.57-1,1.16-2.08,1.78-3.09v.76H170.72V12.1c.62,1,1.22,2.05,1.79,3.09,1.13,2.1,2.18,4.26,3.11,6.47A73.67,73.67,0,0,1,181.44,50.46Z"/><path class="cls-1" d="M181.1,50.46a73.37,73.37,0,0,1-5.79,28.67c-.93,2.21-2,4.35-3.1,6.44-.57,1.05-1.16,2.07-1.77,3.09V86.85h-126v1.81c-.61-1-1.21-2-1.77-3.09a70.62,70.62,0,0,1-3.1-6.44,73.88,73.88,0,0,1,0-57.34q1.39-3.3,3.1-6.44c.56-1,1.16-2.07,1.77-3.08v.59h126v-.59c.61,1,1.2,2,1.77,3.08,1.13,2.09,2.17,4.24,3.1,6.44A73.4,73.4,0,0,1,181.1,50.46Z"/><path class="cls-1" d="M180.76,50.46A73.06,73.06,0,0,1,175,79q-1.4,3.28-3.09,6.41c-.56,1-1.15,2.06-1.76,3.07V86.85H44.74v1.63c-.61-1-1.2-2-1.77-3.07-1.12-2.08-2.16-4.22-3.08-6.41a73.59,73.59,0,0,1,0-57.08c.92-2.19,2-4.33,3.08-6.4.57-1,1.16-2.07,1.77-3.07v.41H170.15v-.41c.61,1,1.2,2,1.76,3.07,1.13,2.07,2.16,4.21,3.09,6.4A73.14,73.14,0,0,1,180.76,50.46Z"/><path class="cls-1" d="M180.42,50.46a72.8,72.8,0,0,1-5.73,28.41c-.93,2.18-1.95,4.31-3.08,6.38-.56,1-1.14,2-1.75,3.06V86.85H45v1.46c-.61-1-1.2-2-1.76-3.06-1.12-2.07-2.15-4.2-3.07-6.38a73.15,73.15,0,0,1,0-56.81c.92-2.19,1.95-4.31,3.07-6.38.56-1,1.15-2.06,1.76-3.06v.24H169.86v-.24c.61,1,1.19,2,1.75,3.06,1.13,2.07,2.15,4.19,3.08,6.38A72.78,72.78,0,0,1,180.42,50.46Z"/><path class="cls-1" d="M180.08,50.46a72.53,72.53,0,0,1-5.7,28.28Q173,82,171.32,85.09c-.56,1-1.15,2-1.75,3V86.85H45.32v1.28c-.61-1-1.19-2-1.75-3Q41.89,82,40.51,78.74a72.86,72.86,0,0,1,0-56.55q1.38-3.26,3.06-6.35c.56-1,1.14-2.05,1.75-3v.06H169.57V12.8c.6,1,1.19,2,1.75,3q1.68,3.09,3.06,6.35A72.48,72.48,0,0,1,180.08,50.46Z"/><path class="cls-1" d="M179.75,50.46a72.24,72.24,0,0,1-5.68,28.15q-1.38,3.24-3,6.32-.84,1.53-1.74,3V86.85H45.61V88q-.91-1.5-1.74-3c-1.12-2.05-2.13-4.16-3-6.32a72.57,72.57,0,0,1,0-56.29c.92-2.16,1.93-4.27,3-6.32q.83-1.54,1.74-3c.3-.5.61-1,.92-1.48v1.37H168.36V11.49c.31.49.62,1,.92,1.48q.9,1.49,1.74,3,1.66,3.08,3,6.32A72.22,72.22,0,0,1,179.75,50.46Z"/><path class="cls-1" d="M179.41,50.46a71.62,71.62,0,0,1-5.66,28q-1.37,3.22-3,6.29c-.55,1-1.13,2-1.73,3v-.93H45.9v.93c-.61-1-1.18-2-1.74-3-1.1-2-2.12-4.14-3-6.29a71.81,71.81,0,0,1,6.64-68.25v2.63H167.12V10.23a71.7,71.7,0,0,1,12.29,40.23Z"/><path class="cls-1" d="M179.07,50.46a71.3,71.3,0,0,1-5.63,27.88,69.47,69.47,0,0,1-3,6.27c-.56,1-1.13,2-1.73,3v-.76H46.18v.76c-.59-1-1.17-2-1.72-3q-1.65-3-3-6.27a71.44,71.44,0,0,1,6.61-67.92v2.44H166.84V10.42a71.29,71.29,0,0,1,12.23,40Z"/><path class="cls-1" d="M178.73,50.46a71,71,0,0,1-5.6,27.75,68.66,68.66,0,0,1-3,6.23c-.55,1-1.12,2-1.72,3v-.58H46.47v.58c-.59-1-1.16-2-1.71-3a68.66,68.66,0,0,1-3-6.23A71.22,71.22,0,0,1,48.33,10.6v2.26H166.56V10.6a71,71,0,0,1,12.17,39.86Z"/><path class="cls-1" d="M178.4,50.46a70.74,70.74,0,0,1-5.58,27.62q-1.35,3.18-3,6.2-.81,1.52-1.71,3v-.4H46.76v.4q-.88-1.45-1.71-3c-1.09-2-2.09-4.08-3-6.2a70.91,70.91,0,0,1,6.54-67.29v2.07H166.28V10.79A70.76,70.76,0,0,1,178.4,50.46Z"/><path class="cls-1" d="M178.06,50.46A70.48,70.48,0,0,1,172.51,78c-.89,2.11-1.89,4.17-3,6.17-.54,1-1.11,2-1.7,3v-.23H47.05v.23c-.59-1-1.16-2-1.7-3q-1.64-3-3-6.17a70.55,70.55,0,0,1,6.51-67v1.88H166V11a70.35,70.35,0,0,1,12.06,39.48Z"/><path class="cls-1" d="M177.72,50.46a70.17,70.17,0,0,1-5.52,27.36q-1.33,3.15-3,6.14c-.54,1-1.11,2-1.69,2.94v-.05H47.34v.05c-.59-1-1.15-1.94-1.69-2.94q-1.62-3-3-6.14a70.19,70.19,0,0,1,6.48-66.65v1.69H165.72V11.17a69.94,69.94,0,0,1,12,39.29Z"/><path class="cls-1" d="M177.38,50.46a69.54,69.54,0,0,1-11.94,39.11V86.85h-116v2.72a69.84,69.84,0,0,1,0-78.21v1.5h116v-1.5a69.53,69.53,0,0,1,11.94,39.1Z"/><path class="cls-1" d="M177,50.46a69.36,69.36,0,0,1-11.88,38.92V86.85H49.73v2.53a69.48,69.48,0,0,1,0-77.83v1.31H165.16V11.55A69.36,69.36,0,0,1,177,50.46Z"/><path class="cls-1" d="M176.71,50.46a69.13,69.13,0,0,1-11.83,38.73V86.85H50v2.34a69.12,69.12,0,0,1,0-77.45v1.12H164.88V11.74a69,69,0,0,1,11.83,38.72Z"/><path class="cls-1" d="M176.37,50.46A68.72,68.72,0,0,1,164.6,89V86.85H50.29V89a68.76,68.76,0,0,1,0-77.07v.93H164.6v-.93a68.63,68.63,0,0,1,11.77,38.53Z"/><path class="cls-1" d="M176,50.46a68.32,68.32,0,0,1-11.71,38.35v-2H50.57v2a68.7,68.7,0,0,1-6.32-65,67.12,67.12,0,0,1,6.32-11.65v.74H164.32v-.74A68.31,68.31,0,0,1,176,50.46Z"/><path class="cls-1" d="M175.69,50.46A67.91,67.91,0,0,1,164,88.62V86.85H50.85v1.77a68.21,68.21,0,0,1,0-76.32v.56H164V12.3a68,68,0,0,1,11.65,38.16Z"/><path class="cls-1" d="M175.35,50.46a67.5,67.5,0,0,1-11.59,38V86.85H51.13v1.58a67.85,67.85,0,0,1,0-75.94v.37H163.76v-.37a67.6,67.6,0,0,1,11.59,38Z"/><path class="cls-1" d="M175,50.46a67.18,67.18,0,0,1-11.54,37.78V86.85H51.41v1.39a67.49,67.49,0,0,1,0-75.56v.18H163.48v-.18A67.27,67.27,0,0,1,175,50.46Z"/><path class="cls-1" d="M174.68,50.46a67,67,0,0,1-5.28,26.17,68.07,68.07,0,0,1-6.2,11.43V86.85H51.69v1.21a67.14,67.14,0,0,1,0-75.19c.6-.89,1.23-1.77,1.87-2.63v2.62H161.32V10.24c.65.86,1.27,1.74,1.88,2.63a68.37,68.37,0,0,1,6.2,11.42A67.09,67.09,0,0,1,174.68,50.46Z"/><path class="cls-1" d="M174.34,50.46a66.78,66.78,0,0,1-11.42,37.41v-1H52v1a66.78,66.78,0,0,1,0-74.81c.6-.89,1.22-1.76,1.87-2.62v2.42H161.05V10.44c.64.86,1.26,1.73,1.87,2.62a66.69,66.69,0,0,1,11.42,37.4Z"/><path class="cls-1" d="M174,50.46a66.38,66.38,0,0,1-11.36,37.22v-.83H52.25v.83a66.46,66.46,0,0,1,0-74.43q.9-1.34,1.86-2.61v2.22H160.78V10.64q1,1.27,1.86,2.61A66.38,66.38,0,0,1,174,50.46Z"/><path class="cls-1" d="M173.67,50.46a66.06,66.06,0,0,1-11.31,37v-.64H52.53v.64a66.1,66.1,0,0,1,0-74c.6-.88,1.21-1.75,1.85-2.6v2H160.51v-2c.63.85,1.25,1.72,1.85,2.6a66.06,66.06,0,0,1,11.31,37Z"/><path class="cls-1" d="M173.33,50.46a65.75,65.75,0,0,1-5.18,25.65,66.72,66.72,0,0,1-6.07,11.19v-.45H52.81v.45a66,66,0,0,1-6.07-62.48,64.94,64.94,0,0,1,6.07-11.19c.59-.88,1.21-1.74,1.84-2.59v1.82H160.24V11c.63.85,1.24,1.71,1.84,2.59a65.65,65.65,0,0,1,11.25,36.83Z"/><path class="cls-1" d="M173,50.46A65.31,65.31,0,0,1,167.84,76a66,66,0,0,1-6,11.13v-.26H53.09v.26a65.47,65.47,0,0,1,0-73.29c.59-.88,1.2-1.73,1.83-2.57v1.61H160V11.25c.63.84,1.24,1.69,1.83,2.57A65.24,65.24,0,0,1,173,50.46Z"/><path class="cls-1" d="M172.65,50.46a64.83,64.83,0,0,1-11.13,36.46v-.07H53.37v.07a65.16,65.16,0,0,1,0-72.92c.59-.86,1.19-1.72,1.82-2.55v1.41H159.7V11.45c.62.83,1.23,1.69,1.82,2.55a64.93,64.93,0,0,1,11.13,36.46Z"/><path class="cls-1" d="M172.31,50.46a64.38,64.38,0,0,1-11.08,36.27c-.58.87-1.18,1.71-1.8,2.55V86.85h-104v2.43c-.62-.84-1.23-1.68-1.81-2.55a64.8,64.8,0,0,1,0-72.54c.58-.86,1.19-1.71,1.81-2.54v1.21h104V11.65c.62.83,1.22,1.68,1.8,2.54a64.38,64.38,0,0,1,11.08,36.27Z"/><path class="cls-1" d="M172,50.46a64.29,64.29,0,0,1-11,36.08c-.58.86-1.17,1.71-1.79,2.53V86.85H55.73v2.22c-.62-.82-1.22-1.67-1.8-2.53a64.44,64.44,0,0,1,0-72.16c.58-.86,1.18-1.7,1.8-2.53v1H159.16v-1c.62.83,1.21,1.67,1.79,2.53a64.29,64.29,0,0,1,11,36.08Z"/><path class="cls-1" d="M171.64,50.46a64,64,0,0,1-11,35.9c-.57.85-1.17,1.69-1.79,2.51v-2H56v2c-.61-.82-1.21-1.66-1.79-2.51a64.13,64.13,0,0,1,0-71.79c.58-.85,1.18-1.69,1.79-2.52v.81H158.88v-.81c.62.83,1.22,1.67,1.79,2.52a64,64,0,0,1,11,35.89Z"/><path class="cls-1" d="M171.3,50.46a63.57,63.57,0,0,1-10.91,35.71c-.57.85-1.16,1.68-1.78,2.5V86.85H56.27v1.82c-.61-.82-1.2-1.65-1.78-2.5A64.52,64.52,0,0,1,48.6,75.32a64.16,64.16,0,0,1,0-49.71,64.52,64.52,0,0,1,5.89-10.85c.58-.85,1.17-1.68,1.78-2.5v.6H158.61v-.6c.62.82,1.21,1.65,1.78,2.5a63.57,63.57,0,0,1,10.91,35.7Z"/><path class="cls-1" d="M171,50.46A63.16,63.16,0,0,1,160.11,86q-.86,1.26-1.77,2.49V86.85H56.54v1.62q-.91-1.23-1.77-2.49a63.49,63.49,0,0,1,0-71q.85-1.27,1.77-2.49v.4h101.8v-.4q.91,1.21,1.77,2.49A63.16,63.16,0,0,1,171,50.46Z"/><path class="cls-1" d="M170.62,50.46a62.75,62.75,0,0,1-10.79,35.33c-.56.84-1.15,1.66-1.76,2.48V86.85H56.81v1.42c-.6-.82-1.19-1.64-1.76-2.48a63.13,63.13,0,0,1,0-70.65c1.14-1.68,2.35-3.31,3.64-4.87v2.59H156.2V10.27c1.28,1.56,2.5,3.19,3.63,4.87a62.75,62.75,0,0,1,10.79,35.32Z"/><path class="cls-1" d="M170.29,50.46A62.53,62.53,0,0,1,159.55,85.6c-.56.84-1.14,1.66-1.75,2.46V86.85H57.08v1.21c-.6-.8-1.18-1.62-1.75-2.46a62.77,62.77,0,0,1,0-70.27C56.46,13.66,57.67,12,59,10.49v2.37h97V10.49c1.28,1.55,2.48,3.17,3.61,4.84a62.43,62.43,0,0,1,10.74,35.13Z"/><path class="cls-1" d="M170,50.46a62.12,62.12,0,0,1-10.68,34.95c-.56.83-1.14,1.65-1.74,2.45v-1H57.35v1c-.59-.8-1.18-1.62-1.74-2.45a62.42,62.42,0,0,1,0-69.89c1.13-1.67,2.33-3.27,3.6-4.82v2.16h96.47V10.7c1.27,1.55,2.47,3.15,3.59,4.82A62,62,0,0,1,170,50.46Z"/><path class="cls-1" d="M169.61,50.46A61.71,61.71,0,0,1,159,85.22c-.55.83-1.13,1.64-1.73,2.44v-.81H57.63v.81c-.6-.8-1.18-1.61-1.74-2.44a62.1,62.1,0,0,1,0-69.52c1.12-1.65,2.31-3.25,3.58-4.78v1.94h95.94V10.92A59.48,59.48,0,0,1,159,15.7a61.71,61.71,0,0,1,10.62,34.76Z"/><path class="cls-1" d="M169.27,50.46a61.63,61.63,0,0,1-4.86,24.07,60.8,60.8,0,0,1-5.7,10.5c-.55.83-1.13,1.63-1.72,2.43v-.61H57.9v.61c-.6-.8-1.17-1.6-1.73-2.43a61.78,61.78,0,0,1,0-69.14q1.66-2.46,3.56-4.76v1.73h95.42V11.13q1.89,2.3,3.56,4.76a60.89,60.89,0,0,1,5.7,10.51A61.58,61.58,0,0,1,169.27,50.46Z"/><path class="cls-1" d="M168.94,50.46a61.21,61.21,0,0,1-10.51,34.38c-.55.82-1.12,1.63-1.71,2.42v-.41H58.17v.41c-.59-.79-1.16-1.6-1.72-2.42a61.42,61.42,0,0,1,0-68.76q1.66-2.44,3.54-4.73v1.51h94.9V11.35q1.89,2.28,3.54,4.73a61.31,61.31,0,0,1,10.51,34.38Z"/><path class="cls-1" d="M168.6,50.46a60.9,60.9,0,0,1-10.45,34.2q-1.65,2.43-3.52,4.7V86.85H60.25v2.51c-1.24-1.51-2.42-3.08-3.52-4.7a62,62,0,0,1-5.64-10.39,61.07,61.07,0,0,1,5.64-58c1.1-1.63,2.28-3.2,3.52-4.71v1.3h94.38v-1.3q1.88,2.26,3.52,4.71A60.9,60.9,0,0,1,168.6,50.46Z"/><path class="cls-1" d="M168.26,50.46a60.49,60.49,0,0,1-10.39,34c-1.09,1.61-2.26,3.18-3.5,4.68v-2.3H60.51v2.3c-1.24-1.5-2.4-3.07-3.5-4.68a60.8,60.8,0,0,1,0-68c1.1-1.62,2.26-3.18,3.5-4.68v1.08h93.86V11.78q1.86,2.25,3.5,4.68a60.49,60.49,0,0,1,10.39,34Z"/><path class="cls-1" d="M167.92,50.46a60.18,60.18,0,0,1-10.33,33.82c-1.08,1.61-2.25,3.16-3.48,4.65V86.85H60.77v2.08q-1.85-2.24-3.48-4.65a60.44,60.44,0,0,1,0-67.63q1.64-2.41,3.48-4.66v.87h93.34V12c1.23,1.5,2.4,3,3.48,4.66a60.09,60.09,0,0,1,10.33,33.81Z"/><path class="cls-1" d="M167.58,50.46a59.78,59.78,0,0,1-10.27,33.63q-1.62,2.4-3.46,4.63V86.85H61v1.87q-1.84-2.23-3.47-4.63a60.08,60.08,0,0,1,0-67.25c1.08-1.6,2.24-3.15,3.47-4.63v.65h92.81v-.65c1.23,1.48,2.38,3,3.46,4.63a59.68,59.68,0,0,1,10.27,33.62Z"/><path class="cls-1" d="M167.25,50.46A59.45,59.45,0,0,1,157,83.9a57.32,57.32,0,0,1-3.44,4.6V86.85H61.3V88.5c-1.22-1.47-2.37-3-3.45-4.6a59.76,59.76,0,0,1,0-66.87q1.62-2.39,3.45-4.61v.44h92.29v-.44Q155.42,14.64,157,17a59.45,59.45,0,0,1,10.22,33.43Z"/><path class="cls-1" d="M166.91,50.46a59.27,59.27,0,0,1-4.68,23.15,58.57,58.57,0,0,1-5.48,10.1q-1.6,2.37-3.42,4.58V86.85H61.56v1.44c-1.21-1.47-2.36-3-3.43-4.58a60,60,0,0,1-5.48-10.1,59.69,59.69,0,0,1,0-46.29,60,60,0,0,1,5.48-10.1c1.07-1.59,2.22-3.11,3.43-4.58v.22h91.77v-.22c1.21,1.47,2.35,3,3.42,4.58a58.57,58.57,0,0,1,5.48,10.1A59.22,59.22,0,0,1,166.91,50.46Z"/><path class="cls-1" d="M166.57,50.46a58.82,58.82,0,0,1-4.65,23,57.89,57.89,0,0,1-5.45,10c-1.06,1.57-2.2,3.09-3.4,4.55V86.85H61.82v1.22c-1.21-1.46-2.34-3-3.41-4.55a59.09,59.09,0,0,1,0-66.12c1.07-1.57,2.2-3.09,3.41-4.55h91.25c1.2,1.46,2.34,3,3.4,4.55a59,59,0,0,1,10.1,33.06Z"/><path class="cls-1" d="M166.23,50.46a58.46,58.46,0,0,1-10,32.87,55.5,55.5,0,0,1-3.38,4.53v-1H62.08v1q-1.8-2.17-3.39-4.53a58.73,58.73,0,0,1,0-65.74q1.59-2.34,3.39-4.52c.6-.73,1.21-1.44,1.85-2.14v1.93h87V10.93c.63.7,1.25,1.41,1.85,2.14q1.8,2.17,3.38,4.52a58.56,58.56,0,0,1,10,32.87Z"/><path class="cls-1" d="M165.89,50.46a58.05,58.05,0,0,1-10,32.68q-1.57,2.34-3.36,4.5v-.79H62.34v.79C61.15,86.2,60,84.7,59,83.14a58.52,58.52,0,0,1-5.38-55.43A57.62,57.62,0,0,1,59,17.78c1.05-1.55,2.18-3.05,3.37-4.5.59-.72,1.21-1.43,1.84-2.12v1.7h86.53v-1.7c.63.69,1.24,1.4,1.84,2.12q1.78,2.18,3.36,4.5a58.15,58.15,0,0,1,10,32.68Z"/><path class="cls-1" d="M165.56,50.46A57.92,57.92,0,0,1,155.63,83c-1,1.54-2.16,3-3.34,4.47v-.58H62.6v.58Q60.83,85.27,59.25,83a58.79,58.79,0,0,1-5.35-9.88,58.27,58.27,0,0,1,0-45.24A58.7,58.7,0,0,1,59.25,18c1-1.54,2.17-3,3.35-4.47.59-.72,1.2-1.42,1.83-2.11v1.47h86V11.39c.63.69,1.23,1.39,1.83,2.11,1.18,1.43,2.3,2.93,3.34,4.47a57.83,57.83,0,0,1,9.93,32.49Z"/><path class="cls-1" d="M165.22,50.46a57.52,57.52,0,0,1-9.87,32.31c-1,1.53-2.15,3-3.32,4.44v-.36H62.86v.36c-1.18-1.42-2.29-2.91-3.33-4.44A58.09,58.09,0,0,1,54.21,73a57.74,57.74,0,0,1,5.32-54.79q1.56-2.31,3.33-4.45c.59-.71,1.19-1.41,1.82-2.09v1.24h85.53V11.62c.62.68,1.23,1.38,1.82,2.09q1.75,2.14,3.32,4.45a57.42,57.42,0,0,1,9.87,32.3Z"/><path class="cls-1" d="M164.88,50.46a57.11,57.11,0,0,1-9.81,32.12A54.68,54.68,0,0,1,151.76,87v-.15H63.12V87q-1.75-2.13-3.31-4.42a57.42,57.42,0,0,1,0-64.23q1.56-2.3,3.31-4.42c.59-.71,1.19-1.41,1.81-2.09v1h85v-1c.62.68,1.22,1.38,1.8,2.09a54.68,54.68,0,0,1,3.31,4.42,57.11,57.11,0,0,1,9.81,32.11Z"/><path class="cls-1" d="M164.54,50.46a56.9,56.9,0,0,1-4.48,22.23,57.84,57.84,0,0,1-5.27,9.7,54,54,0,0,1-3.29,4.39c-.58.71-1.18,1.4-1.79,2.08v-2H65.18v2c-.62-.68-1.22-1.37-1.8-2.08q-1.74-2.11-3.29-4.39a57.8,57.8,0,0,1-5.26-9.7,57.07,57.07,0,0,1,5.26-54.15q1.54-2.28,3.29-4.4.87-1.05,1.8-2.07v.79h84.53v-.79c.61.68,1.21,1.37,1.79,2.07a54.13,54.13,0,0,1,3.29,4.4,56.7,56.7,0,0,1,9.75,31.92Z"/><path class="cls-1" d="M164.21,50.46a56.61,56.61,0,0,1-9.7,31.74q-1.53,2.26-3.27,4.37c-.58.7-1.17,1.39-1.78,2.06V86.85h-84v1.78c-.61-.67-1.21-1.36-1.79-2.06q-1.72-2.1-3.26-4.37a56.38,56.38,0,0,1-9.7-31.74A56.54,56.54,0,0,1,67.31,10.33v2.53h80.27V10.33A56.58,56.58,0,0,1,164.21,50.46Z"/><path class="cls-1" d="M163.87,50.46A56.2,56.2,0,0,1,154.23,82c-1,1.5-2.1,2.95-3.25,4.34-.57.7-1.16,1.38-1.77,2.05V86.85H65.68V88.4c-.61-.67-1.2-1.35-1.78-2.05Q62.18,84.26,60.66,82a56.42,56.42,0,0,1,6.89-71.44v2.29h79.79V10.57A56.24,56.24,0,0,1,163.87,50.46Z"/><path class="cls-1" d="M163.53,50.46A55.89,55.89,0,0,1,154,81.82q-1.51,2.24-3.23,4.32c-.57.69-1.16,1.37-1.76,2V86.85h-83v1.32c-.61-.66-1.19-1.34-1.77-2-1.14-1.39-2.22-2.83-3.22-4.32a56.11,56.11,0,0,1,6.84-71v2.06H147.1V10.8A55.93,55.93,0,0,1,163.53,50.46Z"/><path class="cls-1" d="M163.19,50.46a55.48,55.48,0,0,1-9.52,31.17,52,52,0,0,1-3.21,4.29c-.57.69-1.15,1.37-1.75,2v-1.1H66.18V88c-.6-.66-1.19-1.34-1.76-2q-1.7-2.06-3.2-4.29a54.75,54.75,0,0,1-5.14-9.47A55.77,55.77,0,0,1,68,11v1.82h78.84V11A55.58,55.58,0,0,1,163.19,50.46Z"/><path class="cls-1" d="M162.85,50.46A55.32,55.32,0,0,1,158.5,72a54.74,54.74,0,0,1-5.11,9.41q-1.5,2.22-3.19,4.27-.84,1-1.74,2v-.87h-82v.87q-.9-1-1.74-2a53.24,53.24,0,0,1-3.19-4.27A54.07,54.07,0,0,1,56.39,72,55.45,55.45,0,0,1,68.26,11.28v1.58h78.36V11.28A55.23,55.23,0,0,1,162.85,50.46Z"/><path class="cls-1" d="M162.52,50.46a55,55,0,0,1-16.13,38.95V86.85H68.5v2.56a55.08,55.08,0,0,1,0-77.89v1.34h77.89V11.52A54.94,54.94,0,0,1,162.52,50.46Z"/><path class="cls-1" d="M162.18,50.46a54.6,54.6,0,0,1-16,38.71V86.85H68.74v2.32a54.74,54.74,0,0,1,0-77.41v1.1h77.41v-1.1A54.59,54.59,0,0,1,162.18,50.46Z"/><path class="cls-1" d="M161.84,50.46a54.27,54.27,0,0,1-15.93,38.47V86.85H69v2.08A54.4,54.4,0,0,1,69,12v.86h76.93V12A54.23,54.23,0,0,1,161.84,50.46Z"/><path class="cls-1" d="M161.5,50.46a53.9,53.9,0,0,1-15.83,38.23V86.85H69.22v1.84a54,54,0,0,1,0-76.45v.62h76.45v-.62A53.89,53.89,0,0,1,161.5,50.46Z"/><path class="cls-1" d="M161.16,50.46a53.55,53.55,0,0,1-15.73,38v-1.6h-76v1.6a53.7,53.7,0,0,1,0-76v.38h76v-.38A53.55,53.55,0,0,1,161.16,50.46Z"/><path class="cls-1" d="M160.83,50.46a53.23,53.23,0,0,1-15.64,37.75V86.85H69.7v1.36a53.37,53.37,0,0,1,0-75.49v.14h75.49v-.14A53.21,53.21,0,0,1,160.83,50.46Z"/><path class="cls-1" d="M160.49,50.46A52.88,52.88,0,0,1,145,88V86.85h-75V88a53.06,53.06,0,0,1,0-75c.6-.6,1.22-1.18,1.85-1.75v1.66h71.33V11.2c.63.57,1.24,1.15,1.84,1.75A52.9,52.9,0,0,1,160.49,50.46Z"/><path class="cls-1" d="M160.15,50.46a52.51,52.51,0,0,1-15.44,37.27v-.88H70.17v.88a52.73,52.73,0,0,1,0-74.54q.9-.88,1.83-1.74v1.41h70.88V11.45q.94.86,1.83,1.74A52.55,52.55,0,0,1,160.15,50.46Z"/><path class="cls-1" d="M159.81,50.46a52.18,52.18,0,0,1-15.34,37v-.64H70.41v.64a52.36,52.36,0,0,1,0-74.06c.59-.59,1.2-1.17,1.82-1.73v1.16h70.43V11.7c.62.56,1.22,1.14,1.81,1.73A52.2,52.2,0,0,1,159.81,50.46Z"/><path class="cls-1" d="M159.47,50.46a51.91,51.91,0,0,1-15.23,36.8v-.41H70.65v.41a52,52,0,0,1,0-73.59q1.77-1.77,3.7-3.36v2.55h66.19V10.31q1.94,1.59,3.7,3.36A51.9,51.9,0,0,1,159.47,50.46Z"/><path class="cls-1" d="M159.14,50.46A51.57,51.57,0,0,1,144,87v-.17H70.89V87a51.7,51.7,0,0,1,0-73.11q1.76-1.75,3.67-3.34v2.29h65.77V10.57c1.27,1.06,2.5,2.17,3.67,3.34A51.56,51.56,0,0,1,159.14,50.46Z"/><path class="cls-1" d="M158.8,50.46a51.24,51.24,0,0,1-15,36.32c-.58.58-1.18,1.15-1.79,1.7V86.85H72.91v1.63c-.61-.55-1.2-1.12-1.78-1.7a51.36,51.36,0,0,1,0-72.63q1.74-1.74,3.65-3.32v2h65.33v-2q1.9,1.58,3.65,3.32A51.2,51.2,0,0,1,158.8,50.46Z"/><path class="cls-1" d="M158.46,50.46a50.87,50.87,0,0,1-14.94,36.08c-.58.58-1.17,1.14-1.77,1.69V86.85H73.14v1.38c-.6-.55-1.2-1.11-1.77-1.69a51,51,0,0,1,0-72.15A46.9,46.9,0,0,1,75,11.1v1.76H139.9V11.1a48.83,48.83,0,0,1,3.62,3.29A50.86,50.86,0,0,1,158.46,50.46Z"/><path class="cls-1" d="M158.12,50.46A50.52,50.52,0,0,1,143.28,86.3q-1.72,1.73-3.6,3.27V86.85H75.21v2.72a46.54,46.54,0,0,1-3.6-3.27,50.66,50.66,0,0,1,0-71.67,46.54,46.54,0,0,1,3.6-3.27v1.5h64.47v-1.5q1.88,1.55,3.6,3.27A50.52,50.52,0,0,1,158.12,50.46Z"/><path class="cls-1" d="M157.79,50.46A50.18,50.18,0,0,1,143,86.06q-1.71,1.71-3.57,3.25V86.85h-64v2.46c-1.24-1-2.44-2.11-3.57-3.25a50.32,50.32,0,0,1,0-71.19,47.76,47.76,0,0,1,3.57-3.25v1.24h64.05V11.62c1.24,1,2.43,2.11,3.57,3.25A50.18,50.18,0,0,1,157.79,50.46Z"/><path class="cls-1" d="M157.45,50.46A49.85,49.85,0,0,1,142.8,85.82q-1.7,1.7-3.55,3.23v-2.2H75.64v2.2c-1.24-1-2.42-2.1-3.56-3.23a50,50,0,0,1,0-70.72c1.14-1.13,2.32-2.2,3.56-3.22v1h63.61v-1q1.86,1.53,3.55,3.22A49.85,49.85,0,0,1,157.45,50.46Z"/><path class="cls-1" d="M157.11,50.46a49.48,49.48,0,0,1-14.55,35.12c-1.12,1.13-2.3,2.2-3.52,3.21V86.85H75.85v1.94c-1.23-1-2.4-2.08-3.53-3.21a49.68,49.68,0,0,1,0-70.24c1.13-1.12,2.3-2.19,3.53-3.2v.72H139v-.72c1.22,1,2.4,2.08,3.52,3.2A49.52,49.52,0,0,1,157.11,50.46Z"/><path class="cls-1" d="M156.77,50.46a49.13,49.13,0,0,1-14.45,34.88q-1.66,1.68-3.5,3.19V86.85H76.07v1.68Q74.24,87,72.56,85.34a49.32,49.32,0,0,1,0-69.76c1.12-1.11,2.29-2.18,3.51-3.18v.46h62.75V12.4c1.22,1,2.39,2.07,3.5,3.18A49.17,49.17,0,0,1,156.77,50.46Z"/><path class="cls-1" d="M156.43,50.46a48.84,48.84,0,0,1-14.35,34.65c-1.1,1.1-2.26,2.16-3.47,3.16V86.85H76.28v1.42c-1.21-1-2.37-2.06-3.48-3.16a49,49,0,0,1,0-69.29q1.67-1.66,3.48-3.16v.2h62.33v-.2q1.81,1.5,3.47,3.16A48.82,48.82,0,0,1,156.43,50.46Z"/><path class="cls-1" d="M156.1,50.46a48.54,48.54,0,0,1-14.25,34.41c-1.1,1.1-2.26,2.14-3.46,3.14V86.85H76.5V88c-1.21-1-2.36-2-3.46-3.14a48.66,48.66,0,0,1,0-68.81q1.65-1.65,3.46-3.14.9-.75,1.83-1.44v1.38h58.22V11.48c.63.46,1.24.94,1.84,1.44,1.2,1,2.36,2,3.46,3.14A48.51,48.51,0,0,1,156.1,50.46Z"/><path class="cls-1" d="M155.76,50.46a48.19,48.19,0,0,1-14.15,34.17q-1.65,1.64-3.43,3.12v-.9H76.71v.9c-1.19-1-2.34-2-3.43-3.12A48.34,48.34,0,0,1,80.43,10.4v2.46h54V10.4a48.75,48.75,0,0,1,7.15,5.9A48.16,48.16,0,0,1,155.76,50.46Z"/><path class="cls-1" d="M155.42,50.46a47.84,47.84,0,0,1-14,33.93c-1.09,1.08-2.22,2.12-3.41,3.1v-.64h-61v.64c-1.18-1-2.32-2-3.4-3.1a48,48,0,0,1,7.1-73.71v2.18h53.65V10.68a48,48,0,0,1,21.15,39.78Z"/><path class="cls-1" d="M155.08,50.46a47.49,47.49,0,0,1-14,33.69q-1.62,1.62-3.38,3.07v-.37H77.14v.37a44.76,44.76,0,0,1-3.38-3.07,47.62,47.62,0,0,1,0-67.37,46.91,46.91,0,0,1,7-5.82v1.9h53.27V11a47.71,47.71,0,0,1,21,39.5Z"/><path class="cls-1" d="M154.74,50.46a47.14,47.14,0,0,1-13.85,33.45q-1.6,1.61-3.36,3v-.11H77.35V87q-1.74-1.44-3.35-3a47.34,47.34,0,0,1,7-72.67v1.62h52.89V11.24a47.38,47.38,0,0,1,20.85,39.22Z"/><path class="cls-1" d="M154.41,50.46A47.07,47.07,0,0,1,133.7,89.41V86.85H81.19v2.56a47,47,0,0,1-7-72.16,47.87,47.87,0,0,1,7-5.73v1.34H133.7V11.52a47,47,0,0,1,20.71,38.94Z"/><path class="cls-1" d="M154.07,50.46a46.45,46.45,0,0,1-13.66,33,47.18,47.18,0,0,1-6.9,5.7V86.85H81.37v2.28a47.18,47.18,0,0,1-6.9-5.7,46.64,46.64,0,0,1,0-65.94,47.12,47.12,0,0,1,6.9-5.69v1.06h52.14V11.8a47.12,47.12,0,0,1,6.9,5.69A46.49,46.49,0,0,1,154.07,50.46Z"/><path class="cls-1" d="M153.73,50.46a46.41,46.41,0,0,1-20.41,38.39v-2H81.56v2a47,47,0,0,1-6.85-5.66,46.3,46.3,0,0,1,0-65.46,47,47,0,0,1,6.85-5.65v.78h51.76v-.78a46.33,46.33,0,0,1,20.41,38.38Z"/><path class="cls-1" d="M153.39,50.46A45.81,45.81,0,0,1,139.93,83a46.52,46.52,0,0,1-6.8,5.61V86.85H81.75v1.72A47.6,47.6,0,0,1,75,83a46,46,0,0,1,6.8-70.6v.5h51.38v-.5a45.27,45.27,0,0,1,6.8,5.61A45.79,45.79,0,0,1,153.39,50.46Z"/><path class="cls-1" d="M153.06,50.46A45.51,45.51,0,0,1,139.7,82.72,46.8,46.8,0,0,1,133,88.29V86.85h-51v1.44a45.64,45.64,0,0,1,0-75.65v.22h51v-.22a46.8,46.8,0,0,1,6.75,5.57A45.48,45.48,0,0,1,153.06,50.46Z"/><path class="cls-1" d="M152.72,50.46a45.34,45.34,0,0,1-20,37.55V86.85H82.13V88a45.34,45.34,0,0,1-20-37.55,45.13,45.13,0,0,1,13.26-32,45.59,45.59,0,0,1,6.7-5.53c1.2-.81,2.45-1.57,3.73-2.27v2.21H129V10.65c1.29.7,2.53,1.46,3.74,2.27a45.59,45.59,0,0,1,6.7,5.53A45.13,45.13,0,0,1,152.72,50.46Z"/><path class="cls-1" d="M152.38,50.46a44.81,44.81,0,0,1-13.16,31.78,45.55,45.55,0,0,1-6.65,5.49v-.88H82.32v.88a45.55,45.55,0,0,1-6.65-5.49,44.94,44.94,0,0,1,0-63.55,45.55,45.55,0,0,1,6.65-5.49c1.19-.81,2.43-1.56,3.7-2.25v1.91h42.84V11c1.28.69,2.51,1.44,3.71,2.25a45.55,45.55,0,0,1,6.65,5.49A44.79,44.79,0,0,1,152.38,50.46Z"/><path class="cls-1" d="M152,50.46A44.46,44.46,0,0,1,139,82a45.41,45.41,0,0,1-6.6,5.45v-.6H82.51v.6a44.59,44.59,0,0,1-6.6-68.52,43.76,43.76,0,0,1,6.6-5.45,42.69,42.69,0,0,1,3.67-2.23v1.61H128.7V11.25a42.86,42.86,0,0,1,3.68,2.23,44.68,44.68,0,0,1,19.66,37Z"/><path class="cls-1" d="M151.7,50.46a44.11,44.11,0,0,1-13,31.3,45.38,45.38,0,0,1-6.55,5.41v-.32H82.7v.32a44.84,44.84,0,0,1-6.55-5.41,44.24,44.24,0,0,1,0-62.59,43.6,43.6,0,0,1,6.55-5.41c1.17-.79,2.39-1.53,3.65-2.22v1.32h42.19V11.54c1.25.69,2.47,1.43,3.65,2.22a44.34,44.34,0,0,1,19.51,36.7Z"/><path class="cls-1" d="M151.37,50.46A44,44,0,0,1,132,86.88v0H82.89v0a43.92,43.92,0,0,1-6.51-67.47A44.14,44.14,0,0,1,82.89,14c1.16-.79,2.37-1.52,3.62-2.2v1h41.87v-1c1.24.68,2.45,1.41,3.62,2.2a44,44,0,0,1,19.37,36.42Z"/><path class="cls-1" d="M151,50.46A43.63,43.63,0,0,1,131.81,86.6c-1.16.79-2.36,1.52-3.59,2.19V86.85H86.67v1.94a41.1,41.1,0,0,1-3.6-2.19,44.38,44.38,0,0,1-6.45-5.32,43.6,43.6,0,0,1,13.86-71v2.56h33.93V10.3A43.65,43.65,0,0,1,151,50.46Z"/><path class="cls-1" d="M150.69,50.46a43.3,43.3,0,0,1-19.07,35.86c-1.15.78-2.34,1.51-3.56,2.17V86.85H86.83v1.64a40.4,40.4,0,0,1-3.57-2.17,43.27,43.27,0,0,1,7.35-75.71v2.25h33.67V10.61a43.32,43.32,0,0,1,26.41,39.85Z"/><path class="cls-1" d="M150.35,50.46A42.74,42.74,0,0,1,137.78,80.8,42,42,0,0,1,131.43,86a41,41,0,0,1-3.53,2.15V86.85H87v1.34A39.71,39.71,0,0,1,83.45,86,42.91,42.91,0,0,1,77.1,20.12a43,43,0,0,1,13.64-9.19v1.93h33.41V10.93a43,43,0,0,1,26.2,39.53Z"/><path class="cls-1" d="M150,50.46a42.47,42.47,0,0,1-12.46,30.11,43.57,43.57,0,0,1-6.3,5.19c-1.14.77-2.31,1.48-3.51,2.14V86.85H87.15V87.9c-1.21-.66-2.38-1.37-3.51-2.14a43.57,43.57,0,0,1-6.3-5.19A42.59,42.59,0,0,1,90.87,11.24v1.62H124V11.24a42.57,42.57,0,0,1,26,39.22Z"/><path class="cls-1" d="M149.68,50.46a42.27,42.27,0,0,1-25.8,38.92V86.85H91v2.53a42.26,42.26,0,0,1,0-77.83v1.31h32.88V11.55a42.27,42.27,0,0,1,25.8,38.91Z"/><path class="cls-1" d="M149.34,50.46a41.94,41.94,0,0,1-25.59,38.61V86.85H91.14v2.22a41.92,41.92,0,0,1,0-77.21v1h32.61v-1a41.94,41.94,0,0,1,25.59,38.6Z"/><path class="cls-1" d="M149,50.46a41.61,41.61,0,0,1-25.38,38.3V86.85H91.27v1.91a41.59,41.59,0,0,1,0-76.59v.69h32.35v-.69A41.61,41.61,0,0,1,149,50.46Z"/><path class="cls-1" d="M148.66,50.46a41.25,41.25,0,0,1-25.17,38V86.85H91.4v1.59a41.25,41.25,0,0,1,0-76v.38h32.09v-.38a41.29,41.29,0,0,1,25.17,38Z"/><path class="cls-1" d="M148.33,50.46a40.94,40.94,0,0,1-25,37.67V86.85H91.53v1.28a40.92,40.92,0,0,1,0-75.34v.07h31.83v-.07a41,41,0,0,1,25,37.67Z"/><path class="cls-1" d="M148,50.46a40.6,40.6,0,0,1-24.77,37.36v-1H91.66v1a40.55,40.55,0,0,1,0-74.71,40,40,0,0,1,7.61-2.37v2.12h16.34V10.74a39.81,39.81,0,0,1,7.61,2.37A40.56,40.56,0,0,1,148,50.46Z"/><path class="cls-1" d="M147.65,50.46a40.27,40.27,0,0,1-24.56,37.05v-.66H91.79v.66a40.21,40.21,0,1,1,55.86-37.05Z"/><path class="cls-1" d="M147.31,50.46A39.95,39.95,0,0,1,123,87.2v-.35h-31v.35a39.88,39.88,0,1,1,55.39-36.74Z"/><path class="cls-1" d="M147,50.46a39.54,39.54,0,0,1-24.14,36.43v0H92.06v0A39.54,39.54,0,1,1,147,50.46Z"/><path class="cls-1" d="M146.64,50.46a39.1,39.1,0,0,1-11.48,27.72,39.51,39.51,0,0,1-12.46,8.4,39,39,0,0,1-7.36,2.28v-2H99.54v2a38.72,38.72,0,0,1-7.35-2.28,39.51,39.51,0,0,1-12.46-8.4,39.19,39.19,0,1,1,66.91-27.72Z"/><circle class="cls-1" cx="107.44" cy="50.46" r="38.85"/><circle class="cls-1" cx="107.44" cy="50.46" r="38.52"/><circle class="cls-1" cx="107.44" cy="50.46" r="38.18"/><circle class="cls-1" cx="107.44" cy="50.46" r="37.84"/><circle class="cls-1" cx="107.44" cy="50.46" r="37.5"/><circle class="cls-1" cx="107.44" cy="50.46" r="37.17"/><circle class="cls-1" cx="107.44" cy="50.46" r="36.83"/><circle class="cls-1" cx="107.44" cy="50.46" r="36.49"/><circle class="cls-1" cx="107.44" cy="50.46" r="36.15"/><circle class="cls-1" cx="107.44" cy="50.46" r="35.81"/><circle class="cls-1" cx="107.44" cy="50.46" r="35.48"/><circle class="cls-1" cx="107.44" cy="50.46" r="35.14"/><circle class="cls-1" cx="107.44" cy="50.46" r="34.8"/><circle class="cls-1" cx="107.44" cy="50.46" r="34.46"/><circle class="cls-1" cx="107.44" cy="50.46" r="34.12"/><circle class="cls-1" cx="107.44" cy="50.46" r="33.79"/><circle class="cls-1" cx="107.44" cy="50.46" r="33.45"/><circle class="cls-1" cx="107.44" cy="50.46" r="33.11"/><circle class="cls-1" cx="107.44" cy="50.46" r="32.77"/><circle class="cls-1" cx="107.44" cy="50.46" r="32.44"/><circle class="cls-1" cx="107.44" cy="50.46" r="32.1"/><circle class="cls-1" cx="107.44" cy="50.46" r="31.76"/><circle class="cls-1" cx="107.44" cy="50.46" r="31.42"/><circle class="cls-1" cx="107.44" cy="50.46" r="31.08"/><circle class="cls-1" cx="107.44" cy="50.46" r="30.75"/><circle class="cls-1" cx="107.44" cy="50.46" r="30.41"/><circle class="cls-1" cx="107.44" cy="50.46" r="30.07"/><circle class="cls-1" cx="107.44" cy="50.46" r="29.73"/><circle class="cls-1" cx="107.44" cy="50.46" r="29.39"/><circle class="cls-1" cx="107.44" cy="50.46" r="29.06"/><circle class="cls-1" cx="107.44" cy="50.46" r="28.72"/><circle class="cls-1" cx="107.44" cy="50.46" r="28.38"/><circle class="cls-1" cx="107.44" cy="50.46" r="28.04"/><circle class="cls-1" cx="107.44" cy="50.46" r="27.71"/><circle class="cls-1" cx="107.44" cy="50.46" r="27.37"/><circle class="cls-1" cx="107.44" cy="50.46" r="27.03"/><circle class="cls-1" cx="107.44" cy="50.46" r="26.69"/><circle class="cls-1" cx="107.44" cy="50.46" r="26.35"/><circle class="cls-1" cx="107.44" cy="50.46" r="26.02"/><circle class="cls-1" cx="107.44" cy="50.46" r="25.68"/><circle class="cls-1" cx="107.44" cy="50.46" r="25.34"/><circle class="cls-1" cx="107.44" cy="50.46" r="25"/><circle class="cls-1" cx="107.44" cy="50.46" r="24.66"/><circle class="cls-1" cx="107.44" cy="50.46" r="24.33"/><circle class="cls-1" cx="107.44" cy="50.46" r="23.99"/><circle class="cls-1" cx="107.44" cy="50.46" r="23.65"/><circle class="cls-1" cx="107.44" cy="50.46" r="23.31"/><circle class="cls-1" cx="107.44" cy="50.46" r="22.98"/><circle class="cls-1" cx="107.44" cy="50.46" r="22.64"/><circle class="cls-1" cx="107.44" cy="50.46" r="22.3"/><circle class="cls-1" cx="107.44" cy="50.46" r="21.96"/><circle class="cls-1" cx="107.44" cy="50.46" r="21.62"/><circle class="cls-1" cx="107.44" cy="50.46" r="21.29"/><circle class="cls-1" cx="107.44" cy="50.46" r="20.95"/><circle class="cls-1" cx="107.44" cy="50.46" r="20.61"/><circle class="cls-1" cx="107.44" cy="50.46" r="20.27"/><circle class="cls-1" cx="107.44" cy="50.46" r="19.93"/><circle class="cls-1" cx="107.44" cy="50.46" r="19.6"/><circle class="cls-1" cx="107.44" cy="50.46" r="19.26"/><circle class="cls-1" cx="107.44" cy="50.46" r="18.92"/><circle class="cls-1" cx="107.44" cy="50.46" r="18.58"/><circle class="cls-1" cx="107.44" cy="50.46" r="18.24"/><circle class="cls-1" cx="107.44" cy="50.46" r="17.91"/><circle class="cls-1" cx="107.44" cy="50.46" r="17.57"/><circle class="cls-1" cx="107.44" cy="50.46" r="17.23"/><circle class="cls-1" cx="107.44" cy="50.46" r="16.89"/><circle class="cls-1" cx="107.44" cy="50.46" r="16.56"/><circle class="cls-1" cx="107.44" cy="50.46" r="16.22"/><circle class="cls-1" cx="107.44" cy="50.46" r="15.88"/><circle class="cls-1" cx="107.44" cy="50.46" r="15.54"/><circle class="cls-1" cx="107.44" cy="50.46" r="15.2"/><circle class="cls-1" cx="107.44" cy="50.46" r="14.87"/><circle class="cls-1" cx="107.44" cy="50.46" r="14.53"/><circle class="cls-1" cx="107.44" cy="50.46" r="14.19"/><circle class="cls-1" cx="107.44" cy="50.46" r="13.85"/><circle class="cls-1" cx="107.44" cy="50.46" r="13.51"/><circle class="cls-1" cx="107.44" cy="50.46" r="13.18"/><circle class="cls-1" cx="107.44" cy="50.46" r="12.84"/><circle class="cls-1" cx="107.44" cy="50.46" r="12.5"/><circle class="cls-1" cx="107.44" cy="50.46" r="12.16"/><circle class="cls-1" cx="107.44" cy="50.46" r="11.83"/><circle class="cls-1" cx="107.44" cy="50.46" r="11.49"/><circle class="cls-1" cx="107.44" cy="50.46" r="11.15"/><circle class="cls-1" cx="107.44" cy="50.46" r="10.81"/><circle class="cls-1" cx="107.44" cy="50.46" r="10.47"/><circle class="cls-1" cx="107.44" cy="50.46" r="10.14"/><circle class="cls-1" cx="107.44" cy="50.46" r="9.8"/><circle class="cls-1" cx="107.44" cy="50.46" r="9.46"/><circle class="cls-1" cx="107.44" cy="50.46" r="9.12"/><circle class="cls-1" cx="107.44" cy="50.46" r="8.78"/><circle class="cls-1" cx="107.44" cy="50.46" r="8.45"/><circle class="cls-1" cx="107.44" cy="50.46" r="8.11"/><circle class="cls-1" cx="107.44" cy="50.46" r="7.77"/><circle class="cls-1" cx="107.44" cy="50.46" r="7.43"/><circle class="cls-1" cx="107.44" cy="50.46" r="7.1"/><circle class="cls-1" cx="107.44" cy="50.46" r="6.76"/><circle class="cls-1" cx="107.44" cy="50.46" r="6.42"/><circle class="cls-1" cx="107.44" cy="50.46" r="6.08"/><circle class="cls-1" cx="107.44" cy="50.46" r="5.74"/><circle class="cls-1" cx="107.44" cy="50.46" r="5.41"/><circle class="cls-1" cx="107.44" cy="50.46" r="5.07"/><circle class="cls-1" cx="107.44" cy="50.46" r="4.73"/><circle class="cls-1" cx="107.44" cy="50.46" r="4.39"/><circle class="cls-1" cx="107.44" cy="50.46" r="4.05"/><circle class="cls-1" cx="107.44" cy="50.46" r="3.72"/><circle class="cls-1" cx="107.44" cy="50.46" r="3.38"/><circle class="cls-1" cx="107.44" cy="50.46" r="3.04"/><circle class="cls-1" cx="107.44" cy="50.46" r="2.7"/><circle class="cls-1" cx="107.44" cy="50.46" r="2.37"/><circle class="cls-1" cx="107.44" cy="50.46" r="2.03"/><circle class="cls-1" cx="107.44" cy="50.46" r="1.69"/><circle class="cls-1" cx="107.44" cy="50.46" r="1.35"/><circle class="cls-1" cx="107.44" cy="50.46" r="1.01"/><circle class="cls-1" cx="107.44" cy="50.46" r="0.68"/><circle class="cls-1" cx="107.44" cy="50.46" r="0.34"/></g><path class="cls-2" d="M7.58,30.72C6,33.43,6.24,37.26,6.64,44.92A57.56,57.56,0,0,0,9.26,61.3c.84,2.52,3.7,11.83,10,17,9.63,8,20.85,3.94,54,2.57,10.79-.44,18.6-.39,27.33-.32,47.08.35,58.84.64,58.84.64A84.06,84.06,0,0,0,188,75.77a16.83,16.83,0,0,0,4.87-2.68c2.83-2.26,6.21-6.58,7.46-19.2,1.4-14.14,2.13-21.48-2.54-27.13-8.39-10.16-27.75-7-27.79-6.62s14.7.78,15.11,4.18c.35,2.86-10.26,6.35-14,7.55-21.47,6.94-38.48,6-64.16,6.27-27.53.27-40.16,1.63-64.31-1.28-6.7-.81-24.09-2.51-24.44-6.76-.14-1.66,2.35-3.37,3.74-4.33,5.19-3.59,11-3.21,11-3.06S13.11,21,7.58,30.72Z"/><g class="cls-4"><rect class="cls-2" x="-2.89" y="13.13" width="212.03" height="73.21"/><path class="cls-2" d="M190.13,50.34a85.89,85.89,0,0,1-6.77,33.54c-.54,1.29-1.12,2.56-1.72,3.82v-1H26.32v1c-.61-1.26-1.18-2.53-1.73-3.82a86.44,86.44,0,0,1,0-67.07c.55-1.29,1.12-2.56,1.73-3.82.3-.63.61-1.25.93-1.87v1.62H180.71V11.12l.93,1.87c.6,1.26,1.18,2.53,1.72,3.82A85.84,85.84,0,0,1,190.13,50.34Z"/><path class="cls-2" d="M189.79,50.34a85.63,85.63,0,0,1-6.74,33.41c-.54,1.28-1.12,2.55-1.72,3.8v-.82H26.62v.82C26,86.3,25.44,85,24.9,83.75a86.15,86.15,0,0,1,0-66.81c.54-1.29,1.12-2.55,1.72-3.8.3-.63.61-1.25.93-1.87v1.47H180.41V11.27c.31.62.62,1.24.92,1.87.6,1.25,1.18,2.51,1.72,3.8A85.58,85.58,0,0,1,189.79,50.34Z"/><path class="cls-2" d="M189.46,50.34a85.15,85.15,0,0,1-6.72,33.28c-.54,1.27-1.11,2.54-1.71,3.78v-.67H26.92v.67c-.6-1.24-1.17-2.51-1.71-3.78a85.86,85.86,0,0,1,0-66.55c.54-1.28,1.11-2.54,1.71-3.79.3-.62.61-1.24.93-1.85v1.31H180.11V11.43c.31.61.62,1.23.92,1.85.6,1.25,1.17,2.51,1.71,3.79A85.14,85.14,0,0,1,189.46,50.34Z"/><path class="cls-2" d="M189.12,50.34a84.8,84.8,0,0,1-6.69,33.14q-.81,1.92-1.71,3.78v-.53H27.23v.53q-.9-1.86-1.71-3.78a85.43,85.43,0,0,1,0-66.28c.54-1.27,1.11-2.53,1.71-3.77.3-.62.6-1.24.92-1.85v1.16H179.8V11.58c.32.61.62,1.23.92,1.85.6,1.24,1.17,2.5,1.71,3.77A84.87,84.87,0,0,1,189.12,50.34Z"/><path class="cls-2" d="M188.78,50.34a84.54,84.54,0,0,1-6.66,33c-.54,1.27-1.11,2.52-1.7,3.76v-.38H27.53v.38c-.59-1.24-1.16-2.49-1.69-3.76a85,85,0,0,1,0-66c.53-1.27,1.1-2.52,1.69-3.75.3-.62.61-1.24.92-1.84v1H179.5v-1c.32.6.62,1.22.92,1.84.59,1.23,1.16,2.48,1.7,3.75A84.57,84.57,0,0,1,188.78,50.34Z"/><path class="cls-2" d="M188.44,50.34a84.23,84.23,0,0,1-6.63,32.88c-.54,1.26-1.1,2.51-1.7,3.74v-.23H27.84V87c-.59-1.23-1.16-2.48-1.69-3.74a84.73,84.73,0,0,1,0-65.76c1.07-2.52,2.25-5,3.55-7.38v2.66H178.25V10.08c1.3,2.39,2.49,4.86,3.56,7.38A84.31,84.31,0,0,1,188.44,50.34Z"/><path class="cls-2" d="M188.11,50.34a83.84,83.84,0,0,1-6.62,32.75c-.53,1.26-1.09,2.5-1.68,3.73v-.09H28.14v.09c-.59-1.23-1.15-2.47-1.68-3.73a84.41,84.41,0,0,1,0-65.49c1.06-2.52,2.25-5,3.54-7.36v2.5H178v-2.5a81.6,81.6,0,0,1,3.54,7.36A83.79,83.79,0,0,1,188.11,50.34Z"/><path class="cls-2" d="M187.77,50.34A83.57,83.57,0,0,1,181.18,83c-.53,1.25-1.09,2.49-1.67,3.71-.3.61-.6,1.22-.91,1.82V86.73H29.35v1.76c-.31-.6-.61-1.21-.9-1.82-.59-1.22-1.15-2.46-1.68-3.71a84,84,0,0,1,0-65.23Q28.36,14,30.3,10.4v2.34H177.65V10.4q1.93,3.57,3.53,7.33A83.49,83.49,0,0,1,187.77,50.34Z"/><path class="cls-2" d="M187.43,50.34a83.27,83.27,0,0,1-6.56,32.49c-.53,1.24-1.08,2.48-1.67,3.69-.29.61-.59,1.22-.9,1.82V86.73H29.65v1.61l-.9-1.82c-.58-1.21-1.14-2.45-1.67-3.69a83.71,83.71,0,0,1,0-65q1.59-3.75,3.52-7.3v2.18H177.36V10.56c1.28,2.37,2.46,4.8,3.51,7.3A83.22,83.22,0,0,1,187.43,50.34Z"/><path class="cls-2" d="M187.09,50.34a82.82,82.82,0,0,1-6.53,32.36c-.53,1.24-1.08,2.47-1.66,3.68-.3.6-.59,1.2-.9,1.8V86.73H30v1.45c-.3-.6-.6-1.2-.89-1.8-.59-1.21-1.14-2.44-1.67-3.68a83.42,83.42,0,0,1,0-64.71q1.58-3.73,3.5-7.27v2H177.06v-2q1.92,3.54,3.5,7.27A82.77,82.77,0,0,1,187.09,50.34Z"/><path class="cls-2" d="M186.75,50.34a82.47,82.47,0,0,1-6.5,32.22c-.52,1.24-1.08,2.46-1.66,3.67-.29.6-.59,1.2-.89,1.8v-1.3H30.25V88c-.3-.6-.6-1.2-.89-1.8-.58-1.21-1.13-2.43-1.66-3.67a83.11,83.11,0,0,1,0-64.44c1.05-2.47,2.21-4.89,3.49-7.23v1.85H176.76V10.89c1.28,2.34,2.44,4.76,3.49,7.23A82.51,82.51,0,0,1,186.75,50.34Z"/><path class="cls-2" d="M186.42,50.34a82.18,82.18,0,0,1-6.48,32.09c-.52,1.24-1.07,2.45-1.65,3.65-.29.6-.59,1.2-.89,1.79V86.73H30.56v1.14c-.31-.59-.6-1.19-.89-1.79-.58-1.2-1.13-2.41-1.66-3.65a82.82,82.82,0,0,1,0-64.18c1-2.46,2.21-4.87,3.48-7.2v1.69h145V11.05c1.27,2.33,2.42,4.74,3.47,7.2A82.25,82.25,0,0,1,186.42,50.34Z"/><path class="cls-2" d="M186.08,50.34a81.91,81.91,0,0,1-6.45,32c-.52,1.23-1.07,2.44-1.65,3.64-.29.6-.58,1.19-.88,1.78v-1H30.86v1c-.31-.59-.6-1.18-.89-1.78-.58-1.2-1.12-2.41-1.64-3.64a82.29,82.29,0,0,1,0-63.92c1-2.45,2.19-4.85,3.45-7.17v1.53H176.17V11.21c1.26,2.32,2.42,4.72,3.46,7.17A82,82,0,0,1,186.08,50.34Z"/><path class="cls-2" d="M185.74,50.34a81.65,81.65,0,0,1-6.42,31.83c-1,2.44-2.19,4.83-3.45,7.15V86.73H32.08v2.59c-1.26-2.32-2.41-4.71-3.44-7.15a82,82,0,0,1,0-63.65q1.55-3.67,3.44-7.15v1.37H175.87V11.37q1.89,3.48,3.45,7.15A81.6,81.6,0,0,1,185.74,50.34Z"/><path class="cls-2" d="M185.4,50.34A81.17,81.17,0,0,1,179,82c-1,2.43-2.17,4.81-3.43,7.12V86.73H32.38v2.43C31.12,86.85,30,84.47,29,82a81.68,81.68,0,0,1,0-63.39,79,79,0,0,1,3.43-7.12v1.21H175.57V11.53A79,79,0,0,1,179,18.65,81.16,81.16,0,0,1,185.4,50.34Z"/><path class="cls-2" d="M185.06,50.34a80.76,80.76,0,0,1-6.37,31.57A78.13,78.13,0,0,1,175.28,89V86.73H32.67V89c-1.24-2.29-2.38-4.66-3.41-7.08a81.39,81.39,0,0,1,0-63.13q1.54-3.64,3.41-7.09v1.05H175.28V11.69a78.31,78.31,0,0,1,3.41,7.09A80.71,80.71,0,0,1,185.06,50.34Z"/><path class="cls-2" d="M184.73,50.34a80.42,80.42,0,0,1-6.35,31.43c-1,2.42-2.16,4.78-3.4,7.06v-2.1H33v2.1c-1.24-2.28-2.38-4.64-3.4-7.06a81.08,81.08,0,0,1,0-62.86c1-2.41,2.16-4.77,3.4-7.06v.89H175v-.89c1.24,2.29,2.38,4.65,3.4,7.06A80.42,80.42,0,0,1,184.73,50.34Z"/><path class="cls-2" d="M184.39,50.34a80.11,80.11,0,0,1-6.32,31.3q-1.53,3.61-3.39,7V86.73H33.27v1.94q-1.86-3.42-3.39-7a80.67,80.67,0,0,1,0-62.6c1-2.4,2.15-4.75,3.39-7v.73H174.68V12c1.24,2.28,2.37,4.63,3.39,7A80.15,80.15,0,0,1,184.39,50.34Z"/><path class="cls-2" d="M184.05,50.34a79.85,79.85,0,0,1-6.29,31.17c-1,2.4-2.14,4.73-3.37,7V86.73H33.57v1.78c-1.24-2.27-2.36-4.6-3.38-7a80.38,80.38,0,0,1,0-62.34c1-2.39,2.14-4.73,3.38-7v.57H174.39v-.57c1.23,2.27,2.36,4.61,3.37,7A79.89,79.89,0,0,1,184.05,50.34Z"/><path class="cls-2" d="M183.71,50.34a79.58,79.58,0,0,1-6.26,31c-1,2.38-2.13,4.71-3.36,7V86.73H33.86v1.62c-1.22-2.26-2.35-4.59-3.35-7a79.94,79.94,0,0,1,0-62.07c1-2.39,2.13-4.71,3.35-7v.4H174.09v-.4q1.84,3.39,3.36,7A79.53,79.53,0,0,1,183.71,50.34Z"/><path class="cls-2" d="M183.38,50.34a79.29,79.29,0,0,1-6.24,30.91c-1,2.37-2.13,4.69-3.35,6.94V86.73H34.16v1.46c-1.22-2.25-2.34-4.57-3.34-6.94a79.65,79.65,0,0,1,0-61.81c1-2.38,2.12-4.69,3.34-6.94v.24H173.79V12.5q1.83,3.38,3.35,6.94A79.27,79.27,0,0,1,183.38,50.34Z"/><path class="cls-2" d="M183,50.34a78.67,78.67,0,0,1-6.22,30.78c-1,2.36-2.11,4.67-3.32,6.91v-1.3h-139V88c-1.22-2.24-2.33-4.55-3.33-6.91a79.24,79.24,0,0,1,0-61.55q1.5-3.55,3.33-6.91v.08h139v-.08q1.81,3.36,3.32,6.91A78.66,78.66,0,0,1,183,50.34Z"/><path class="cls-2" d="M182.7,50.34A78.4,78.4,0,0,1,176.51,81c-1,2.35-2.1,4.65-3.31,6.88V86.73H34.75v1.14c-1.21-2.23-2.31-4.53-3.31-6.88a79,79,0,0,1,0-61.29c1-2.35,2.1-4.65,3.31-6.88l.93-1.66v1.58H172.27V11.16c.32.55.63,1.1.93,1.66,1.21,2.23,2.32,4.53,3.31,6.88A78.35,78.35,0,0,1,182.7,50.34Z"/><path class="cls-2" d="M182.36,50.34a78,78,0,0,1-6.16,30.51c-1,2.35-2.09,4.63-3.3,6.86v-1H35.05v1c-1.21-2.23-2.31-4.51-3.3-6.86a78.64,78.64,0,0,1,0-61c1-2.34,2.09-4.63,3.3-6.85q.45-.84.93-1.65v1.41H172V11.33c.31.54.62,1.09.92,1.65,1.21,2.22,2.31,4.51,3.3,6.85A78.09,78.09,0,0,1,182.36,50.34Z"/><path class="cls-2" d="M182,50.34a77.75,77.75,0,0,1-6.13,30.38c-1,2.34-2.08,4.61-3.29,6.83v-.82H35.35v.82c-1.2-2.22-2.3-4.49-3.29-6.83a78.35,78.35,0,0,1,0-60.76c1-2.33,2.09-4.61,3.29-6.82.3-.55.61-1.1.92-1.65v1.25H171.68V11.49c.32.55.62,1.1.92,1.65,1.21,2.21,2.3,4.49,3.29,6.82A77.82,77.82,0,0,1,182,50.34Z"/><path class="cls-2" d="M181.69,50.34a77.53,77.53,0,0,1-6.11,30.25c-1,2.33-2.08,4.59-3.27,6.79v-.65H35.65v.65q-1.8-3.3-3.28-6.79a78.06,78.06,0,0,1,0-60.5c1-2.32,2.08-4.59,3.28-6.79.59-1.1,1.22-2.18,1.87-3.25v2.69H170.44V10.05c.64,1.07,1.27,2.15,1.87,3.25,1.19,2.2,2.29,4.47,3.27,6.79A77.53,77.53,0,0,1,181.69,50.34Z"/><path class="cls-2" d="M181.35,50.34a77.22,77.22,0,0,1-6.08,30.12c-1,2.31-2.07,4.57-3.26,6.76v-.49H35.94v.49c-1.19-2.19-2.28-4.45-3.26-6.76a77.62,77.62,0,0,1,0-60.23c1-2.32,2.07-4.57,3.26-6.77.6-1.09,1.22-2.17,1.87-3.24v2.52H170.15V10.22q1,1.6,1.86,3.24c1.19,2.2,2.28,4.45,3.26,6.77A77.18,77.18,0,0,1,181.35,50.34Z"/><path class="cls-2" d="M181,50.34a77,77,0,0,1-6,30c-1,2.3-2.06,4.55-3.25,6.73v-.33H36.24v.33A74.35,74.35,0,0,1,33,80.33a77.21,77.21,0,0,1,0-60,74.53,74.53,0,0,1,3.24-6.74c.59-1.09,1.21-2.16,1.85-3.22v2.34H169.86V10.4c.64,1.06,1.26,2.13,1.85,3.22,1.19,2.19,2.27,4.43,3.25,6.74A76.91,76.91,0,0,1,181,50.34Z"/><path class="cls-2" d="M180.67,50.34a76.51,76.51,0,0,1-6,29.86c-1,2.29-2.05,4.53-3.23,6.7v-.17H36.54v.17c-1.18-2.17-2.26-4.41-3.23-6.7a76.92,76.92,0,0,1,0-59.71q1.45-3.43,3.23-6.71c.59-1.08,1.2-2.15,1.84-3.21v2.17H169.57V10.57c.64,1.06,1.26,2.13,1.85,3.21q1.77,3.27,3.23,6.71A76.46,76.46,0,0,1,180.67,50.34Z"/><path class="cls-2" d="M180.33,50.34a76,76,0,0,1-6,29.72c-1,2.29-2,4.52-3.21,6.68H36.83c-1.17-2.16-2.25-4.39-3.21-6.68a76.61,76.61,0,0,1,0-59.44c1-2.28,2-4.51,3.21-6.67.59-1.09,1.2-2.15,1.84-3.2v2H169.28v-2c.64,1.05,1.25,2.11,1.84,3.2,1.17,2.16,2.25,4.39,3.21,6.67A76,76,0,0,1,180.33,50.34Z"/><path class="cls-2" d="M180,50.34a75.69,75.69,0,0,1-6,29.59c-1,2.28-2,4.49-3.2,6.65-.29.54-.59,1.07-.9,1.6V86.73H38v1.45c-.31-.53-.61-1.06-.9-1.6-1.17-2.16-2.24-4.37-3.2-6.65a76.32,76.32,0,0,1,0-59.18c1-2.27,2-4.49,3.2-6.64C37.72,13,38.33,12,39,10.92v1.82H169V10.92c.64,1.05,1.25,2.11,1.83,3.19,1.17,2.15,2.24,4.37,3.2,6.64A75.77,75.77,0,0,1,180,50.34Z"/><path class="cls-2" d="M179.66,50.34a75.43,75.43,0,0,1-5.95,29.46c-1,2.27-2,4.47-3.19,6.62-.29.53-.58,1.07-.89,1.59V86.73H38.32V88c-.3-.52-.6-1.06-.89-1.59-1.17-2.15-2.23-4.35-3.19-6.62a75.91,75.91,0,0,1,0-58.92c1-2.26,2-4.47,3.19-6.61.58-1.07,1.19-2.13,1.82-3.17v1.64H168.7V11.1c.63,1,1.24,2.1,1.82,3.17,1.17,2.14,2.23,4.35,3.19,6.61A75.46,75.46,0,0,1,179.66,50.34Z"/><path class="cls-2" d="M179.32,50.34a75.13,75.13,0,0,1-5.92,29.33Q172,83,170.23,86.26c-.58,1.06-1.19,2.12-1.82,3.15V86.73H39.54v2.68c-.63-1-1.23-2.09-1.81-3.15Q36,83.05,34.55,79.67a75.59,75.59,0,0,1,0-58.65q1.44-3.39,3.18-6.59c.58-1.07,1.18-2.12,1.81-3.16v1.47H168.41V11.27c.63,1,1.24,2.09,1.82,3.16A72.63,72.63,0,0,1,173.4,21,75.11,75.11,0,0,1,179.32,50.34Z"/><path class="cls-2" d="M179,50.34a74.86,74.86,0,0,1-5.89,29.2c-1,2.24-2,4.43-3.16,6.56-.58,1.06-1.18,2.11-1.81,3.14V86.73H39.83v2.51c-.63-1-1.23-2.08-1.81-3.14-1.15-2.13-2.21-4.32-3.16-6.56a75.3,75.3,0,0,1,0-58.39c1-2.25,2-4.43,3.16-6.56.58-1.06,1.18-2.11,1.81-3.14v1.29H168.12V11.45c.63,1,1.23,2.08,1.81,3.14,1.15,2.13,2.21,4.31,3.16,6.56A74.85,74.85,0,0,1,179,50.34Z"/><path class="cls-2" d="M178.65,50.34a74.46,74.46,0,0,1-5.87,29.07c-.95,2.23-2,4.41-3.15,6.52-.57,1.06-1.17,2.11-1.79,3.13V86.73H40.12v2.33c-.63-1-1.23-2.07-1.8-3.13-1.15-2.11-2.2-4.29-3.14-6.52a74.89,74.89,0,0,1,0-58.13c.94-2.24,2-4.41,3.14-6.53.57-1.06,1.17-2.1,1.8-3.13v1.12H167.84V11.62c.62,1,1.22,2.07,1.79,3.13,1.15,2.12,2.2,4.29,3.15,6.53A74.37,74.37,0,0,1,178.65,50.34Z"/><path class="cls-2" d="M178.31,50.34a74.16,74.16,0,0,1-5.84,28.94c-.94,2.22-2,4.39-3.13,6.49-.58,1.06-1.17,2.09-1.79,3.12V86.73H40.41v2.16c-.62-1-1.22-2.06-1.79-3.12a71.77,71.77,0,0,1-3.13-6.49,74.6,74.6,0,0,1,0-57.87q1.41-3.33,3.13-6.5c.57-1.05,1.17-2.09,1.79-3.11v.94H167.55V11.8c.62,1,1.21,2.06,1.79,3.11,1.14,2.11,2.19,4.28,3.13,6.5A74.11,74.11,0,0,1,178.31,50.34Z"/><path class="cls-2" d="M178,50.34a73.63,73.63,0,0,1-5.82,28.8A70,70,0,0,1,169,85.61c-.57,1-1.16,2.08-1.78,3.1v-2H40.7v2c-.62-1-1.22-2-1.79-3.1a70,70,0,0,1-3.11-6.47,74.17,74.17,0,0,1,0-57.6q1.39-3.32,3.11-6.47C39.48,14,40.08,13,40.7,12v.77H167.26V12c.62,1,1.21,2,1.78,3.1q1.71,3.15,3.11,6.47A73.67,73.67,0,0,1,178,50.34Z"/><path class="cls-2" d="M177.63,50.34A73.37,73.37,0,0,1,171.84,79a70.62,70.62,0,0,1-3.1,6.44c-.57,1-1.16,2.07-1.77,3.09V86.73H41v1.81c-.61-1-1.2-2-1.77-3.09C38.08,83.36,37,81.22,36.11,79a73.88,73.88,0,0,1,0-57.34c.93-2.2,2-4.35,3.1-6.44.57-1,1.16-2.07,1.77-3.08v.59H167v-.59c.61,1,1.2,2,1.77,3.08q1.71,3.14,3.1,6.44A73.37,73.37,0,0,1,177.63,50.34Z"/><path class="cls-2" d="M177.29,50.34a73.06,73.06,0,0,1-5.76,28.54q-1.4,3.28-3.09,6.41c-.56,1-1.15,2.06-1.76,3.07V86.73H41.27v1.63c-.61-1-1.2-2-1.76-3.07q-1.69-3.12-3.09-6.41a73.59,73.59,0,0,1,0-57.08c.93-2.19,2-4.33,3.09-6.4.56-1,1.15-2.07,1.76-3.07v.41H166.68v-.41c.61,1,1.2,2,1.76,3.07,1.13,2.07,2.16,4.21,3.09,6.4A73.14,73.14,0,0,1,177.29,50.34Z"/><path class="cls-2" d="M177,50.34a72.8,72.8,0,0,1-5.74,28.41c-.92,2.18-1.95,4.31-3.07,6.38-.56,1-1.15,2.05-1.76,3.06V86.73H41.56v1.46c-.61-1-1.19-2-1.76-3.06-1.12-2.07-2.15-4.2-3.07-6.38a73.27,73.27,0,0,1,0-56.81,70.67,70.67,0,0,1,3.07-6.38c.57-1,1.15-2.06,1.76-3.06v.24H166.39V12.5c.61,1,1.2,2,1.76,3.06a70.67,70.67,0,0,1,3.07,6.38A72.79,72.79,0,0,1,177,50.34Z"/><path class="cls-2" d="M176.62,50.34a72.36,72.36,0,0,1-5.71,28.28q-1.38,3.25-3.06,6.35c-.56,1-1.14,2-1.75,3V86.73H41.85V88c-.61-1-1.19-2-1.75-3Q38.42,81.88,37,78.62a72.86,72.86,0,0,1,0-56.55C38,19.89,39,17.78,40.1,15.72c.56-1,1.14-2.05,1.75-3v.06H166.1v-.06c.61,1,1.19,2,1.75,3,1.12,2.06,2.14,4.17,3.06,6.35A72.31,72.31,0,0,1,176.62,50.34Z"/><path class="cls-2" d="M176.28,50.34a72.06,72.06,0,0,1-5.68,28.15c-.92,2.16-1.93,4.27-3,6.32q-.83,1.53-1.74,3V86.73H42.14v1.11q-.9-1.5-1.74-3-1.66-3.07-3-6.32a72.57,72.57,0,0,1,0-56.29q1.38-3.24,3-6.32.84-1.55,1.74-3c.3-.5.61-1,.92-1.48v1.37H164.89V11.37c.31.49.62,1,.92,1.48q.91,1.49,1.74,3c1.12,2,2.13,4.16,3,6.32A72,72,0,0,1,176.28,50.34Z"/><path class="cls-2" d="M175.94,50.34a71.79,71.79,0,0,1-5.65,28c-.91,2.15-1.93,4.25-3,6.29-.56,1-1.14,2-1.74,3v-.93H42.43v.93c-.6-1-1.18-2-1.73-3q-1.66-3.06-3-6.29A71.89,71.89,0,0,1,44.3,10.11v2.63H163.65V10.11a71.47,71.47,0,0,1,12.29,40.23Z"/><path class="cls-2" d="M175.6,50.34A71.48,71.48,0,0,1,170,78.22q-1.36,3.23-3,6.27c-.55,1-1.13,2-1.73,3v-.75H42.72v.75c-.6-1-1.18-2-1.73-3a69.47,69.47,0,0,1-3-6.27,71.85,71.85,0,0,1,0-55.76,72.16,72.16,0,0,1,6.6-12.17v2.45H163.37V10.29A72.21,72.21,0,0,1,170,22.46,71.48,71.48,0,0,1,175.6,50.34Z"/><path class="cls-2" d="M175.27,50.34a71,71,0,0,1-5.61,27.75q-1.35,3.19-3,6.23c-.55,1-1.12,2-1.71,3v-.58H43v.58c-.6-1-1.17-2-1.72-3q-1.65-3-3-6.23a71.22,71.22,0,0,1,6.57-67.61v2.26H163.09V10.48a71.07,71.07,0,0,1,12.18,39.86Z"/><path class="cls-2" d="M174.93,50.34A70.74,70.74,0,0,1,169.35,78c-.89,2.12-1.89,4.19-3,6.2q-.83,1.52-1.71,3v-.4H43.3v.4q-.9-1.45-1.71-3-1.64-3-3-6.2a70.87,70.87,0,0,1,6.54-67.29v2.07H162.81V10.67a70.66,70.66,0,0,1,12.12,39.67Z"/><path class="cls-2" d="M174.59,50.34A70.48,70.48,0,0,1,169,77.83q-1.33,3.17-3,6.17c-.55,1-1.11,2-1.7,3v-.23H43.58V87c-.58-1-1.15-2-1.7-3-1.08-2-2.08-4.06-3-6.17a70.55,70.55,0,0,1,6.51-67v1.88H162.53V10.86a70.35,70.35,0,0,1,12.06,39.48Z"/><path class="cls-2" d="M174.25,50.34a70,70,0,0,1-5.52,27.36q-1.33,3.15-3,6.14c-.54,1-1.1,2-1.69,2.94v0H43.87v0c-.58-1-1.15-1.94-1.69-2.94q-1.62-3-3-6.14A70.19,70.19,0,0,1,45.7,11.05v1.69H162.25V11.05a69.94,69.94,0,0,1,12,39.29Z"/><path class="cls-2" d="M173.92,50.34A69.62,69.62,0,0,1,162,89.45V86.73H46v2.72a69.84,69.84,0,0,1,0-78.21v1.5H162v-1.5a69.62,69.62,0,0,1,11.95,39.1Z"/><path class="cls-2" d="M173.58,50.34a69.31,69.31,0,0,1-11.89,38.92V86.73H46.26v2.53a70.3,70.3,0,0,1-6.42-11.83,69.93,69.93,0,0,1,0-54.18,70.2,70.2,0,0,1,6.42-11.82v1.31H161.69V11.43a69.21,69.21,0,0,1,11.89,38.91Z"/><path class="cls-2" d="M173.24,50.34a68.9,68.9,0,0,1-11.83,38.73V86.73H46.54v2.34a69.2,69.2,0,0,1,0-77.45v1.12H161.41V11.62a68.81,68.81,0,0,1,11.83,38.72Z"/><path class="cls-2" d="M172.9,50.34a68.5,68.5,0,0,1-11.77,38.54V86.73H46.82v2.15a68.84,68.84,0,0,1,0-77.07v.93H161.13v-.93A68.4,68.4,0,0,1,172.9,50.34Z"/><path class="cls-2" d="M172.56,50.34a68.32,68.32,0,0,1-11.71,38.35v-2H47.1v2a68.57,68.57,0,0,1,0-76.7v.75H160.85V12a67.57,67.57,0,0,1,6.32,11.66A68.33,68.33,0,0,1,172.56,50.34Z"/><path class="cls-2" d="M172.23,50.34A68,68,0,0,1,160.57,88.5V86.73H47.38V88.5a68.21,68.21,0,0,1,0-76.32v.56H160.57v-.56a68.09,68.09,0,0,1,11.66,38.16Z"/><path class="cls-2" d="M171.89,50.34a67.59,67.59,0,0,1-11.6,38V86.73H47.66v1.58a67.85,67.85,0,0,1,0-75.94v.37H160.29v-.37a68.34,68.34,0,0,1,6.26,11.54A67.62,67.62,0,0,1,171.89,50.34Z"/><path class="cls-2" d="M171.55,50.34A67.18,67.18,0,0,1,160,88.12V86.73H47.94v1.39a67.49,67.49,0,0,1,0-75.56v.18H160v-.18a67.27,67.27,0,0,1,11.54,37.78Z"/><path class="cls-2" d="M171.21,50.34a67,67,0,0,1-11.48,37.6V86.73H48.22v1.21A68.07,68.07,0,0,1,42,76.51a67.5,67.5,0,0,1,0-52.34,68.37,68.37,0,0,1,6.2-11.42c.61-.89,1.23-1.77,1.88-2.64v2.63H157.85V10.11c.65.87,1.28,1.75,1.88,2.64a66.87,66.87,0,0,1,11.48,37.59Z"/><path class="cls-2" d="M170.87,50.34a66.75,66.75,0,0,1-5.25,26,67.76,67.76,0,0,1-6.17,11.37v-1H48.5v1a66.87,66.87,0,0,1,0-74.81c.6-.89,1.23-1.76,1.87-2.62v2.42H157.58V10.32c.65.86,1.27,1.73,1.87,2.62a67.67,67.67,0,0,1,6.17,11.36A66.83,66.83,0,0,1,170.87,50.34Z"/><path class="cls-2" d="M170.54,50.34a66.24,66.24,0,0,1-11.37,37.22v-.83H48.78v.83a66.51,66.51,0,0,1,0-74.43q.9-1.34,1.86-2.61v2.22H157.31V10.52q1,1.27,1.86,2.61a66.14,66.14,0,0,1,11.37,37.21Z"/><path class="cls-2" d="M170.2,50.34a66.06,66.06,0,0,1-11.31,37v-.64H49.06v.64A66.3,66.3,0,0,1,43,24.57a65.25,65.25,0,0,1,6.1-11.25c.6-.88,1.21-1.75,1.85-2.6v2H157v-2c.64.85,1.25,1.72,1.85,2.6a66.06,66.06,0,0,1,11.31,37Z"/><path class="cls-2" d="M169.86,50.34a65.65,65.65,0,0,1-11.25,36.84v-.45H49.34v.45A66.72,66.72,0,0,1,43.27,76a65.83,65.83,0,0,1,6.07-62.48c.6-.88,1.21-1.74,1.84-2.59v1.82H156.77V10.92c.63.85,1.25,1.71,1.84,2.59a65.65,65.65,0,0,1,11.25,36.83Z"/><path class="cls-2" d="M169.52,50.34a65.34,65.34,0,0,1-5.15,25.52,66,66,0,0,1-6,11.13v-.26H49.62V87a66,66,0,0,1-6-11.13,65.47,65.47,0,0,1,6-62.16c.59-.88,1.2-1.73,1.83-2.57v1.61H156.5V11.13c.63.84,1.24,1.69,1.83,2.57a65.24,65.24,0,0,1,11.19,36.64Z"/><path class="cls-2" d="M169.18,50.34A64.93,64.93,0,0,1,158.05,86.8v-.07H49.9v.07a65.16,65.16,0,0,1,0-72.92c.59-.86,1.2-1.72,1.82-2.55v1.41H156.23V11.33c.63.83,1.23,1.69,1.82,2.55a64.93,64.93,0,0,1,11.13,36.46Z"/><path class="cls-2" d="M168.85,50.34a64.61,64.61,0,0,1-11.08,36.27c-.58.87-1.19,1.71-1.81,2.55V86.73H52v2.43c-.62-.84-1.22-1.68-1.81-2.55a64.8,64.8,0,0,1,0-72.54c.59-.86,1.19-1.71,1.81-2.54v1.21H156V11.53c.62.83,1.23,1.68,1.81,2.54a64.61,64.61,0,0,1,11.08,36.27Z"/><path class="cls-2" d="M168.51,50.34a64.2,64.2,0,0,1-11,36.08c-.58.86-1.18,1.71-1.8,2.53V86.73H52.26V89c-.62-.82-1.22-1.67-1.8-2.53a65.44,65.44,0,0,1-6-11,64.77,64.77,0,0,1,0-50.24,65.83,65.83,0,0,1,6-11c.58-.86,1.18-1.7,1.8-2.53v1H155.69v-1c.62.83,1.22,1.67,1.8,2.53a64.2,64.2,0,0,1,11,36.08Z"/><path class="cls-2" d="M168.17,50.34a63.79,63.79,0,0,1-11,35.89c-.58.86-1.18,1.7-1.79,2.52v-2H52.53v2c-.61-.82-1.21-1.66-1.79-2.52a64.2,64.2,0,0,1,0-71.78c.58-.85,1.18-1.69,1.79-2.52v.81H155.42v-.81c.61.83,1.21,1.67,1.79,2.52a63.89,63.89,0,0,1,11,35.89Z"/><path class="cls-2" d="M167.83,50.34a63.68,63.68,0,0,1-5,24.86,64.52,64.52,0,0,1-5.89,10.85c-.58.85-1.17,1.68-1.78,2.5V86.73H52.81v1.82c-.62-.82-1.21-1.65-1.79-2.5a63.85,63.85,0,0,1,0-71.41c.58-.85,1.17-1.68,1.79-2.5v.6H155.15v-.6c.61.82,1.2,1.65,1.78,2.5a64.52,64.52,0,0,1,5.89,10.85A63.67,63.67,0,0,1,167.83,50.34Z"/><path class="cls-2" d="M167.5,50.34a63.39,63.39,0,0,1-10.85,35.52q-.85,1.26-1.77,2.49V86.73H53.08v1.62q-.91-1.23-1.77-2.49a63.41,63.41,0,0,1,0-71q.86-1.28,1.77-2.49v.4h101.8v-.4q.92,1.21,1.77,2.49A63.39,63.39,0,0,1,167.5,50.34Z"/><path class="cls-2" d="M167.16,50.34a63,63,0,0,1-10.79,35.33c-.57.84-1.16,1.66-1.76,2.48V86.73H53.35v1.42c-.61-.82-1.2-1.64-1.76-2.48a63.24,63.24,0,0,1-5.83-59.92A62.44,62.44,0,0,1,51.59,15c1.13-1.68,2.34-3.31,3.63-4.87v2.59h97.51V10.15c1.29,1.56,2.5,3.19,3.64,4.87a63,63,0,0,1,10.79,35.32Z"/><path class="cls-2" d="M166.82,50.34a62.67,62.67,0,0,1-10.73,35.14c-.57.84-1.15,1.66-1.75,2.46V86.73H53.62v1.21c-.61-.8-1.19-1.62-1.75-2.46a62.69,62.69,0,0,1,0-70.27,59,59,0,0,1,3.61-4.84v2.37h97V10.37q1.92,2.33,3.62,4.84a62.57,62.57,0,0,1,10.73,35.13Z"/><path class="cls-2" d="M166.48,50.34a62.26,62.26,0,0,1-10.67,35c-.56.83-1.15,1.65-1.75,2.45v-1H53.89v1c-.6-.8-1.18-1.62-1.74-2.45A62.61,62.61,0,0,1,46.38,26,61.75,61.75,0,0,1,52.15,15.4c1.12-1.67,2.32-3.27,3.59-4.82v2.16h96.47V10.58c1.27,1.55,2.47,3.15,3.6,4.82a62.17,62.17,0,0,1,10.67,34.94Z"/><path class="cls-2" d="M166.14,50.34A61.86,61.86,0,0,1,155.53,85.1c-.56.83-1.14,1.64-1.74,2.44v-.81H54.16v.81c-.6-.8-1.18-1.61-1.73-2.44a62,62,0,0,1,0-69.52c1.11-1.65,2.31-3.25,3.57-4.78v1.94H152V10.8c1.26,1.53,2.46,3.13,3.58,4.78a61.86,61.86,0,0,1,10.61,34.76Z"/><path class="cls-2" d="M165.81,50.34a61.53,61.53,0,0,1-10.56,34.57c-.56.82-1.13,1.63-1.73,2.43v-.61H54.43v.61c-.59-.8-1.17-1.61-1.72-2.43A60.8,60.8,0,0,1,47,74.41a62,62,0,0,1,0-48.13,60.89,60.89,0,0,1,5.7-10.51q1.66-2.46,3.56-4.76v1.73h95.42V11q1.89,2.3,3.56,4.76A62.28,62.28,0,0,1,161,26.28,61.58,61.58,0,0,1,165.81,50.34Z"/><path class="cls-2" d="M165.47,50.34A61.13,61.13,0,0,1,155,84.72c-.56.82-1.13,1.63-1.72,2.41v-.4H54.7v.4c-.59-.78-1.16-1.59-1.71-2.41a61.52,61.52,0,0,1-5.67-58.31A60.89,60.89,0,0,1,53,16q1.65-2.45,3.54-4.73v1.51h94.9V11.23Q153.31,13.51,155,16a61.22,61.22,0,0,1,10.5,34.38Z"/><path class="cls-2" d="M165.13,50.34a60.95,60.95,0,0,1-10.44,34.19c-1.1,1.63-2.28,3.2-3.52,4.71V86.73H56.79v2.51Q54.92,87,53.27,84.53a61.06,61.06,0,0,1,0-68.38q1.65-2.44,3.52-4.71v1.3h94.38v-1.3c1.24,1.51,2.42,3.08,3.52,4.71a61,61,0,0,1,10.44,34.19Z"/><path class="cls-2" d="M164.79,50.34A60.62,60.62,0,0,1,160,74a61.63,61.63,0,0,1-5.6,10.33c-1.1,1.61-2.27,3.18-3.5,4.68v-2.3H57.05V89c-1.24-1.5-2.41-3.07-3.5-4.68a60.72,60.72,0,0,1,0-68q1.64-2.43,3.5-4.68v1.08h93.86V11.66q1.84,2.25,3.5,4.68A61.24,61.24,0,0,1,160,26.67,60.61,60.61,0,0,1,164.79,50.34Z"/><path class="cls-2" d="M164.45,50.34a60.33,60.33,0,0,1-10.32,33.82q-1.63,2.41-3.49,4.65V86.73H57.31v2.08c-1.23-1.49-2.4-3-3.48-4.65a60.36,60.36,0,0,1,0-67.63c1.08-1.61,2.25-3.16,3.48-4.66v.87h93.33v-.87q1.86,2.25,3.49,4.66a60.23,60.23,0,0,1,10.32,33.81Z"/><path class="cls-2" d="M164.12,50.34A60,60,0,0,1,153.85,84q-1.62,2.4-3.47,4.63V86.73H57.57V88.6Q55.73,86.37,54.11,84a60,60,0,0,1,0-67.25c1.08-1.6,2.23-3.15,3.46-4.63v.65h92.81v-.65c1.23,1.48,2.39,3,3.47,4.63a59.91,59.91,0,0,1,10.27,33.62Z"/><path class="cls-2" d="M163.78,50.34a59.6,59.6,0,0,1-10.21,33.44c-1.08,1.59-2.23,3.13-3.45,4.6V86.73H57.83v1.65a57.32,57.32,0,0,1-3.44-4.6,59.64,59.64,0,0,1,0-66.87Q56,14.53,57.83,12.3v.44h92.29V12.3q1.83,2.22,3.45,4.61a59.5,59.5,0,0,1,10.21,33.43Z"/><path class="cls-2" d="M163.44,50.34a59.3,59.3,0,0,1-4.67,23.15,60,60,0,0,1-5.48,10.1c-1.07,1.58-2.22,3.11-3.43,4.58V86.73H58.09v1.44q-1.81-2.2-3.42-4.58a59.32,59.32,0,0,1,0-66.49c1.07-1.59,2.21-3.11,3.42-4.58v.22h91.77v-.22c1.21,1.47,2.36,3,3.43,4.58a60,60,0,0,1,5.48,10.1A59.21,59.21,0,0,1,163.44,50.34Z"/><path class="cls-2" d="M163.1,50.34a59,59,0,0,1-4.64,23,59.65,59.65,0,0,1-5.45,10c-1.07,1.57-2.2,3.09-3.41,4.55V86.73H58.35V88C57.15,86.49,56,85,55,83.4A59.2,59.2,0,0,1,49.5,27.33a58.35,58.35,0,0,1,5.45-10c1.06-1.57,2.2-3.09,3.4-4.55H149.6c1.21,1.46,2.34,3,3.41,4.55a59.74,59.74,0,0,1,5.45,10A59,59,0,0,1,163.1,50.34Z"/><path class="cls-2" d="M162.77,50.34a58.74,58.74,0,0,1-4.62,22.89,59.34,59.34,0,0,1-5.42,10q-1.59,2.36-3.39,4.53v-1H58.61v1a55.5,55.5,0,0,1-3.38-4.53,57.94,57.94,0,0,1-5.42-10,59,59,0,0,1,0-45.77,57.67,57.67,0,0,1,5.42-10q1.58-2.34,3.38-4.52c.6-.73,1.22-1.44,1.85-2.14v1.93h87V10.81c.64.7,1.25,1.41,1.85,2.14q1.8,2.18,3.39,4.52a58.56,58.56,0,0,1,10,32.87Z"/><path class="cls-2" d="M162.43,50.34a58.21,58.21,0,0,1-4.6,22.75A57.62,57.62,0,0,1,152.45,83q-1.59,2.34-3.37,4.5v-.79H58.87v.79q-1.78-2.16-3.36-4.5a58.37,58.37,0,0,1,0-65.36q1.58-2.33,3.36-4.5c.6-.72,1.21-1.43,1.84-2.12v1.7h86.53V11c.63.69,1.24,1.4,1.84,2.12q1.78,2.17,3.37,4.5a57.62,57.62,0,0,1,5.38,9.93A58.21,58.21,0,0,1,162.43,50.34Z"/><path class="cls-2" d="M162.09,50.34a57.83,57.83,0,0,1-9.93,32.49c-1,1.55-2.16,3-3.34,4.48v-.58H59.13v.58c-1.18-1.44-2.3-2.93-3.34-4.48a58,58,0,0,1,0-65c1-1.54,2.16-3,3.34-4.47.6-.72,1.2-1.42,1.83-2.11v1.47h86V11.27c.63.69,1.24,1.39,1.83,2.11,1.18,1.43,2.3,2.93,3.34,4.47a57.83,57.83,0,0,1,9.93,32.49Z"/><path class="cls-2" d="M161.75,50.34a57.52,57.52,0,0,1-9.87,32.31,55.12,55.12,0,0,1-3.32,4.44v-.36H59.39v.36c-1.17-1.42-2.28-2.91-3.32-4.44a57.66,57.66,0,0,1,0-64.61q1.56-2.31,3.32-4.45c.59-.71,1.2-1.41,1.82-2.09v1.24h85.53V11.5c.62.68,1.23,1.38,1.82,2.09A55.28,55.28,0,0,1,151.88,18a57.42,57.42,0,0,1,9.87,32.3Z"/><path class="cls-2" d="M161.41,50.34a57.11,57.11,0,0,1-9.81,32.12c-1,1.52-2.13,3-3.3,4.42v-.15H59.65v.15c-1.17-1.42-2.27-2.9-3.3-4.42a57.34,57.34,0,0,1,0-64.23q1.55-2.3,3.3-4.42c.59-.71,1.19-1.41,1.81-2.09v1h85v-1c.62.68,1.22,1.38,1.81,2.09q1.75,2.13,3.3,4.42A56.39,56.39,0,0,1,156.9,28,57.15,57.15,0,0,1,161.41,50.34Z"/><path class="cls-2" d="M161.08,50.34a56.79,56.79,0,0,1-9.76,31.93c-1,1.52-2.12,3-3.28,4.39-.58.71-1.18,1.4-1.8,2.08v-2H61.71v2c-.61-.68-1.21-1.37-1.79-2.08a54,54,0,0,1-3.29-4.39,57.84,57.84,0,0,1-5.27-9.7,57,57,0,0,1,5.27-54.15A54.13,54.13,0,0,1,59.92,14c.58-.7,1.18-1.39,1.79-2.07v.79h84.53V12q.93,1,1.8,2.07c1.16,1.41,2.26,2.88,3.28,4.4a56.79,56.79,0,0,1,9.76,31.92Z"/><path class="cls-2" d="M160.74,50.34A56.38,56.38,0,0,1,151,82.08q-1.53,2.27-3.26,4.37c-.58.7-1.18,1.39-1.79,2.06V86.73H62v1.78c-.61-.67-1.21-1.36-1.78-2.06q-1.74-2.1-3.27-4.37a56.75,56.75,0,0,1,6.93-71.87v2.53h80.27V10.21A56.58,56.58,0,0,1,160.74,50.34Z"/><path class="cls-2" d="M160.4,50.34a56,56,0,0,1-9.64,31.55q-1.51,2.25-3.24,4.34c-.58.7-1.17,1.38-1.78,2V86.73H62.21v1.55c-.61-.67-1.2-1.35-1.77-2-1.15-1.39-2.24-2.84-3.25-4.34a56.2,56.2,0,0,1-9.64-31.55,56.28,56.28,0,0,1,16.53-39.9v2.3h79.79v-2.3A56.28,56.28,0,0,1,160.4,50.34Z"/><path class="cls-2" d="M160.06,50.34a55.85,55.85,0,0,1-4.41,21.83,54.75,54.75,0,0,1-5.17,9.53c-1,1.49-2.08,2.93-3.22,4.32-.58.69-1.16,1.37-1.77,2V86.73h-83v1.32c-.6-.66-1.19-1.34-1.76-2-1.15-1.39-2.22-2.83-3.23-4.32a56.1,56.1,0,0,1,6.85-71v2.06h79.32V10.68A56,56,0,0,1,160.06,50.34Z"/><path class="cls-2" d="M159.72,50.34A55.58,55.58,0,0,1,155.34,72a54.75,54.75,0,0,1-5.14,9.47A52,52,0,0,1,147,85.8c-.56.69-1.15,1.37-1.75,2v-1.1H62.71v1.1c-.6-.66-1.18-1.34-1.75-2a52,52,0,0,1-3.21-4.29,55.76,55.76,0,0,1,6.81-70.59v1.82H143.4V10.92A55.61,55.61,0,0,1,159.72,50.34Z"/><path class="cls-2" d="M159.39,50.34A55.14,55.14,0,0,1,155,71.91a54.07,54.07,0,0,1-5.11,9.41,53.24,53.24,0,0,1-3.19,4.27q-.84,1-1.74,2v-.87H63v.87q-.9-1-1.74-2A53.24,53.24,0,0,1,58,81.32a54.74,54.74,0,0,1-5.11-9.41A55.49,55.49,0,0,1,64.8,11.16v1.58h78.36V11.16A55.27,55.27,0,0,1,159.39,50.34Z"/><path class="cls-2" d="M159.05,50.34a55,55,0,0,1-16.13,39V86.73H65v2.56A55.08,55.08,0,0,1,65,11.4v1.34h77.89V11.4A54.92,54.92,0,0,1,159.05,50.34Z"/><path class="cls-2" d="M158.71,50.34a54.6,54.6,0,0,1-16,38.71V86.73H65.27v2.32a54.74,54.74,0,0,1,0-77.41v1.1h77.41v-1.1A54.57,54.57,0,0,1,158.71,50.34Z"/><path class="cls-2" d="M158.37,50.34a54.27,54.27,0,0,1-15.93,38.47V86.73H65.51v2.08a54.4,54.4,0,0,1,0-76.93v.86h76.93v-.86A54.23,54.23,0,0,1,158.37,50.34Z"/><path class="cls-2" d="M158,50.34A53.91,53.91,0,0,1,142.2,88.57V86.73H65.75v1.84a54.07,54.07,0,0,1,0-76.45v.62H142.2v-.62A53.89,53.89,0,0,1,158,50.34Z"/><path class="cls-2" d="M157.7,50.34a53.56,53.56,0,0,1-15.74,38v-1.6H66v1.6a53.73,53.73,0,0,1,0-76v.38h76v-.38A53.55,53.55,0,0,1,157.7,50.34Z"/><path class="cls-2" d="M157.36,50.34a53.23,53.23,0,0,1-15.64,37.75V86.73H66.23v1.36a53.37,53.37,0,0,1,0-75.49v.14h75.49V12.6A53.21,53.21,0,0,1,157.36,50.34Z"/><path class="cls-2" d="M157,50.34a52.91,52.91,0,0,1-15.53,37.51V86.73h-75v1.12a53,53,0,0,1,0-75c.6-.6,1.21-1.18,1.84-1.75v1.66h71.33V11.08c.63.57,1.25,1.15,1.85,1.75A52.91,52.91,0,0,1,157,50.34Z"/><path class="cls-2" d="M156.68,50.34a52.56,52.56,0,0,1-15.43,37.27v-.88H66.71v.88a52.7,52.7,0,0,1,0-74.54c.59-.59,1.2-1.18,1.83-1.74v1.41h70.88V11.33c.62.56,1.23,1.15,1.83,1.74A52.58,52.58,0,0,1,156.68,50.34Z"/><path class="cls-2" d="M156.35,50.34a52.22,52.22,0,0,1-15.34,37v-.64H67v.64a52.36,52.36,0,0,1,0-74.06c.59-.59,1.19-1.17,1.81-1.73v1.16h70.43V11.58c.62.56,1.22,1.14,1.82,1.73A52.24,52.24,0,0,1,156.35,50.34Z"/><path class="cls-2" d="M156,50.34a51.88,51.88,0,0,1-15.24,36.79v-.4H67.18v.4a52,52,0,0,1,0-73.58q1.77-1.77,3.7-3.36v2.55h66.19V10.19q1.94,1.59,3.7,3.36A51.89,51.89,0,0,1,156,50.34Z"/><path class="cls-2" d="M155.67,50.34A51.57,51.57,0,0,1,140.53,86.9v-.17H67.42v.17a51.7,51.7,0,0,1,0-73.11c1.17-1.17,2.4-2.28,3.67-3.34v2.29h65.77V10.45c1.27,1.06,2.5,2.17,3.67,3.34A51.54,51.54,0,0,1,155.67,50.34Z"/><path class="cls-2" d="M155.33,50.34a51.24,51.24,0,0,1-15,36.32c-.58.58-1.18,1.14-1.78,1.7V86.73H69.45v1.63c-.61-.56-1.21-1.12-1.79-1.7a51.36,51.36,0,0,1,0-72.63q1.74-1.74,3.65-3.32v2h65.33v-2q1.91,1.57,3.65,3.32A51.2,51.2,0,0,1,155.33,50.34Z"/><path class="cls-2" d="M155,50.34a50.87,50.87,0,0,1-14.94,36.08c-.58.58-1.17,1.14-1.77,1.69V86.73H69.67v1.38c-.6-.55-1.19-1.11-1.77-1.69a51,51,0,0,1,0-72.15c1.16-1.16,2.36-2.26,3.62-3.3v1.77h64.91V11q1.89,1.56,3.62,3.3A50.85,50.85,0,0,1,155,50.34Z"/><path class="cls-2" d="M154.66,50.34a50.53,50.53,0,0,1-14.85,35.84,46.54,46.54,0,0,1-3.6,3.27V86.73H71.74v2.72q-1.87-1.55-3.6-3.27a50.69,50.69,0,0,1,0-71.67q1.73-1.72,3.6-3.27v1.5h64.47v-1.5a46.54,46.54,0,0,1,3.6,3.27A50.52,50.52,0,0,1,154.66,50.34Z"/><path class="cls-2" d="M154.32,50.34a50.2,50.2,0,0,1-14.75,35.6c-1.13,1.14-2.33,2.22-3.57,3.25V86.73H72v2.46q-1.86-1.55-3.57-3.25a50.32,50.32,0,0,1,0-71.19c1.14-1.14,2.33-2.23,3.57-3.25v1.24H136V11.5a47.76,47.76,0,0,1,3.57,3.25A50.18,50.18,0,0,1,154.32,50.34Z"/><path class="cls-2" d="M154,50.34A49.85,49.85,0,0,1,139.33,85.7q-1.7,1.69-3.55,3.23v-2.2H72.17v2.2q-1.86-1.53-3.55-3.23a50,50,0,0,1,0-70.72q1.69-1.7,3.55-3.22v1h63.61v-1q1.86,1.53,3.55,3.22A49.85,49.85,0,0,1,154,50.34Z"/><path class="cls-2" d="M153.64,50.34A49.53,49.53,0,0,1,139.1,85.46c-1.13,1.13-2.3,2.2-3.53,3.21V86.73H72.38v1.94c-1.22-1-2.4-2.08-3.52-3.21a49.66,49.66,0,0,1,0-70.24C70,14.1,71.16,13,72.38,12v.72h63.19V12c1.23,1,2.4,2.08,3.53,3.2A49.55,49.55,0,0,1,153.64,50.34Z"/><path class="cls-2" d="M153.31,50.34a49.19,49.19,0,0,1-14.45,34.88q-1.68,1.68-3.51,3.19V86.73H72.6v1.68q-1.83-1.51-3.5-3.19a49.32,49.32,0,0,1,0-69.76c1.11-1.11,2.28-2.18,3.5-3.18v.46h62.75v-.46c1.22,1,2.39,2.07,3.51,3.18A49.21,49.21,0,0,1,153.31,50.34Z"/><path class="cls-2" d="M153,50.34A48.84,48.84,0,0,1,138.62,85q-1.67,1.67-3.48,3.17V86.73H72.81v1.42Q71,86.65,69.33,85a49,49,0,0,1,0-69.28Q71,14,72.81,12.54v.2h62.33v-.2Q137,14,138.62,15.7A48.86,48.86,0,0,1,153,50.34Z"/><path class="cls-2" d="M152.63,50.34a48.54,48.54,0,0,1-14.25,34.41c-1.1,1.1-2.25,2.14-3.46,3.14V86.73H73v1.16c-1.2-1-2.36-2-3.46-3.14a48.66,48.66,0,0,1,0-68.81c1.1-1.1,2.26-2.15,3.46-3.14.6-.5,1.21-1,1.84-1.44v1.38h58.22V11.36q.93.69,1.83,1.44,1.82,1.48,3.46,3.14A48.51,48.51,0,0,1,152.63,50.34Z"/><path class="cls-2" d="M152.29,50.34a48.21,48.21,0,0,1-14.15,34.17c-1.09,1.09-2.24,2.13-3.43,3.12v-.9H73.24v.9q-1.78-1.48-3.43-3.12a48.32,48.32,0,0,1,0-68.33A48.75,48.75,0,0,1,77,10.28v2.46h54V10.28a48.75,48.75,0,0,1,7.15,5.9A48.16,48.16,0,0,1,152.29,50.34Z"/><path class="cls-2" d="M152,50.34a47.84,47.84,0,0,1-14,33.93,45.46,45.46,0,0,1-3.41,3.09v-.63h-61v.63c-1.19-1-2.32-2-3.41-3.09a48,48,0,0,1,7.1-73.71v2.18H130.8V10.56A48,48,0,0,1,152,50.34Z"/><path class="cls-2" d="M151.62,50.34a47.5,47.5,0,0,1-14,33.69c-1.08,1.08-2.2,2.1-3.38,3.07v-.37H73.67v.37Q71.91,85.65,70.29,84a47.67,47.67,0,0,1,7-73.19v1.9h53.27v-1.9a46.91,46.91,0,0,1,7,5.82A47.49,47.49,0,0,1,151.62,50.34Z"/><path class="cls-2" d="M151.28,50.34a47.17,47.17,0,0,1-13.86,33.45q-1.6,1.6-3.36,3v-.11H73.89v.11q-1.76-1.44-3.36-3a47.34,47.34,0,0,1,7-72.67v1.62h52.89V11.12a47.4,47.4,0,0,1,20.86,39.22Z"/><path class="cls-2" d="M150.94,50.34a47.07,47.07,0,0,1-20.71,39V86.73H77.72v2.56a47,47,0,0,1-7-72.16,47.26,47.26,0,0,1,7-5.73v1.34h52.51V11.4a47,47,0,0,1,20.71,38.94Z"/><path class="cls-2" d="M150.6,50.34a46.5,46.5,0,0,1-13.65,33,47.18,47.18,0,0,1-6.9,5.7V86.73H77.91V89a47.18,47.18,0,0,1-6.9-5.7,46.62,46.62,0,0,1,0-65.94,47.12,47.12,0,0,1,6.9-5.69v1.06h52.14V11.68a47.12,47.12,0,0,1,6.9,5.69A46.52,46.52,0,0,1,150.6,50.34Z"/><path class="cls-2" d="M150.26,50.34a46.15,46.15,0,0,1-13.55,32.73,47,47,0,0,1-6.85,5.66v-2H78.1v2a46.3,46.3,0,0,1-6.85-71.12A45.93,45.93,0,0,1,78.1,12v.78h51.76V12a47,47,0,0,1,6.85,5.65A46.17,46.17,0,0,1,150.26,50.34Z"/><path class="cls-2" d="M149.93,50.34a45.81,45.81,0,0,1-13.46,32.49,47,47,0,0,1-6.8,5.62V86.73H78.29v1.72a46.56,46.56,0,0,1-6.81-5.62,45.94,45.94,0,0,1,6.81-70.59v.5h51.38v-.5a46.3,46.3,0,0,1,6.8,5.61A45.83,45.83,0,0,1,149.93,50.34Z"/><path class="cls-2" d="M149.59,50.34a45.67,45.67,0,0,1-20.11,37.83V86.73h-51v1.44a46.8,46.8,0,0,1-6.75-5.57,45.62,45.62,0,0,1,0-64.51,46.8,46.8,0,0,1,6.75-5.57v.22h51v-.22a45.67,45.67,0,0,1,20.11,37.82Z"/><path class="cls-2" d="M149.25,50.34a45.16,45.16,0,0,1-13.26,32,46.23,46.23,0,0,1-6.7,5.53V86.73H78.66v1.16A46.23,46.23,0,0,1,72,82.36a45.31,45.31,0,0,1,6.7-69.56c1.21-.81,2.45-1.57,3.74-2.27v2.21h43.16V10.53c1.28.7,2.53,1.46,3.73,2.27a45.59,45.59,0,0,1,6.7,5.53A45.13,45.13,0,0,1,149.25,50.34Z"/><path class="cls-2" d="M148.91,50.34A44.92,44.92,0,0,1,129.1,87.6v-.87H78.85v.87a45,45,0,0,1,0-74.52c1.2-.81,2.43-1.56,3.71-2.25v1.91H125.4V10.83c1.27.69,2.51,1.44,3.7,2.25a45,45,0,0,1,19.81,37.26Z"/><path class="cls-2" d="M148.57,50.34a44.59,44.59,0,0,1-19.66,37v-.59H79v.59a44.63,44.63,0,0,1,0-74,42.86,42.86,0,0,1,3.68-2.23v1.61h42.51V11.13a41.37,41.37,0,0,1,3.68,2.23,44.68,44.68,0,0,1,19.66,37Z"/><path class="cls-2" d="M148.24,50.34A44.29,44.29,0,0,1,128.72,87v-.31H79.23V87a44.26,44.26,0,0,1-6.55-68,43.6,43.6,0,0,1,6.55-5.41c1.18-.79,2.39-1.53,3.65-2.22v1.32h42.19V11.42c1.26.69,2.48,1.43,3.65,2.22a43.6,43.6,0,0,1,6.55,5.41A44.11,44.11,0,0,1,148.24,50.34Z"/><path class="cls-2" d="M147.9,50.34A43.79,43.79,0,0,1,135,81.4a42.88,42.88,0,0,1-6.5,5.36v0H79.42v0a43.92,43.92,0,0,1-6.5-67.48,44.63,44.63,0,0,1,6.5-5.36c1.17-.79,2.38-1.52,3.62-2.2v1h41.87v-1c1.25.68,2.46,1.41,3.62,2.2A44,44,0,0,1,147.9,50.34Z"/><path class="cls-2" d="M147.56,50.34A43.47,43.47,0,0,1,134.8,81.16a44.38,44.38,0,0,1-6.45,5.32,41.1,41.1,0,0,1-3.6,2.19V86.73H83.2v1.94c-1.23-.67-2.43-1.4-3.59-2.19a43.58,43.58,0,0,1-6.45-67A43.78,43.78,0,0,1,87,10.18v2.56h33.93V10.18a43.61,43.61,0,0,1,26.62,40.16Z"/><path class="cls-2" d="M147.22,50.34A43.27,43.27,0,0,1,128.16,86.2c-1.15.78-2.34,1.5-3.57,2.17V86.73H83.36v1.64C82.14,87.7,81,87,79.8,86.2A43.3,43.3,0,0,1,60.73,50.34,43.32,43.32,0,0,1,87.14,10.49v2.25h33.67V10.49a43.28,43.28,0,0,1,26.41,39.85Z"/><path class="cls-2" d="M146.89,50.34A43,43,0,0,1,128,85.92a39.71,39.71,0,0,1-3.54,2.15V86.73H83.52v1.34A41,41,0,0,1,80,85.92,42.92,42.92,0,0,1,73.63,20a43.11,43.11,0,0,1,13.64-9.19v1.93h33.41V10.81a42.94,42.94,0,0,1,26.21,39.53Z"/><path class="cls-2" d="M146.55,50.34a42.48,42.48,0,0,1-12.47,30.11,43.57,43.57,0,0,1-6.3,5.19c-1.13.77-2.31,1.48-3.51,2.14v-1H83.68v1c-1.2-.66-2.37-1.37-3.51-2.14a43.57,43.57,0,0,1-6.3-5.19A42.58,42.58,0,0,1,87.41,11.12v1.62h33.14V11.12a42.61,42.61,0,0,1,26,39.22Z"/><path class="cls-2" d="M146.21,50.34a42.28,42.28,0,0,1-25.79,38.92V86.73H87.54v2.53a42.25,42.25,0,0,1,0-77.83v1.31h32.88V11.43a42.28,42.28,0,0,1,25.79,38.91Z"/><path class="cls-2" d="M145.87,50.34A41.94,41.94,0,0,1,120.28,89V86.73H87.67V89a41.92,41.92,0,0,1,0-77.21v1h32.61v-1a41.94,41.94,0,0,1,25.59,38.6Z"/><path class="cls-2" d="M145.53,50.34a41.57,41.57,0,0,1-25.38,38.29v-1.9H87.8v1.9a41.58,41.58,0,0,1,0-76.58v.69h32.35v-.69a41.61,41.61,0,0,1,25.38,38.29Z"/><path class="cls-2" d="M145.2,50.34a41.27,41.27,0,0,1-25.18,38V86.73H87.93v1.59a41.25,41.25,0,0,1,0-76v.38H120v-.38a41.31,41.31,0,0,1,25.18,38Z"/><path class="cls-2" d="M144.86,50.34a40.94,40.94,0,0,1-25,37.67V86.73H88.06V88a40.91,40.91,0,0,1,0-75.34v.07h31.83v-.07a40.94,40.94,0,0,1,25,37.67Z"/><path class="cls-2" d="M144.52,50.34A40.58,40.58,0,0,1,119.76,87.7v-1H88.19v1a40.54,40.54,0,0,1,7.62-77.08v2.12h16.34V10.62a40.55,40.55,0,0,1,32.37,39.72Z"/><path class="cls-2" d="M144.18,50.34a40.25,40.25,0,0,1-24.55,37.05v-.66H88.33v.66a40.21,40.21,0,1,1,55.85-37Z"/><path class="cls-2" d="M143.84,50.34a39.91,39.91,0,0,1-24.35,36.74v-.35h-31v.35a39.87,39.87,0,1,1,55.38-36.74Z"/><path class="cls-2" d="M143.51,50.34a39.56,39.56,0,0,1-24.15,36.43v0H88.59v0a39.54,39.54,0,1,1,54.92-36.43Z"/><path class="cls-2" d="M143.17,50.34a39.1,39.1,0,0,1-11.48,27.72,39.51,39.51,0,0,1-12.46,8.4,38.59,38.59,0,0,1-7.36,2.28v-2H96.08v2a39,39,0,0,1-7.36-2.28,39.51,39.51,0,0,1-12.46-8.4,39.19,39.19,0,1,1,66.91-27.72Z"/><circle class="cls-2" cx="103.98" cy="50.34" r="38.85"/><circle class="cls-2" cx="103.98" cy="50.34" r="38.52"/><circle class="cls-2" cx="103.98" cy="50.34" r="38.18"/><circle class="cls-2" cx="103.98" cy="50.34" r="37.84"/><circle class="cls-2" cx="103.98" cy="50.34" r="37.5"/><circle class="cls-2" cx="103.98" cy="50.34" r="37.17"/><circle class="cls-2" cx="103.98" cy="50.34" r="36.83"/><circle class="cls-2" cx="103.98" cy="50.34" r="36.49"/><circle class="cls-2" cx="103.98" cy="50.34" r="36.15"/><circle class="cls-2" cx="103.98" cy="50.34" r="35.81"/><circle class="cls-2" cx="103.98" cy="50.34" r="35.48"/><circle class="cls-2" cx="103.98" cy="50.34" r="35.14"/><circle class="cls-2" cx="103.98" cy="50.34" r="34.8"/><circle class="cls-2" cx="103.98" cy="50.34" r="34.46"/><circle class="cls-2" cx="103.98" cy="50.34" r="34.12"/><circle class="cls-2" cx="103.98" cy="50.34" r="33.79"/><circle class="cls-2" cx="103.98" cy="50.34" r="33.45"/><circle class="cls-2" cx="103.98" cy="50.34" r="33.11"/><circle class="cls-2" cx="103.98" cy="50.34" r="32.77"/><circle class="cls-2" cx="103.98" cy="50.34" r="32.44"/><circle class="cls-2" cx="103.98" cy="50.34" r="32.1"/><circle class="cls-2" cx="103.98" cy="50.34" r="31.76"/><circle class="cls-2" cx="103.98" cy="50.34" r="31.42"/><circle class="cls-2" cx="103.98" cy="50.34" r="31.08"/><circle class="cls-2" cx="103.98" cy="50.34" r="30.75"/><circle class="cls-2" cx="103.98" cy="50.34" r="30.41"/><circle class="cls-2" cx="103.98" cy="50.34" r="30.07"/><circle class="cls-2" cx="103.98" cy="50.34" r="29.73"/><circle class="cls-2" cx="103.98" cy="50.34" r="29.39"/><circle class="cls-2" cx="103.98" cy="50.34" r="29.06"/><circle class="cls-2" cx="103.98" cy="50.34" r="28.72"/><circle class="cls-2" cx="103.98" cy="50.34" r="28.38"/><circle class="cls-2" cx="103.98" cy="50.34" r="28.04"/><circle class="cls-2" cx="103.98" cy="50.34" r="27.71"/><circle class="cls-2" cx="103.98" cy="50.34" r="27.37"/><circle class="cls-2" cx="103.98" cy="50.34" r="27.03"/><circle class="cls-2" cx="103.98" cy="50.34" r="26.69"/><circle class="cls-2" cx="103.98" cy="50.34" r="26.35"/><circle class="cls-2" cx="103.98" cy="50.34" r="26.02"/><circle class="cls-2" cx="103.98" cy="50.34" r="25.68"/><circle class="cls-2" cx="103.98" cy="50.34" r="25.34"/><circle class="cls-2" cx="103.98" cy="50.34" r="25"/><circle class="cls-2" cx="103.98" cy="50.34" r="24.66"/><circle class="cls-2" cx="103.98" cy="50.34" r="24.33"/><circle class="cls-2" cx="103.98" cy="50.34" r="23.99"/><circle class="cls-2" cx="103.98" cy="50.34" r="23.65"/><circle class="cls-2" cx="103.98" cy="50.34" r="23.31"/><circle class="cls-2" cx="103.98" cy="50.34" r="22.98"/><circle class="cls-2" cx="103.98" cy="50.34" r="22.64"/><circle class="cls-2" cx="103.98" cy="50.34" r="22.3"/><circle class="cls-2" cx="103.98" cy="50.34" r="21.96"/><circle class="cls-2" cx="103.98" cy="50.34" r="21.62"/><circle class="cls-2" cx="103.98" cy="50.34" r="21.29"/><circle class="cls-2" cx="103.98" cy="50.34" r="20.95"/><circle class="cls-2" cx="103.98" cy="50.34" r="20.61"/><circle class="cls-2" cx="103.98" cy="50.34" r="20.27"/><circle class="cls-2" cx="103.98" cy="50.34" r="19.93"/><circle class="cls-2" cx="103.98" cy="50.34" r="19.6"/><circle class="cls-2" cx="103.98" cy="50.34" r="19.26"/><circle class="cls-2" cx="103.98" cy="50.34" r="18.92"/><circle class="cls-2" cx="103.98" cy="50.34" r="18.58"/><circle class="cls-2" cx="103.98" cy="50.34" r="18.24"/><circle class="cls-2" cx="103.98" cy="50.34" r="17.91"/><circle class="cls-2" cx="103.98" cy="50.34" r="17.57"/><circle class="cls-2" cx="103.98" cy="50.34" r="17.23"/><circle class="cls-2" cx="103.98" cy="50.34" r="16.89"/><circle class="cls-2" cx="103.98" cy="50.34" r="16.56"/><circle class="cls-2" cx="103.98" cy="50.34" r="16.22"/><circle class="cls-2" cx="103.98" cy="50.34" r="15.88"/><circle class="cls-2" cx="103.98" cy="50.34" r="15.54"/><circle class="cls-2" cx="103.98" cy="50.34" r="15.2"/><circle class="cls-2" cx="103.98" cy="50.34" r="14.87"/><circle class="cls-2" cx="103.98" cy="50.34" r="14.53"/><circle class="cls-2" cx="103.98" cy="50.34" r="14.19"/><circle class="cls-2" cx="103.98" cy="50.34" r="13.85"/><circle class="cls-2" cx="103.98" cy="50.34" r="13.51"/><circle class="cls-2" cx="103.98" cy="50.34" r="13.18"/><circle class="cls-2" cx="103.98" cy="50.34" r="12.84"/><circle class="cls-2" cx="103.98" cy="50.34" r="12.5"/><circle class="cls-2" cx="103.98" cy="50.34" r="12.16"/><circle class="cls-2" cx="103.98" cy="50.34" r="11.83"/><circle class="cls-2" cx="103.98" cy="50.34" r="11.49"/><circle class="cls-2" cx="103.98" cy="50.34" r="11.15"/><circle class="cls-2" cx="103.98" cy="50.34" r="10.81"/><circle class="cls-2" cx="103.98" cy="50.34" r="10.47"/><circle class="cls-2" cx="103.98" cy="50.34" r="10.14"/><circle class="cls-2" cx="103.98" cy="50.34" r="9.8"/><circle class="cls-2" cx="103.98" cy="50.34" r="9.46"/><circle class="cls-2" cx="103.98" cy="50.34" r="9.12"/><circle class="cls-2" cx="103.98" cy="50.34" r="8.78"/><circle class="cls-2" cx="103.98" cy="50.34" r="8.45"/><circle class="cls-2" cx="103.98" cy="50.34" r="8.11"/><circle class="cls-2" cx="103.98" cy="50.34" r="7.77"/><circle class="cls-2" cx="103.98" cy="50.34" r="7.43"/><circle class="cls-2" cx="103.98" cy="50.34" r="7.1"/><circle class="cls-2" cx="103.98" cy="50.34" r="6.76"/><circle class="cls-2" cx="103.98" cy="50.34" r="6.42"/><circle class="cls-2" cx="103.98" cy="50.34" r="6.08"/><circle class="cls-2" cx="103.98" cy="50.34" r="5.74"/><circle class="cls-2" cx="103.98" cy="50.34" r="5.41"/><circle class="cls-2" cx="103.98" cy="50.34" r="5.07"/><circle class="cls-2" cx="103.98" cy="50.34" r="4.73"/><circle class="cls-2" cx="103.98" cy="50.34" r="4.39"/><circle class="cls-2" cx="103.98" cy="50.34" r="4.05"/><circle class="cls-2" cx="103.98" cy="50.34" r="3.72"/><circle class="cls-2" cx="103.98" cy="50.34" r="3.38"/><circle class="cls-2" cx="103.98" cy="50.34" r="3.04"/><circle class="cls-2" cx="103.98" cy="50.34" r="2.7"/><circle class="cls-2" cx="103.98" cy="50.34" r="2.37"/><circle class="cls-2" cx="103.98" cy="50.34" r="2.03"/><circle class="cls-2" cx="103.98" cy="50.34" r="1.69"/><circle class="cls-2" cx="103.98" cy="50.34" r="1.35"/><circle class="cls-2" cx="103.98" cy="50.34" r="1.01"/><circle class="cls-2" cx="103.98" cy="50.34" r="0.68"/><circle class="cls-2" cx="103.98" cy="50.34" r="0.34"/></g><path class="cls-5" d="M19.32,29.52c0-1.68,3-3.8,3.66-4.27l.1-.06a20.53,20.53,0,0,1,4.59-2.25,12.27,12.27,0,0,1,1.87-.58c.56-.11,2.11-.35,3-.56a1.89,1.89,0,0,0,.45-.15,26.41,26.41,0,0,1,2.26-1.56,33.66,33.66,0,0,1,3.6-1.79,80.82,80.82,0,0,1,13.94-4.25c9.65-1.67,26.73,1.4,36.26,2.61,9.87,1.27,26,3.22,44.59,0,6.46-1.11,15.82-3.3,27.79-.6a54.88,54.88,0,0,1,10.43,3.49c3.5.24,6.06.36,8,.42.88,0,4.27.13,4.94,1.58a4,4,0,0,0,.35.68A3.85,3.85,0,0,0,187,23.64l0,.09c.11.7-.8,2.41-5.36,4.63A39,39,0,0,1,173,31.29c-5.36,1.33-7.28,2.47-11.39,3.84,0,0-21.37,7.12-62.3,7.1h0C61.3,41.34,19.42,35.75,19.32,29.52Z"/><path class="cls-6" d="M25.25,31.71c0,.22.19.49.23,1a3.58,3.58,0,0,1-.36,1.76c-.77,1.7-1.34,9-.39,16.22.5,3.86,1,4.07,1.16,4.1.74.1,2-2,2-4.15,0-1.7-.84-2.22-1.55-4-1.2-3-.63-6,0-9.33.24-1.28.37-1.43,1.32-5.76.72-3.24.76-3.69.54-3.81C27.57,27.34,25.12,29.51,25.25,31.71Z"/><path class="cls-7" d="M17.45,30.1c0-1.67,3-3.8,3.66-4.26l.09-.07a14.89,14.89,0,0,1,6.47-2.83,22.13,22.13,0,0,0,3-.56,1.89,1.89,0,0,0,.45-.15,23.56,23.56,0,0,1,2.25-1.56,37.6,37.6,0,0,1,3.6-1.79,81,81,0,0,1,14-4.25C60.54,13,77.62,16,87.15,17.25c9.87,1.26,26,3.21,44.59,0,6.46-1.12,15.82-3.31,27.79-.61A54.09,54.09,0,0,1,170,20.14c3.5.23,6.06.35,8,.41.88,0,4.27.13,4.94,1.58a4,4,0,0,0,.35.68,3.85,3.85,0,0,0,1.88,1.41l0,.1c.11.7-.8,2.4-5.36,4.63a39.38,39.38,0,0,1-8.69,2.92c-5.36,1.33-7.28,2.47-11.39,3.84,0,0-21.38,7.12-62.31,7.11h0C59.42,41.92,17.55,36.33,17.45,30.1Z"/><path class="cls-7" d="M24.46,30.7c0,.22.19.49.23,1a3.46,3.46,0,0,1-.36,1.76c-.77,1.7-1.34,9-.39,16.23.5,3.85,1,4.06,1.16,4.09.74.1,2-2,2-4.15,0-1.7-.84-2.22-1.55-4-1.19-3-.63-6,0-9.33.24-1.28.37-1.43,1.32-5.76.72-3.24.76-3.68.54-3.81C26.78,26.33,24.33,28.5,24.46,30.7Z"/><path class="cls-7" d="M183.41,22.46a3.85,3.85,0,0,1,2.13,1.86c2.77,4.58-.78,10.66,1.31,16.9.18.52.75,1.61.29,2.19s-2.29.54-3.13-.35c-.49-.52-.6-1.25,0-5.14a52.47,52.47,0,0,0,.79-5.64,10.78,10.78,0,0,0-.29-4.13c-1.1-3.26-4.28-4.26-3.82-5.24C181,22.25,182.4,22.14,183.41,22.46Z"/><path class="cls-8" d="M42.24,20.43c21.84-7.7,37.12,1.31,67.48-2.87,9-1.23,16-3.17,27.84-2.46a85.73,85.73,0,0,1,19.29,3.47C166.38,21.21,173,23,174.32,27.2c1.29,4-2.49,9-5.52,9-3.6.05-4.28-7-9.19-7.59-4.59-.58-6,5.3-12.86,7.17-8.2,2.23-12.1-4.48-28.62-5.19-7.18-.31-11.41.75-14.44,2.12-3.62,1.65-3.17,2.66-5.52,3.28C91.79,37.7,87.58,30.45,74,27.69c-3.77-.77-10.54-2.16-14.71.53-1.94,1.25-2.39,2.79-4.46,3.08-2.71.38-3.79-2.43-8.14-3.69-7-2-12.42-1-12.87-2.26S37.38,22.15,42.24,20.43Z"/><path class="cls-9" d="M41.12,19.33c21.84-7.7,37.12,1.31,67.48-2.87,9-1.23,16-3.17,27.84-2.46a85.52,85.52,0,0,1,19.28,3.47c9.54,2.64,16.11,4.46,17.48,8.63,1.29,4-2.49,9-5.52,9-3.6.05-4.28-7-9.19-7.59-4.59-.58-6,5.3-12.86,7.17-8.2,2.23-12.11-4.48-28.62-5.19-7.18-.31-11.41.75-14.45,2.12-3.61,1.65-3.16,2.66-5.51,3.28-6.38,1.69-10.59-5.56-24.15-8.32-3.77-.77-10.54-2.15-14.71.53-1.94,1.25-2.39,2.79-4.46,3.08-2.71.38-3.79-2.43-8.14-3.69-7-2-12.42-1-12.87-2.26S36.25,21.05,41.12,19.33Z"/><path class="cls-10" d="M51.32,23.08c-4.25-3.77-10.65-2.72-10.65-2.83s14.2-2.21,48.08-.76c44.83,1.91,41.25,6.4,54,3.29,3.28-.81,20.32-5.22,28.89.31.37.23,3.11,2,2.75,3.32-.47,1.71-5.7.35-11.05,3.51a11.25,11.25,0,0,0-4.42,3.94c-3.26,5.57,1.44,12.44-1.51,14.55a2.35,2.35,0,0,1-2.08.38c-2.44-.88-.47-6.8-2.42-11.45-2.67-6.35-11.72-8.12-22.25-10.17-8.88-1.73-13.32-2.59-17,0-6,4.23-5.38,14.16-7.83,14.06-1.3,0-2.46-2.86-4.25-7.19-.84-2-1.23-3.35-1.4-3.81C97.23,22.29,68.7,17.1,63.07,26.62c-.59,1-.65,3-.78,6.86-.36,10.73,1.52,16.78-1.64,20.29-.31.36-1.36,1.52-2.34,1.29s-1.5-1.87-1.81-3.59c-.84-4.56,0-6.89.13-11.18A29.4,29.4,0,0,0,55.1,29.65C54.31,27.37,53.43,25,51.32,23.08Z"/><path class="cls-11" d="M50.16,22.76C45.9,19,39.5,20,39.5,19.93s14.2-2.2,48.09-.76c44.83,1.92,41.24,6.41,54,3.29,3.28-.8,20.32-5.21,28.89.31.37.24,3.11,2,2.76,3.33-.48,1.7-5.71.35-11,3.5a11.28,11.28,0,0,0-4.43,3.94c-3.26,5.58,1.44,12.45-1.51,14.56a2.4,2.4,0,0,1-2.08.38c-2.43-.88-.46-6.81-2.42-11.46C149,30.67,140,28.91,129.46,26.86c-8.88-1.73-13.32-2.6-17,0-6,4.22-5.39,14.15-7.84,14-1.29,0-2.46-2.85-4.25-7.19-.83-2-1.23-3.34-1.4-3.81C96.06,22,67.53,16.78,61.9,26.31c-.59,1-.65,3-.78,6.85-.36,10.73,1.52,16.78-1.63,20.3-.32.35-1.37,1.52-2.34,1.29s-1.5-1.88-1.82-3.6c-.84-4.56,0-6.89.13-11.18a29.61,29.61,0,0,0-1.52-10.64C53.14,27.05,52.26,24.63,50.16,22.76Z"/><path class="cls-12" d="M228.26,62.47,241,47.8,228.26,32.66a4,4,0,0,0-3.12-1.48,4.21,4.21,0,0,0-1.1.11l-1.56.43a5.5,5.5,0,0,1-1.29.1c-2,0-3-1-3-2.93s1.25-3.13,3.76-3.13h.28l4.59.28a24.6,24.6,0,0,0,3.86.37c1,0,2.54-.11,4.5-.32a43,43,0,0,1,4.4-.33c2.51,0,3.77,1,3.77,3.13s-1.17,2.93-3.49,2.93a4.43,4.43,0,0,1-1.38-.21l-1.38-.43h-.55c-.24,0-.36.07-.36.19a3.94,3.94,0,0,0,.82,1.3l8.36,10.26,8.72-10.26c.55-.62.83-1.05.83-1.3s-.22-.19-.46-.19a6,6,0,0,0-1.49.32,5.75,5.75,0,0,1-1.59.32q-3.25,0-3.26-3.07t3.86-3c-.13,0,1.5.16,4.86.46,1.35.13,2.79.19,4.32.19a40.28,40.28,0,0,0,4.87-.32,32.87,32.87,0,0,1,3.67-.33q4,0,4,3.08c0,2-1,3-3.13,3a9.84,9.84,0,0,1-2.13-.32,10.34,10.34,0,0,0-2.12-.32c-1.47,0-3.5,1.48-6.08,4.42L249.56,47.75l14.32,16.94A3.92,3.92,0,0,0,267,66.25a12.12,12.12,0,0,0,1.69-.18,12.37,12.37,0,0,1,1.7-.18q3.32,0,3.31,2.94,0,3.21-3.86,3.21h-.73l-3.58-.46a39.54,39.54,0,0,0-4.41-.18,45.79,45.79,0,0,0-5,.27l-3.3.37h-1q-4.32,0-4.32-2.94,0-3.21,3.4-3.21a22.8,22.8,0,0,1,3.4.36,1.38,1.38,0,0,0,.64.1c.61,0,.92-.25.92-.74a.83.83,0,0,0-.28-.55l-.27-.37-10.2-11.93L234.78,64.69a2.09,2.09,0,0,0-.64,1.11c0,.3.3.45.91.45a15.3,15.3,0,0,0,1.93-.18,15.3,15.3,0,0,1,1.93-.18q3.94,0,4,3.21,0,2.94-4,2.94h-1.29L234,71.67c-1.83-.18-3.46-.27-4.86-.27a34.42,34.42,0,0,0-4,.27,42.53,42.53,0,0,1-4.59.37q-3.86,0-3.86-3.12t3.31-3a13.14,13.14,0,0,1,1.65.14,14.46,14.46,0,0,0,1.65.13C224.46,66.16,226.12,64.93,228.26,62.47Z"/><path class="cls-13" d="M339.45,14.93V46.61h10.83q3,0,3,3.12t-3.21,3.12H339.45v5.6c0,5.08,1.37,7.62,4.13,7.62.73,0,2.38-.12,5-.37,2.57,0,3.85,1,3.85,3.13s-1.1,3.21-3.3,3.21a35.26,35.26,0,0,1-5.42-.55A45.08,45.08,0,0,0,336.6,71q-2.57,0-7.71.5t-7.72.51q-3.48,0-3.48-3.08c0-2.17,1.4-3.26,4.22-3.26.61,0,1.51.07,2.71.19s2.09.18,2.71.18q4.59,0,4.59-7.62v-5.6H303.45q-4.21,0-4.22-3.67a5.19,5.19,0,0,1,1-2.94L324.57,16a42.89,42.89,0,0,1,5.69-6.19,6.74,6.74,0,0,1,4.23-1.43C337.79,8.41,339.45,10.59,339.45,14.93ZM308.14,46.61h23.78l.64-30Z"/></svg>
