<svg id="Layer_1" data-name="Layer 1" xmlns="http://www.w3.org/2000/svg" width="430" height="160" viewBox="0 0 430 160"><defs><style>.cls-1{fill:#bd2786;}.cls-2{fill:#d47db2;}.cls-3{fill:#263677;stroke:#144391;stroke-miterlimit:10;stroke-width:3px;}</style></defs><rect class="cls-1" x="10.24" y="7.53" width="412.5" height="129.95" rx="51.35"/><rect class="cls-2" x="5.3" y="22.73" width="412.5" height="129.95" rx="51.35"/><path class="cls-3" d="M71.84,100.74V66.67q0-6.29-6-6.28c-.63,0-1.46,0-2.48.13-1.5.14-2.57.21-3.19.21q-3.8,0-3.79-2.81,0-3,5.24-3c.55,0,1.15,0,1.78.08l5.83.52q2.85.26,7.13.25,3,0,7.14-.25,9.75-.6,14.74-.6a86.15,86.15,0,0,1,13.08.85c5.23.8,9.34,2.55,12.31,5.28a12.91,12.91,0,0,1,4.46,9.87q0,8-7.68,12.25T98.16,87.45H84.82a4.17,4.17,0,0,0-2.44.46,3,3,0,0,0-.54,2.16v1.7q0,10.76.9,13c.59,1.52,2.32,2.29,5.18,2.29a11.9,11.9,0,0,0,2.5-.26c1.75-.11,2.82-.17,3.22-.17q3.69,0,3.69,2.72,0,3.07-5.24,3.07l-1.67-.17-6-.6q-2.49-.26-7.5-.25-4.17,0-6.79.25l-6.91.68a4.09,4.09,0,0,0-.71.09h-.84c-3.57,0-5.36-1-5.36-3a2.41,2.41,0,0,1,1.08-2,4.19,4.19,0,0,1,2.62-.81,23.31,23.31,0,0,1,3.21.26,13.89,13.89,0,0,0,2.5.17Q71.84,107.11,71.84,100.74ZM82.68,62.17q-.84.86-.84,4.68v12.6q0,2.3,4.53,2.64h6.91a86.7,86.7,0,0,0,14-.94q10.61-1.79,10.6-10,0-10.8-19.29-10.8Q84.35,60.39,82.68,62.17Z"/><path class="cls-3" d="M157.84,99.57c0,3.33.47,5.3,1.43,5.93a5.83,5.83,0,0,0,2.8.93c1.14.11,3.75.17,7.8.17h10.48q8.22,0,11-1.56c1.82-1,2.74-3.12,2.74-6.25,0-.84-.05-1.82-.12-2.94-.16-2.18-.24-3.5-.24-3.94,0-2.46,1.39-3.7,4.17-3.7q5,0,5,3.41a8.45,8.45,0,0,1-.12,1.61l-.83,4.34a20.78,20.78,0,0,0-.36,3.92,30.37,30.37,0,0,0,.3,3.53,32.81,32.81,0,0,1,.3,3.53q0,3.83-6.08,3.83c-.79,0-2.62-.1-5.48-.3q-2.85-.14-8.81-.29h-28q-2.86,0-9.53.34c-.64,0-1.73,0-3.28.12s-2.76.13-3.63.13c-3.34,0-5-1-5-3.06,0-1.82,1.23-2.72,3.69-2.72a23.5,23.5,0,0,1,2.86.25,23.82,23.82,0,0,0,2.86.26q6.08,0,6.07-6.39V66.6q0-6.3-6.07-6.3a13.94,13.94,0,0,0-2.51.17,25,25,0,0,1-3.21.26,4.21,4.21,0,0,1-2.62-.81,2.42,2.42,0,0,1-1.07-2c0-2,1.7-3,5.12-3,.47,0,1.07,0,1.78.08l6.32.52q5.24.42,7.74.42,3.09,0,7.62-.42l5.48-.52c.64-.05,1.15-.08,1.55-.08q5.35,0,5.36,3a2.44,2.44,0,0,1-1.07,2,4.24,4.24,0,0,1-2.62.81,27.34,27.34,0,0,1-3.22-.26,13.81,13.81,0,0,0-2.5-.17q-6.07,0-6.07,6.26Z"/><path class="cls-3" d="M271.23,102.42l-4.29-8.33a3.6,3.6,0,0,0-1.49-1.71,9.57,9.57,0,0,0-3.16-.34h-21.2a6.27,6.27,0,0,0-3.27.6,10,10,0,0,0-2.33,3.23L232,102.42a4,4,0,0,0-.48,1.79q0,2.73,4.65,2.73,1.18,0,3.39-.18c1.47-.11,2.56-.16,3.28-.16q4.88,0,4.88,3c0,1.88-1.78,2.81-5.36,2.81-.63,0-1.51-.06-2.62-.17l-5.95-.53c-1.12-.1-2.94-.15-5.48-.15-2.78,0-4.73,0-5.84.14l-5,.43c-2.23.19-3.85.28-4.89.28-3.09,0-4.64-.93-4.64-2.81s1.51-3,4.53-3a2.4,2.4,0,0,1,1.42.34h1.55a6.35,6.35,0,0,0,4.89-1.8,18.8,18.8,0,0,0,2.38-4L244.9,58.19c1.27-2.4,3.78-3.59,7.51-3.59s6.07,1.19,7.26,3.57L281,100.38q2,4,3.7,5.28a7.71,7.71,0,0,0,4.76,1.28,6.3,6.3,0,0,0,1.43-.12l3.34-.22q4.51,0,4.52,2.8,0,3-4.52,3c-.88,0-2-.06-3.46-.19q-7.5-.66-11.19-.66-4.41,0-14.3.68c-1.67.11-2.94.17-3.81.17-3.18,0-4.76-1-4.76-2.89s1.74-2.89,5.24-2.89c.71,0,1.76.05,3.15.16s2.45.18,3.16.18q3.93,0,3.93-2.3A9.49,9.49,0,0,0,271.23,102.42Zm-8.58-17.36L251.93,61.58,241,85.06a2.92,2.92,0,0,0-.24.6c0,.51.6.77,1.79.77h18.94c1,0,1.43-.23,1.43-.68A2.19,2.19,0,0,0,262.65,85.06Z"/><path class="cls-3" d="M330,95.06V93.44q-.12-1.36-.12-2.31L306.72,64.91a29.66,29.66,0,0,0-2.86-3,7.38,7.38,0,0,0-4.4-1.28,5.34,5.34,0,0,0-2.15.34h-2.26q-5.48,0-5.48-3t4.77-3.06a40.89,40.89,0,0,1,4.76.34,89.56,89.56,0,0,0,10.72.68q3.69,0,11.08-.76a40.46,40.46,0,0,1,4.29-.26q4.88,0,4.88,2.89c0,1.88-1.95,2.81-5.84,2.81h-6.55c-.95,0-1.43.17-1.43.68a.68.68,0,0,0,.12.47l.6.72,18.22,22.13,18.46-22.13a2,2,0,0,0,.6-1.36c0-.51-.52-.76-1.55-.76h-.24l-2.14.25-3.1.21c-1.35.09-2.38.13-3.1.13-3.25,0-4.88-1-4.88-3s1.59-3,4.76-3a40.31,40.31,0,0,1,4.29.26q6.68.67,11.56.68a105.23,105.23,0,0,0,11.31-.68,36.6,36.6,0,0,1,4-.26q4.53,0,4.53,3,0,2.71-4.41,2.72a16,16,0,0,1-2.74-.17c-1.27-.11-2.14-.17-2.62-.17a6.53,6.53,0,0,0-5,2l-1.79,2L339.72,90.6v3.57c0,5.79.33,9.39,1,10.81s2.36,2.13,5.06,2.13a28,28,0,0,0,2.92-.22c1.31-.14,2.28-.21,2.92-.21q3.69,0,3.69,2.72,0,3.07-5.36,3.07h-.71a4.63,4.63,0,0,0-.84-.09l-6.55-.59q-3.69-.35-7.26-.34-3.83,0-7.27.34l-6.07.59a4.18,4.18,0,0,0-.72.09h-.83c-3.58,0-5.36-1-5.36-3s1.27-2.81,3.81-2.81a27.22,27.22,0,0,1,2.8.21,24.82,24.82,0,0,0,2.8.22c3.33,0,5.36-1.51,6.07-4.53Q330,101.82,330,95.06Z"/></svg>
