<svg id="Layer_1" data-name="Layer 1" xmlns="http://www.w3.org/2000/svg" width="920" height="210" viewBox="0 0 920 210"><defs><style>.cls-1{fill:#9ec131;}.cls-2{fill:#2e9937;}.cls-3{fill:#a9c821;stroke:#253676;stroke-miterlimit:10;stroke-width:3px;}</style></defs><rect class="cls-1" x="32.62" y="11.58" width="879.1" height="167.83" rx="51.35" transform="matrix(1, 0, 0, 1, -0.2, 0.98)"/><rect class="cls-2" x="8.58" y="28.91" width="890.82" height="172.37" rx="51.35" transform="translate(-0.24 0.94) rotate(-0.12)"/><path class="cls-3" d="M58.83,139.5l-.1-47q0-8.69-7.69-8.67c-.81,0-1.86.07-3.17.2-1.9.19-3.26.29-4.06.29Q39,84.32,39,80.43q0-4.11,6.65-4.12a20.23,20.23,0,0,1,2.27.11l7.43.69q3.63.35,9.08.33c2.53,0,5.55-.13,9.09-.37q12.4-.84,18.78-.86A102.61,102.61,0,0,1,109,77.35q10,1.64,15.69,7.25a18.5,18.5,0,0,1,5.7,13.62q0,11-9.75,16.94t-28.28,5.93l-10.77,0H75.32c-1.61,0-2.65.23-3.1.66s-.68,1.42-.68,3v2.34q0,14.85,1.17,18c.76,2.11,3,3.15,6.61,3.15a14.89,14.89,0,0,0,3.18-.36c2.22-.16,3.59-.25,4.1-.25q4.69,0,4.71,3.75,0,4.23-6.67,4.25l-2.12-.23-7.59-.81a94.84,94.84,0,0,0-9.56-.33,83.12,83.12,0,0,0-8.64.37l-8.8.95a6.32,6.32,0,0,0-.91.12H46q-6.82,0-6.84-4.1a3.42,3.42,0,0,1,1.36-2.76,5.13,5.13,0,0,1,3.34-1.13,28.48,28.48,0,0,1,4.09.35,16,16,0,0,0,3.19.22Q58.85,148.3,58.83,139.5ZM72.52,86.24c-.7.78-1,2.94-1,6.46l0,17.39c0,2.11,1.93,3.33,5.77,3.63l8.8,0a102.77,102.77,0,0,0,17.9-1.33q13.49-2.49,13.47-13.77,0-14.92-24.61-14.87Q74.64,83.76,72.52,86.24Z"/><path class="cls-3" d="M214.26,111.44A63.59,63.59,0,0,1,203,114.27q8.86,1.28,12.26,5.13t3.4,12.76v5.38c0,.32,0,.78,0,1.41q0,8.43,6.92,8.42t7-10v-8a12.26,12.26,0,0,1,.6-4.65c.8-1.32,2.37-2,4.7-2q5.46,0,5.47,4.92c0,.08,0,.94-.15,2.59v8.57a11.05,11.05,0,0,0-.15,2.12,12.71,12.71,0,0,1-4.9,10.64q-4.94,3.83-13.73,3.85-17.89,0-17.92-14v-10.1q0-7.87-3.87-10.39t-15.95-2.49l-14.05,0q-4.83,0-4.83,4.59l0,9q0,8.7.33,9.87c.91,3.92,3.45,5.87,7.59,5.86a24.84,24.84,0,0,0,3.19-.15c1.72-.14,3-.21,3.94-.22q4.86,0,4.86,3.88c0,2.73-2.16,4.11-6.51,4.12l-2.28-.23-8.19-.81c-3.14-.3-5.92-.46-8.34-.45-3,0-6.58.21-10.62.61l-7.28.72q-2.43.24-2.28.24c-4.35,0-6.52-1.4-6.53-4.22,0-2.5,1.56-3.76,4.7-3.77.5,0,1.87.08,4.09.23a15.14,15.14,0,0,0,3.19.34q7.74,0,7.72-8.82l-.1-47.12q0-8.81-7.75-8.79a32.38,32.38,0,0,0-3.64.3,32.73,32.73,0,0,1-3.64.3A5.06,5.06,0,0,1,137,82.87a3.29,3.29,0,0,1-1.37-2.64c0-2.74,2.21-4.12,6.66-4.12.4,0,1.11,0,2.13.11l7.73.57c2,.15,4.55.23,7.59.22s6.62-.09,10.47-.26l11.52-.49c3.85-.16,7.38-.25,10.62-.26q33.38-.06,33.42,19.61Q225.78,107.21,214.26,111.44Zm-42-.85,14.26,0q12.74,0,19.11-2.86,7.72-3.42,7.71-11.42,0-13.38-23.77-13.34-12.65,0-17.12,1.5t-4.63,5.83V94l0,13.51c0,1.33.31,2.17.92,2.52A7.64,7.64,0,0,0,172.24,110.59Z"/><path class="cls-3" d="M293.22,73.68a58.31,58.31,0,0,1,19.72,3.37l5.3-7.53A3.32,3.32,0,0,1,321.12,68h6.67c.91,0,1.37.39,1.37,1.17a.73.73,0,0,1-.15.35l-7.87,11.77a63.34,63.34,0,0,1,9.13,9.85q6.54,9.74,6.57,24,0,19.27-11.69,30.69t-31.61,11.46a64.06,64.06,0,0,1-21.24-3.48l-4.84,7.3a3.36,3.36,0,0,1-2.88,1.53h-7.13c-.81,0-1.22-.31-1.22-.93a1.05,1.05,0,0,1,.15-.59l8.17-11.77Q249.06,137.45,249,117q0-20,11.84-31.63T293.22,73.68Zm-23.53,67.49,38.72-56.83a36.58,36.58,0,0,0-14.87-2.67q-14.88,0-23,9.15t-8.14,25.69Q262.39,131.78,269.69,141.17Zm45.86-51L277,146.67a39.69,39.69,0,0,0,14.72,2.67q15.33,0,23.58-8.62t8.21-24.46q0-15.27-5.81-23.48Z"/><path class="cls-3" d="M379.42,94.72l21.5,49.93L421.14,95.5c1.51-3.76,2.27-6.42,2.26-8q0-4.47-6.08-4.45a28.47,28.47,0,0,0-3.33.3,28.6,28.6,0,0,1-3.34.3c-3.94,0-5.92-1.36-5.92-4.1s1.91-4,5.75-4q3.19,0,9.64.69a96,96,0,0,0,9.78.68,108.12,108.12,0,0,0,13.5-1.08,37,37,0,0,1,4.86-.37c3.74,0,5.61,1.36,5.62,4.1s-1.87,4-5.61,4a3.16,3.16,0,0,1-.61-.12l-3.48-.22h-.76a5.12,5.12,0,0,0-4.17,2q-1.59,1.94-4.46,8.4L410,150.16q-2.56,5.76-9.54,5.77-7.29,0-9.88-5.72L363.34,91.26a20.58,20.58,0,0,0-3.2-5.5q-2.13-2-6.68-2H347.7c-3.95,0-5.92-1.32-5.93-4s2-4.11,6.06-4.12a30.36,30.36,0,0,1,4.1.32,108.35,108.35,0,0,0,15,1.17q3.8,0,11.22-.79t11.07-.78c3.75,0,5.62,1.28,5.63,3.86q0,4.23-5.76,4.24h-5.46Q377,83.73,377,87a9.26,9.26,0,0,0,.77,3.51Z"/><path class="cls-3" d="M513.52,91.43q0-8.69-7.76-8.67a15.53,15.53,0,0,0-3.18.24,28.8,28.8,0,0,1-4.1.36,5.14,5.14,0,0,1-3.34-1.11,3.43,3.43,0,0,1-1.37-2.76q0-4.11,6.67-4.13c.61,0,1.31,0,2.12.12l8,.8a89.91,89.91,0,0,0,9.41.45,97.89,97.89,0,0,0,10.32-.6l6.82-.72c.81-.08,1.52-.12,2.12-.13,4.45,0,6.68,1.36,6.69,4.1a3.45,3.45,0,0,1-1.36,2.77,5.12,5.12,0,0,1-3.34,1.12,32.4,32.4,0,0,1-4.09-.34A15.15,15.15,0,0,0,534,82.7q-7.74,0-7.72,8.71l.1,47.11c0,5.87,2.6,8.81,7.75,8.79a27.73,27.73,0,0,0,3.19-.24,38,38,0,0,1,4.09-.36q4.71,0,4.71,3.75,0,4.23-6.66,4.25h-1.06a5.63,5.63,0,0,0-1.07-.12l-7.89-.92a69.29,69.29,0,0,0-8.34-.45,96.36,96.36,0,0,0-11.38.61l-7,.83a7.75,7.75,0,0,0-1.06.12h-1.22c-4.35,0-6.52-1.4-6.53-4.22,0-2.51,1.56-3.76,4.69-3.77.51,0,1.87.08,4.1.23a15.07,15.07,0,0,0,3.19.34q7.73,0,7.72-8.82Z"/><path class="cls-3" d="M599.83,73a46.32,46.32,0,0,1,27.59,8.76,11.11,11.11,0,0,1-.61-1.88c-.21-1.56-.31-2.43-.31-2.58,0-2.59,1.66-3.88,5-3.89,3.64,0,5.47,1.67,5.47,5a13.7,13.7,0,0,1-.16,2.47l-1.15,5.64a27.67,27.67,0,0,0-.48,5.29q0,2.23.63,9.51v1.06q0,5.28-5.6,5.3c-3.54,0-5.32-1.91-5.32-5.75V98.49A14.72,14.72,0,0,0,618,85.7Q611.07,81,599.43,81q-14.68,0-23,8.86t-8.26,24.22q0,16.33,8.62,25.48t23.76,9.11q11.67,0,18-5.34t6.34-15.12c0-2.67-.59-4.54-1.76-5.6s-3.21-1.58-6.14-1.58c-.81,0-2,0-3.49.13s-2.68.12-3.49.12q-7.29,0-7.29-4t6.21-4.12a39.85,39.85,0,0,1,4.4.25,150.62,150.62,0,0,0,15.32,1,126.94,126.94,0,0,0,15.78-1.09,33.25,33.25,0,0,1,4.09-.25c4,0,6.07,1.28,6.08,3.87a3.43,3.43,0,0,1-1.59,2.82,6,6,0,0,1-3.71,1.18h-5q-6.68,0-6.65,11.45l0,9.34a45.51,45.51,0,0,0,.31,5.49,34.37,34.37,0,0,1,.32,3.85c0,3.19-1.81,4.78-5.45,4.79s-5.32-1.36-5.32-4.1l.29-2.82c.1-.7.2-1.92.3-3.64a44.21,44.21,0,0,1-5.45,5.06q-8.79,6.12-24.41,6.16-19.57,0-31.58-11.21t-12-29.47q0-19.5,12.19-31.16T599.83,73Z"/><path class="cls-3" d="M679.32,91.09q0-8.69-7.75-8.68a17.25,17.25,0,0,0-3.19.24,30.45,30.45,0,0,1-4.09.37A5.12,5.12,0,0,1,661,81.91a3.41,3.41,0,0,1-1.37-2.76q0-4.11,6.34-4.13l2.26.12q22.68,1.13,21.17,1.13h1.51l36.43-.89q1.07,0,7.87-.37c1.61-.08,3.07-.13,4.38-.13q7.86,0,7.87,5.39c0,.63-.14,2.62-.42,6q-.32,3.77-.31,6.93a43.36,43.36,0,0,0,.26,5.76,36.49,36.49,0,0,1,.52,5c0,3-1.79,4.47-5.38,4.48s-5.39-2.07-5.39-6.22l0-6.11q0-9.87-5.33-11.62Q727.4,83.25,711,83.27q-10.77,0-12.74.38-6.53,1.3-6.51,7.06V96c0,.63,0,1.49,0,2.58v3.88q0,4.7,2.71,5.4a18.45,18.45,0,0,0,3.59.23l6.13,0q9.43,0,9.42-5.07a22.07,22.07,0,0,0-.39-3.64,25.61,25.61,0,0,1-.39-4c0-3.13,1.79-4.71,5.38-4.71s5.39,1.67,5.4,5c0,.63-.33,3-1,7.28a64.06,64.06,0,0,0-.82,9.52q0,2.35.63,8.34c.1.63.35,2,.76,4.11a25.91,25.91,0,0,1,.47,4.12c0,2.81-1.82,4.23-5.46,4.23s-5.31-1.63-5.32-4.92a25.9,25.9,0,0,1,.38-3.76,28.58,28.58,0,0,0,.37-3.76q0-5.06-8.66-5h-6.83c-2.93,0-4.73.4-5.38,1.19s-1,2.47-1,5l0,7.28c0,1.26,0,2.94.16,5.06.11,2.58.16,4.3.16,5.17q.17,4.69,2.44,5.87c1.12.54,3.74.81,7.89.8l20.63,0q9,0,12.29-2.08t3.32-7.71q0-1.76-.24-5.22c-.16-2.31-.24-4.06-.24-5.23,0-3.52,1.79-5.29,5.38-5.3q5.68,0,5.7,5.39,0,2.12-.22,6.47c-.14,2.89-.22,5.05-.21,6.46,0,1.1.08,2.72.24,4.87s.23,3.78.23,4.88q0,5.52-7,5.54c-1.12,0-2.89-.08-5.31-.23-1.22-.08-3.44-.11-6.68-.1q1.07,0-11.83-.21t-22.3-.19q-14.26,0-27.91.76a8.87,8.87,0,0,0-1.37.12h-.91c-4.25,0-6.37-1.39-6.38-4.21,0-2.51,1.56-3.77,4.7-3.77.5,0,1.87.07,4.09.22a15.18,15.18,0,0,0,3.19.35q7.74,0,7.72-8.83Z"/><path class="cls-3" d="M803.61,80l40.87,65.59-.1-47.34q0-9.17-.17-10.11-1.38-6.1-7.6-6.09a32.55,32.55,0,0,0-3.64.3,32.55,32.55,0,0,1-3.64.3,5.31,5.31,0,0,1-3.41-1.11,3.25,3.25,0,0,1-1.45-2.64c0-2.82,2.27-4.23,6.82-4.24a12.82,12.82,0,0,1,2,.11l6.83.69a83.64,83.64,0,0,0,8.49.46q3.95,0,10.47-.67l5.31-.55a9.57,9.57,0,0,0,1.06-.11h1.06c4.35,0,6.53,1.33,6.53,4s-2,3.94-6.17,3.95H863.6q-4.64,0-6,1.54t-1.68,6.69v6.69l0,12L856,140.8q0,8.08-2.34,11.38t-8.15,3.3q-7.47,0-12.67-8.2L792.77,83.34l.12,54.63q0,8.81,7.75,8.79c.81,0,2-.06,3.64-.18s2.83-.18,3.64-.19q4.86,0,4.86,3.76,0,4-6.81,4h-.91A8.19,8.19,0,0,0,804,154l-6.22-.69a83.88,83.88,0,0,0-9.71-.57c-2.63,0-6,.21-10.16.61l-7.43.72a7.75,7.75,0,0,0-1.06.12h-1.22c-4.35,0-6.52-1.35-6.53-4.1,0-2.42,1.61-3.64,4.85-3.65.5,0,1.87.08,4.09.23a15.14,15.14,0,0,0,3.19.34q7.74,0,7.72-8.82l0-8.23,0-10.34,0-10.1,0-18.56q0-8.82-7.85-8.8a26.75,26.75,0,0,0-3,.24,37.43,37.43,0,0,1-4.21.36q-4.82,0-4.83-3.86,0-4.11,6.51-4.13c.6,0,1.41,0,2.42.11,5,.39,8.93.57,11.66.57q2.26,0,6.81-.37t6.82-.37q4.69,0,6.21,2.46Z"/></svg>
