<svg id="Layer_1" data-name="Layer 1" xmlns="http://www.w3.org/2000/svg" width="440" height="170" viewBox="0 0 440 170"><defs><style>.cls-1{fill:#bd2786;}.cls-2{fill:#d47db2;}.cls-3{fill:#263677;stroke:#144391;stroke-miterlimit:10;stroke-width:2px;}</style></defs><rect class="cls-1" x="17.02" y="13.37" width="412.5" height="129.95" rx="51.35"/><rect class="cls-2" x="12.08" y="28.57" width="412.5" height="129.95" rx="51.35"/><path class="cls-3" d="M73,74q6.58,0,10.75,3v-.67c0-1.25.69-1.88,2.08-1.88s2.28.69,2.28,2.07v.28c0,.07-.06.55-.2,1.45a22.54,22.54,0,0,0-.2,3.21c0,.16,0,.67.13,1.54L88.06,85a2.88,2.88,0,0,1,.06.67c0,1.54-.83,2.3-2.48,2.3S83,87.29,83,86v-.24l.13-1.29c0-.45.07-.8.07-1.06a5,5,0,0,0-2.72-4.51A14.56,14.56,0,0,0,73,77.28a13.63,13.63,0,0,0-7,1.53,4.65,4.65,0,0,0-2.58,4.13c0,2,1.27,3.5,3.83,4.46a38.08,38.08,0,0,0,7.52,1.4c5.33.6,9,1.44,11,2.49q4.44,2.35,4.44,6.68,0,4.5-4.53,7.34T74,108.14q-7.65,0-12.67-3.45v.71a4.16,4.16,0,0,1,.26,1c0,1.17-.82,1.75-2.48,1.75s-2.69-.67-2.69-2a.46.46,0,0,1,.2-.39l.31-2.5c.15-1.24.23-2,.23-2.4A16.33,16.33,0,0,0,56.78,98a16.42,16.42,0,0,1-.37-2.88c0-1.45.85-2.16,2.55-2.16s2.62.72,2.62,2.16v2a6.58,6.58,0,0,0,3.22,5.74c2.14,1.41,5,2.12,8.71,2.12a16.27,16.27,0,0,0,8.1-1.73,5.27,5.27,0,0,0,3-4.71q0-4.56-8.06-5.56l-3.83-.49a55.21,55.21,0,0,1-8.87-1.67,10,10,0,0,1-4.6-2.86,6.44,6.44,0,0,1-1.72-4.39c0-2.82,1.44-5.11,4.3-6.87S68.44,74,73,74Z"/><path class="cls-3" d="M104,81.45c0-2.36-1.14-3.55-3.42-3.55a7,7,0,0,0-1.41.1,15.13,15.13,0,0,1-1.82.14,2.38,2.38,0,0,1-1.47-.45,1.36,1.36,0,0,1-.61-1.13c0-1.12.94-1.68,2.81-1.68l1,.05c6.69.32,9.82.47,9.37.47h.67l16.13-.33c.32,0,1.48,0,3.49-.14.71,0,1.36-.05,1.94-.05,2.32,0,3.48.73,3.48,2.21,0,.25-.06,1.07-.19,2.44-.1,1-.15,2-.15,2.84a15.48,15.48,0,0,0,.12,2.35,14.13,14.13,0,0,1,.22,2.06c0,1.22-.8,1.82-2.38,1.82s-2.39-.84-2.39-2.54V83.57q0-4-2.35-4.76-1.75-.53-9-.52c-3.18,0-5.07,0-5.65.14-1.92.35-2.89,1.31-2.89,2.88v4.8c0,1.28.4,2,1.2,2.21a9.41,9.41,0,0,0,1.59.09h2.71c2.79,0,4.18-.68,4.18-2.06a8.89,8.89,0,0,0-.17-1.49,9.31,9.31,0,0,1-.17-1.63c0-1.28.8-1.92,2.39-1.92s2.38.69,2.38,2.06c0,.26-.14,1.25-.43,3a23.51,23.51,0,0,0-.37,3.89c0,.64.09,1.77.27,3.4,0,.26.15.82.33,1.69a8.88,8.88,0,0,1,.2,1.67c0,1.16-.8,1.73-2.42,1.73s-2.35-.67-2.35-2a10.38,10.38,0,0,1,.17-1.54,10.38,10.38,0,0,0,.17-1.54c0-1.37-1.28-2.06-3.83-2.06h-3c-1.3,0-2.1.16-2.39.48a3.31,3.31,0,0,0-.44,2.07v3c0,.51,0,1.2.07,2.07,0,1,.07,1.76.07,2.11,0,1.28.4,2.08,1.07,2.4a11.08,11.08,0,0,0,3.5.33h9.13c2.65,0,4.46-.28,5.45-.84a3.29,3.29,0,0,0,1.47-3.14c0-.48,0-1.19-.1-2.14s-.1-1.65-.1-2.13c0-1.44.8-2.16,2.39-2.16s2.52.73,2.52,2.2c0,.58,0,1.46-.1,2.64s-.11,2.07-.11,2.65,0,1.11.11,2,.1,1.54.1,2c0,1.5-1,2.26-3.09,2.26-.5,0-1.28,0-2.35-.1-.54,0-1.53,0-3,0l-5.24-.09q-5.72-.11-9.88-.1-6.31,0-12.36.29a3.3,3.3,0,0,0-.6,0h-.41c-1.88,0-2.82-.58-2.82-1.73s.69-1.54,2.08-1.54c.23,0,.83,0,1.82.1a7.83,7.83,0,0,0,1.41.14q3.42,0,3.42-3.6Z"/><path class="cls-3" d="M163.17,100.75q0,3.6,3.42,3.6a15.73,15.73,0,0,0,1.61-.12,16.08,16.08,0,0,1,1.62-.12,2.5,2.5,0,0,1,1.51.46,1.32,1.32,0,0,1,.64,1.07c0,1.13-1,1.69-3,1.69h-.4a2.74,2.74,0,0,0-.47,0l-3.29-.34a41.61,41.61,0,0,0-4.23-.19c-1.71,0-3.21.06-4.51.19l-3.35.34a2.17,2.17,0,0,0-.48,0h-.47c-2,0-3-.56-3-1.69s.71-1.53,2.15-1.53a15.93,15.93,0,0,1,1.61.12,15.93,15.93,0,0,0,1.61.12q3.36,0,3.36-3.6V81.26q0-3.41-4.9-3.41h-2.08q-4.84,0-4.84,3.36a14.17,14.17,0,0,0,.06,1.63l.27,1.78a7.55,7.55,0,0,1,.07,1.2c0,2-.87,3-2.62,3s-2.48-.73-2.48-2.2c0-.42,0-1.14.13-2.16.13-1.54.2-2.52.2-2.93,0-.8,0-1.63-.11-2.5a18.23,18.23,0,0,0-.22-2.16c0-1.34.84-2,2.54-2,.63,0,2.08.05,4.36.14l5.5.19h7.65c.89,0,3.29,0,7.18-.08.85,0,2.3,0,4.35-.13,1.84-.08,3.27-.12,4.3-.12,2.23,0,3.35.65,3.35,2v.1a17.62,17.62,0,0,1-.17,1.78c-.11.86-.23,1.79-.37,2.78V82a18.75,18.75,0,0,0,.21,2.26c.17,1.34.26,2.17.26,2.49,0,1.31-.87,2-2.62,2S175,88,175,86.34a25.17,25.17,0,0,1,.2-2.58,22.57,22.57,0,0,0,.2-2.58q0-3.33-5.3-3.33H168.2a6.43,6.43,0,0,0-3.56.75,3.08,3.08,0,0,0-1.2,2.47l-.27,3.36Z"/><path class="cls-3" d="M206,100.75c0,2.4,1.15,3.6,3.43,3.6a15.93,15.93,0,0,0,1.61-.12,16.13,16.13,0,0,1,1.61-.12,2.51,2.51,0,0,1,1.52.46,1.3,1.3,0,0,1,.63,1.07c0,1.13-1,1.69-3,1.69h-.4a2.83,2.83,0,0,0-.47,0l-3.29-.34a41.68,41.68,0,0,0-4.24-.19c-1.7,0-3.2.06-4.5.19l-3.36.34a2.15,2.15,0,0,0-.47,0h-.47c-2,0-2.95-.56-2.95-1.69s.71-1.53,2.15-1.53a16.13,16.13,0,0,1,1.61.12,15.73,15.73,0,0,0,1.61.12q3.36,0,3.36-3.6V81.26q0-3.41-4.91-3.41h-2.08c-3.22,0-4.84,1.12-4.84,3.36a13.45,13.45,0,0,0,.07,1.63l.27,1.78a9,9,0,0,1,.07,1.2c0,2-.88,3-2.62,3s-2.49-.73-2.49-2.2c0-.42.05-1.14.14-2.16.13-1.54.2-2.52.2-2.93,0-.8,0-1.63-.11-2.5a15.38,15.38,0,0,0-.23-2.16q0-2,2.55-2c.63,0,2.08.05,4.36.14l5.5.19h7.65c.89,0,3.28,0,7.17-.08.85,0,2.31,0,4.36-.13q2.75-.12,4.29-.12c2.24,0,3.36.65,3.36,2v.1a17.62,17.62,0,0,1-.17,1.78c-.11.86-.24,1.79-.37,2.78V82a20.47,20.47,0,0,0,.2,2.26q.27,2,.27,2.49c0,1.31-.87,2-2.62,2s-2.55-.8-2.55-2.41a22.57,22.57,0,0,1,.2-2.58,25.17,25.17,0,0,0,.2-2.58q0-3.33-5.31-3.33H211a6.41,6.41,0,0,0-3.56.75,3.09,3.09,0,0,0-1.21,2.47L206,84.43Z"/><path class="cls-3" d="M234.79,81.45c0-2.36-1.15-3.55-3.43-3.55A7,7,0,0,0,230,78a15.13,15.13,0,0,1-1.82.14,2.38,2.38,0,0,1-1.47-.45,1.36,1.36,0,0,1-.61-1.13c0-1.12,1-1.68,3-1.68a8.36,8.36,0,0,1,.94.05l3.56.33c1.34.13,2.73.19,4.16.19s2.92-.08,4.57-.24l3-.28a8.25,8.25,0,0,1,.94-.05c2,0,2.95.56,2.95,1.68a1.38,1.38,0,0,1-.6,1.13,2.43,2.43,0,0,1-1.48.45,16.42,16.42,0,0,1-1.81-.14,7.15,7.15,0,0,0-1.41-.1c-2.29,0-3.43,1.19-3.43,3.55V100.7q0,3.6,3.43,3.6a12.4,12.4,0,0,0,1.41-.1c.85-.09,1.45-.14,1.81-.14,1.39,0,2.08.51,2.08,1.54s-1,1.73-2.95,1.73h-.47a2.15,2.15,0,0,0-.47,0l-3.5-.39a35.82,35.82,0,0,0-3.69-.19,47.32,47.32,0,0,0-5,.24l-3.09.34a2.74,2.74,0,0,0-.47,0h-.54c-1.93,0-2.89-.58-2.89-1.73s.69-1.54,2.08-1.54c.23,0,.83,0,1.82.1a7.83,7.83,0,0,0,1.41.14c2.28,0,3.43-1.2,3.43-3.6Z"/><path class="cls-3" d="M270.36,77l18,26.83V84.53c0-2.5,0-3.88-.07-4.13A3.07,3.07,0,0,0,285,77.9a15.93,15.93,0,0,0-1.61.12,15.93,15.93,0,0,1-1.61.12,2.52,2.52,0,0,1-1.51-.45,1.32,1.32,0,0,1-.64-1.09c0-1.15,1-1.72,3-1.72a4.66,4.66,0,0,1,.87.05l3,.28c1.34.13,2.59.19,3.76.19s2.71-.08,4.64-.26l2.35-.22a3.91,3.91,0,0,0,.47,0h.47c1.92,0,2.89.55,2.89,1.65s-.92,1.61-2.74,1.61h-1.44a4,4,0,0,0-2.66.62,4.58,4.58,0,0,0-.76,2.74v20.41c0,2.21-.35,3.75-1,4.65a4.33,4.33,0,0,1-3.61,1.34q-3.32,0-5.61-3.36L265.56,78.38V100.7q0,3.6,3.42,3.6c.36,0,.9,0,1.61-.07s1.26-.07,1.62-.07c1.43,0,2.15.51,2.15,1.53s-1,1.64-3,1.64h-.4a2.74,2.74,0,0,0-.47,0l-2.75-.29a41.43,41.43,0,0,0-4.3-.24c-1.17,0-2.67.08-4.51.24l-3.29.29a2.83,2.83,0,0,0-.47,0h-.54c-1.92,0-2.88-.56-2.88-1.69s.71-1.48,2.15-1.48c.22,0,.82,0,1.81.09a7.05,7.05,0,0,0,1.41.15c2.28,0,3.43-1.2,3.43-3.6V81.5q0-3.6-3.47-3.6a11.54,11.54,0,0,0-1.33.1c-.85.09-1.47.14-1.87.14-1.42,0-2.13-.53-2.13-1.58s1-1.68,2.88-1.68c.27,0,.62,0,1.07.05,2.24.16,4,.24,5.17.24.67,0,1.67,0,3-.15s2.35-.14,3-.14c1.39,0,2.3.33,2.75,1Z"/><path class="cls-3" d="M322.55,74a21.74,21.74,0,0,1,12.21,3.6,4.3,4.3,0,0,1-.27-.77c-.09-.64-.14-1-.14-1q0-1.59,2.22-1.59c1.61,0,2.42.69,2.42,2.07a6.05,6.05,0,0,1-.07,1l-.52,2.3a9.88,9.88,0,0,0-.22,2.16c0,.61.09,1.91.27,3.89v.43c0,1.44-.83,2.16-2.48,2.16a2.08,2.08,0,0,1-2.36-2.35V84.43a5.9,5.9,0,0,0-3-5.23,15.3,15.3,0,0,0-8.21-1.92q-6.51,0-10.19,3.6t-3.68,9.89c0,4.44,1.26,7.92,3.79,10.41s6,3.75,10.52,3.75c3.45,0,6.11-.73,8-2.17a7.34,7.34,0,0,0,2.82-6.17,2.83,2.83,0,0,0-.77-2.29,4.24,4.24,0,0,0-2.72-.66c-.36,0-.87,0-1.55,0s-1.18,0-1.54,0c-2.15,0-3.22-.54-3.22-1.63s.91-1.68,2.75-1.68c.58,0,1.23,0,1.95.1q4.23.43,6.78.43a62,62,0,0,0,7-.43,14.25,14.25,0,0,1,1.82-.1c1.79,0,2.68.53,2.68,1.58a1.39,1.39,0,0,1-.7,1.16,2.85,2.85,0,0,1-1.65.47h-2.22q-3,0-2.95,4.68v3.81a16.8,16.8,0,0,0,.13,2.24,12.85,12.85,0,0,1,.14,1.58c0,1.3-.81,2-2.42,2s-2.35-.56-2.35-1.68l.13-1.15c0-.29.09-.78.13-1.49a19,19,0,0,1-2.41,2.06q-3.9,2.51-10.82,2.5-8.67,0-14-4.61a15.17,15.17,0,0,1-5.31-12q0-8,5.43-12.72T322.55,74Z"/><path class="cls-3" d="M368.28,74q6.59,0,10.75,3v-.67c0-1.25.69-1.88,2.08-1.88s2.29.69,2.29,2.07v.28c0,.07-.07.55-.2,1.45A21,21,0,0,0,383,81.5c0,.16.05.67.14,1.54l.2,1.92a2.36,2.36,0,0,1,.07.67c0,1.54-.83,2.3-2.49,2.3s-2.62-.64-2.62-1.92v-.24l.14-1.29c0-.45.06-.8.06-1.06a5,5,0,0,0-2.72-4.51,14.53,14.53,0,0,0-7.49-1.63,13.59,13.59,0,0,0-6.95,1.53,4.65,4.65,0,0,0-2.59,4.13c0,2,1.28,3.5,3.83,4.46a38.07,38.07,0,0,0,7.53,1.4c5.33.6,9,1.44,10.95,2.49q4.43,2.35,4.43,6.68,0,4.5-4.52,7.34t-11.7,2.83q-7.65,0-12.67-3.45v.71a3.87,3.87,0,0,1,.27,1c0,1.17-.83,1.75-2.48,1.75-1.8,0-2.69-.67-2.69-2a.44.44,0,0,1,.2-.39l.31-2.5c.15-1.24.23-2,.23-2.4a17.37,17.37,0,0,0-.37-2.87,16.42,16.42,0,0,1-.37-2.88c0-1.45.85-2.16,2.55-2.16s2.62.72,2.62,2.16v2a6.57,6.57,0,0,0,3.21,5.74q3.23,2.11,8.71,2.12a16.31,16.31,0,0,0,8.11-1.73,5.26,5.26,0,0,0,3-4.71q0-4.56-8.06-5.56L368,92.44a55.43,55.43,0,0,1-8.87-1.67,10.05,10.05,0,0,1-4.6-2.86,6.48,6.48,0,0,1-1.71-4.39q0-4.23,4.3-6.87T368.28,74Z"/></svg>
