<svg id="Layer_1" data-name="Layer 1" xmlns="http://www.w3.org/2000/svg" width="1020" height="200" viewBox="0 0 1020 200"><defs><style>.cls-1{fill:#bd2786;}.cls-2{fill:#d47db2;}.cls-3{fill:#253676;stroke:#12448f;stroke-miterlimit:10;stroke-width:4px;}</style></defs><rect class="cls-1" x="23.02" y="7.44" width="988.59" height="164.87" rx="51.35"/><rect class="cls-2" x="11.17" y="26.72" width="988.59" height="164.87" rx="51.35"/><path class="cls-3" d="M102.8,64.43q15.9,0,26,7.6V70.34c0-3.14,1.67-4.7,5-4.7,3.67,0,5.52,1.73,5.52,5.18v.73c0,.16-.17,1.36-.49,3.61a56.89,56.89,0,0,0-.49,8.08c0,.41.11,1.69.33,3.86l.48,4.83a6.64,6.64,0,0,1,.17,1.69c0,3.86-2,5.79-6,5.79q-6.33,0-6.33-4.83V94l.33-3.26c.11-1.12.16-2,.16-2.65,0-4.83-2.19-8.6-6.57-11.34s-10.41-4.1-18.09-4.1q-10.55,0-16.79,3.86T79.76,86.86q0,7.61,9.25,11.22,5.19,1.94,18.17,3.5,19.3,2.28,26.45,6.27,10.71,5.91,10.7,16.76,0,11.34-10.92,18.45t-28.25,7.12q-18.45,0-30.59-8.68v1.78a10.46,10.46,0,0,1,.65,2.5q0,4.4-6,4.4c-4.34,0-6.5-1.69-6.5-5.07a1.14,1.14,0,0,1,.48-1l.74-6.27c.38-3.14.56-5.15.56-6a44.31,44.31,0,0,0-.89-7.24,43.12,43.12,0,0,1-.89-7.23q0-5.43,6.16-5.43c4.22,0,6.33,1.81,6.33,5.45v5q0,9.09,7.76,14.41t21,5.33q12.3,0,19.58-4.34t7.28-11.82q0-11.46-19.47-14l-9.25-1.21a130.39,130.39,0,0,1-21.41-4.22,24,24,0,0,1-11.12-7.18,16.59,16.59,0,0,1-4.14-11q0-10.61,10.39-17.25T102.8,64.43Z"/><path class="cls-3" d="M177.59,131.5V83.23q0-8.91-8.21-8.91c-.86,0-2,.06-3.38.19-2,.2-3.49.29-4.35.29-3.43,0-5.15-1.32-5.15-4s2.38-4.22,7.13-4.22q1.13,0,2.43.12l7.94.73c2.59.24,5.82.36,9.71.36q4,0,9.72-.36,13.29-.86,20.09-.85a112.43,112.43,0,0,1,17.81,1.21Q242,69.49,248.1,75.28a18.63,18.63,0,0,1,6.07,14q0,11.34-10.46,17.37t-30.26,6H195.28q-2.59,0-3.33.66c-.49.44-.73,1.46-.73,3.06v2.41q0,15.24,1.22,18.49t7.06,3.24a15.61,15.61,0,0,0,3.4-.36q3.57-.24,4.38-.24c3.36,0,5,1.29,5,3.86q0,4.34-7.14,4.34l-2.27-.24-8.11-.85q-3.4-.36-10.22-.36-5.69,0-9.25.36l-9.41,1a5.78,5.78,0,0,0-1,.12H163.8c-4.86,0-7.3-1.41-7.3-4.22a3.5,3.5,0,0,1,1.46-2.84,5.63,5.63,0,0,1,3.57-1.14,32.76,32.76,0,0,1,4.38.36,17.84,17.84,0,0,0,3.41.24Q177.59,140.53,177.59,131.5Zm14.77-54.65q-1.14,1.22-1.14,6.64v17.85q0,3.25,6.17,3.73h9.41a115.16,115.16,0,0,0,19.14-1.32q14.44-2.53,14.44-14.11,0-15.31-26.28-15.32Q194.63,74.32,192.36,76.85Z"/><path class="cls-3" d="M280.94,83.12q0-8.93-8.27-8.92a17.84,17.84,0,0,0-3.41.24,32.76,32.76,0,0,1-4.38.36,5.61,5.61,0,0,1-3.57-1.14,3.5,3.5,0,0,1-1.46-2.84q0-4.21,7.14-4.22c.65,0,1.4,0,2.27.12l8.6.85c3.24.32,6.6.48,10.06.48s7-.2,11-.6l7.3-.73c.87-.08,1.62-.12,2.27-.12q7.14,0,7.14,4.22a3.47,3.47,0,0,1-1.46,2.84,5.61,5.61,0,0,1-3.57,1.14,35.78,35.78,0,0,1-4.38-.36,17.84,17.84,0,0,0-3.41-.24q-8.26,0-8.27,8.92v48.37q0,9,8.27,9a31.57,31.57,0,0,0,3.41-.24,43.76,43.76,0,0,1,4.38-.36q5,0,5,3.86,0,4.34-7.14,4.34h-1.13a6.41,6.41,0,0,0-1.14-.12l-8.43-1a79.18,79.18,0,0,0-8.93-.48,110.35,110.35,0,0,0-12.17.6l-7.46.85a9.08,9.08,0,0,0-1.14.12h-1.29c-4.66,0-7-1.45-7-4.34q0-3.85,5-3.86.81,0,4.38.24a17.21,17.21,0,0,0,3.41.36q8.26,0,8.27-9Z"/><path class="cls-3" d="M356.71,129.85q0,7.08,2,8.4a7.57,7.57,0,0,0,3.81,1.32q2.36.24,10.62.24h14.28q11.2,0,14.93-2.2t3.73-8.86c0-1.19-.06-2.58-.16-4.17-.22-3.09-.33-5-.33-5.59q0-5.23,5.68-5.23,6.82,0,6.82,4.82a12.36,12.36,0,0,1-.17,2.29L416.74,127a30.24,30.24,0,0,0-.49,5.55,45.32,45.32,0,0,0,.41,5,44.8,44.8,0,0,1,.4,5q0,5.43-8.27,5.43-1.62,0-7.46-.42-3.9-.21-12-.43H351.19q-3.88,0-13,.49c-.86,0-2.35.06-4.46.18s-3.76.18-4.95.18q-6.81,0-6.81-4.34c0-2.58,1.67-3.86,5-3.86a31.13,31.13,0,0,1,3.89.36,31.1,31.1,0,0,0,3.9.36q8.26,0,8.27-9V83.12q0-8.93-8.27-8.92a17.77,17.77,0,0,0-3.41.24,32.76,32.76,0,0,1-4.38.36,5.61,5.61,0,0,1-3.57-1.14A3.47,3.47,0,0,1,322,70.82q0-4.21,7-4.22c.65,0,1.46,0,2.44.12l8.6.73q7.14.6,10.54.6,4.21,0,10.39-.6l7.46-.73c.86-.08,1.57-.12,2.11-.12q7.31,0,7.3,4.22a3.5,3.5,0,0,1-1.46,2.84,5.63,5.63,0,0,1-3.57,1.14,35.78,35.78,0,0,1-4.38-.36A17.84,17.84,0,0,0,365,74.2q-8.26,0-8.27,8.87Z"/><path class="cls-3" d="M486.83,83.12q0-8.93-8.28-8.92a17.72,17.72,0,0,0-3.4.24,33,33,0,0,1-4.38.36,5.61,5.61,0,0,1-3.57-1.14,3.47,3.47,0,0,1-1.46-2.84c0-2.81,2.37-4.22,7.13-4.22q1,0,2.28.12l8.6.85q4.86.48,10.05.48c3.36,0,7-.2,11-.6l7.3-.73c.86-.08,1.62-.12,2.27-.12q7.14,0,7.14,4.22a3.5,3.5,0,0,1-1.46,2.84,5.65,5.65,0,0,1-3.57,1.14,35.78,35.78,0,0,1-4.38-.36,17.91,17.91,0,0,0-3.41-.24q-8.28,0-8.27,8.92v48.37q0,9,8.27,9a31.73,31.73,0,0,0,3.41-.24,43.32,43.32,0,0,1,4.38-.36q5,0,5,3.86,0,4.34-7.14,4.34h-1.14a6.31,6.31,0,0,0-1.13-.12l-8.44-1a79,79,0,0,0-8.92-.48,110.22,110.22,0,0,0-12.17.6l-7.46.85a9.08,9.08,0,0,0-1.14.12h-1.3q-7,0-7-4.34c0-2.57,1.67-3.86,5-3.86q.81,0,4.38.24a17.11,17.11,0,0,0,3.4.36q8.28,0,8.28-9Z"/><path class="cls-3" d="M579.18,64.43a51,51,0,0,1,29.49,9,12,12,0,0,1-.65-1.93c-.22-1.61-.32-2.5-.32-2.66q0-4,5.35-4c3.9,0,5.84,1.73,5.84,5.19a14.11,14.11,0,0,1-.17,2.53l-1.24,5.79a26.05,26.05,0,0,0-.53,5.43c0,1.53.21,4.78.64,9.77V94.7q0,5.43-6,5.43-5.69,0-5.68-5.91V90.6q0-8.32-7.36-13.14t-19.82-4.83q-15.71,0-24.6,9.05t-8.9,24.84q0,16.77,9.17,26.17t25.39,9.41q12.5,0,19.31-5.45t6.81-15.5q0-4.12-1.86-5.76t-6.57-1.63c-.87,0-2.11,0-3.73.12s-2.87.12-3.74.12q-7.78,0-7.78-4.1c0-2.82,2.21-4.22,6.65-4.22a45.63,45.63,0,0,1,4.7.26Q603.81,107,610,107a140.69,140.69,0,0,0,16.87-1.08,36.11,36.11,0,0,1,4.38-.24c4.33,0,6.49,1.32,6.49,4a3.47,3.47,0,0,1-1.7,2.89,6.67,6.67,0,0,1-4,1.21h-5.36q-7.14,0-7.14,11.74v9.58a43.55,43.55,0,0,0,.33,5.63,34.13,34.13,0,0,1,.32,4q0,4.91-5.84,4.91-5.69,0-5.68-4.23l.33-2.89c.1-.72.21-2,.32-3.74a47.08,47.08,0,0,1-5.84,5.19q-9.42,6.27-26.12,6.27-20.93,0-33.75-11.58t-12.82-30.27q0-20,13.12-32T579.18,64.43Z"/><path class="cls-3" d="M664.16,83.12q0-8.93-8.28-8.92a17.72,17.72,0,0,0-3.4.24,32.76,32.76,0,0,1-4.38.36,5.61,5.61,0,0,1-3.57-1.14,3.47,3.47,0,0,1-1.46-2.84q0-4.21,6.79-4.22l2.42.12q24.26,1.22,22.64,1.21h1.61l39-.85q1.14,0,8.41-.36c1.72-.08,3.29-.12,4.69-.12q8.4,0,8.41,5.55,0,1-.47,6.15-.35,3.86-.35,7.12a41.18,41.18,0,0,0,.28,5.9,37.93,37.93,0,0,1,.54,5.19c0,3.06-1.93,4.58-5.76,4.58s-5.76-2.13-5.76-6.39V88.43q0-10.12-5.68-11.94-4.23-1.32-21.74-1.33-11.52,0-13.63.37-7,1.32-7,7.23V94.82q0,4.83,2.88,5.55a21,21,0,0,0,3.84.24h6.56q10.08,0,10.09-5.19a22.49,22.49,0,0,0-.41-3.73,23.94,23.94,0,0,1-.41-4.1q0-4.83,5.76-4.83T711.53,88q0,1-1,7.47a63.07,63.07,0,0,0-.89,9.77c0,1.61.21,4.47.65,8.57.1.64.37,2,.81,4.22a25.12,25.12,0,0,1,.48,4.22c0,2.89-1.94,4.34-5.84,4.34s-5.68-1.69-5.68-5.06a26.51,26.51,0,0,1,.41-3.86,26.78,26.78,0,0,0,.41-3.86q0-5.19-9.25-5.19h-7.3q-4.71,0-5.76,1.21T677.46,115v7.48c0,1.29.06,3,.16,5.19.11,2.65.17,4.42.17,5.3.1,3.22,1,5.23,2.59,6q1.79.85,8.44.85h22.06q9.57,0,13.15-2.11c2.37-1.41,3.57-4,3.57-7.9,0-1.21-.09-3-.25-5.37s-.24-4.16-.24-5.37q0-5.41,5.76-5.42,6.07,0,6.08,5.54,0,2.17-.24,6.64t-.24,6.63q0,1.7.24,5c.16,2.21.24,3.88.24,5q0,5.67-7.46,5.67c-1.19,0-3.08-.08-5.68-.24q-1.95-.12-7.14-.12,1.14,0-12.65-.24t-23.85-.25q-15.25,0-29.86.73a10.09,10.09,0,0,0-1.46.12h-1q-6.81,0-6.81-4.34c0-2.57,1.67-3.86,5-3.86q.81,0,4.38.24a17.11,17.11,0,0,0,3.4.36q8.28,0,8.28-9Z"/><path class="cls-3" d="M797.11,72l43.57,67.42V90.84c0-6.27-.06-9.72-.16-10.37q-1.47-6.27-8.12-6.27a37.21,37.21,0,0,0-3.89.3,37.21,37.21,0,0,1-3.89.3A6,6,0,0,1,821,73.66a3.36,3.36,0,0,1-1.54-2.72c0-2.89,2.44-4.34,7.3-4.34a12.92,12.92,0,0,1,2.11.12l7.3.73q4.88.48,9.09.48t11.2-.67c1.62-.14,3.51-.33,5.67-.55a8.54,8.54,0,0,0,1.14-.11h1.14c4.64,0,7,1.39,7,4.16s-2.2,4-6.6,4h-3.47q-5,0-6.45,1.57T853,83.23v51.29q0,8.32-2.53,11.68t-8.72,3.38q-8,0-13.53-8.45L785.51,75.41v56.08q0,9,8.28,9c.86,0,2.16-.06,3.89-.18s3-.18,3.9-.18q5.19,0,5.19,3.86c0,2.73-2.44,4.1-7.3,4.1h-1a9.16,9.16,0,0,0-1.13-.12l-6.65-.73a96.36,96.36,0,0,0-10.39-.6q-4.22,0-10.87.6l-8,.73a9,9,0,0,0-1.13.12h-1.3q-7,0-7-4.22,0-3.74,5.19-3.74.81,0,4.38.24a17.28,17.28,0,0,0,3.41.36q8.28,0,8.28-9V83.24q0-9-8.38-9a30.53,30.53,0,0,0-3.22.24,42.87,42.87,0,0,1-4.51.36c-3.43,0-5.15-1.32-5.15-4s2.32-4.22,7-4.22c.64,0,1.51,0,2.59.12,5.39.41,9.55.6,12.47.6q2.42,0,7.28-.36t7.29-.36c3.35,0,5.56.85,6.64,2.53Z"/><path class="cls-3" d="M895.35,86.86q0,3.14,4.06,5.19V90.84a3.35,3.35,0,0,1,1.7-2.83,7.59,7.59,0,0,1,4.3-1.15q7.14,0,7.14,5.31,0,3.49-3.73,5.85a17,17,0,0,1-9.25,2.35q-7.14,0-11.76-3.56a11,11,0,0,1-4.63-9.1q0-10.14,11.61-16.71t29.77-6.57q18,0,29,6.27t11,16.52q0,12.91-17.2,19.42c-1.95.72-4.44,1.57-7.46,2.53q-9.59,3-13.06,5.79a8.92,8.92,0,0,0-3.49,7.36c0,2.25-.27,3.78-.81,4.58q-1.31,1.82-5.19,1.81-6.82,0-6.82-6.27a13.88,13.88,0,0,1,3.89-9.89q4.88-4.93,17.85-10.25,11.69-4.71,15.09-7.6a9.76,9.76,0,0,0,3.41-7.84q0-6.63-7.3-10.67t-19.31-4q-12.17,0-20.44,4.28T895.35,86.86Zm23.37,62.72a11.73,11.73,0,0,1-7.22-2.24,6.29,6.29,0,0,1,0-10.73,11.73,11.73,0,0,1,7.22-2.23,11.36,11.36,0,0,1,7.13,2.23,6.38,6.38,0,0,1,0,10.73A11.37,11.37,0,0,1,918.72,149.58Z"/></svg>
