<svg xmlns="http://www.w3.org/2000/svg" xmlns:xlink="http://www.w3.org/1999/xlink" viewBox="0 0 1920 1080"><defs><style>.cls-1{isolation:isolate;}.cls-2{mix-blend-mode:screen;fill:url(#linear-gradient);}.cls-3{stroke-miterlimit:10;fill:url(#linear-gradient-2);stroke:url(#linear-gradient-3);}.cls-4{fill:url(#linear-gradient-4);}.cls-5{fill:url(#linear-gradient-5);}.cls-6{fill:url(#linear-gradient-6);}</style><linearGradient id="linear-gradient" x1="-1.73383" y1="539.99454" x2="1921.38823" y2="539.99454" gradientUnits="userSpaceOnUse"><stop offset="0" stop-color="#00a4bc" stop-opacity="0.98"/><stop offset="1" stop-color="#d50362" stop-opacity="0.7"/></linearGradient><linearGradient id="linear-gradient-2" x1="2.89643" y1="668.83023" x2="1922.95642" y2="668.83023" gradientUnits="userSpaceOnUse"><stop offset="0.23865" stop-color="#007a55" stop-opacity="0.98"/><stop offset="0.32432" stop-color="#007959" stop-opacity="0.87759"/><stop offset="0.47177" stop-color="#00785f" stop-opacity="0.7464"/><stop offset="0.58329" stop-color="#007861" stop-opacity="0.7"/><stop offset="0.59923" stop-color="#0a7160" stop-opacity="0.71015"/><stop offset="0.72039" stop-color="#534157" stop-opacity="0.78255"/><stop offset="0.82267" stop-color="#871e51" stop-opacity="0.83536"/><stop offset="0.90094" stop-color="#a8084d" stop-opacity="0.86787"/><stop offset="0.94589" stop-color="#b4004c" stop-opacity="0.88"/></linearGradient><linearGradient id="linear-gradient-3" x1="2.39643" y1="668.83023" x2="1923.46042" y2="668.83023" gradientUnits="userSpaceOnUse"><stop offset="0.31665" stop-color="#00a1b0" stop-opacity="0.98"/><stop offset="0.36698" stop-color="#009eab" stop-opacity="0.97007"/><stop offset="0.42718" stop-color="#00959e" stop-opacity="0.94133"/><stop offset="0.49243" stop-color="#008788" stop-opacity="0.89376"/><stop offset="0.56127" stop-color="#007369" stop-opacity="0.8273"/><stop offset="0.63224" stop-color="#005941" stop-opacity="0.74282"/><stop offset="0.65681" stop-color="#004f32" stop-opacity="0.71"/></linearGradient><linearGradient id="linear-gradient-4" x1="-27.03759" y1="852.30071" x2="1925.96821" y2="852.30071" gradientUnits="userSpaceOnUse"><stop offset="0.03034" stop-color="#007684"/><stop offset="0.04723" stop-color="#007a7e"/><stop offset="0.0911" stop-color="#008173"/><stop offset="0.14294" stop-color="#008370"/><stop offset="0.45293" stop-color="#008371" stop-opacity="0.83632"/><stop offset="0.7729" stop-color="#008372" stop-opacity="0.7"/><stop offset="0.90761" stop-color="#bf0a72" stop-opacity="0.7"/><stop offset="0.99572" stop-color="#9e0056" stop-opacity="0.7"/></linearGradient><linearGradient id="linear-gradient-5" x1="-70.82827" y1="865.68917" x2="1924.29651" y2="865.68917" gradientUnits="userSpaceOnUse"><stop offset="0.05407" stop-color="#005f34" stop-opacity="0.98"/><stop offset="0.16665" stop-color="#00634b" stop-opacity="0.89171"/><stop offset="0.33515" stop-color="#006c7e" stop-opacity="0.7"/><stop offset="0.38891" stop-color="#006b75" stop-opacity="0.74871"/><stop offset="0.71125" stop-color="#006349"/><stop offset="0.78415" stop-color="#414758"/><stop offset="0.8891" stop-color="#99216c"/><stop offset="0.96306" stop-color="#d10979"/><stop offset="0.9987" stop-color="#e6007e"/></linearGradient><linearGradient id="linear-gradient-6" x1="-54.15961" y1="1004.12118" x2="1975.68115" y2="1004.12118" gradientUnits="userSpaceOnUse"><stop offset="0.03972" stop-color="#044547" stop-opacity="0.98"/><stop offset="0.04505" stop-color="#044749" stop-opacity="0.98152"/><stop offset="0.0957" stop-color="#025155" stop-opacity="0.99208"/><stop offset="0.16182" stop-color="#00575c" stop-opacity="0.99822"/><stop offset="0.30072" stop-color="#00595e"/><stop offset="0.48155" stop-color="#00565b" stop-opacity="0.99638"/><stop offset="0.6487" stop-color="#024e50" stop-opacity="0.98535"/><stop offset="0.74264" stop-color="#034647" stop-opacity="0.9756"/><stop offset="0.79976" stop-color="#123841" stop-opacity="0.97654"/><stop offset="0.90957" stop-color="#3b1330" stop-opacity="0.97897"/><stop offset="0.95122" stop-color="#4c0329" stop-opacity="0.98"/></linearGradient></defs><g class="cls-1"><g id="Layer_1" data-name="Layer 1"><rect class="cls-2" x="-1.73383" y="-0.25206" width="1923.12206" height="1080.4932"/><path class="cls-3" d="M1922.95642,811.34521q-.945,49.00508-1.9,98.02H2.95643q-.02994-31.005-.04-61.99v-.01q-.015-22.29-.02-44.58c58.51486-38.77606,107.17486-67.60541,138.01-85.33.00009-.00006,457.91394-276.94659,880.1-287.38q36.01493-.89,72.03009-1.78a998.68132,998.68132,0,0,1,122.57,7.83c284.51416,35.81113,485.34973,185.94489,565.69006,249.03A1568.19505,1568.19505,0,0,1,1922.95642,811.34521Z"/><path class="cls-4" d="M1924.87766,692.64955c-4.86363,32.234-1.04415,65.68251-1.10231,98.52875-.10363,58.49893.06365,143.47211.52318,257.37468q-555.24424-.17506-1110.47825-.35005c-75.58622-.02382-320.78207,5.9136-649.70494-.20739-75.48449-1.40474-137.31241-3.03973-177.20749-4.18264q3.671-30.92131,6.94978-63.14452,3.32893-32.82014,5.97618-64.49182v-.013a2.67531,2.67531,0,0,0-.0599-1.21863c-.77139-2.42452-5.61452-1.33408-7.07458-1.93148-3.19577-1.30757-4.18626-16.43056,3.24922-70.60269,1.14677,1.13856,2.667,2.40134,3.40586,1.7631,2.41249-2.084-8.22027-20.36576-11.28826-40.91153-4.66221-31.22193,12.00411-41.82672,8.10807-69.15831-4.02265-28.21979-24.30149-34.5348-23.16591-46.60667,1.55285-16.50787,42.55336-37.44081,162.16142-33.07571,80.83459,2.95,152.08042,15.79454,370.65466,72.1652,104.59469,26.97512,121.14025,32.50852,164.12968,38.37639,67.705,9.24144,100.20479,8.663,183.82793,18.48683,38.51346,4.52445,76.73723,11.175,114.2419,23.17982,36.82556,11.7973,181.99012,55.74563,363.08124,21.18329,23.951-4.57628,47.96207-11.914,74.68978-22.77793h.01c0-.0129,48.6113-16.61991,132.65977-41.35544,0,0,134.9768-42.3537,243.00642-69.24131,40.85054-10.17679,77.85587-18.13676,102.23633-20.75546,10.386-1.11553,31.29336-15.2829,39.25262-4.18746C1927.58545,675.94347,1925.7171,687.08592,1924.87766,692.64955Z"/><path class="cls-5" d="M1924.29651,949.34521v109.77q-610.57507-12.705-1221.15009-25.41992c-195.14328,44.56018-720.59815,155.52149-769.971,36.1593C-109.9983,965.47937,202.29794,664.28149,565.98492,615.02277c100.74262-13.64484,179.1897-4.4043,223.17835,1.41253C982.27936,641.972,1356.69348,713.31763,1924.29651,949.34521Z"/><path class="cls-6" d="M1924.13977,1086.63794q-972.17559-1.329-1944.35118-2.65808c8.65575-18.76355,17.93906-46.96692,6.5351-71.20288-12.4694-26.50025-41.8255-34.65595-40.43561-38.97382,2.75488-8.55841,117.65127,27.92249,198.32669,42.57764,259.89479,47.21124,510.98555-69.17029,699.95466-68.09308,4.6659.02661,21.75672.16009,45.31873-.18408,86.62653-1.26532,149.64587-7.44916,185.20764-10.67273,79.386-7.19605,149.6615-13.56629,236.84973-15.03809,69.25745-1.16913,136.77417-2.46252,223.69141,7.519,141.44995,16.24414,173.55945,43.57952,269.52917,38.24121,73.64112-4.09626,132.76392-24.53186,170.915-40.96308Q1949.91052,1006.91394,1924.13977,1086.63794Z"/></g></g></svg>
