<svg id="Layer_1" data-name="Layer 1" xmlns="http://www.w3.org/2000/svg" viewBox="0 0 435.17194 470.60325"><defs><style>.cls-1{fill:#b5144f;}.cls-2{fill:#e72175;}.cls-3{fill:#e72375;}.cls-4,.cls-5{fill:#fff;}.cls-5{stroke:#fff;stroke-miterlimit:10;}.cls-6{fill:#1d1d1b;}</style></defs><path class="cls-1" d="M22.34218,158.25357C40.38878,92.01261,100.23733,30.85063,176.9765,12.0057c8.45441-2.07616,109.87811-25.40761,176.03305,35.53719C385.628,77.5924,397.878,117.26494,410.03433,156.63379c8.71887,28.23653,13.10529,54.47026,16.52893,99.17356,7.40918,96.744,4.82092,208.3312-6.61157,209.09091-12.20838.81128-22.93329-125.52646-46.28095-125.61985-19.67956-.07873-29.1344,89.61145-49.58679,89.2562-21.3215-.37036-31.29715-98.19669-47.9339-97.52066-16.35238.66449-19.87271,95.70965-37.19006,96.69421-18.16171,1.03257-30.65213-102.5765-52.89258-102.47934-22.04565.09632-31.873,101.99478-51.23965,101.6529-19.45124-.34339-20.93155-114.703-44.62812-117.35535C61.91034,306.35993,25.171,464.58222,14.80256,462.10691c-7.00968-1.67347,13.83333-73.02326,12.13-176.99338C25.60954,204.355,11.82066,196.87332,22.34218,158.25357Z"/><path class="cls-1" d="M419.83591,465.40229c-5.23829,0-9.53614-18.36036-16.07715-48.1709-7.56739-34.4834-16.98438-77.40039-30.08985-77.45313h-.02343c-9.36036,0-16.6836,22.19824-23.76563,43.66895-7.7334,23.44043-15.041,45.58593-25.6709,45.58789-.04492,0-.08887,0-.13379-.001-11.64258-.20215-19.6748-27.415-27.4414-53.73144-6.35547-21.53125-12.92578-43.793-20.31348-43.793-.05078,0-.09961.001-.14941.0039-7.67871.31153-12.70118,23.97754-17.55957,46.86328-5.38184,25.3584-10.4668,49.30958-19.62305,49.83008-9.07178.51856-16.44824-22.87988-24.28467-47.64648-8.13232-25.70215-17.34912-54.832-28.606-54.832h-.02832c-10.99072.04785-19.05322,26.957-26.85009,52.97949-7.499,25.02734-14.585,48.67187-24.29493,48.6748-.03564,0-.06982,0-.10546-.001-9.69532-.17188-14.91211-26.48535-20.43506-54.34375-5.731-28.90723-12.22657-61.66992-24.23975-63.01465-17.06689-1.91211-38.06641,58.54785-53.38476,102.69336-11.61231,33.46582-17.86963,50.88183-22.07276,49.87695-3.248-.77539-1.8042-11.08789,1.35938-33.68164,4.2666-30.47363,11.40771-81.47754,10.38671-143.791a531.22011,531.22011,0,0,0-5.897-73.21192c-2.84521-20.06738-4.5625-32.18017,1.32422-53.78711C40.81491,88.54633,103.10348,29.63178,176.85739,11.52045a250.77148,250.77148,0,0,1,66.52-5.87842c45.21533,1.98877,82.21435,15.96289,109.97119,41.5332,32.7168,30.14014,45.14453,70.3877,57.16309,109.31006,8.78418,28.44825,13.11523,54.4292,16.5498,99.28418,7.19727,93.97266,4.72266,197.21289-4.99512,208.42774a3.06735,3.06735,0,0,1-2.08105,1.20019C419.93551,465.40033,419.88571,465.40229,419.83591,465.40229Zm-46.19141-126.624h.02832c13.90625.05567,23.02148,41.59278,31.0625,78.23926,5.11328,23.29785,10.39844,47.38477,15.09277,47.38477q.04542,0,.09082-.00293a2.13,2.13,0,0,0,1.3916-.85645c9.58008-11.05664,11.93555-113.93457,4.75391-207.69727-3.42871-44.77246-7.749-70.6958-16.50781-99.06445-11.97949-38.79639-24.36719-78.9126-56.88574-108.8706-27.57813-25.40625-64.36426-39.291-109.33741-41.26954a249.77623,249.77623,0,0,0-66.23779,5.8501C103.68356,30.519,41.687,89.14936,22.82467,158.38471l-.48242-.13135.48242.13135c-5.83251,21.4082-4.126,33.44384-1.29882,53.38427a532.14133,532.14133,0,0,1,5.90673,73.33643c1.022,62.39063-6.126,113.44238-10.39648,143.94531-2.60156,18.58106-4.481,32.00586-2.11719,32.57032a.74039.74039,0,0,0,.17432.0205c3.62988.00293,12.31592-25.03125,20.72119-49.25293,16.28906-46.94238,36.585-105.33886,54.44092-103.35937,12.74023,1.42578,19.02832,33.14258,25.10937,63.81445,5.20264,26.24317,10.583,53.38086,19.47168,53.53809.02881.001.0586.001.08741.001,8.96777,0,16.27148-24.37988,23.3374-47.96191,7.90137-26.37109,16.07226-53.64062,27.8042-53.69238h.0332c11.98877,0,20.92041,28.22949,29.55859,55.53027,7.30518,23.08887,14.85743,46.957,23.03565,46.957.07959,0,.15869-.00293.23877-.00683,8.39355-.47754,13.63379-25.165,18.70215-49.04,5.16406-24.33008,10.042-47.31055,18.49609-47.65528.06543-.002.13086-.0039.19629-.0039,8.12988,0,14.22168,20.64062,21.2666,44.50976,7.30762,24.76075,15.59082,52.8252,26.5,53.01465.03711.001.0752.001.11231.001,9.91211,0,17.4414-22.82422,24.72461-44.90137C356.45407,360.32514,363.56344,338.77826,373.6445,338.77826Z"/><path class="cls-2" d="M13.76175,157.38033C31.80835,91.13936,91.6569,29.97739,168.39607,11.13245c8.45441-2.07615,109.87811-25.4076,176.03305,35.5372,32.61841,30.04951,44.86847,69.72205,57.02478,109.0909,8.71887,28.23653,13.10529,54.47026,16.52893,99.17355,7.40918,96.744,4.82093,208.33121-6.61157,209.09092-12.20837.81127-22.93329-125.52646-46.28094-125.61985-19.67957-.07873-29.1344,89.61145-49.5868,89.2562-21.3215-.37036-31.29715-98.19669-47.9339-97.52066-16.35238.66449-19.87271,95.70965-37.19006,96.69421-18.16171,1.03256-30.65213-102.57651-52.89258-102.47934-22.04565.09632-31.87295,101.99478-51.23965,101.65289-19.45123-.34338-20.93155-114.703-44.62811-117.35534C53.32991,305.48669,16.59056,463.709,6.22214,461.23366c-7.00969-1.67346,13.83332-73.02325,12.13-176.99337C17.02911,203.48174,3.24023,196.00008,13.76175,157.38033Z"/><path class="cls-3" d="M411.25548,464.529c-5.23828,0-9.53614-18.36035-16.07715-48.17089-7.56738-34.4834-16.98438-77.4004-30.08985-77.45313h-.02343c-9.36035,0-16.6836,22.19824-23.76563,43.66895-7.7334,23.44043-15.041,45.58593-25.6709,45.58789-.04492,0-.08886,0-.1338-.001-11.64256-.20215-19.67479-27.415-27.44139-53.73145-6.35547-21.53125-12.92578-43.793-20.31348-43.793-.05078,0-.09961.001-.14941.0039-7.67871.31153-12.70117,23.97754-17.55957,46.86328-5.38184,25.3584-10.4668,49.30957-19.62305,49.83008-9.07178.51856-16.44824-22.87988-24.28467-47.64648-8.13232-25.70215-17.34912-54.832-28.606-54.832h-.02833c-10.99072.04785-19.05322,26.957-26.85009,52.97949-7.499,25.02734-14.585,48.67187-24.29492,48.6748-.03565,0-.06983,0-.10547-.001-9.69532-.17188-14.91211-26.48536-20.43506-54.34375-5.731-28.90723-12.22656-61.66993-24.23975-63.01465C64.49669,307.238,43.49718,367.698,28.17882,411.8435c-11.61231,33.46582-17.86963,50.88183-22.07276,49.877-3.248-.77539-1.8042-11.08789,1.35938-33.68164,4.2666-30.47363,11.40771-81.47754,10.38672-143.791a531.22128,531.22128,0,0,0-5.897-73.21191C9.11,190.9685,7.39268,178.8557,13.2794,157.24877,32.23448,87.67309,94.52305,28.75854,168.277,10.64721a250.77148,250.77148,0,0,1,66.52-5.87842c45.21533,1.98877,82.21436,15.96289,109.97119,41.5332,32.7168,30.14014,45.14453,70.3877,57.16309,109.31006,8.78418,28.44824,13.11523,54.4292,16.5498,99.28418,7.19727,93.97266,4.72266,197.21289-4.99511,208.42774a3.06739,3.06739,0,0,1-2.08106,1.20019C411.35509,464.52709,411.30528,464.529,411.25548,464.529ZM365.06407,337.905h.02832c13.90625.05566,23.02148,41.59277,31.0625,78.23926,5.11328,23.29785,10.39844,47.38476,15.09277,47.38476q.04542,0,.09082-.00293a2.13,2.13,0,0,0,1.39161-.85644c9.58007-11.05664,11.93554-113.93457,4.7539-207.69727-3.42871-44.77246-7.749-70.6958-16.50781-99.06445-11.97949-38.79639-24.36719-78.9126-56.88574-108.87061C316.51231,21.63109,279.72618,7.74633,234.753,5.76781a249.77627,249.77627,0,0,0-66.2378,5.8501C95.10313,29.64574,33.10655,88.27611,14.24425,157.51147l-.48243-.13135.48243.13135c-5.83252,21.4082-4.126,33.44384-1.29883,53.38427a532.1409,532.1409,0,0,1,5.90674,73.33643c1.022,62.39062-6.126,113.44238-10.39649,143.94531-2.60156,18.58106-4.481,32.00586-2.11719,32.57031a.73987.73987,0,0,0,.17432.02051c3.62988.00293,12.31592-25.03125,20.72119-49.25293C43.52305,364.573,63.819,306.1765,81.67491,308.156c12.74023,1.42578,19.02832,33.14257,25.10938,63.81445,5.20263,26.24316,10.583,53.38086,19.47167,53.53809.02881.001.0586.001.08741.001,8.96777,0,16.27148-24.37988,23.3374-47.96191,7.90137-26.3711,16.07227-53.64063,27.8042-53.69238h.0332c11.98877,0,20.92041,28.22949,29.5586,55.53027,7.30517,23.08887,14.85742,46.957,23.03564,46.957.07959,0,.15869-.00293.23877-.00684,8.39354-.47753,13.63379-25.165,18.70215-49.04,5.16406-24.33008,10.042-47.31055,18.49609-47.65528.06543-.002.13086-.0039.19629-.0039,8.12988,0,14.22168,20.64062,21.2666,44.50976,7.30762,24.76074,15.59082,52.8252,26.5,53.01465.03711.001.0752.001.11231.001,9.91211,0,17.4414-22.82422,24.72461-44.90137C347.87364,359.4519,354.983,337.905,365.06407,337.905Z"/><ellipse class="cls-1" cx="202.37994" cy="106.88734" rx="28.5124" ry="41.32231"/><path class="cls-1" d="M202.38027,149.2098c-16.27344,0-29.5127-18.98584-29.5127-42.32226s13.23926-42.32227,29.5127-42.32227c16.27246,0,29.51172,18.98584,29.51172,42.32227S218.65273,149.2098,202.38027,149.2098Zm0-82.64453c-15.1709,0-27.5127,18.08838-27.5127,40.32227s12.3418,40.32226,27.5127,40.32226c15.16992,0,27.51172-18.08838,27.51172-40.32226S217.55019,66.56527,202.38027,66.56527Z"/><ellipse class="cls-4" cx="197.73492" cy="107.82667" rx="28.5124" ry="41.32231"/><path class="cls-4" d="M197.735,150.14916c-16.273,0-29.51221-18.98584-29.51221-42.32226,0-23.33692,13.23926-42.32276,29.51221-42.32276S227.24718,84.49,227.24718,107.8269C227.24718,131.16332,214.00792,150.14916,197.735,150.14916Zm0-82.645c-15.17041,0-27.51221,18.08887-27.51221,40.32276s12.3418,40.32226,27.51221,40.32226,27.51221-18.08838,27.51221-40.32226S212.90538,67.50414,197.735,67.50414Z"/><ellipse class="cls-1" cx="303.37994" cy="101.88734" rx="28.5124" ry="41.32231"/><path class="cls-1" d="M303.38027,144.2098c-16.27344,0-29.5127-18.98584-29.5127-42.32226s13.23926-42.32227,29.5127-42.32227c16.27246,0,29.51172,18.98584,29.51172,42.32227S319.65273,144.2098,303.38027,144.2098Zm0-82.64453c-15.1709,0-27.5127,18.08838-27.5127,40.32227s12.3418,40.32226,27.5127,40.32226c15.16992,0,27.51172-18.08838,27.51172-40.32226S318.55019,61.56527,303.38027,61.56527Z"/><ellipse class="cls-5" cx="296.90847" cy="102.04155" rx="28.5124" ry="41.32231"/><path class="cls-5" d="M296.9088,144.364c-16.27344,0-29.5127-18.98584-29.5127-42.32226s13.23926-42.32227,29.5127-42.32227c16.27246,0,29.51172,18.98584,29.51172,42.32227S313.18126,144.364,296.9088,144.364Zm0-82.64453c-15.1709,0-27.5127,18.08838-27.5127,40.32227S281.7379,142.364,296.9088,142.364c15.16992,0,27.51172-18.08837,27.51172-40.32226S312.07872,61.71947,296.9088,61.71947Z"/><ellipse cx="210.62661" cy="110.91727" rx="15.62071" ry="18.28941"/><path class="cls-6" d="M210.62657,129.70678c-8.88916,0-16.12061-8.4292-16.12061-18.78955s7.23145-18.78955,16.12061-18.78955,16.12061,8.4292,16.12061,18.78955S219.51573,129.70678,210.62657,129.70678Zm0-36.5791c-8.3374,0-15.12061,7.98047-15.12061,17.78955s6.78321,17.78955,15.12061,17.78955,15.12061-7.98047,15.12061-17.78955S218.964,93.12768,210.62657,93.12768Z"/><ellipse cx="299.90847" cy="124.07445" rx="15.62071" ry="18.28941"/><path class="cls-6" d="M299.9088,142.864c-8.88965,0-16.1211-8.42919-16.1211-18.78955s7.23145-18.78955,16.1211-18.78955c8.88867,0,16.12011,8.4292,16.12011,18.78955S308.79747,142.864,299.9088,142.864Zm0-36.5791c-8.33789,0-15.1211,7.98047-15.1211,17.78955s6.78321,17.78955,15.1211,17.78955c8.33691,0,15.12011-7.98046,15.12011-17.78955S308.24571,106.2849,299.9088,106.2849Z"/></svg>
