<svg id="Layer_1" data-name="Layer 1" xmlns="http://www.w3.org/2000/svg" xmlns:xlink="http://www.w3.org/1999/xlink" width="160" height="160" viewBox="0 0 160 160"><defs><style>.cls-1,.cls-2,.cls-3,.cls-4,.cls-5,.cls-6,.cls-7,.cls-8,.cls-9{fill:#263677;stroke-miterlimit:10;}.cls-1,.cls-2{stroke-width:4px;}.cls-1{stroke:url(#linear-gradient);}.cls-2{stroke:url(#linear-gradient-2);}.cls-3,.cls-4,.cls-5,.cls-6,.cls-7,.cls-8,.cls-9{stroke-width:2px;}.cls-3{stroke:url(#linear-gradient-3);}.cls-4{stroke:url(#linear-gradient-4);}.cls-5{stroke:url(#linear-gradient-5);}.cls-6{stroke:url(#linear-gradient-6);}.cls-7{stroke:url(#linear-gradient-7);}.cls-8{stroke:url(#linear-gradient-8);}.cls-9{stroke:url(#linear-gradient-9);}</style><linearGradient id="linear-gradient" x1="1.62" y1="79.42" x2="158.31" y2="79.42" gradientUnits="userSpaceOnUse"><stop offset="0" stop-color="#240533" stop-opacity="0.98"/><stop offset="0.02" stop-color="#270534" stop-opacity="0.98"/><stop offset="1" stop-color="#e20056" stop-opacity="0.7"/></linearGradient><linearGradient id="linear-gradient-2" x1="5.03" y1="78.77" x2="153.34" y2="78.77" gradientUnits="userSpaceOnUse"><stop offset="0" stop-color="#240533" stop-opacity="0.98"/><stop offset="1" stop-color="#d50362" stop-opacity="0.7"/></linearGradient><linearGradient id="linear-gradient-3" x1="76.78" y1="18.04" x2="83.33" y2="18.04" xlink:href="#linear-gradient-2"/><linearGradient id="linear-gradient-4" x1="71.93" y1="79.56" x2="87.95" y2="79.56" xlink:href="#linear-gradient-2"/><linearGradient id="linear-gradient-5" x1="86.7" y1="47.19" x2="123.47" y2="47.19" gradientUnits="userSpaceOnUse"><stop offset="0" stop-color="#240533" stop-opacity="0.98"/><stop offset="0.4" stop-color="#d50362" stop-opacity="0.7"/></linearGradient><linearGradient id="linear-gradient-6" x1="77.05" y1="139.41" x2="83.61" y2="139.41" xlink:href="#linear-gradient-2"/><linearGradient id="linear-gradient-7" x1="131.43" y1="79.41" x2="149.22" y2="79.41" gradientTransform="translate(60.92 219.73) rotate(-90)" xlink:href="#linear-gradient-2"/><linearGradient id="linear-gradient-8" x1="9.43" y1="80.41" x2="27.22" y2="80.41" gradientTransform="translate(98.73 62.08) rotate(90)" xlink:href="#linear-gradient-2"/><linearGradient id="linear-gradient-9" x1="35.22" y1="27.53" x2="60.17" y2="27.53" gradientTransform="matrix(0.94, -0.08, -0.08, 0.88, 55.89, 79.09)" gradientUnits="userSpaceOnUse"><stop offset="0" stop-color="#240533" stop-opacity="0.98"/><stop offset="0.44" stop-color="#cc0761" stop-opacity="0.71"/><stop offset="1" stop-color="#d50362" stop-opacity="0.7"/></linearGradient></defs><path class="cls-1" d="M80,3.07a76.35,76.35,0,1,0,76.35,76.34A76.34,76.34,0,0,0,80,3.07Zm.23,148.85a72.15,72.15,0,1,1,72.15-72.15A72.16,72.16,0,0,1,80.19,151.92Z"/><path class="cls-2" d="M151.34,78.77A72.16,72.16,0,1,1,79.19,6.62,72.15,72.15,0,0,1,151.34,78.77Z"/><rect class="cls-3" x="77.78" y="10.14" width="4.56" height="15.79" rx="2.28"/><circle class="cls-4" cx="79.94" cy="79.56" r="7.01"/><path class="cls-5" d="M87.74,68.63c-.55-.24,4.86-12.25,11.09-21.36.67-1,3.41-4.9,5.64-4.37,1.39.33,1.91,2.24,3.06,2.1,1-.12,1.08-1.65,2.07-2.79,2.73-3.15,10.05-.79,10.23-1.54.11-.5-3.27-1-5.81-3.77a7.58,7.58,0,0,1-2.28-5c0-3.7,3.68-6.47,4.13-6.17s-2.69,3.48-1.74,7a8.53,8.53,0,0,0,4.1,4.87c1.88,1,3.37.81,4,2.06a2.75,2.75,0,0,1-.22,2.73c-1.88,2.41-8.28-1.09-10.55,1.62-.34.4-.38.69-1.3,2-1.14,1.57-1.72,2.35-2.39,2.43-1.22.15-1.58-1.66-3.1-2-1.85-.44-3.84,1.65-5.28,3.19-1.27,1.36-2,2.44-4.63,7.12-2,3.47-2.82,5-4.42,7.72A37.36,37.36,0,0,1,87.74,68.63Z"/><rect class="cls-6" x="78.05" y="131.51" width="4.56" height="15.79" rx="2.28"/><rect class="cls-7" x="138.05" y="71.51" width="4.56" height="15.79" rx="2.28" transform="translate(219.73 -60.92) rotate(90)"/><rect class="cls-8" x="16.05" y="72.51" width="4.56" height="15.79" rx="2.28" transform="translate(-62.08 98.73) rotate(-90)"/><path class="cls-9" d="M88.82,88.49c.42-.4,7,2.8,11.09,6.74.44.43,2.17,2.16.78,3.77-.86,1-2.52,1.47-2.91,2.27s.75.68,1.17,1.32c1.16,1.77-3.84,7.08-3.35,7.16.33.06,2.16-2.36,5.38-4.31a12.27,12.27,0,0,1,4.71-1.87c2.76-.19,3.21,2.27,2.79,2.61s-1.42-1.72-4.49-.87a15.83,15.83,0,0,0-5.44,3.16c-1.59,1.38-2.1,2.43-3.3,2.93-.71.29-1.62.37-1.94,0-1-1.21,4.46-5.92,3.43-7.39-.15-.22-.35-.23-.89-.82s-1-1.09-.76-1.56c.42-.86,1.93-1.21,2.87-2.3,1.14-1.33.46-2.63-.06-3.57s-1-1.27-3.29-2.91c-1.72-1.22-2.5-1.74-3.82-2.73A10.46,10.46,0,0,1,88.82,88.49Z"/></svg>
